%TF.GenerationSoftware,KiCad,Pcbnew,7.0.8*%
%TF.CreationDate,2023-10-15T14:41:30-04:00*%
%TF.ProjectId,watch,77617463-682e-46b6-9963-61645f706362,rev?*%
%TF.SameCoordinates,Original*%
%TF.FileFunction,Copper,L1,Top*%
%TF.FilePolarity,Positive*%
%FSLAX45Y45*%
G04 Gerber Fmt 4.5, Leading zero omitted, Abs format (unit mm)*
G04 Created by KiCad (PCBNEW 7.0.8) date 2023-10-15 14:41:30*
%MOMM*%
%LPD*%
G01*
G04 APERTURE LIST*
G04 Aperture macros list*
%AMRoundRect*
0 Rectangle with rounded corners*
0 $1 Rounding radius*
0 $2 $3 $4 $5 $6 $7 $8 $9 X,Y pos of 4 corners*
0 Add a 4 corners polygon primitive as box body*
4,1,4,$2,$3,$4,$5,$6,$7,$8,$9,$2,$3,0*
0 Add four circle primitives for the rounded corners*
1,1,$1+$1,$2,$3*
1,1,$1+$1,$4,$5*
1,1,$1+$1,$6,$7*
1,1,$1+$1,$8,$9*
0 Add four rect primitives between the rounded corners*
20,1,$1+$1,$2,$3,$4,$5,0*
20,1,$1+$1,$4,$5,$6,$7,0*
20,1,$1+$1,$6,$7,$8,$9,0*
20,1,$1+$1,$8,$9,$2,$3,0*%
G04 Aperture macros list end*
%TA.AperFunction,SMDPad,CuDef*%
%ADD10RoundRect,0.147500X-0.226254X0.017937X-0.052857X-0.220723X0.226254X-0.017937X0.052857X0.220723X0*%
%TD*%
%TA.AperFunction,SMDPad,CuDef*%
%ADD11RoundRect,0.147500X-0.032108X-0.224681X0.216968X-0.066612X0.032108X0.224681X-0.216968X0.066612X0*%
%TD*%
%TA.AperFunction,SMDPad,CuDef*%
%ADD12RoundRect,0.147500X-0.060015X-0.218885X0.206909X-0.093280X0.060015X0.218885X-0.206909X0.093280X0*%
%TD*%
%TA.AperFunction,SMDPad,CuDef*%
%ADD13RoundRect,0.147500X-0.136378X-0.181421X0.158040X-0.162898X0.136378X0.181421X-0.158040X0.162898X0*%
%TD*%
%TA.AperFunction,SMDPad,CuDef*%
%ADD14RoundRect,0.147500X-0.172500X0.147500X-0.172500X-0.147500X0.172500X-0.147500X0.172500X0.147500X0*%
%TD*%
%TA.AperFunction,SMDPad,CuDef*%
%ADD15RoundRect,0.135000X0.071224X0.217663X-0.185561X0.134228X-0.071224X-0.217663X0.185561X-0.134228X0*%
%TD*%
%TA.AperFunction,SMDPad,CuDef*%
%ADD16RoundRect,0.062500X0.062500X-0.375000X0.062500X0.375000X-0.062500X0.375000X-0.062500X-0.375000X0*%
%TD*%
%TA.AperFunction,SMDPad,CuDef*%
%ADD17RoundRect,0.062500X0.375000X-0.062500X0.375000X0.062500X-0.375000X0.062500X-0.375000X-0.062500X0*%
%TD*%
%TA.AperFunction,SMDPad,CuDef*%
%ADD18R,3.500000X3.500000*%
%TD*%
%TA.AperFunction,SMDPad,CuDef*%
%ADD19RoundRect,0.135000X-0.185561X-0.134228X0.071224X-0.217663X0.185561X0.134228X-0.071224X0.217663X0*%
%TD*%
%TA.AperFunction,SMDPad,CuDef*%
%ADD20RoundRect,0.147500X-0.097828X-0.204798X0.187120X-0.128446X0.097828X0.204798X-0.187120X0.128446X0*%
%TD*%
%TA.AperFunction,SMDPad,CuDef*%
%ADD21RoundRect,0.147500X0.130399X-0.185765X0.203762X0.099967X-0.130399X0.185765X-0.203762X-0.099967X0*%
%TD*%
%TA.AperFunction,SMDPad,CuDef*%
%ADD22RoundRect,0.147500X-0.106088X0.200644X-0.214685X-0.073641X0.106088X-0.200644X0.214685X0.073641X0*%
%TD*%
%TA.AperFunction,SMDPad,CuDef*%
%ADD23RoundRect,0.147500X0.136378X0.181421X-0.158040X0.162898X-0.136378X-0.181421X0.158040X-0.162898X0*%
%TD*%
%TA.AperFunction,SMDPad,CuDef*%
%ADD24RoundRect,0.147500X0.041489X0.223139X-0.213989X0.075639X-0.041489X-0.223139X0.213989X-0.075639X0*%
%TD*%
%TA.AperFunction,SMDPad,CuDef*%
%ADD25RoundRect,0.147500X0.203762X-0.099967X0.130399X0.185765X-0.203762X0.099967X-0.130399X-0.185765X0*%
%TD*%
%TA.AperFunction,SMDPad,CuDef*%
%ADD26RoundRect,0.147500X0.193586X0.118477X-0.086975X0.209637X-0.193586X-0.118477X0.086975X-0.209637X0*%
%TD*%
%TA.AperFunction,SMDPad,CuDef*%
%ADD27RoundRect,0.147500X-0.080104X0.212358X-0.222222X-0.046153X0.080104X-0.212358X0.222222X0.046153X0*%
%TD*%
%TA.AperFunction,SMDPad,CuDef*%
%ADD28RoundRect,0.147500X-0.086975X-0.209637X0.193586X-0.118477X0.086975X0.209637X-0.193586X0.118477X0*%
%TD*%
%TA.AperFunction,SMDPad,CuDef*%
%ADD29RoundRect,0.147500X0.172500X-0.147500X0.172500X0.147500X-0.172500X0.147500X-0.172500X-0.147500X0*%
%TD*%
%TA.AperFunction,SMDPad,CuDef*%
%ADD30RoundRect,0.147500X0.158040X0.162898X-0.136378X0.181421X-0.158040X-0.162898X0.136378X-0.181421X0*%
%TD*%
%TA.AperFunction,SMDPad,CuDef*%
%ADD31RoundRect,0.147500X0.152653X-0.167957X0.189626X0.124717X-0.152653X0.167957X-0.189626X-0.124717X0*%
%TD*%
%TA.AperFunction,SMDPad,CuDef*%
%ADD32RoundRect,0.147500X-0.226718X-0.010562X-0.024776X-0.225607X0.226718X0.010562X0.024776X0.225607X0*%
%TD*%
%TA.AperFunction,SMDPad,CuDef*%
%ADD33RoundRect,0.147500X-0.041489X-0.223139X0.213989X-0.075639X0.041489X0.223139X-0.213989X0.075639X0*%
%TD*%
%TA.AperFunction,SMDPad,CuDef*%
%ADD34RoundRect,0.147500X0.177211X0.141806X-0.112564X0.197083X-0.177211X-0.141806X0.112564X-0.197083X0*%
%TD*%
%TA.AperFunction,SMDPad,CuDef*%
%ADD35RoundRect,0.147500X0.112564X0.197083X-0.177211X0.141806X-0.112564X-0.197083X0.177211X-0.141806X0*%
%TD*%
%TA.AperFunction,SMDPad,CuDef*%
%ADD36RoundRect,0.147500X0.003695X0.226934X-0.223606X0.038893X-0.003695X-0.226934X0.223606X-0.038893X0*%
%TD*%
%TA.AperFunction,SMDPad,CuDef*%
%ADD37RoundRect,0.147500X-0.189626X0.124717X-0.152653X-0.167957X0.189626X-0.124717X0.152653X0.167957X0*%
%TD*%
%TA.AperFunction,SMDPad,CuDef*%
%ADD38RoundRect,0.147500X0.223139X-0.041489X0.075639X0.213989X-0.223139X0.041489X-0.075639X-0.213989X0*%
%TD*%
%TA.AperFunction,SMDPad,CuDef*%
%ADD39RoundRect,0.147500X0.222222X-0.046153X0.080104X0.212358X-0.222222X0.046153X-0.080104X-0.212358X0*%
%TD*%
%TA.AperFunction,SMDPad,CuDef*%
%ADD40RoundRect,0.147500X0.032108X0.224681X-0.216968X0.066612X-0.032108X-0.224681X0.216968X-0.066612X0*%
%TD*%
%TA.AperFunction,SMDPad,CuDef*%
%ADD41RoundRect,0.147500X-0.112564X-0.197083X0.177211X-0.141806X0.112564X0.197083X-0.177211X0.141806X0*%
%TD*%
%TA.AperFunction,SMDPad,CuDef*%
%ADD42RoundRect,0.147500X0.204798X-0.097828X0.128446X0.187120X-0.204798X0.097828X-0.128446X-0.187120X0*%
%TD*%
%TA.AperFunction,SMDPad,CuDef*%
%ADD43RoundRect,0.147500X-0.003695X-0.226934X0.223606X-0.038893X0.003695X0.226934X-0.223606X0.038893X0*%
%TD*%
%TA.AperFunction,SMDPad,CuDef*%
%ADD44RoundRect,0.147500X-0.223606X-0.038893X0.003695X-0.226934X0.223606X0.038893X-0.003695X0.226934X0*%
%TD*%
%TA.AperFunction,SMDPad,CuDef*%
%ADD45RoundRect,0.147500X-0.204798X0.097828X-0.128446X-0.187120X0.204798X-0.097828X0.128446X0.187120X0*%
%TD*%
%TA.AperFunction,SMDPad,CuDef*%
%ADD46RoundRect,0.147500X0.187120X0.128446X-0.097828X0.204798X-0.187120X-0.128446X0.097828X-0.204798X0*%
%TD*%
%TA.AperFunction,SMDPad,CuDef*%
%ADD47RoundRect,0.147500X0.097828X0.204798X-0.187120X0.128446X-0.097828X-0.204798X0.187120X-0.128446X0*%
%TD*%
%TA.AperFunction,SMDPad,CuDef*%
%ADD48RoundRect,0.147500X-0.177211X-0.141806X0.112564X-0.197083X0.177211X0.141806X-0.112564X0.197083X0*%
%TD*%
%TA.AperFunction,SMDPad,CuDef*%
%ADD49RoundRect,0.147500X-0.226274X-0.017678X-0.017678X-0.226274X0.226274X0.017678X0.017678X0.226274X0*%
%TD*%
%TA.AperFunction,SMDPad,CuDef*%
%ADD50RoundRect,0.147500X0.223606X0.038893X-0.003695X0.226934X-0.223606X-0.038893X0.003695X-0.226934X0*%
%TD*%
%TA.AperFunction,SMDPad,CuDef*%
%ADD51RoundRect,0.147500X0.052857X-0.220723X0.226254X0.017937X-0.052857X0.220723X-0.226254X-0.017937X0*%
%TD*%
%TA.AperFunction,SMDPad,CuDef*%
%ADD52RoundRect,0.147500X-0.052857X0.220723X-0.226254X-0.017937X0.052857X-0.220723X0.226254X0.017937X0*%
%TD*%
%TA.AperFunction,SMDPad,CuDef*%
%ADD53RoundRect,0.147500X-0.075639X0.213989X-0.223139X-0.041489X0.075639X-0.213989X0.223139X0.041489X0*%
%TD*%
%TA.AperFunction,SMDPad,CuDef*%
%ADD54RoundRect,0.147500X0.213989X0.075639X-0.041489X0.223139X-0.213989X-0.075639X0.041489X-0.223139X0*%
%TD*%
%TA.AperFunction,SMDPad,CuDef*%
%ADD55RoundRect,0.147500X0.214685X-0.073641X0.106088X0.200644X-0.214685X0.073641X-0.106088X-0.200644X0*%
%TD*%
%TA.AperFunction,SMDPad,CuDef*%
%ADD56RoundRect,0.147500X0.017678X-0.226274X0.226274X-0.017678X-0.017678X0.226274X-0.226274X0.017678X0*%
%TD*%
%TA.AperFunction,SMDPad,CuDef*%
%ADD57RoundRect,0.147500X-0.213989X-0.075639X0.041489X-0.223139X0.213989X0.075639X-0.041489X0.223139X0*%
%TD*%
%TA.AperFunction,SMDPad,CuDef*%
%ADD58RoundRect,0.147500X-0.024776X0.225607X-0.226718X0.010562X0.024776X-0.225607X0.226718X-0.010562X0*%
%TD*%
%TA.AperFunction,SMDPad,CuDef*%
%ADD59RoundRect,0.135000X-0.135000X-0.185000X0.135000X-0.185000X0.135000X0.185000X-0.135000X0.185000X0*%
%TD*%
%TA.AperFunction,SMDPad,CuDef*%
%ADD60RoundRect,0.147500X-0.017678X0.226274X-0.226274X0.017678X0.017678X-0.226274X0.226274X-0.017678X0*%
%TD*%
%TA.AperFunction,SMDPad,CuDef*%
%ADD61RoundRect,0.147500X0.080104X-0.212358X0.222222X0.046153X-0.080104X0.212358X-0.222222X-0.046153X0*%
%TD*%
%TA.AperFunction,SMDPad,CuDef*%
%ADD62RoundRect,0.135000X0.070317X-0.217958X0.229019X0.000477X-0.070317X0.217958X-0.229019X-0.000477X0*%
%TD*%
%TA.AperFunction,SMDPad,CuDef*%
%ADD63RoundRect,0.147500X0.060015X0.218885X-0.206909X0.093280X-0.060015X-0.218885X0.206909X-0.093280X0*%
%TD*%
%TA.AperFunction,SMDPad,CuDef*%
%ADD64RoundRect,0.147500X-0.222222X0.046153X-0.080104X-0.212358X0.222222X-0.046153X0.080104X0.212358X0*%
%TD*%
%TA.AperFunction,SMDPad,CuDef*%
%ADD65RoundRect,0.147500X0.226274X0.017678X0.017678X0.226274X-0.226274X-0.017678X-0.017678X-0.226274X0*%
%TD*%
%TA.AperFunction,SMDPad,CuDef*%
%ADD66RoundRect,0.147500X-0.214685X0.073641X-0.106088X-0.200644X0.214685X-0.073641X0.106088X0.200644X0*%
%TD*%
%TA.AperFunction,SMDPad,CuDef*%
%ADD67RoundRect,0.147500X-0.193586X-0.118477X0.086975X-0.209637X0.193586X0.118477X-0.086975X0.209637X0*%
%TD*%
%TA.AperFunction,SMDPad,CuDef*%
%ADD68RoundRect,0.147500X-0.128446X0.187120X-0.204798X-0.097828X0.128446X-0.187120X0.204798X0.097828X0*%
%TD*%
%TA.AperFunction,SMDPad,CuDef*%
%ADD69RoundRect,0.147500X-0.216968X-0.066612X0.032108X-0.224681X0.216968X0.066612X-0.032108X0.224681X0*%
%TD*%
%TA.AperFunction,SMDPad,CuDef*%
%ADD70RoundRect,0.147500X-0.158040X-0.162898X0.136378X-0.181421X0.158040X0.162898X-0.136378X0.181421X0*%
%TD*%
%TA.AperFunction,SMDPad,CuDef*%
%ADD71RoundRect,0.135000X0.229019X-0.000477X0.070317X0.217958X-0.229019X0.000477X-0.070317X-0.217958X0*%
%TD*%
%TA.AperFunction,SMDPad,CuDef*%
%ADD72RoundRect,0.147500X0.086975X0.209637X-0.193586X0.118477X-0.086975X-0.209637X0.193586X-0.118477X0*%
%TD*%
%TA.AperFunction,SMDPad,CuDef*%
%ADD73RoundRect,0.147500X-0.152653X0.167957X-0.189626X-0.124717X0.152653X-0.167957X0.189626X0.124717X0*%
%TD*%
%TA.AperFunction,SMDPad,CuDef*%
%ADD74RoundRect,0.147500X0.206909X0.093280X-0.060015X0.218885X-0.206909X-0.093280X0.060015X-0.218885X0*%
%TD*%
%TA.AperFunction,SMDPad,CuDef*%
%ADD75RoundRect,0.147500X-0.147500X-0.172500X0.147500X-0.172500X0.147500X0.172500X-0.147500X0.172500X0*%
%TD*%
%TA.AperFunction,SMDPad,CuDef*%
%ADD76RoundRect,0.147500X-0.203762X0.099967X-0.130399X-0.185765X0.203762X-0.099967X0.130399X0.185765X0*%
%TD*%
%TA.AperFunction,SMDPad,CuDef*%
%ADD77RoundRect,0.147500X0.216968X0.066612X-0.032108X0.224681X-0.216968X-0.066612X0.032108X-0.224681X0*%
%TD*%
%TA.AperFunction,SMDPad,CuDef*%
%ADD78RoundRect,0.135000X-0.185000X0.135000X-0.185000X-0.135000X0.185000X-0.135000X0.185000X0.135000X0*%
%TD*%
%TA.AperFunction,SMDPad,CuDef*%
%ADD79RoundRect,0.147500X0.075639X-0.213989X0.223139X0.041489X-0.075639X0.213989X-0.223139X-0.041489X0*%
%TD*%
%TA.AperFunction,SMDPad,CuDef*%
%ADD80RoundRect,0.147500X-0.130399X0.185765X-0.203762X-0.099967X0.130399X-0.185765X0.203762X0.099967X0*%
%TD*%
%TA.AperFunction,SMDPad,CuDef*%
%ADD81RoundRect,0.147500X0.226718X0.010562X0.024776X0.225607X-0.226718X-0.010562X-0.024776X-0.225607X0*%
%TD*%
%TA.AperFunction,SMDPad,CuDef*%
%ADD82RoundRect,0.147500X0.226254X-0.017937X0.052857X0.220723X-0.226254X0.017937X-0.052857X-0.220723X0*%
%TD*%
%TA.AperFunction,SMDPad,CuDef*%
%ADD83RoundRect,0.147500X0.147500X0.172500X-0.147500X0.172500X-0.147500X-0.172500X0.147500X-0.172500X0*%
%TD*%
%TA.AperFunction,SMDPad,CuDef*%
%ADD84RoundRect,0.147500X-0.223139X0.041489X-0.075639X-0.213989X0.223139X-0.041489X0.075639X0.213989X0*%
%TD*%
%TA.AperFunction,SMDPad,CuDef*%
%ADD85RoundRect,0.147500X0.106088X-0.200644X0.214685X0.073641X-0.106088X0.200644X-0.214685X-0.073641X0*%
%TD*%
%TA.AperFunction,SMDPad,CuDef*%
%ADD86RoundRect,0.147500X-0.187120X-0.128446X0.097828X-0.204798X0.187120X0.128446X-0.097828X0.204798X0*%
%TD*%
%TA.AperFunction,SMDPad,CuDef*%
%ADD87RoundRect,0.147500X0.128446X-0.187120X0.204798X0.097828X-0.128446X0.187120X-0.204798X-0.097828X0*%
%TD*%
%TA.AperFunction,SMDPad,CuDef*%
%ADD88RoundRect,0.147500X0.024776X-0.225607X0.226718X-0.010562X-0.024776X0.225607X-0.226718X0.010562X0*%
%TD*%
%TA.AperFunction,SMDPad,CuDef*%
%ADD89RoundRect,0.147500X0.189626X-0.124717X0.152653X0.167957X-0.189626X0.124717X-0.152653X-0.167957X0*%
%TD*%
%TA.AperFunction,SMDPad,CuDef*%
%ADD90RoundRect,0.147500X-0.206909X-0.093280X0.060015X-0.218885X0.206909X0.093280X-0.060015X0.218885X0*%
%TD*%
%TA.AperFunction,ViaPad*%
%ADD91C,0.350000*%
%TD*%
%TA.AperFunction,Conductor*%
%ADD92C,0.088900*%
%TD*%
G04 APERTURE END LIST*
D10*
%TO.P,D31,1,K*%
%TO.N,/LED1*%
X676835Y-931583D03*
%TO.P,D31,2,A*%
%TO.N,Net-(D31-A)*%
X733850Y-1010058D03*
%TD*%
D11*
%TO.P,D43,1,K*%
%TO.N,/LED2*%
X972244Y617005D03*
%TO.P,D43,2,A*%
%TO.N,Net-(D41-A)*%
X1054143Y668980D03*
%TD*%
D12*
%TO.P,D42,1,K*%
%TO.N,Net-(D41-A)*%
X1041908Y490285D03*
%TO.P,D42,2,A*%
%TO.N,/LED1*%
X1129677Y531585D03*
%TD*%
D13*
%TO.P,D39,1,K*%
%TO.N,/LED5*%
X1149228Y72303D03*
%TO.P,D39,2,A*%
%TO.N,Net-(D31-A)*%
X1246036Y78394D03*
%TD*%
D14*
%TO.P,D26,1,K*%
%TO.N,Net-(D21-A)*%
X0Y-1151500D03*
%TO.P,D26,2,A*%
%TO.N,/LED3*%
X0Y-1248500D03*
%TD*%
D15*
%TO.P,R5,1*%
%TO.N,Net-(D41-A)*%
X856902Y278424D03*
%TO.P,R5,2*%
%TO.N,/LED10*%
X759894Y246904D03*
%TD*%
D16*
%TO.P,U1,1,PB9*%
%TO.N,/LED1*%
X-175000Y-243750D03*
%TO.P,U1,2,PC14*%
%TO.N,/LED8*%
X-125000Y-243750D03*
%TO.P,U1,3,PC15*%
%TO.N,/LED15*%
X-75000Y-243750D03*
%TO.P,U1,4,VDD*%
%TO.N,unconnected-(U1-VDD-Pad4)*%
X-25000Y-243750D03*
%TO.P,U1,5,VSS*%
%TO.N,Net-(U1-VSS-Pad33)*%
X25000Y-243750D03*
%TO.P,U1,6,PF2*%
%TO.N,/LED3*%
X75000Y-243750D03*
%TO.P,U1,7,PA0*%
%TO.N,unconnected-(U1-PA0-Pad7)*%
X125000Y-243750D03*
%TO.P,U1,8,PA1*%
%TO.N,/LED9*%
X175000Y-243750D03*
D17*
%TO.P,U1,9,PA2*%
%TO.N,/LED16*%
X243750Y-175000D03*
%TO.P,U1,10,PA3*%
%TO.N,/LED4*%
X243750Y-125000D03*
%TO.P,U1,11,PA4*%
%TO.N,unconnected-(U1-PA4-Pad11)*%
X243750Y-75000D03*
%TO.P,U1,12,PA5*%
%TO.N,unconnected-(U1-PA5-Pad12)*%
X243750Y-25000D03*
%TO.P,U1,13,PA6*%
%TO.N,unconnected-(U1-PA6-Pad13)*%
X243750Y25000D03*
%TO.P,U1,14,PA7*%
%TO.N,unconnected-(U1-PA7-Pad14)*%
X243750Y75000D03*
%TO.P,U1,15,PB0*%
%TO.N,/LED10*%
X243750Y125000D03*
%TO.P,U1,16,PB1*%
%TO.N,/LED11*%
X243750Y175000D03*
D16*
%TO.P,U1,17,PB2*%
%TO.N,/LED12*%
X175000Y243750D03*
%TO.P,U1,18,PA8*%
%TO.N,/LED13*%
X125000Y243750D03*
%TO.P,U1,19,PA9/NC*%
%TO.N,/LED17*%
X75000Y243750D03*
%TO.P,U1,20,PC6*%
%TO.N,/LED5*%
X25000Y243750D03*
%TO.P,U1,21,PA10/NC*%
%TO.N,/LED6*%
X-25000Y243750D03*
%TO.P,U1,22,PA11/PA9*%
%TO.N,/LED14*%
X-75000Y243750D03*
%TO.P,U1,23,PA12/PA10*%
%TO.N,unconnected-(U1-PA12{slash}PA10-Pad23)*%
X-125000Y243750D03*
%TO.P,U1,24,PA13*%
%TO.N,unconnected-(U1-PA13-Pad24)*%
X-175000Y243750D03*
D17*
%TO.P,U1,25,PA14*%
%TO.N,/LED7*%
X-243750Y175000D03*
%TO.P,U1,26,PA15*%
%TO.N,/LED2*%
X-243750Y125000D03*
%TO.P,U1,27,PB3*%
%TO.N,unconnected-(U1-PB3-Pad27)*%
X-243750Y75000D03*
%TO.P,U1,28,PB4*%
%TO.N,unconnected-(U1-PB4-Pad28)*%
X-243750Y25000D03*
%TO.P,U1,29,PB5*%
%TO.N,unconnected-(U1-PB5-Pad29)*%
X-243750Y-25000D03*
%TO.P,U1,30,PB6*%
%TO.N,unconnected-(U1-PB6-Pad30)*%
X-243750Y-75000D03*
%TO.P,U1,31,PB7*%
%TO.N,unconnected-(U1-PB7-Pad31)*%
X-243750Y-125000D03*
%TO.P,U1,32,PB8*%
%TO.N,unconnected-(U1-PB8-Pad32)*%
X-243750Y-175000D03*
D18*
%TO.P,U1,33,VSS*%
%TO.N,Net-(U1-VSS-Pad33)*%
X0Y0D03*
%TD*%
D19*
%TO.P,R2,1*%
%TO.N,Net-(D11-A)*%
X-856902Y278424D03*
%TO.P,R2,2*%
%TO.N,/LED7*%
X-759894Y246904D03*
%TD*%
D20*
%TO.P,D52,1,K*%
%TO.N,/LED14*%
X-305666Y953373D03*
%TO.P,D52,2,A*%
%TO.N,Net-(D51-K)*%
X-211972Y978478D03*
%TD*%
D21*
%TO.P,D49,1,K*%
%TO.N,/LED5*%
X286366Y1115324D03*
%TO.P,D49,2,A*%
%TO.N,Net-(D41-A)*%
X310489Y1209276D03*
%TD*%
D22*
%TO.P,D23,1,K*%
%TO.N,/LED2*%
X-423895Y-1070638D03*
%TO.P,D23,2,A*%
%TO.N,Net-(D21-A)*%
X-459603Y-1160826D03*
%TD*%
D23*
%TO.P,D14,1,K*%
%TO.N,Net-(D11-A)*%
X-1149228Y-72303D03*
%TO.P,D14,2,A*%
%TO.N,/LED2*%
X-1246036Y-78394D03*
%TD*%
D24*
%TO.P,D65,1,K*%
%TO.N,Net-(D53-K)*%
X542002Y-841775D03*
%TO.P,D65,2,A*%
%TO.N,/LED16*%
X457998Y-890275D03*
%TD*%
D25*
%TO.P,D3,1,K*%
%TO.N,/LED2*%
X-286366Y1115324D03*
%TO.P,D3,2,A*%
%TO.N,Net-(D1-A)*%
X-310489Y1209276D03*
%TD*%
D26*
%TO.P,D11,1,K*%
%TO.N,/LED1*%
X-1095142Y355833D03*
%TO.P,D11,2,A*%
%TO.N,Net-(D11-A)*%
X-1187394Y385808D03*
%TD*%
D27*
%TO.P,D22,1,K*%
%TO.N,Net-(D21-A)*%
X-554739Y-1009067D03*
%TO.P,D22,2,A*%
%TO.N,/LED1*%
X-601470Y-1094069D03*
%TD*%
D28*
%TO.P,D41,1,K*%
%TO.N,/LED1*%
X1095142Y355833D03*
%TO.P,D41,2,A*%
%TO.N,Net-(D41-A)*%
X1187394Y385808D03*
%TD*%
D29*
%TO.P,D57,1,K*%
%TO.N,Net-(D51-K)*%
X-1000000Y-48500D03*
%TO.P,D57,2,A*%
%TO.N,/LED15*%
X-1000000Y48500D03*
%TD*%
D30*
%TO.P,D13,1,K*%
%TO.N,/LED2*%
X-1149228Y72303D03*
%TO.P,D13,2,A*%
%TO.N,Net-(D11-A)*%
X-1246036Y78394D03*
%TD*%
D31*
%TO.P,D50,1,K*%
%TO.N,Net-(D41-A)*%
X144321Y1142420D03*
%TO.P,D50,2,A*%
%TO.N,/LED5*%
X156479Y1238655D03*
%TD*%
D32*
%TO.P,D32,1,K*%
%TO.N,Net-(D31-A)*%
X788256Y-839407D03*
%TO.P,D32,2,A*%
%TO.N,/LED1*%
X854657Y-910117D03*
%TD*%
D33*
%TO.P,D53,1,K*%
%TO.N,Net-(D53-K)*%
X-542002Y841775D03*
%TO.P,D53,2,A*%
%TO.N,/LED14*%
X-457998Y890275D03*
%TD*%
D34*
%TO.P,D12,1,K*%
%TO.N,Net-(D11-A)*%
X-1131104Y215770D03*
%TO.P,D12,2,A*%
%TO.N,/LED1*%
X-1226386Y233946D03*
%TD*%
D35*
%TO.P,D15,1,K*%
%TO.N,/LED3*%
X-1131104Y-215770D03*
%TO.P,D15,2,A*%
%TO.N,Net-(D11-A)*%
X-1226386Y-233946D03*
%TD*%
D36*
%TO.P,D19,1,K*%
%TO.N,/LED5*%
X-887246Y-733994D03*
%TO.P,D19,2,A*%
%TO.N,Net-(D11-A)*%
X-961986Y-795824D03*
%TD*%
D37*
%TO.P,D27,1,K*%
%TO.N,/LED4*%
X144321Y-1142420D03*
%TO.P,D27,2,A*%
%TO.N,Net-(D21-A)*%
X156479Y-1238655D03*
%TD*%
D38*
%TO.P,D59,1,K*%
%TO.N,Net-(D53-K)*%
X-841775Y-542002D03*
%TO.P,D59,2,A*%
%TO.N,/LED15*%
X-890275Y-457998D03*
%TD*%
D39*
%TO.P,D5,1,K*%
%TO.N,/LED3*%
X-554739Y1009067D03*
%TO.P,D5,2,A*%
%TO.N,Net-(D1-A)*%
X-601470Y1094069D03*
%TD*%
D40*
%TO.P,D18,1,K*%
%TO.N,Net-(D11-A)*%
X-972244Y-617005D03*
%TO.P,D18,2,A*%
%TO.N,/LED4*%
X-1054143Y-668980D03*
%TD*%
D41*
%TO.P,D40,1,K*%
%TO.N,Net-(D31-A)*%
X1131104Y215770D03*
%TO.P,D40,2,A*%
%TO.N,/LED5*%
X1226386Y233946D03*
%TD*%
D42*
%TO.P,D58,1,K*%
%TO.N,/LED15*%
X-953373Y-305666D03*
%TO.P,D58,2,A*%
%TO.N,Net-(D51-K)*%
X-978478Y-211972D03*
%TD*%
D43*
%TO.P,D44,1,K*%
%TO.N,Net-(D41-A)*%
X887246Y733994D03*
%TO.P,D44,2,A*%
%TO.N,/LED2*%
X961986Y795824D03*
%TD*%
D44*
%TO.P,D33,1,K*%
%TO.N,/LED2*%
X887246Y-733994D03*
%TO.P,D33,2,A*%
%TO.N,Net-(D31-A)*%
X961986Y-795824D03*
%TD*%
D45*
%TO.P,D70,1,K*%
%TO.N,/LED17*%
X953373Y305666D03*
%TO.P,D70,2,A*%
%TO.N,Net-(D51-K)*%
X978478Y211972D03*
%TD*%
D46*
%TO.P,D62,1,K*%
%TO.N,/LED15*%
X-211972Y-978478D03*
%TO.P,D62,2,A*%
%TO.N,Net-(D55-K)*%
X-305666Y-953373D03*
%TD*%
D47*
%TO.P,D64,1,K*%
%TO.N,/LED16*%
X305666Y-953373D03*
%TO.P,D64,2,A*%
%TO.N,Net-(D51-K)*%
X211972Y-978478D03*
%TD*%
D48*
%TO.P,D37,1,K*%
%TO.N,/LED4*%
X1131104Y-215770D03*
%TO.P,D37,2,A*%
%TO.N,Net-(D31-A)*%
X1226386Y-233946D03*
%TD*%
D49*
%TO.P,D72,1,K*%
%TO.N,/LED17*%
X672812Y741401D03*
%TO.P,D72,2,A*%
%TO.N,Net-(D53-K)*%
X741401Y672812D03*
%TD*%
D50*
%TO.P,D8,1,K*%
%TO.N,Net-(D1-A)*%
X-887246Y733994D03*
%TO.P,D8,2,A*%
%TO.N,/LED4*%
X-961986Y795824D03*
%TD*%
D51*
%TO.P,D46,1,K*%
%TO.N,Net-(D41-A)*%
X676835Y931583D03*
%TO.P,D46,2,A*%
%TO.N,/LED3*%
X733850Y1010058D03*
%TD*%
D52*
%TO.P,D21,1,K*%
%TO.N,/LED1*%
X-676835Y-931583D03*
%TO.P,D21,2,A*%
%TO.N,Net-(D21-A)*%
X-733850Y-1010058D03*
%TD*%
D53*
%TO.P,D67,1,K*%
%TO.N,Net-(D55-K)*%
X890275Y-457998D03*
%TO.P,D67,2,A*%
%TO.N,/LED16*%
X841775Y-542002D03*
%TD*%
D54*
%TO.P,D61,1,K*%
%TO.N,Net-(D55-K)*%
X-457998Y-890275D03*
%TO.P,D61,2,A*%
%TO.N,/LED15*%
X-542002Y-841775D03*
%TD*%
D14*
%TO.P,D69,1,K*%
%TO.N,Net-(D51-K)*%
X1000000Y48500D03*
%TO.P,D69,2,A*%
%TO.N,/LED17*%
X1000000Y-48500D03*
%TD*%
D55*
%TO.P,D4,1,K*%
%TO.N,Net-(D1-A)*%
X-423895Y1070638D03*
%TO.P,D4,2,A*%
%TO.N,/LED2*%
X-459603Y1160826D03*
%TD*%
D56*
%TO.P,D54,1,K*%
%TO.N,/LED14*%
X-741401Y672812D03*
%TO.P,D54,2,A*%
%TO.N,Net-(D53-K)*%
X-672812Y741401D03*
%TD*%
D57*
%TO.P,D73,1,K*%
%TO.N,Net-(D55-K)*%
X457998Y890275D03*
%TO.P,D73,2,A*%
%TO.N,/LED17*%
X542002Y841775D03*
%TD*%
D58*
%TO.P,D20,1,K*%
%TO.N,Net-(D11-A)*%
X-788256Y-839407D03*
%TO.P,D20,2,A*%
%TO.N,/LED5*%
X-854657Y-910117D03*
%TD*%
D59*
%TO.P,R6,1*%
%TO.N,/LED11*%
X209000Y600000D03*
%TO.P,R6,2*%
%TO.N,Net-(D51-K)*%
X311000Y600000D03*
%TD*%
D60*
%TO.P,D66,1,K*%
%TO.N,/LED16*%
X741401Y-672812D03*
%TO.P,D66,2,A*%
%TO.N,Net-(D53-K)*%
X672812Y-741401D03*
%TD*%
D61*
%TO.P,D47,1,K*%
%TO.N,/LED4*%
X554739Y1009067D03*
%TO.P,D47,2,A*%
%TO.N,Net-(D41-A)*%
X601470Y1094069D03*
%TD*%
D62*
%TO.P,R3,1*%
%TO.N,Net-(D21-A)*%
X-529595Y-728924D03*
%TO.P,R3,2*%
%TO.N,/LED8*%
X-469640Y-646405D03*
%TD*%
D29*
%TO.P,D1,1,K*%
%TO.N,/LED1*%
X0Y1151500D03*
%TO.P,D1,2,A*%
%TO.N,Net-(D1-A)*%
X0Y1248500D03*
%TD*%
D63*
%TO.P,D17,1,K*%
%TO.N,/LED4*%
X-1041908Y-490285D03*
%TO.P,D17,2,A*%
%TO.N,Net-(D11-A)*%
X-1129677Y-531585D03*
%TD*%
D64*
%TO.P,D30,1,K*%
%TO.N,Net-(D21-A)*%
X554739Y-1009067D03*
%TO.P,D30,2,A*%
%TO.N,/LED5*%
X601470Y-1094069D03*
%TD*%
D65*
%TO.P,D60,1,K*%
%TO.N,/LED15*%
X-672812Y-741401D03*
%TO.P,D60,2,A*%
%TO.N,Net-(D53-K)*%
X-741401Y-672812D03*
%TD*%
D66*
%TO.P,D29,1,K*%
%TO.N,/LED5*%
X423895Y-1070638D03*
%TO.P,D29,2,A*%
%TO.N,Net-(D21-A)*%
X459603Y-1160826D03*
%TD*%
D67*
%TO.P,D36,1,K*%
%TO.N,Net-(D31-A)*%
X1095142Y-355833D03*
%TO.P,D36,2,A*%
%TO.N,/LED3*%
X1187394Y-385808D03*
%TD*%
D68*
%TO.P,D68,1,K*%
%TO.N,/LED16*%
X978478Y-211972D03*
%TO.P,D68,2,A*%
%TO.N,Net-(D55-K)*%
X953373Y-305666D03*
%TD*%
D69*
%TO.P,D34,1,K*%
%TO.N,Net-(D31-A)*%
X972244Y-617005D03*
%TO.P,D34,2,A*%
%TO.N,/LED2*%
X1054143Y-668980D03*
%TD*%
D70*
%TO.P,D38,1,K*%
%TO.N,Net-(D31-A)*%
X1149228Y-72303D03*
%TO.P,D38,2,A*%
%TO.N,/LED4*%
X1246036Y-78394D03*
%TD*%
D71*
%TO.P,R4,1*%
%TO.N,Net-(D31-A)*%
X529595Y-728924D03*
%TO.P,R4,2*%
%TO.N,/LED9*%
X469640Y-646405D03*
%TD*%
D72*
%TO.P,D16,1,K*%
%TO.N,Net-(D11-A)*%
X-1095142Y-355833D03*
%TO.P,D16,2,A*%
%TO.N,/LED3*%
X-1187394Y-385808D03*
%TD*%
D73*
%TO.P,D25,1,K*%
%TO.N,/LED3*%
X-144321Y-1142420D03*
%TO.P,D25,2,A*%
%TO.N,Net-(D21-A)*%
X-156479Y-1238655D03*
%TD*%
D74*
%TO.P,D10,1,K*%
%TO.N,Net-(D1-A)*%
X-1041908Y490285D03*
%TO.P,D10,2,A*%
%TO.N,/LED5*%
X-1129677Y531585D03*
%TD*%
D59*
%TO.P,R7,1*%
%TO.N,/LED12*%
X209000Y700000D03*
%TO.P,R7,2*%
%TO.N,Net-(D53-K)*%
X311000Y700000D03*
%TD*%
D75*
%TO.P,D51,1,K*%
%TO.N,Net-(D51-K)*%
X-48500Y1000000D03*
%TO.P,D51,2,A*%
%TO.N,/LED14*%
X48500Y1000000D03*
%TD*%
D76*
%TO.P,D28,1,K*%
%TO.N,Net-(D21-A)*%
X286366Y-1115324D03*
%TO.P,D28,2,A*%
%TO.N,/LED4*%
X310489Y-1209276D03*
%TD*%
D77*
%TO.P,D9,1,K*%
%TO.N,/LED5*%
X-972244Y617005D03*
%TO.P,D9,2,A*%
%TO.N,Net-(D1-A)*%
X-1054143Y668980D03*
%TD*%
D78*
%TO.P,R1,1*%
%TO.N,Net-(D1-A)*%
X0Y901000D03*
%TO.P,R1,2*%
%TO.N,/LED6*%
X0Y799000D03*
%TD*%
D79*
%TO.P,D55,1,K*%
%TO.N,Net-(D55-K)*%
X-890275Y457998D03*
%TO.P,D55,2,A*%
%TO.N,/LED14*%
X-841775Y542002D03*
%TD*%
D80*
%TO.P,D24,1,K*%
%TO.N,Net-(D21-A)*%
X-286366Y-1115324D03*
%TO.P,D24,2,A*%
%TO.N,/LED2*%
X-310489Y-1209276D03*
%TD*%
D81*
%TO.P,D7,1,K*%
%TO.N,/LED4*%
X-788256Y839407D03*
%TO.P,D7,2,A*%
%TO.N,Net-(D1-A)*%
X-854657Y910117D03*
%TD*%
D82*
%TO.P,D6,1,K*%
%TO.N,Net-(D1-A)*%
X-676835Y931583D03*
%TO.P,D6,2,A*%
%TO.N,/LED3*%
X-733850Y1010058D03*
%TD*%
D59*
%TO.P,R8,1*%
%TO.N,/LED13*%
X209000Y800000D03*
%TO.P,R8,2*%
%TO.N,Net-(D55-K)*%
X311000Y800000D03*
%TD*%
D83*
%TO.P,D63,1,K*%
%TO.N,Net-(D51-K)*%
X48500Y-1000000D03*
%TO.P,D63,2,A*%
%TO.N,/LED16*%
X-48500Y-1000000D03*
%TD*%
D84*
%TO.P,D71,1,K*%
%TO.N,Net-(D53-K)*%
X841775Y542002D03*
%TO.P,D71,2,A*%
%TO.N,/LED17*%
X890275Y457998D03*
%TD*%
D85*
%TO.P,D48,1,K*%
%TO.N,Net-(D41-A)*%
X423895Y1070638D03*
%TO.P,D48,2,A*%
%TO.N,/LED4*%
X459603Y1160826D03*
%TD*%
D86*
%TO.P,D74,1,K*%
%TO.N,/LED17*%
X211972Y978478D03*
%TO.P,D74,2,A*%
%TO.N,Net-(D55-K)*%
X305666Y953373D03*
%TD*%
D87*
%TO.P,D56,1,K*%
%TO.N,/LED14*%
X-978478Y211972D03*
%TO.P,D56,2,A*%
%TO.N,Net-(D55-K)*%
X-953373Y305666D03*
%TD*%
D88*
%TO.P,D45,1,K*%
%TO.N,/LED3*%
X788256Y839407D03*
%TO.P,D45,2,A*%
%TO.N,Net-(D41-A)*%
X854657Y910117D03*
%TD*%
D89*
%TO.P,D2,1,K*%
%TO.N,Net-(D1-A)*%
X-144321Y1142420D03*
%TO.P,D2,2,A*%
%TO.N,/LED1*%
X-156479Y1238655D03*
%TD*%
D90*
%TO.P,D35,1,K*%
%TO.N,/LED3*%
X1041908Y-490285D03*
%TO.P,D35,2,A*%
%TO.N,Net-(D31-A)*%
X1129677Y-531585D03*
%TD*%
D91*
%TO.N,/LED10*%
X810000Y365000D03*
X855000Y155000D03*
%TO.N,Net-(D51-K)*%
X705000Y570000D03*
X-978478Y-130000D03*
X960000Y140000D03*
X140000Y-960000D03*
X-130000Y1000000D03*
%TO.N,Net-(D53-K)*%
X-780000Y-600000D03*
X600000Y-780000D03*
X-617107Y797107D03*
X797107Y617107D03*
%TO.N,Net-(D55-K)*%
X-920000Y380000D03*
X400000Y955000D03*
X-390000Y-930000D03*
X930000Y-390000D03*
%TO.N,/LED15*%
X-625000Y-675000D03*
X-475000Y-795000D03*
%TO.N,/LED1*%
X-610000Y-965000D03*
X-75000Y1155000D03*
X740000Y-890000D03*
X1129677Y440000D03*
X-1180000Y310000D03*
%TO.N,/LED2*%
X920000Y655000D03*
X890000Y-635000D03*
X-380000Y-1150000D03*
X-1185000Y-5000D03*
X-370000Y1160826D03*
%TO.N,/LED3*%
X695000Y845000D03*
X-1160000Y-300000D03*
X-75000Y-1115000D03*
X1090000Y-430000D03*
X-640000Y1009067D03*
%TO.N,/LED4*%
X1120000Y-140000D03*
X225000Y-1175000D03*
X520215Y1100215D03*
X-1054143Y-580000D03*
X-880000Y840000D03*
%TO.N,/LED5*%
X-695000Y-835000D03*
X-875000Y-825000D03*
X-165000Y-1065000D03*
X240000Y1220000D03*
X-960000Y685000D03*
%TD*%
D92*
%TO.N,Net-(U1-VSS-Pad33)*%
X25000Y-25000D02*
X0Y0D01*
X25000Y-243750D02*
X25000Y-25000D01*
%TO.N,/LED7*%
X-759894Y246904D02*
X-687990Y175000D01*
X-687990Y175000D02*
X-243750Y175000D01*
%TO.N,/LED6*%
X0Y760000D02*
X-25000Y735000D01*
X0Y799000D02*
X0Y760000D01*
X-25000Y735000D02*
X-25000Y243750D01*
%TO.N,/LED8*%
X-125000Y-301764D02*
X-125000Y-243750D01*
X-469640Y-646405D02*
X-125000Y-301764D01*
%TO.N,/LED9*%
X175000Y-243750D02*
X175000Y-350000D01*
X469640Y-644641D02*
X469640Y-646405D01*
X175000Y-350000D02*
X469640Y-644641D01*
%TO.N,/LED10*%
X759894Y314894D02*
X810000Y365000D01*
X825000Y125000D02*
X855000Y155000D01*
X243750Y125000D02*
X825000Y125000D01*
X759894Y246904D02*
X759894Y314894D01*
%TO.N,Net-(D51-K)*%
X48500Y-1000000D02*
X190450Y-1000000D01*
X978478Y211972D02*
X1000000Y190450D01*
X-1000000Y-108478D02*
X-978478Y-130000D01*
X1000000Y190450D02*
X1000000Y48500D01*
X960000Y140000D02*
X1000000Y100000D01*
X100000Y-1000000D02*
X48500Y-1000000D01*
X-978478Y-211972D02*
X-978478Y-130000D01*
X-190450Y1000000D02*
X-130000Y1000000D01*
X1000000Y100000D02*
X1000000Y48500D01*
X-130000Y1000000D02*
X-48500Y1000000D01*
X-211972Y978478D02*
X-190450Y1000000D01*
X705000Y570000D02*
X675000Y600000D01*
X190450Y-1000000D02*
X211972Y-978478D01*
X675000Y600000D02*
X311000Y600000D01*
X140000Y-960000D02*
X100000Y-1000000D01*
X-1000000Y-48500D02*
X-1000000Y-108478D01*
%TO.N,/LED14*%
X48500Y1031500D02*
X48500Y1000000D01*
X23218Y1000000D02*
X48500Y1000000D01*
X-887998Y542002D02*
X-841775Y542002D01*
X-239840Y1052328D02*
X27672Y1052328D01*
X-75000Y243750D02*
X-75000Y901782D01*
X-75000Y901782D02*
X23218Y1000000D01*
X-741401Y736925D02*
X-586279Y892048D01*
X-1001812Y428188D02*
X-887998Y542002D01*
X-305666Y986502D02*
X-239840Y1052328D01*
X-459770Y892048D02*
X-457998Y890275D01*
X-741401Y672812D02*
X-741401Y736925D01*
X-457998Y890275D02*
X-394900Y953373D01*
X-841775Y572438D02*
X-741401Y672812D01*
X27672Y1052328D02*
X48500Y1031500D01*
X-394900Y953373D02*
X-305666Y953373D01*
X-841775Y542002D02*
X-841775Y572438D01*
X-586279Y892048D02*
X-459770Y892048D01*
X-305666Y953373D02*
X-305666Y986502D01*
X-978478Y211972D02*
X-1001812Y235305D01*
X-1001812Y235305D02*
X-1001812Y428188D01*
%TO.N,Net-(D53-K)*%
X-766507Y-672812D02*
X-741401Y-672812D01*
X600000Y-780000D02*
X600000Y-783778D01*
X-741401Y-672812D02*
X-741401Y-638599D01*
X841775Y572438D02*
X841775Y542002D01*
X-741401Y-638599D02*
X-780000Y-600000D01*
X741401Y672812D02*
X797107Y617107D01*
X635000Y700000D02*
X662188Y672812D01*
X638599Y-741401D02*
X600000Y-780000D01*
X-572438Y841775D02*
X-542002Y841775D01*
X-672812Y741401D02*
X-617107Y797107D01*
X662188Y672812D02*
X741401Y672812D01*
X-617107Y797107D02*
X-572438Y841775D01*
X600000Y-783778D02*
X542002Y-841775D01*
X-780000Y-600000D02*
X-783778Y-600000D01*
X672812Y-741401D02*
X638599Y-741401D01*
X311000Y700000D02*
X635000Y700000D01*
X797107Y617107D02*
X841775Y572438D01*
X-783778Y-600000D02*
X-841775Y-542002D01*
%TO.N,Net-(D55-K)*%
X400000Y955000D02*
X400000Y948273D01*
X398373Y953373D02*
X305666Y953373D01*
X-890275Y457998D02*
X-890275Y409725D01*
X400000Y955000D02*
X398373Y953373D01*
X400000Y948273D02*
X457998Y890275D01*
X930000Y-329040D02*
X953373Y-305666D01*
X-953373Y346627D02*
X-920000Y380000D01*
X930000Y-390000D02*
X890275Y-429725D01*
X-457998Y-890275D02*
X-429725Y-890275D01*
X-366627Y-953373D02*
X-305666Y-953373D01*
X311000Y948039D02*
X305666Y953373D01*
X890275Y-429725D02*
X890275Y-457998D01*
X930000Y-390000D02*
X930000Y-329040D01*
X-429725Y-890275D02*
X-390000Y-930000D01*
X-953373Y305666D02*
X-953373Y346627D01*
X-890275Y409725D02*
X-920000Y380000D01*
X311000Y800000D02*
X311000Y948039D01*
X-390000Y-930000D02*
X-366627Y-953373D01*
%TO.N,/LED15*%
X-953373Y-305666D02*
X-986502Y-305666D01*
X-890275Y-457998D02*
X-953373Y-394900D01*
X-170378Y-936885D02*
X-126885Y-936885D01*
X-211972Y-978478D02*
X-170378Y-936885D01*
X-1045335Y-246833D02*
X-1045335Y3165D01*
X-235305Y-1001812D02*
X-468188Y-1001812D01*
X-75000Y-885000D02*
X-75000Y-243750D01*
X-468188Y-1001812D02*
X-565428Y-904572D01*
X-126885Y-936885D02*
X-75000Y-885000D01*
X-625000Y-675000D02*
X-672812Y-722812D01*
X-672812Y-741401D02*
X-736925Y-741401D01*
X-672812Y-722812D02*
X-672812Y-741401D01*
X-521775Y-841775D02*
X-475000Y-795000D01*
X-542002Y-841775D02*
X-572438Y-841775D01*
X-542002Y-841775D02*
X-521775Y-841775D01*
X-1045335Y3165D02*
X-1000000Y48500D01*
X-565428Y-904572D02*
X-565428Y-865201D01*
X-892048Y-459770D02*
X-890275Y-457998D01*
X-565428Y-865201D02*
X-542002Y-841775D01*
X-736925Y-741401D02*
X-892048Y-586279D01*
X-892048Y-586279D02*
X-892048Y-459770D01*
X-211972Y-978478D02*
X-235305Y-1001812D01*
X-986502Y-305666D02*
X-1045335Y-246833D01*
X-953373Y-394900D02*
X-953373Y-305666D01*
%TO.N,/LED16*%
X1001812Y-418149D02*
X1001812Y-235305D01*
X841775Y-542002D02*
X877958Y-542002D01*
X305666Y-986502D02*
X246833Y-1045335D01*
X305666Y-953373D02*
X305666Y-986502D01*
X243750Y-175000D02*
X941507Y-175000D01*
X457998Y-739856D02*
X457998Y-890275D01*
X246833Y-1045335D02*
X-3165Y-1045335D01*
X1001812Y-235305D02*
X978478Y-211972D01*
X394900Y-953373D02*
X305666Y-953373D01*
X877958Y-542002D02*
X1001812Y-418149D01*
X741401Y-672812D02*
X525042Y-672812D01*
X457998Y-890275D02*
X394900Y-953373D01*
X841775Y-572438D02*
X741401Y-672812D01*
X-3165Y-1045335D02*
X-48500Y-1000000D01*
X525042Y-672812D02*
X457998Y-739856D01*
X841775Y-542002D02*
X841775Y-572438D01*
X941507Y-175000D02*
X978478Y-211972D01*
%TO.N,/LED17*%
X913701Y564626D02*
X913701Y481423D01*
X986502Y305666D02*
X1045335Y246833D01*
X1045335Y-3165D02*
X1000000Y-48500D01*
X235305Y1001812D02*
X418188Y1001812D01*
X75000Y243750D02*
X75000Y841507D01*
X881655Y198345D02*
X918055Y161945D01*
X918055Y161945D02*
X918055Y122626D01*
X890275Y457998D02*
X832998Y457998D01*
X714545Y225474D02*
X741673Y198345D01*
X945000Y6500D02*
X1000000Y-48500D01*
X741673Y198345D02*
X881655Y198345D01*
X714545Y339545D02*
X714545Y225474D01*
X572438Y841775D02*
X672812Y741401D01*
X953373Y305666D02*
X986502Y305666D01*
X736925Y741401D02*
X913701Y564626D01*
X918055Y122626D02*
X945000Y95681D01*
X832998Y457998D02*
X714545Y339545D01*
X945000Y95681D02*
X945000Y6500D01*
X1045335Y246833D02*
X1045335Y-3165D01*
X75000Y841507D02*
X211972Y978478D01*
X913701Y481423D02*
X890275Y457998D01*
X418188Y1001812D02*
X542002Y877998D01*
X672812Y741401D02*
X736925Y741401D01*
X211972Y978478D02*
X235305Y1001812D01*
X542002Y841775D02*
X572438Y841775D01*
X542002Y877998D02*
X542002Y841775D01*
%TO.N,/LED1*%
X-75000Y1155000D02*
X-3500Y1155000D01*
X-477940Y-597940D02*
X-175000Y-295000D01*
X-610000Y-1085538D02*
X-601470Y-1094069D01*
X-75000Y1157177D02*
X-156479Y1238655D01*
X-1160487Y290487D02*
X-1180000Y310000D01*
X-75000Y1155000D02*
X-75000Y1157177D01*
X-610000Y-965000D02*
X-610000Y-1085538D01*
X1129677Y531585D02*
X1129677Y440000D01*
X760117Y-910117D02*
X740000Y-890000D01*
X740000Y-890000D02*
X718418Y-890000D01*
X-1217029Y233946D02*
X-1160487Y290487D01*
X-175000Y-295000D02*
X-175000Y-243750D01*
X-622100Y-876848D02*
X-622100Y-742100D01*
X854657Y-910117D02*
X760117Y-910117D01*
X-610000Y-965000D02*
X-643418Y-965000D01*
X-643418Y-965000D02*
X-676835Y-931583D01*
X-676835Y-931583D02*
X-622100Y-876848D01*
X-1160487Y290487D02*
X-1095142Y355833D01*
X-1226386Y233946D02*
X-1217029Y233946D01*
X-519211Y-639211D02*
X-519211Y-629432D01*
X-519211Y-629432D02*
X-487719Y-597940D01*
X1129677Y440000D02*
X1129677Y390368D01*
X1129677Y390368D02*
X1095142Y355833D01*
X-622100Y-742100D02*
X-519211Y-639211D01*
X-487719Y-597940D02*
X-477940Y-597940D01*
X718418Y-890000D02*
X676835Y-931583D01*
X-3500Y1155000D02*
X0Y1151500D01*
%TO.N,/LED2*%
X-310489Y-1209276D02*
X-310489Y-1184044D01*
X-380000Y-1150000D02*
X-380000Y-1114533D01*
X-320724Y-1209276D02*
X-310489Y-1209276D01*
X-1096531Y125000D02*
X-243750Y125000D01*
X-1246036Y-78394D02*
X-1246036Y-66036D01*
X890000Y-731240D02*
X887246Y-733994D01*
X-380000Y-1150000D02*
X-320724Y-1209276D01*
X920000Y655000D02*
X934248Y655000D01*
X1043123Y-680000D02*
X1054143Y-668980D01*
X-331869Y1160826D02*
X-370000Y1160826D01*
X934248Y655000D02*
X972244Y617005D01*
X-1149228Y30772D02*
X-1149228Y72303D01*
X-380000Y-1114533D02*
X-423895Y-1070638D01*
X-286366Y1115324D02*
X-331869Y1160826D01*
X935000Y-680000D02*
X1043123Y-680000D01*
X961986Y696986D02*
X961986Y795824D01*
X890000Y-635000D02*
X935000Y-680000D01*
X890000Y-635000D02*
X890000Y-731240D01*
X-1246036Y-66036D02*
X-1149228Y30772D01*
X-1149228Y72303D02*
X-1096531Y125000D01*
X-370000Y1160826D02*
X-459603Y1160826D01*
X920000Y655000D02*
X961986Y696986D01*
%TO.N,/LED3*%
X-554739Y1009067D02*
X-640000Y1009067D01*
X695000Y845000D02*
X733850Y883850D01*
X-144321Y-1142420D02*
X-176575Y-1142420D01*
X-206945Y-1047626D02*
X-113984Y-954665D01*
X-1187394Y-327394D02*
X-1160000Y-300000D01*
X-75000Y-1115000D02*
X-116901Y-1115000D01*
X782663Y845000D02*
X788256Y839407D01*
X1143202Y-430000D02*
X1187394Y-385808D01*
X-75000Y-1173500D02*
X0Y-1248500D01*
X695000Y845000D02*
X782663Y845000D01*
X1090000Y-442193D02*
X1041908Y-490285D01*
X-640000Y1009067D02*
X-732859Y1009067D01*
X-206945Y-1112050D02*
X-206945Y-1047626D01*
X-1131104Y-271104D02*
X-1160000Y-300000D01*
X10335Y-954665D02*
X75000Y-890000D01*
X733850Y883850D02*
X733850Y1010058D01*
X-176575Y-1142420D02*
X-206945Y-1112050D01*
X1090000Y-430000D02*
X1143202Y-430000D01*
X-116901Y-1115000D02*
X-144321Y-1142420D01*
X-1187394Y-385808D02*
X-1187394Y-327394D01*
X-75000Y-1115000D02*
X-75000Y-1173500D01*
X-113984Y-954665D02*
X10335Y-954665D01*
X75000Y-890000D02*
X75000Y-243750D01*
X-732859Y1009067D02*
X-733850Y1010058D01*
X-1131104Y-215770D02*
X-1131104Y-271104D01*
X1090000Y-430000D02*
X1090000Y-442193D01*
%TO.N,/LED4*%
X-879407Y839407D02*
X-880000Y840000D01*
X-788256Y839407D02*
X-879407Y839407D01*
X1120000Y-140000D02*
X1131104Y-151104D01*
X554739Y1009067D02*
X550933Y1009067D01*
X259276Y-1209276D02*
X225000Y-1175000D01*
X550000Y1070430D02*
X520215Y1100215D01*
X192420Y-1142420D02*
X225000Y-1175000D01*
X1131104Y-151104D02*
X1131104Y-215770D01*
X1131104Y-215770D02*
X1040334Y-125000D01*
X550000Y1010000D02*
X550000Y1070430D01*
X-924176Y795824D02*
X-880000Y840000D01*
X-961986Y795824D02*
X-961986Y828014D01*
X144321Y-1142420D02*
X192420Y-1142420D01*
X1120000Y-140000D02*
X1184430Y-140000D01*
X-961986Y795824D02*
X-924176Y795824D01*
X1040334Y-125000D02*
X243750Y-125000D01*
X520215Y1100215D02*
X459603Y1160826D01*
X-1054143Y-668980D02*
X-1054143Y-580000D01*
X-1054143Y-580000D02*
X-1054143Y-502520D01*
X550933Y1009067D02*
X550000Y1010000D01*
X-1054143Y-502520D02*
X-1041908Y-490285D01*
X310489Y-1209276D02*
X259276Y-1209276D01*
X1184430Y-140000D02*
X1246036Y-78394D01*
%TO.N,/LED5*%
X904934Y327030D02*
X937904Y360000D01*
X1080000Y141531D02*
X1149228Y72303D01*
X-960000Y685000D02*
X-960000Y629248D01*
X-887246Y-812754D02*
X-854657Y-845343D01*
X811552Y302945D02*
X811552Y256993D01*
X601470Y-1094069D02*
X447327Y-1094069D01*
X838681Y229865D02*
X878213Y229865D01*
X200845Y1200845D02*
X286366Y1115324D01*
X163035Y1238655D02*
X200845Y1200845D01*
X950000Y441393D02*
X811552Y302945D01*
X286366Y1115324D02*
X379200Y1022490D01*
X200845Y1200845D02*
X225000Y1225000D01*
X225000Y1225000D02*
X245000Y1225000D01*
X811552Y256993D02*
X838681Y229865D01*
X1149228Y72303D02*
X1149228Y156788D01*
X743472Y760000D02*
X950000Y553472D01*
X970136Y360000D02*
X1080000Y250136D01*
X1149228Y156788D02*
X1226386Y233946D01*
X-972244Y617005D02*
X-1044257Y617005D01*
X-862058Y-759181D02*
X-770818Y-759181D01*
X-1044257Y617005D02*
X-1129677Y531585D01*
X457510Y1022490D02*
X720000Y760000D01*
X937904Y360000D02*
X970136Y360000D01*
X447327Y-1094069D02*
X423895Y-1070638D01*
X-960000Y629248D02*
X-972244Y617005D01*
X-887246Y-733994D02*
X-887246Y-812754D01*
X-161191Y-1068809D02*
X422067Y-1068809D01*
X-887246Y-733994D02*
X-862058Y-759181D01*
X286366Y1115324D02*
X271468Y1115324D01*
X55000Y760000D02*
X25000Y730000D01*
X156479Y1238655D02*
X163035Y1238655D01*
X-854657Y-845343D02*
X-854657Y-910117D01*
X55000Y898855D02*
X55000Y760000D01*
X878213Y229865D02*
X904934Y256586D01*
X1080000Y250136D02*
X1080000Y141531D01*
X422067Y-1068809D02*
X423895Y-1070638D01*
X950000Y553472D02*
X950000Y441393D01*
X379200Y1022490D02*
X457510Y1022490D01*
X904934Y256586D02*
X904934Y327030D01*
X-165000Y-1065000D02*
X-161191Y-1068809D01*
X25000Y730000D02*
X25000Y243750D01*
X-770818Y-759181D02*
X-695000Y-835000D01*
X271468Y1115324D02*
X55000Y898855D01*
X720000Y760000D02*
X743472Y760000D01*
%TO.N,/LED11*%
X209000Y600000D02*
X243750Y565250D01*
X243750Y565250D02*
X243750Y175000D01*
%TO.N,/LED12*%
X155000Y646000D02*
X155000Y560000D01*
X175000Y540000D02*
X175000Y243750D01*
X209000Y700000D02*
X155000Y646000D01*
X155000Y560000D02*
X175000Y540000D01*
%TO.N,/LED13*%
X125000Y716000D02*
X125000Y243750D01*
X209000Y800000D02*
X125000Y716000D01*
%TO.N,Net-(D1-A)*%
X-1054143Y740000D02*
X-1054143Y766355D01*
X-34920Y1283420D02*
X0Y1248500D01*
X-495538Y1200000D02*
X-490000Y1200000D01*
X-1048137Y733994D02*
X-1054143Y740000D01*
X97390Y1151110D02*
X0Y1248500D01*
X-230000Y1283420D02*
X-34920Y1283420D01*
X-1146236Y466236D02*
X-1178436Y498436D01*
X-1054143Y766355D02*
X-910381Y910117D01*
X-236346Y1283420D02*
X-230000Y1283420D01*
X97390Y966390D02*
X97390Y1151110D01*
X-1065958Y466236D02*
X-1146236Y466236D01*
X32000Y901000D02*
X97390Y966390D01*
X-813894Y993894D02*
X-713719Y1094069D01*
X-1091020Y668980D02*
X-1054143Y668980D01*
X-1054143Y668980D02*
X-1054143Y740000D01*
X-713719Y1094069D02*
X-601470Y1094069D01*
X-854657Y953131D02*
X-813894Y993894D01*
X-144321Y1142420D02*
X-230000Y1228099D01*
X-751583Y931583D02*
X-676835Y931583D01*
X-1178436Y581564D02*
X-1091020Y668980D01*
X-527769Y1167769D02*
X-495538Y1200000D01*
X-1178436Y498436D02*
X-1178436Y581564D01*
X-910381Y910117D02*
X-854657Y910117D01*
X-490000Y1200000D02*
X-480724Y1209276D01*
X-230000Y1228099D02*
X-230000Y1283420D01*
X-601470Y1094069D02*
X-527769Y1167769D01*
X-310489Y1209276D02*
X-236346Y1283420D01*
X0Y901000D02*
X32000Y901000D01*
X-480724Y1209276D02*
X-310489Y1209276D01*
X-527769Y1167769D02*
X-527769Y1140094D01*
X-887246Y733994D02*
X-1048137Y733994D01*
X-1041908Y490285D02*
X-1065958Y466236D01*
X-813894Y993894D02*
X-751583Y931583D01*
X-527769Y1140094D02*
X-458312Y1070638D01*
X-458312Y1070638D02*
X-423895Y1070638D01*
X-854657Y910117D02*
X-854657Y953131D01*
%TO.N,Net-(D11-A)*%
X-1131104Y215770D02*
X-1246036Y100837D01*
X-1289896Y-170435D02*
X-1226386Y-233946D01*
X-1034176Y-795824D02*
X-961986Y-795824D01*
X-1246036Y78394D02*
X-1289896Y34534D01*
X-856098Y-970000D02*
X-849793Y-970000D01*
X-1080635Y165301D02*
X-954053Y165301D01*
X-856902Y262452D02*
X-856902Y278424D01*
X-1095142Y-497050D02*
X-1129677Y-531585D01*
X-972244Y-785566D02*
X-961986Y-795824D01*
X-1289896Y34534D02*
X-1289896Y-170435D01*
X-961986Y-864112D02*
X-856098Y-970000D01*
X-954053Y165301D02*
X-856902Y262452D01*
X-1095142Y-355833D02*
X-1095142Y-497050D01*
X-961986Y-795824D02*
X-961986Y-864112D01*
X-849793Y-970000D02*
X-788256Y-908463D01*
X-1131104Y215770D02*
X-1080635Y165301D01*
X-1129677Y-531585D02*
X-1129677Y-700323D01*
X-788256Y-908463D02*
X-788256Y-839407D01*
X-1289896Y283305D02*
X-1289896Y122254D01*
X-856902Y278424D02*
X-876331Y258996D01*
X-1129677Y-700323D02*
X-1034176Y-795824D01*
X-1246036Y100837D02*
X-1246036Y78394D01*
X-1234792Y-426470D02*
X-1129677Y-531585D01*
X-1289896Y122254D02*
X-1246036Y78394D01*
X-972244Y-617005D02*
X-972244Y-785566D01*
X-1234792Y-242352D02*
X-1234792Y-426470D01*
X-1187394Y385808D02*
X-1289896Y283305D01*
X-1149228Y-72303D02*
X-1149228Y-156788D01*
X-1226386Y-233946D02*
X-1234792Y-242352D01*
X-1149228Y-156788D02*
X-1226386Y-233946D01*
%TO.N,Net-(D21-A)*%
X-554739Y-1065690D02*
X-554739Y-1009067D01*
X660000Y-1101968D02*
X601142Y-1160826D01*
X-103799Y-1291335D02*
X103799Y-1291335D01*
X-733850Y-1045623D02*
X-733850Y-1010058D01*
X660000Y-1078392D02*
X660000Y-1101968D01*
X-591360Y-790690D02*
X-529595Y-728924D01*
X-459603Y-1160826D02*
X-554739Y-1065690D01*
X-459603Y-1160826D02*
X-364639Y-1255790D01*
X156479Y-1238655D02*
X87155Y-1238655D01*
X331869Y-1160826D02*
X459603Y-1160826D01*
X-591360Y-903785D02*
X-591360Y-790690D01*
X601142Y-1160826D02*
X459603Y-1160826D01*
X-156479Y-1238655D02*
X-103799Y-1291335D01*
X-554739Y-940405D02*
X-591360Y-903785D01*
X-173614Y-1255790D02*
X-156479Y-1238655D01*
X364639Y-1255790D02*
X173614Y-1255790D01*
X-554739Y-1009067D02*
X-554739Y-940405D01*
X286366Y-1115324D02*
X331869Y-1160826D01*
X87155Y-1238655D02*
X0Y-1151500D01*
X173614Y-1255790D02*
X156479Y-1238655D01*
X554739Y-1009067D02*
X590675Y-1009067D01*
X-163035Y-1238655D02*
X-286366Y-1115324D01*
X-459603Y-1160826D02*
X-618647Y-1160826D01*
X-156479Y-1238655D02*
X-163035Y-1238655D01*
X459603Y-1160826D02*
X364639Y-1255790D01*
X-618647Y-1160826D02*
X-733850Y-1045623D01*
X103799Y-1291335D02*
X156479Y-1238655D01*
X590675Y-1009067D02*
X660000Y-1078392D01*
X-364639Y-1255790D02*
X-173614Y-1255790D01*
%TO.N,Net-(D31-A)*%
X972244Y-617005D02*
X1044257Y-617005D01*
X816040Y-1010058D02*
X733850Y-1010058D01*
X1289896Y34534D02*
X1289896Y-170435D01*
X1095142Y-355833D02*
X1217029Y-233946D01*
X961986Y-795824D02*
X961986Y-864112D01*
X1196812Y281478D02*
X1249167Y281478D01*
X529595Y-728924D02*
X567830Y-690689D01*
X1289896Y-170435D02*
X1226386Y-233946D01*
X1249167Y281478D02*
X1271930Y258714D01*
X567830Y-690689D02*
X682678Y-690689D01*
X1226386Y-233946D02*
X1234792Y-242352D01*
X1246036Y78394D02*
X1289896Y34534D01*
X1129677Y-664638D02*
X998490Y-795824D01*
X1271930Y258714D02*
X1271930Y104288D01*
X1149228Y-72303D02*
X1149228Y-18415D01*
X682678Y-690689D02*
X788256Y-796267D01*
X998490Y-795824D02*
X961986Y-795824D01*
X961986Y-864112D02*
X816040Y-1010058D01*
X1149228Y-18415D02*
X1246036Y78394D01*
X831839Y-795824D02*
X788256Y-839407D01*
X1271930Y104288D02*
X1246036Y78394D01*
X1044257Y-617005D02*
X1129677Y-531585D01*
X1234792Y-242352D02*
X1234792Y-426470D01*
X788256Y-796267D02*
X788256Y-839407D01*
X1131104Y215770D02*
X1196812Y281478D01*
X1234792Y-426470D02*
X1129677Y-531585D01*
X1217029Y-233946D02*
X1226386Y-233946D01*
X1129677Y-531585D02*
X1129677Y-664638D01*
X961986Y-795824D02*
X831839Y-795824D01*
%TO.N,Net-(D41-A)*%
X1187394Y385808D02*
X1187394Y542606D01*
X109547Y1177194D02*
X109547Y1269547D01*
X1061020Y668980D02*
X1054143Y668980D01*
X910381Y910117D02*
X1054143Y766355D01*
X310489Y1209276D02*
X486262Y1209276D01*
X856902Y305278D02*
X1041908Y490285D01*
X601470Y1094069D02*
X713719Y1094069D01*
X1120000Y610000D02*
X1061020Y668980D01*
X236346Y1283420D02*
X310489Y1209276D01*
X486262Y1209276D02*
X601470Y1094069D01*
X854657Y953131D02*
X854657Y910117D01*
X1054143Y766355D02*
X1054143Y668980D01*
X1041908Y531908D02*
X1120000Y610000D01*
X887246Y877528D02*
X854657Y910117D01*
X1041908Y490285D02*
X1041908Y531908D01*
X856902Y278424D02*
X856902Y305278D01*
X854657Y910117D02*
X910381Y910117D01*
X423895Y1070638D02*
X310489Y1184044D01*
X887246Y733994D02*
X887246Y877528D01*
X123420Y1283420D02*
X236346Y1283420D01*
X676835Y1018704D02*
X601470Y1094069D01*
X713719Y1094069D02*
X854657Y953131D01*
X310489Y1184044D02*
X310489Y1209276D01*
X109547Y1269547D02*
X123420Y1283420D01*
X144321Y1142420D02*
X109547Y1177194D01*
X676835Y931583D02*
X676835Y1018704D01*
X1187394Y542606D02*
X1120000Y610000D01*
%TD*%
M02*
