%TF.GenerationSoftware,KiCad,Pcbnew,7.0.8*%
%TF.CreationDate,2023-10-16T01:10:26-04:00*%
%TF.ProjectId,watch,77617463-682e-46b6-9963-61645f706362,rev?*%
%TF.SameCoordinates,Original*%
%TF.FileFunction,Copper,L1,Top*%
%TF.FilePolarity,Positive*%
%FSLAX45Y45*%
G04 Gerber Fmt 4.5, Leading zero omitted, Abs format (unit mm)*
G04 Created by KiCad (PCBNEW 7.0.8) date 2023-10-16 01:10:26*
%MOMM*%
%LPD*%
G01*
G04 APERTURE LIST*
G04 Aperture macros list*
%AMRoundRect*
0 Rectangle with rounded corners*
0 $1 Rounding radius*
0 $2 $3 $4 $5 $6 $7 $8 $9 X,Y pos of 4 corners*
0 Add a 4 corners polygon primitive as box body*
4,1,4,$2,$3,$4,$5,$6,$7,$8,$9,$2,$3,0*
0 Add four circle primitives for the rounded corners*
1,1,$1+$1,$2,$3*
1,1,$1+$1,$4,$5*
1,1,$1+$1,$6,$7*
1,1,$1+$1,$8,$9*
0 Add four rect primitives between the rounded corners*
20,1,$1+$1,$2,$3,$4,$5,0*
20,1,$1+$1,$4,$5,$6,$7,0*
20,1,$1+$1,$6,$7,$8,$9,0*
20,1,$1+$1,$8,$9,$2,$3,0*%
%AMRotRect*
0 Rectangle, with rotation*
0 The origin of the aperture is its center*
0 $1 length*
0 $2 width*
0 $3 Rotation angle, in degrees counterclockwise*
0 Add horizontal line*
21,1,$1,$2,0,0,$3*%
%AMFreePoly0*
4,1,6,0.230000,0.054289,0.020711,-0.155000,-0.230000,-0.155000,-0.230000,0.155000,0.230000,0.155000,0.230000,0.054289,0.230000,0.054289,$1*%
%AMFreePoly1*
4,1,6,0.230000,-0.054289,0.230000,-0.155000,-0.230000,-0.155000,-0.230000,0.155000,0.020711,0.155000,0.230000,-0.054289,0.230000,-0.054289,$1*%
%AMFreePoly2*
4,1,6,0.230000,-0.155000,-0.230000,-0.155000,-0.230000,-0.054289,-0.020711,0.155000,0.230000,0.155000,0.230000,-0.155000,0.230000,-0.155000,$1*%
%AMFreePoly3*
4,1,6,0.230000,-0.155000,-0.020711,-0.155000,-0.230000,0.054289,-0.230000,0.155000,0.230000,0.155000,0.230000,-0.155000,0.230000,-0.155000,$1*%
G04 Aperture macros list end*
%TA.AperFunction,SMDPad,CuDef*%
%ADD10FreePoly0,270.000000*%
%TD*%
%TA.AperFunction,SMDPad,CuDef*%
%ADD11FreePoly1,270.000000*%
%TD*%
%TA.AperFunction,SMDPad,CuDef*%
%ADD12FreePoly2,270.000000*%
%TD*%
%TA.AperFunction,SMDPad,CuDef*%
%ADD13FreePoly3,270.000000*%
%TD*%
%TA.AperFunction,SMDPad,CuDef*%
%ADD14RotRect,0.580000X0.580000X315.000000*%
%TD*%
%TA.AperFunction,SMDPad,CuDef*%
%ADD15RoundRect,0.062500X0.062500X-0.375000X0.062500X0.375000X-0.062500X0.375000X-0.062500X-0.375000X0*%
%TD*%
%TA.AperFunction,SMDPad,CuDef*%
%ADD16RoundRect,0.062500X0.375000X-0.062500X0.375000X0.062500X-0.375000X0.062500X-0.375000X-0.062500X0*%
%TD*%
%TA.AperFunction,SMDPad,CuDef*%
%ADD17R,3.500000X3.500000*%
%TD*%
%TA.AperFunction,SMDPad,CuDef*%
%ADD18RoundRect,0.147500X0.147500X0.172500X-0.147500X0.172500X-0.147500X-0.172500X0.147500X-0.172500X0*%
%TD*%
%TA.AperFunction,SMDPad,CuDef*%
%ADD19RoundRect,0.140000X0.140000X0.170000X-0.140000X0.170000X-0.140000X-0.170000X0.140000X-0.170000X0*%
%TD*%
%TA.AperFunction,SMDPad,CuDef*%
%ADD20RoundRect,0.147500X-0.147500X-0.172500X0.147500X-0.172500X0.147500X0.172500X-0.147500X0.172500X0*%
%TD*%
%TA.AperFunction,SMDPad,CuDef*%
%ADD21RoundRect,0.147500X-0.187120X-0.128446X0.097828X-0.204798X0.187120X0.128446X-0.097828X0.204798X0*%
%TD*%
%TA.AperFunction,SMDPad,CuDef*%
%ADD22RoundRect,0.147500X-0.213989X-0.075639X0.041489X-0.223139X0.213989X0.075639X-0.041489X0.223139X0*%
%TD*%
%TA.AperFunction,SMDPad,CuDef*%
%ADD23RoundRect,0.147500X-0.226274X-0.017678X-0.017678X-0.226274X0.226274X0.017678X0.017678X0.226274X0*%
%TD*%
%TA.AperFunction,SMDPad,CuDef*%
%ADD24RoundRect,0.147500X-0.223139X0.041489X-0.075639X-0.213989X0.223139X-0.041489X0.075639X0.213989X0*%
%TD*%
%TA.AperFunction,SMDPad,CuDef*%
%ADD25RoundRect,0.147500X-0.204798X0.097828X-0.128446X-0.187120X0.204798X-0.097828X0.128446X0.187120X0*%
%TD*%
%TA.AperFunction,SMDPad,CuDef*%
%ADD26RoundRect,0.147500X-0.172500X0.147500X-0.172500X-0.147500X0.172500X-0.147500X0.172500X0.147500X0*%
%TD*%
%TA.AperFunction,SMDPad,CuDef*%
%ADD27RoundRect,0.147500X-0.128446X0.187120X-0.204798X-0.097828X0.128446X-0.187120X0.204798X0.097828X0*%
%TD*%
%TA.AperFunction,SMDPad,CuDef*%
%ADD28RoundRect,0.147500X-0.075639X0.213989X-0.223139X-0.041489X0.075639X-0.213989X0.223139X0.041489X0*%
%TD*%
%TA.AperFunction,SMDPad,CuDef*%
%ADD29RoundRect,0.147500X-0.017678X0.226274X-0.226274X0.017678X0.017678X-0.226274X0.226274X-0.017678X0*%
%TD*%
%TA.AperFunction,SMDPad,CuDef*%
%ADD30RoundRect,0.147500X0.041489X0.223139X-0.213989X0.075639X-0.041489X-0.223139X0.213989X-0.075639X0*%
%TD*%
%TA.AperFunction,SMDPad,CuDef*%
%ADD31RoundRect,0.147500X0.097828X0.204798X-0.187120X0.128446X-0.097828X-0.204798X0.187120X-0.128446X0*%
%TD*%
%TA.AperFunction,SMDPad,CuDef*%
%ADD32RoundRect,0.147500X0.187120X0.128446X-0.097828X0.204798X-0.187120X-0.128446X0.097828X-0.204798X0*%
%TD*%
%TA.AperFunction,SMDPad,CuDef*%
%ADD33RoundRect,0.147500X0.213989X0.075639X-0.041489X0.223139X-0.213989X-0.075639X0.041489X-0.223139X0*%
%TD*%
%TA.AperFunction,SMDPad,CuDef*%
%ADD34RoundRect,0.147500X0.226274X0.017678X0.017678X0.226274X-0.226274X-0.017678X-0.017678X-0.226274X0*%
%TD*%
%TA.AperFunction,SMDPad,CuDef*%
%ADD35RoundRect,0.147500X0.223139X-0.041489X0.075639X0.213989X-0.223139X0.041489X-0.075639X-0.213989X0*%
%TD*%
%TA.AperFunction,SMDPad,CuDef*%
%ADD36RoundRect,0.147500X0.204798X-0.097828X0.128446X0.187120X-0.204798X0.097828X-0.128446X-0.187120X0*%
%TD*%
%TA.AperFunction,SMDPad,CuDef*%
%ADD37RoundRect,0.147500X0.172500X-0.147500X0.172500X0.147500X-0.172500X0.147500X-0.172500X-0.147500X0*%
%TD*%
%TA.AperFunction,SMDPad,CuDef*%
%ADD38RoundRect,0.147500X0.128446X-0.187120X0.204798X0.097828X-0.128446X0.187120X-0.204798X-0.097828X0*%
%TD*%
%TA.AperFunction,SMDPad,CuDef*%
%ADD39RoundRect,0.147500X0.075639X-0.213989X0.223139X0.041489X-0.075639X0.213989X-0.223139X-0.041489X0*%
%TD*%
%TA.AperFunction,SMDPad,CuDef*%
%ADD40RoundRect,0.147500X0.017678X-0.226274X0.226274X-0.017678X-0.017678X0.226274X-0.226274X0.017678X0*%
%TD*%
%TA.AperFunction,SMDPad,CuDef*%
%ADD41RoundRect,0.147500X-0.041489X-0.223139X0.213989X-0.075639X0.041489X0.223139X-0.213989X0.075639X0*%
%TD*%
%TA.AperFunction,SMDPad,CuDef*%
%ADD42RoundRect,0.147500X-0.097828X-0.204798X0.187120X-0.128446X0.097828X0.204798X-0.187120X0.128446X0*%
%TD*%
%TA.AperFunction,SMDPad,CuDef*%
%ADD43RoundRect,0.135000X-0.135000X-0.185000X0.135000X-0.185000X0.135000X0.185000X-0.135000X0.185000X0*%
%TD*%
%TA.AperFunction,SMDPad,CuDef*%
%ADD44RoundRect,0.135000X0.071224X0.217663X-0.185561X0.134228X-0.071224X-0.217663X0.185561X-0.134228X0*%
%TD*%
%TA.AperFunction,SMDPad,CuDef*%
%ADD45RoundRect,0.135000X0.229019X-0.000477X0.070317X0.217958X-0.229019X0.000477X-0.070317X-0.217958X0*%
%TD*%
%TA.AperFunction,SMDPad,CuDef*%
%ADD46RoundRect,0.135000X0.070317X-0.217958X0.229019X0.000477X-0.070317X0.217958X-0.229019X-0.000477X0*%
%TD*%
%TA.AperFunction,SMDPad,CuDef*%
%ADD47RoundRect,0.135000X-0.185561X-0.134228X0.071224X-0.217663X0.185561X0.134228X-0.071224X0.217663X0*%
%TD*%
%TA.AperFunction,SMDPad,CuDef*%
%ADD48RoundRect,0.135000X-0.185000X0.135000X-0.185000X-0.135000X0.185000X-0.135000X0.185000X0.135000X0*%
%TD*%
%TA.AperFunction,SMDPad,CuDef*%
%ADD49RoundRect,0.147500X-0.226254X0.017937X-0.052857X-0.220723X0.226254X-0.017937X0.052857X0.220723X0*%
%TD*%
%TA.AperFunction,SMDPad,CuDef*%
%ADD50RoundRect,0.147500X-0.032108X-0.224681X0.216968X-0.066612X0.032108X0.224681X-0.216968X0.066612X0*%
%TD*%
%TA.AperFunction,SMDPad,CuDef*%
%ADD51RoundRect,0.147500X-0.060015X-0.218885X0.206909X-0.093280X0.060015X0.218885X-0.206909X0.093280X0*%
%TD*%
%TA.AperFunction,SMDPad,CuDef*%
%ADD52RoundRect,0.147500X-0.136378X-0.181421X0.158040X-0.162898X0.136378X0.181421X-0.158040X0.162898X0*%
%TD*%
%TA.AperFunction,SMDPad,CuDef*%
%ADD53RoundRect,0.147500X0.130399X-0.185765X0.203762X0.099967X-0.130399X0.185765X-0.203762X-0.099967X0*%
%TD*%
%TA.AperFunction,SMDPad,CuDef*%
%ADD54RoundRect,0.147500X-0.106088X0.200644X-0.214685X-0.073641X0.106088X-0.200644X0.214685X0.073641X0*%
%TD*%
%TA.AperFunction,SMDPad,CuDef*%
%ADD55RoundRect,0.147500X0.136378X0.181421X-0.158040X0.162898X-0.136378X-0.181421X0.158040X-0.162898X0*%
%TD*%
%TA.AperFunction,SMDPad,CuDef*%
%ADD56RoundRect,0.147500X0.203762X-0.099967X0.130399X0.185765X-0.203762X0.099967X-0.130399X-0.185765X0*%
%TD*%
%TA.AperFunction,SMDPad,CuDef*%
%ADD57RoundRect,0.147500X0.193586X0.118477X-0.086975X0.209637X-0.193586X-0.118477X0.086975X-0.209637X0*%
%TD*%
%TA.AperFunction,SMDPad,CuDef*%
%ADD58RoundRect,0.147500X-0.080104X0.212358X-0.222222X-0.046153X0.080104X-0.212358X0.222222X0.046153X0*%
%TD*%
%TA.AperFunction,SMDPad,CuDef*%
%ADD59RoundRect,0.147500X-0.086975X-0.209637X0.193586X-0.118477X0.086975X0.209637X-0.193586X0.118477X0*%
%TD*%
%TA.AperFunction,ComponentPad*%
%ADD60C,1.400000*%
%TD*%
%TA.AperFunction,SMDPad,CuDef*%
%ADD61RoundRect,0.147500X0.158040X0.162898X-0.136378X0.181421X-0.158040X-0.162898X0.136378X-0.181421X0*%
%TD*%
%TA.AperFunction,SMDPad,CuDef*%
%ADD62RoundRect,0.147500X0.152653X-0.167957X0.189626X0.124717X-0.152653X0.167957X-0.189626X-0.124717X0*%
%TD*%
%TA.AperFunction,SMDPad,CuDef*%
%ADD63RoundRect,0.147500X-0.226718X-0.010562X-0.024776X-0.225607X0.226718X0.010562X0.024776X0.225607X0*%
%TD*%
%TA.AperFunction,SMDPad,CuDef*%
%ADD64RoundRect,0.147500X0.177211X0.141806X-0.112564X0.197083X-0.177211X-0.141806X0.112564X-0.197083X0*%
%TD*%
%TA.AperFunction,SMDPad,CuDef*%
%ADD65RoundRect,0.147500X0.112564X0.197083X-0.177211X0.141806X-0.112564X-0.197083X0.177211X-0.141806X0*%
%TD*%
%TA.AperFunction,SMDPad,CuDef*%
%ADD66RoundRect,0.147500X0.003695X0.226934X-0.223606X0.038893X-0.003695X-0.226934X0.223606X-0.038893X0*%
%TD*%
%TA.AperFunction,SMDPad,CuDef*%
%ADD67RoundRect,0.147500X-0.189626X0.124717X-0.152653X-0.167957X0.189626X-0.124717X0.152653X0.167957X0*%
%TD*%
%TA.AperFunction,SMDPad,CuDef*%
%ADD68RoundRect,0.147500X0.222222X-0.046153X0.080104X0.212358X-0.222222X0.046153X-0.080104X-0.212358X0*%
%TD*%
%TA.AperFunction,SMDPad,CuDef*%
%ADD69RoundRect,0.147500X0.032108X0.224681X-0.216968X0.066612X-0.032108X-0.224681X0.216968X-0.066612X0*%
%TD*%
%TA.AperFunction,SMDPad,CuDef*%
%ADD70RoundRect,0.147500X-0.112564X-0.197083X0.177211X-0.141806X0.112564X0.197083X-0.177211X0.141806X0*%
%TD*%
%TA.AperFunction,SMDPad,CuDef*%
%ADD71RoundRect,0.147500X-0.003695X-0.226934X0.223606X-0.038893X0.003695X0.226934X-0.223606X0.038893X0*%
%TD*%
%TA.AperFunction,SMDPad,CuDef*%
%ADD72RoundRect,0.147500X-0.223606X-0.038893X0.003695X-0.226934X0.223606X0.038893X-0.003695X0.226934X0*%
%TD*%
%TA.AperFunction,SMDPad,CuDef*%
%ADD73RoundRect,0.147500X-0.177211X-0.141806X0.112564X-0.197083X0.177211X0.141806X-0.112564X0.197083X0*%
%TD*%
%TA.AperFunction,SMDPad,CuDef*%
%ADD74RoundRect,0.147500X0.223606X0.038893X-0.003695X0.226934X-0.223606X-0.038893X0.003695X-0.226934X0*%
%TD*%
%TA.AperFunction,SMDPad,CuDef*%
%ADD75RoundRect,0.147500X0.052857X-0.220723X0.226254X0.017937X-0.052857X0.220723X-0.226254X-0.017937X0*%
%TD*%
%TA.AperFunction,SMDPad,CuDef*%
%ADD76RoundRect,0.147500X-0.052857X0.220723X-0.226254X-0.017937X0.052857X-0.220723X0.226254X0.017937X0*%
%TD*%
%TA.AperFunction,SMDPad,CuDef*%
%ADD77RoundRect,0.147500X0.214685X-0.073641X0.106088X0.200644X-0.214685X0.073641X-0.106088X-0.200644X0*%
%TD*%
%TA.AperFunction,SMDPad,CuDef*%
%ADD78RoundRect,0.147500X-0.024776X0.225607X-0.226718X0.010562X0.024776X-0.225607X0.226718X-0.010562X0*%
%TD*%
%TA.AperFunction,SMDPad,CuDef*%
%ADD79RoundRect,0.147500X0.080104X-0.212358X0.222222X0.046153X-0.080104X0.212358X-0.222222X-0.046153X0*%
%TD*%
%TA.AperFunction,SMDPad,CuDef*%
%ADD80RoundRect,0.147500X0.060015X0.218885X-0.206909X0.093280X-0.060015X-0.218885X0.206909X-0.093280X0*%
%TD*%
%TA.AperFunction,SMDPad,CuDef*%
%ADD81RoundRect,0.147500X-0.222222X0.046153X-0.080104X-0.212358X0.222222X-0.046153X0.080104X0.212358X0*%
%TD*%
%TA.AperFunction,SMDPad,CuDef*%
%ADD82RoundRect,0.147500X-0.214685X0.073641X-0.106088X-0.200644X0.214685X-0.073641X0.106088X0.200644X0*%
%TD*%
%TA.AperFunction,SMDPad,CuDef*%
%ADD83RoundRect,0.147500X-0.193586X-0.118477X0.086975X-0.209637X0.193586X0.118477X-0.086975X0.209637X0*%
%TD*%
%TA.AperFunction,SMDPad,CuDef*%
%ADD84RoundRect,0.147500X-0.216968X-0.066612X0.032108X-0.224681X0.216968X0.066612X-0.032108X0.224681X0*%
%TD*%
%TA.AperFunction,SMDPad,CuDef*%
%ADD85RoundRect,0.147500X-0.158040X-0.162898X0.136378X-0.181421X0.158040X0.162898X-0.136378X0.181421X0*%
%TD*%
%TA.AperFunction,SMDPad,CuDef*%
%ADD86RoundRect,0.147500X0.086975X0.209637X-0.193586X0.118477X-0.086975X-0.209637X0.193586X-0.118477X0*%
%TD*%
%TA.AperFunction,SMDPad,CuDef*%
%ADD87RoundRect,0.147500X-0.152653X0.167957X-0.189626X-0.124717X0.152653X-0.167957X0.189626X0.124717X0*%
%TD*%
%TA.AperFunction,SMDPad,CuDef*%
%ADD88RoundRect,0.147500X0.206909X0.093280X-0.060015X0.218885X-0.206909X-0.093280X0.060015X-0.218885X0*%
%TD*%
%TA.AperFunction,SMDPad,CuDef*%
%ADD89RoundRect,0.147500X-0.203762X0.099967X-0.130399X-0.185765X0.203762X-0.099967X0.130399X0.185765X0*%
%TD*%
%TA.AperFunction,SMDPad,CuDef*%
%ADD90RoundRect,0.147500X0.216968X0.066612X-0.032108X0.224681X-0.216968X-0.066612X0.032108X-0.224681X0*%
%TD*%
%TA.AperFunction,SMDPad,CuDef*%
%ADD91RoundRect,0.147500X-0.130399X0.185765X-0.203762X-0.099967X0.130399X-0.185765X0.203762X0.099967X0*%
%TD*%
%TA.AperFunction,SMDPad,CuDef*%
%ADD92RoundRect,0.147500X0.226718X0.010562X0.024776X0.225607X-0.226718X-0.010562X-0.024776X-0.225607X0*%
%TD*%
%TA.AperFunction,SMDPad,CuDef*%
%ADD93RoundRect,0.147500X0.226254X-0.017937X0.052857X0.220723X-0.226254X0.017937X-0.052857X-0.220723X0*%
%TD*%
%TA.AperFunction,SMDPad,CuDef*%
%ADD94RoundRect,0.147500X0.106088X-0.200644X0.214685X0.073641X-0.106088X0.200644X-0.214685X-0.073641X0*%
%TD*%
%TA.AperFunction,SMDPad,CuDef*%
%ADD95RoundRect,0.147500X0.024776X-0.225607X0.226718X-0.010562X-0.024776X0.225607X-0.226718X0.010562X0*%
%TD*%
%TA.AperFunction,SMDPad,CuDef*%
%ADD96RoundRect,0.147500X0.189626X-0.124717X0.152653X0.167957X-0.189626X0.124717X-0.152653X-0.167957X0*%
%TD*%
%TA.AperFunction,SMDPad,CuDef*%
%ADD97RoundRect,0.147500X-0.206909X-0.093280X0.060015X-0.218885X0.206909X0.093280X-0.060015X0.218885X0*%
%TD*%
%TA.AperFunction,ViaPad*%
%ADD98C,0.400000*%
%TD*%
%TA.AperFunction,Conductor*%
%ADD99C,0.088900*%
%TD*%
%TA.AperFunction,Conductor*%
%ADD100C,0.200000*%
%TD*%
G04 APERTURE END LIST*
D10*
%TO.P,U2,1,V_{out}*%
%TO.N,VDD*%
X634500Y-5000D03*
D11*
%TO.P,U2,2,CASE*%
%TO.N,GND*%
X569500Y-5000D03*
D12*
%TO.P,U2,3,EN*%
%TO.N,+BATT*%
X569500Y-91000D03*
D13*
%TO.P,U2,4,V_{in}*%
X634500Y-91000D03*
D14*
%TO.P,U2,5,GND*%
%TO.N,GND*%
X602000Y-48000D03*
%TD*%
D15*
%TO.P,U1,1,PB9*%
%TO.N,/LED8*%
X-175000Y-693750D03*
%TO.P,U1,2,PC14*%
%TO.N,/LED15*%
X-125000Y-693750D03*
%TO.P,U1,3,PC15*%
%TO.N,/LED3*%
X-75000Y-693750D03*
%TO.P,U1,4,VDD*%
%TO.N,VDD*%
X-25000Y-693750D03*
%TO.P,U1,5,VSS*%
%TO.N,GND*%
X25000Y-693750D03*
%TO.P,U1,6,PF2*%
%TO.N,unconnected-(U1-PF2-Pad6)*%
X75000Y-693750D03*
%TO.P,U1,7,PA0*%
%TO.N,Net-(U1-PA0)*%
X125000Y-693750D03*
%TO.P,U1,8,PA1*%
%TO.N,/LED9*%
X175000Y-693750D03*
D16*
%TO.P,U1,9,PA2*%
%TO.N,/LED16*%
X243750Y-625000D03*
%TO.P,U1,10,PA3*%
%TO.N,/LED4*%
X243750Y-575000D03*
%TO.P,U1,11,PA4*%
%TO.N,/LED10*%
X243750Y-525000D03*
%TO.P,U1,12,PA5*%
%TO.N,unconnected-(U1-PA5-Pad12)*%
X243750Y-475000D03*
%TO.P,U1,13,PA6*%
%TO.N,unconnected-(U1-PA6-Pad13)*%
X243750Y-425000D03*
%TO.P,U1,14,PA7*%
%TO.N,unconnected-(U1-PA7-Pad14)*%
X243750Y-375000D03*
%TO.P,U1,15,PB0*%
%TO.N,unconnected-(U1-PB0-Pad15)*%
X243750Y-325000D03*
%TO.P,U1,16,PB1*%
%TO.N,unconnected-(U1-PB1-Pad16)*%
X243750Y-275000D03*
D15*
%TO.P,U1,17,PB2*%
%TO.N,unconnected-(U1-PB2-Pad17)*%
X175000Y-206250D03*
%TO.P,U1,18,PA8*%
%TO.N,unconnected-(U1-PA8-Pad18)*%
X125000Y-206250D03*
%TO.P,U1,19,PA9/NC*%
%TO.N,unconnected-(U1-PA9{slash}NC-Pad19)*%
X75000Y-206250D03*
%TO.P,U1,20,PC6*%
%TO.N,unconnected-(U1-PC6-Pad20)*%
X25000Y-206250D03*
%TO.P,U1,21,PA10/NC*%
%TO.N,/LED17*%
X-25000Y-206250D03*
%TO.P,U1,22,PA11/PA9*%
%TO.N,/LED11*%
X-75000Y-206250D03*
%TO.P,U1,23,PA12/PA10*%
%TO.N,/LED12*%
X-125000Y-206250D03*
%TO.P,U1,24,PA13*%
%TO.N,/SWDIO*%
X-175000Y-206250D03*
D16*
%TO.P,U1,25,PA14*%
%TO.N,/SWCLK*%
X-243750Y-275000D03*
%TO.P,U1,26,PA15*%
%TO.N,/LED14*%
X-243750Y-325000D03*
%TO.P,U1,27,PB3*%
%TO.N,/LED13*%
X-243750Y-375000D03*
%TO.P,U1,28,PB4*%
%TO.N,/LED7*%
X-243750Y-425000D03*
%TO.P,U1,29,PB5*%
%TO.N,/LED2*%
X-243750Y-475000D03*
%TO.P,U1,30,PB6*%
%TO.N,/LED6*%
X-243750Y-525000D03*
%TO.P,U1,31,PB7*%
%TO.N,/LED5*%
X-243750Y-575000D03*
%TO.P,U1,32,PB8*%
%TO.N,/LED1*%
X-243750Y-625000D03*
D17*
%TO.P,U1,33,VSS*%
%TO.N,GND*%
X0Y-450000D03*
%TD*%
D18*
%TO.P,R9,2*%
%TO.N,Net-(U1-PA0)*%
X553500Y-290000D03*
%TO.P,R9,1*%
%TO.N,+BATT*%
X650500Y-290000D03*
%TD*%
D19*
%TO.P,C1,2*%
%TO.N,GND*%
X554000Y-191000D03*
%TO.P,C1,1*%
%TO.N,+BATT*%
X650000Y-191000D03*
%TD*%
D20*
%TO.P,R10,2*%
%TO.N,GND*%
X650500Y-390000D03*
%TO.P,R10,1*%
%TO.N,Net-(U1-PA0)*%
X553500Y-390000D03*
%TD*%
D19*
%TO.P,C2,2*%
%TO.N,GND*%
X554000Y95000D03*
%TO.P,C2,1*%
%TO.N,VDD*%
X650000Y95000D03*
%TD*%
D21*
%TO.P,D74,1,K*%
%TO.N,/LED17*%
X211972Y978478D03*
%TO.P,D74,2,A*%
%TO.N,Net-(D55-K)*%
X305666Y953373D03*
%TD*%
D22*
%TO.P,D73,1,K*%
%TO.N,Net-(D55-K)*%
X457998Y890275D03*
%TO.P,D73,2,A*%
%TO.N,/LED17*%
X542002Y841775D03*
%TD*%
D23*
%TO.P,D72,1,K*%
%TO.N,/LED17*%
X672812Y741401D03*
%TO.P,D72,2,A*%
%TO.N,Net-(D53-K)*%
X741401Y672812D03*
%TD*%
D24*
%TO.P,D71,1,K*%
%TO.N,Net-(D53-K)*%
X841775Y542002D03*
%TO.P,D71,2,A*%
%TO.N,/LED17*%
X890275Y457998D03*
%TD*%
D25*
%TO.P,D70,1,K*%
%TO.N,/LED17*%
X953373Y305666D03*
%TO.P,D70,2,A*%
%TO.N,Net-(D51-K)*%
X978478Y211972D03*
%TD*%
D26*
%TO.P,D69,1,K*%
%TO.N,Net-(D51-K)*%
X1000000Y48500D03*
%TO.P,D69,2,A*%
%TO.N,/LED17*%
X1000000Y-48500D03*
%TD*%
D27*
%TO.P,D68,1,K*%
%TO.N,/LED16*%
X978478Y-211972D03*
%TO.P,D68,2,A*%
%TO.N,Net-(D55-K)*%
X953373Y-305666D03*
%TD*%
D28*
%TO.P,D67,1,K*%
%TO.N,Net-(D55-K)*%
X890275Y-457998D03*
%TO.P,D67,2,A*%
%TO.N,/LED16*%
X841775Y-542002D03*
%TD*%
D29*
%TO.P,D66,1,K*%
%TO.N,/LED16*%
X741401Y-672812D03*
%TO.P,D66,2,A*%
%TO.N,Net-(D53-K)*%
X672812Y-741401D03*
%TD*%
D30*
%TO.P,D65,1,K*%
%TO.N,Net-(D53-K)*%
X542002Y-841775D03*
%TO.P,D65,2,A*%
%TO.N,/LED16*%
X457998Y-890275D03*
%TD*%
D31*
%TO.P,D64,1,K*%
%TO.N,/LED16*%
X305666Y-953373D03*
%TO.P,D64,2,A*%
%TO.N,Net-(D51-K)*%
X211972Y-978478D03*
%TD*%
D18*
%TO.P,D63,1,K*%
%TO.N,Net-(D51-K)*%
X48500Y-1000000D03*
%TO.P,D63,2,A*%
%TO.N,/LED16*%
X-48500Y-1000000D03*
%TD*%
D32*
%TO.P,D62,1,K*%
%TO.N,/LED15*%
X-211972Y-978478D03*
%TO.P,D62,2,A*%
%TO.N,Net-(D55-K)*%
X-305666Y-953373D03*
%TD*%
D33*
%TO.P,D61,1,K*%
%TO.N,Net-(D55-K)*%
X-457998Y-890275D03*
%TO.P,D61,2,A*%
%TO.N,/LED15*%
X-542002Y-841775D03*
%TD*%
D34*
%TO.P,D60,1,K*%
%TO.N,/LED15*%
X-672812Y-741401D03*
%TO.P,D60,2,A*%
%TO.N,Net-(D53-K)*%
X-741401Y-672812D03*
%TD*%
D35*
%TO.P,D59,1,K*%
%TO.N,Net-(D53-K)*%
X-841775Y-542002D03*
%TO.P,D59,2,A*%
%TO.N,/LED15*%
X-890275Y-457998D03*
%TD*%
D36*
%TO.P,D58,1,K*%
%TO.N,/LED15*%
X-953373Y-305666D03*
%TO.P,D58,2,A*%
%TO.N,Net-(D51-K)*%
X-978478Y-211972D03*
%TD*%
D37*
%TO.P,D57,1,K*%
%TO.N,Net-(D51-K)*%
X-1000000Y-48500D03*
%TO.P,D57,2,A*%
%TO.N,/LED15*%
X-1000000Y48500D03*
%TD*%
D38*
%TO.P,D56,1,K*%
%TO.N,/LED14*%
X-978478Y211972D03*
%TO.P,D56,2,A*%
%TO.N,Net-(D55-K)*%
X-953373Y305666D03*
%TD*%
D39*
%TO.P,D55,1,K*%
%TO.N,Net-(D55-K)*%
X-890275Y457998D03*
%TO.P,D55,2,A*%
%TO.N,/LED14*%
X-841775Y542002D03*
%TD*%
D40*
%TO.P,D54,1,K*%
%TO.N,/LED14*%
X-741401Y672812D03*
%TO.P,D54,2,A*%
%TO.N,Net-(D53-K)*%
X-672812Y741401D03*
%TD*%
D41*
%TO.P,D53,1,K*%
%TO.N,Net-(D53-K)*%
X-542002Y841775D03*
%TO.P,D53,2,A*%
%TO.N,/LED14*%
X-457998Y890275D03*
%TD*%
D42*
%TO.P,D52,1,K*%
%TO.N,/LED14*%
X-305666Y953373D03*
%TO.P,D52,2,A*%
%TO.N,Net-(D51-K)*%
X-211972Y978478D03*
%TD*%
D43*
%TO.P,R8,1*%
%TO.N,/LED13*%
X209000Y800000D03*
%TO.P,R8,2*%
%TO.N,Net-(D55-K)*%
X311000Y800000D03*
%TD*%
%TO.P,R7,1*%
%TO.N,/LED12*%
X209000Y700000D03*
%TO.P,R7,2*%
%TO.N,Net-(D53-K)*%
X311000Y700000D03*
%TD*%
%TO.P,R6,1*%
%TO.N,/LED11*%
X209000Y600000D03*
%TO.P,R6,2*%
%TO.N,Net-(D51-K)*%
X311000Y600000D03*
%TD*%
D44*
%TO.P,R5,1*%
%TO.N,Net-(D41-A)*%
X856902Y278424D03*
%TO.P,R5,2*%
%TO.N,/LED10*%
X759894Y246904D03*
%TD*%
D45*
%TO.P,R4,1*%
%TO.N,Net-(D31-A)*%
X529595Y-728924D03*
%TO.P,R4,2*%
%TO.N,/LED9*%
X469640Y-646405D03*
%TD*%
D46*
%TO.P,R3,1*%
%TO.N,Net-(D21-A)*%
X-529595Y-728924D03*
%TO.P,R3,2*%
%TO.N,/LED8*%
X-469640Y-646405D03*
%TD*%
D47*
%TO.P,R2,1*%
%TO.N,Net-(D11-A)*%
X-856902Y278424D03*
%TO.P,R2,2*%
%TO.N,/LED7*%
X-759894Y246904D03*
%TD*%
D48*
%TO.P,R1,1*%
%TO.N,Net-(D1-A)*%
X0Y901000D03*
%TO.P,R1,2*%
%TO.N,/LED6*%
X0Y799000D03*
%TD*%
D20*
%TO.P,D51,1,K*%
%TO.N,Net-(D51-K)*%
X-48500Y1000000D03*
%TO.P,D51,2,A*%
%TO.N,/LED14*%
X48500Y1000000D03*
%TD*%
D49*
%TO.P,D31,1,K*%
%TO.N,/LED1*%
X676835Y-931583D03*
%TO.P,D31,2,A*%
%TO.N,Net-(D31-A)*%
X733850Y-1010058D03*
%TD*%
D50*
%TO.P,D43,1,K*%
%TO.N,/LED2*%
X972244Y617005D03*
%TO.P,D43,2,A*%
%TO.N,Net-(D41-A)*%
X1054143Y668980D03*
%TD*%
D51*
%TO.P,D42,1,K*%
%TO.N,Net-(D41-A)*%
X1041908Y490285D03*
%TO.P,D42,2,A*%
%TO.N,/LED1*%
X1129677Y531585D03*
%TD*%
D52*
%TO.P,D39,1,K*%
%TO.N,/LED5*%
X1149228Y72303D03*
%TO.P,D39,2,A*%
%TO.N,Net-(D31-A)*%
X1246036Y78394D03*
%TD*%
D26*
%TO.P,D26,1,K*%
%TO.N,Net-(D21-A)*%
X0Y-1151500D03*
%TO.P,D26,2,A*%
%TO.N,/LED3*%
X0Y-1248500D03*
%TD*%
D53*
%TO.P,D49,1,K*%
%TO.N,/LED5*%
X286366Y1115324D03*
%TO.P,D49,2,A*%
%TO.N,Net-(D41-A)*%
X310489Y1209276D03*
%TD*%
D54*
%TO.P,D23,1,K*%
%TO.N,/LED2*%
X-423895Y-1070638D03*
%TO.P,D23,2,A*%
%TO.N,Net-(D21-A)*%
X-459603Y-1160826D03*
%TD*%
D55*
%TO.P,D14,1,K*%
%TO.N,Net-(D11-A)*%
X-1149228Y-72303D03*
%TO.P,D14,2,A*%
%TO.N,/LED2*%
X-1246036Y-78394D03*
%TD*%
D56*
%TO.P,D3,1,K*%
%TO.N,/LED2*%
X-286366Y1115324D03*
%TO.P,D3,2,A*%
%TO.N,Net-(D1-A)*%
X-310489Y1209276D03*
%TD*%
D57*
%TO.P,D11,1,K*%
%TO.N,/LED1*%
X-1095142Y355833D03*
%TO.P,D11,2,A*%
%TO.N,Net-(D11-A)*%
X-1187394Y385808D03*
%TD*%
D58*
%TO.P,D22,1,K*%
%TO.N,Net-(D21-A)*%
X-554739Y-1009067D03*
%TO.P,D22,2,A*%
%TO.N,/LED1*%
X-601470Y-1094069D03*
%TD*%
D59*
%TO.P,D41,1,K*%
%TO.N,/LED1*%
X1095142Y355833D03*
%TO.P,D41,2,A*%
%TO.N,Net-(D41-A)*%
X1187394Y385808D03*
%TD*%
D60*
%TO.P,TP2,1,1*%
%TO.N,GND*%
X750000Y-1230000D03*
%TO.P,TP2,2,2*%
%TO.N,+BATT*%
X950000Y-1230000D03*
%TD*%
D61*
%TO.P,D13,1,K*%
%TO.N,/LED2*%
X-1149228Y72303D03*
%TO.P,D13,2,A*%
%TO.N,Net-(D11-A)*%
X-1246036Y78394D03*
%TD*%
D62*
%TO.P,D50,1,K*%
%TO.N,Net-(D41-A)*%
X144321Y1142420D03*
%TO.P,D50,2,A*%
%TO.N,/LED5*%
X156479Y1238655D03*
%TD*%
D63*
%TO.P,D32,1,K*%
%TO.N,Net-(D31-A)*%
X788256Y-839407D03*
%TO.P,D32,2,A*%
%TO.N,/LED1*%
X854657Y-910117D03*
%TD*%
D64*
%TO.P,D12,1,K*%
%TO.N,Net-(D11-A)*%
X-1131104Y215770D03*
%TO.P,D12,2,A*%
%TO.N,/LED1*%
X-1226386Y233946D03*
%TD*%
D65*
%TO.P,D15,1,K*%
%TO.N,/LED3*%
X-1131104Y-215770D03*
%TO.P,D15,2,A*%
%TO.N,Net-(D11-A)*%
X-1226386Y-233946D03*
%TD*%
D66*
%TO.P,D19,1,K*%
%TO.N,/LED5*%
X-887246Y-733994D03*
%TO.P,D19,2,A*%
%TO.N,Net-(D11-A)*%
X-961986Y-795824D03*
%TD*%
D67*
%TO.P,D27,1,K*%
%TO.N,/LED4*%
X144321Y-1142420D03*
%TO.P,D27,2,A*%
%TO.N,Net-(D21-A)*%
X156479Y-1238655D03*
%TD*%
D60*
%TO.P,TP4,1,1*%
%TO.N,GND*%
X829000Y1247000D03*
%TO.P,TP4,2,2*%
%TO.N,VDD*%
X1029000Y1247000D03*
%TD*%
D68*
%TO.P,D5,1,K*%
%TO.N,/LED3*%
X-554739Y1009067D03*
%TO.P,D5,2,A*%
%TO.N,Net-(D1-A)*%
X-601470Y1094069D03*
%TD*%
D69*
%TO.P,D18,1,K*%
%TO.N,Net-(D11-A)*%
X-972244Y-617005D03*
%TO.P,D18,2,A*%
%TO.N,/LED4*%
X-1054143Y-668980D03*
%TD*%
D70*
%TO.P,D40,1,K*%
%TO.N,Net-(D31-A)*%
X1131104Y215770D03*
%TO.P,D40,2,A*%
%TO.N,/LED5*%
X1226386Y233946D03*
%TD*%
D71*
%TO.P,D44,1,K*%
%TO.N,Net-(D41-A)*%
X887246Y733994D03*
%TO.P,D44,2,A*%
%TO.N,/LED2*%
X961986Y795824D03*
%TD*%
D72*
%TO.P,D33,1,K*%
%TO.N,/LED2*%
X887246Y-733994D03*
%TO.P,D33,2,A*%
%TO.N,Net-(D31-A)*%
X961986Y-795824D03*
%TD*%
D73*
%TO.P,D37,1,K*%
%TO.N,/LED4*%
X1131104Y-215770D03*
%TO.P,D37,2,A*%
%TO.N,Net-(D31-A)*%
X1226386Y-233946D03*
%TD*%
D74*
%TO.P,D8,1,K*%
%TO.N,Net-(D1-A)*%
X-887246Y733994D03*
%TO.P,D8,2,A*%
%TO.N,/LED4*%
X-961986Y795824D03*
%TD*%
D75*
%TO.P,D46,1,K*%
%TO.N,Net-(D41-A)*%
X676835Y931583D03*
%TO.P,D46,2,A*%
%TO.N,/LED3*%
X733850Y1010058D03*
%TD*%
D76*
%TO.P,D21,1,K*%
%TO.N,/LED1*%
X-676835Y-931583D03*
%TO.P,D21,2,A*%
%TO.N,Net-(D21-A)*%
X-733850Y-1010058D03*
%TD*%
D77*
%TO.P,D4,1,K*%
%TO.N,Net-(D1-A)*%
X-423895Y1070638D03*
%TO.P,D4,2,A*%
%TO.N,/LED2*%
X-459603Y1160826D03*
%TD*%
D78*
%TO.P,D20,1,K*%
%TO.N,Net-(D11-A)*%
X-788256Y-839407D03*
%TO.P,D20,2,A*%
%TO.N,/LED5*%
X-854657Y-910117D03*
%TD*%
D79*
%TO.P,D47,1,K*%
%TO.N,/LED4*%
X554739Y1009067D03*
%TO.P,D47,2,A*%
%TO.N,Net-(D41-A)*%
X601470Y1094069D03*
%TD*%
D37*
%TO.P,D1,1,K*%
%TO.N,/LED1*%
X0Y1151500D03*
%TO.P,D1,2,A*%
%TO.N,Net-(D1-A)*%
X0Y1248500D03*
%TD*%
D60*
%TO.P,TP1,1,1*%
%TO.N,/coil_{+}*%
X-1020000Y-1230000D03*
%TO.P,TP1,2,2*%
X-820000Y-1230000D03*
%TD*%
D80*
%TO.P,D17,1,K*%
%TO.N,/LED4*%
X-1041908Y-490285D03*
%TO.P,D17,2,A*%
%TO.N,Net-(D11-A)*%
X-1129677Y-531585D03*
%TD*%
D81*
%TO.P,D30,1,K*%
%TO.N,Net-(D21-A)*%
X554739Y-1009067D03*
%TO.P,D30,2,A*%
%TO.N,/LED5*%
X601470Y-1094069D03*
%TD*%
D82*
%TO.P,D29,1,K*%
%TO.N,/LED5*%
X423895Y-1070638D03*
%TO.P,D29,2,A*%
%TO.N,Net-(D21-A)*%
X459603Y-1160826D03*
%TD*%
D83*
%TO.P,D36,1,K*%
%TO.N,Net-(D31-A)*%
X1095142Y-355833D03*
%TO.P,D36,2,A*%
%TO.N,/LED3*%
X1187394Y-385808D03*
%TD*%
D60*
%TO.P,TP3,1,1*%
%TO.N,/SWCLK*%
X-1044000Y1251000D03*
%TO.P,TP3,2,2*%
%TO.N,/SWDIO*%
X-844000Y1251000D03*
%TD*%
D84*
%TO.P,D34,1,K*%
%TO.N,Net-(D31-A)*%
X972244Y-617005D03*
%TO.P,D34,2,A*%
%TO.N,/LED2*%
X1054143Y-668980D03*
%TD*%
D85*
%TO.P,D38,1,K*%
%TO.N,Net-(D31-A)*%
X1149228Y-72303D03*
%TO.P,D38,2,A*%
%TO.N,/LED4*%
X1246036Y-78394D03*
%TD*%
D86*
%TO.P,D16,1,K*%
%TO.N,Net-(D11-A)*%
X-1095142Y-355833D03*
%TO.P,D16,2,A*%
%TO.N,/LED3*%
X-1187394Y-385808D03*
%TD*%
D87*
%TO.P,D25,1,K*%
%TO.N,/LED3*%
X-144321Y-1142420D03*
%TO.P,D25,2,A*%
%TO.N,Net-(D21-A)*%
X-156479Y-1238655D03*
%TD*%
D88*
%TO.P,D10,1,K*%
%TO.N,Net-(D1-A)*%
X-1041908Y490285D03*
%TO.P,D10,2,A*%
%TO.N,/LED5*%
X-1129677Y531585D03*
%TD*%
D89*
%TO.P,D28,1,K*%
%TO.N,Net-(D21-A)*%
X286366Y-1115324D03*
%TO.P,D28,2,A*%
%TO.N,/LED4*%
X310489Y-1209276D03*
%TD*%
D90*
%TO.P,D9,1,K*%
%TO.N,/LED5*%
X-972244Y617005D03*
%TO.P,D9,2,A*%
%TO.N,Net-(D1-A)*%
X-1054143Y668980D03*
%TD*%
D91*
%TO.P,D24,1,K*%
%TO.N,Net-(D21-A)*%
X-286366Y-1115324D03*
%TO.P,D24,2,A*%
%TO.N,/LED2*%
X-310489Y-1209276D03*
%TD*%
D92*
%TO.P,D7,1,K*%
%TO.N,/LED4*%
X-788256Y839407D03*
%TO.P,D7,2,A*%
%TO.N,Net-(D1-A)*%
X-854657Y910117D03*
%TD*%
D93*
%TO.P,D6,1,K*%
%TO.N,Net-(D1-A)*%
X-676835Y931583D03*
%TO.P,D6,2,A*%
%TO.N,/LED3*%
X-733850Y1010058D03*
%TD*%
D94*
%TO.P,D48,1,K*%
%TO.N,Net-(D41-A)*%
X423895Y1070638D03*
%TO.P,D48,2,A*%
%TO.N,/LED4*%
X459603Y1160826D03*
%TD*%
D95*
%TO.P,D45,1,K*%
%TO.N,/LED3*%
X788256Y839407D03*
%TO.P,D45,2,A*%
%TO.N,Net-(D41-A)*%
X854657Y910117D03*
%TD*%
D96*
%TO.P,D2,1,K*%
%TO.N,Net-(D1-A)*%
X-144321Y1142420D03*
%TO.P,D2,2,A*%
%TO.N,/LED1*%
X-156479Y1238655D03*
%TD*%
D97*
%TO.P,D35,1,K*%
%TO.N,/LED3*%
X1041908Y-490285D03*
%TO.P,D35,2,A*%
%TO.N,Net-(D31-A)*%
X1129677Y-531585D03*
%TD*%
D98*
%TO.N,GND*%
X382000Y-834000D03*
%TO.N,/LED6*%
X-866000Y-303000D03*
X238000Y903000D03*
%TO.N,/LED13*%
X130000Y920000D03*
X-915000Y122000D03*
%TO.N,/LED5*%
X-818000Y-434000D03*
%TO.N,VDD*%
X375000Y-905000D03*
X470000Y800000D03*
%TO.N,+BATT*%
X-10000Y50000D03*
%TO.N,/LED10*%
X810000Y365000D03*
X930000Y-80000D03*
%TO.N,Net-(D51-K)*%
X705000Y570000D03*
X-1097000Y-136000D03*
X955000Y130000D03*
X132500Y-955000D03*
X-128478Y978478D03*
%TO.N,Net-(D53-K)*%
X-600000Y785000D03*
X-780000Y-600000D03*
X620000Y-797500D03*
X797107Y617107D03*
%TO.N,Net-(D55-K)*%
X-887500Y370000D03*
X395000Y932500D03*
X-390000Y-930000D03*
X930000Y-390000D03*
%TO.N,/LED15*%
X-625000Y-675000D03*
X-475000Y-795000D03*
%TO.N,/LED1*%
X-605000Y-932500D03*
X-72500Y1190000D03*
X715000Y-865000D03*
X1129677Y440000D03*
X-1063000Y280000D03*
%TO.N,/LED2*%
X920000Y655000D03*
X890000Y-635000D03*
X-380000Y-1150000D03*
X-1202500Y7500D03*
X-370000Y1160826D03*
%TO.N,/LED3*%
X687500Y842500D03*
X-1160000Y-300000D03*
X-595000Y930000D03*
X-821000Y-1012000D03*
X1110000Y-447500D03*
X-402290Y-820000D03*
%TO.N,/LED4*%
X1185000Y-152500D03*
X430000Y-1240000D03*
X512500Y1092500D03*
X-1054143Y-580000D03*
X-870000Y822500D03*
%TO.N,/LED5*%
X-695000Y-835000D03*
X-875000Y-825000D03*
X-117500Y-1030000D03*
X232500Y1230000D03*
X-960000Y685000D03*
%TO.N,Net-(D21-A)*%
X-501000Y-1218000D03*
X559000Y-1208000D03*
%TO.N,+BATT*%
X-329000Y-852000D03*
%TO.N,/SWDIO*%
X-372000Y900000D03*
%TO.N,/coil_{+}*%
X10000Y-88543D03*
X10000Y-930000D03*
%TO.N,/SWCLK*%
X-826000Y636000D03*
%TD*%
D99*
%TO.N,/LED3*%
X-402290Y-820000D02*
X-350905Y-768615D01*
X-75000Y-737500D02*
X-75000Y-693750D01*
X-350905Y-768615D02*
X-106115Y-768615D01*
X-106115Y-768615D02*
X-75000Y-737500D01*
%TO.N,/LED15*%
X-125000Y-693750D02*
X-125000Y-740000D01*
X-125000Y-740000D02*
X-135835Y-750835D01*
X-135835Y-750835D02*
X-204165Y-750835D01*
X-243470Y-711530D02*
X-391530Y-711530D01*
X-204165Y-750835D02*
X-243470Y-711530D01*
X-391530Y-711530D02*
X-475000Y-795000D01*
%TO.N,/LED9*%
X-54845Y31424D02*
X-54845Y69155D01*
X-28575Y5155D02*
X-54845Y31424D01*
X8576Y5155D02*
X-28575Y5155D01*
X107195Y103775D02*
X8576Y5155D01*
X494885Y63260D02*
X454370Y103775D01*
X-54845Y69155D02*
X15335Y139335D01*
X697000Y117658D02*
X697000Y-10855D01*
X454370Y103775D02*
X107195Y103775D01*
X666468Y-470895D02*
X599250Y-470895D01*
X494885Y-41530D02*
X494885Y63260D01*
X508000Y-54645D02*
X494885Y-41530D01*
X508000Y-432197D02*
X508000Y-54645D01*
X15335Y139335D02*
X675323Y139335D01*
X697000Y-10855D02*
X736000Y-49855D01*
X246447Y-693750D02*
X508000Y-432197D01*
X175000Y-693750D02*
X246447Y-693750D01*
X736000Y-49855D02*
X736000Y-401363D01*
X675323Y139335D02*
X697000Y117658D01*
X736000Y-401363D02*
X666468Y-470895D01*
X599250Y-470895D02*
X469640Y-600504D01*
X469640Y-600504D02*
X469640Y-646405D01*
%TO.N,/LED16*%
X841775Y-542002D02*
X841775Y-565831D01*
X841775Y-565831D02*
X741401Y-666205D01*
X741401Y-666205D02*
X741401Y-672812D01*
%TO.N,VDD*%
X375000Y-905000D02*
X375000Y-889000D01*
X375000Y-889000D02*
X385155Y-878845D01*
X659103Y-453115D02*
X718220Y-393998D01*
X385155Y-878845D02*
X400575Y-878845D01*
X400575Y-878845D02*
X426845Y-852575D01*
X666000Y-5000D02*
X634500Y-5000D01*
X426845Y-852575D02*
X426845Y-756014D01*
X426845Y-756014D02*
X395560Y-724729D01*
X395560Y-724729D02*
X395560Y-649440D01*
X395560Y-649440D02*
X591885Y-453115D01*
X591885Y-453115D02*
X659103Y-453115D01*
X718220Y-393998D02*
X718220Y-57220D01*
X718220Y-57220D02*
X666000Y-5000D01*
X375000Y-905000D02*
X324780Y-854780D01*
X-25000Y-715197D02*
X-25000Y-673750D01*
X324780Y-854780D02*
X278635Y-854780D01*
X278635Y-854780D02*
X251635Y-827780D01*
X251635Y-827780D02*
X87583Y-827780D01*
X87583Y-827780D02*
X-25000Y-715197D01*
%TO.N,/LED3*%
X-165301Y-977000D02*
X-165301Y-987000D01*
X-165301Y-977000D02*
X-165301Y-954053D01*
X-165301Y-954053D02*
X-219354Y-900000D01*
X-219354Y-900000D02*
X-344421Y-900000D01*
X-344421Y-900000D02*
X-402290Y-842131D01*
X-402290Y-842131D02*
X-402290Y-820000D01*
X-165301Y-987000D02*
X-165301Y-1121440D01*
X-165301Y-1121440D02*
X-144321Y-1142420D01*
%TO.N,/LED2*%
X-243750Y-475000D02*
X-290053Y-475000D01*
X-290053Y-475000D02*
X-322273Y-507220D01*
X-973782Y94000D02*
X-1127531Y94000D01*
X-322273Y-507220D02*
X-636635Y-507220D01*
X-636635Y-507220D02*
X-821155Y-322700D01*
X-821155Y-196700D02*
X-936885Y-80970D01*
X-821155Y-322700D02*
X-821155Y-196700D01*
X-1127531Y94000D02*
X-1149228Y72303D01*
X-936885Y-80970D02*
X-936885Y57103D01*
X-936885Y57103D02*
X-973782Y94000D01*
%TO.N,/LED7*%
X-316000Y-475803D02*
X-316000Y-442000D01*
X-803375Y-189335D02*
X-803375Y-315335D01*
X-629270Y-489440D02*
X-329637Y-489440D01*
X-329637Y-489440D02*
X-316000Y-475803D01*
X-803375Y-315335D02*
X-629270Y-489440D01*
X-919000Y-52000D02*
X-919000Y-73710D01*
X-919000Y-73710D02*
X-803375Y-189335D01*
X-896424Y77155D02*
X-919105Y77155D01*
X-919105Y77155D02*
X-919105Y-51895D01*
X-870155Y103424D02*
X-896424Y77155D01*
X-870155Y136644D02*
X-870155Y103424D01*
X-919105Y-51895D02*
X-919000Y-52000D01*
X-759894Y246904D02*
X-870155Y136644D01*
X-316000Y-442000D02*
X-299000Y-425000D01*
X-299000Y-425000D02*
X-243750Y-425000D01*
%TO.N,/LED5*%
X-818000Y-434000D02*
X-760145Y-434000D01*
X-760145Y-434000D02*
X-651365Y-542780D01*
X-651365Y-542780D02*
X-353220Y-542780D01*
X-321000Y-575000D02*
X-243750Y-575000D01*
X-353220Y-542780D02*
X-321000Y-575000D01*
%TO.N,/SWCLK*%
X-243750Y-275000D02*
X-243750Y-248250D01*
X-243750Y-248250D02*
X-267970Y-224030D01*
X-267970Y-224030D02*
X-294720Y-224030D01*
X-294720Y-224030D02*
X-634000Y115250D01*
X-646000Y601000D02*
X-791000Y601000D01*
X-634000Y115250D02*
X-634000Y589000D01*
X-634000Y589000D02*
X-646000Y601000D01*
X-791000Y601000D02*
X-826000Y636000D01*
%TO.N,/LED14*%
X-841775Y542002D02*
X-835000Y535227D01*
X-651780Y107885D02*
X-300835Y-243060D01*
X-835000Y535227D02*
X-835000Y421145D01*
X-835000Y421145D02*
X-651780Y237925D01*
X-651780Y237925D02*
X-651780Y107885D01*
X-300835Y-243060D02*
X-300835Y-311165D01*
X-300835Y-311165D02*
X-287000Y-325000D01*
X-287000Y-325000D02*
X-243750Y-325000D01*
%TO.N,/LED13*%
X-243750Y-375000D02*
X-291000Y-375000D01*
X-291000Y-375000D02*
X-318615Y-347385D01*
X-739000Y300000D02*
X-773579Y300000D01*
X-318615Y-347385D02*
X-318615Y-250425D01*
X-318615Y-250425D02*
X-669560Y100520D01*
X-669560Y230560D02*
X-739000Y300000D01*
X-669560Y100520D02*
X-669560Y230560D01*
X-773579Y300000D02*
X-805244Y268335D01*
X-805244Y268335D02*
X-805244Y231756D01*
X-805244Y231756D02*
X-915000Y122000D01*
%TO.N,/SWDIO*%
X-372000Y900000D02*
X-372000Y836000D01*
X-372000Y836000D02*
X-616220Y591780D01*
X-287355Y-206250D02*
X-175000Y-206250D01*
X-616220Y591780D02*
X-616220Y122615D01*
X-616220Y122615D02*
X-287355Y-206250D01*
%TO.N,/LED6*%
X0Y799000D02*
X46000Y753000D01*
X46000Y753000D02*
X232000Y753000D01*
X232000Y753000D02*
X249335Y770335D01*
X249335Y770335D02*
X249335Y891665D01*
X249335Y891665D02*
X238000Y903000D01*
%TO.N,/LED12*%
X209000Y700000D02*
X209000Y669950D01*
X156015Y246015D02*
X-28853Y246015D01*
X209000Y669950D02*
X168665Y629615D01*
X168665Y629615D02*
X168665Y570385D01*
X168665Y570385D02*
X191220Y547830D01*
X191220Y547830D02*
X191220Y281220D01*
X191220Y281220D02*
X156015Y246015D01*
X-28853Y246015D02*
X-161525Y113344D01*
X-161525Y113344D02*
X-161525Y-12764D01*
X-161525Y-12764D02*
X-125000Y-49289D01*
X-125000Y-49289D02*
X-125000Y-206250D01*
%TO.N,/LED11*%
X-75000Y-206250D02*
X-75000Y-74144D01*
X-75000Y-74144D02*
X-143745Y-5399D01*
X-143745Y-5399D02*
X-143745Y105979D01*
X-143745Y105979D02*
X-21489Y228235D01*
X-21489Y228235D02*
X163380Y228235D01*
X163380Y228235D02*
X209000Y273855D01*
X209000Y273855D02*
X209000Y600000D01*
%TO.N,/LED17*%
X714545Y225474D02*
X714545Y220218D01*
X714545Y220218D02*
X704782Y210455D01*
X704782Y210455D02*
X-14124Y210455D01*
X-52625Y-114483D02*
X-25000Y-142109D01*
X-14124Y210455D02*
X-125965Y98614D01*
X-125965Y98614D02*
X-125965Y1966D01*
X-125965Y1966D02*
X-52625Y-71374D01*
X-52625Y-71374D02*
X-52625Y-114483D01*
X-25000Y-142109D02*
X-25000Y-206250D01*
%TO.N,/LED10*%
X28575Y-133388D02*
X54845Y-107119D01*
X-34845Y-107119D02*
X-8576Y-133388D01*
X454660Y-407550D02*
X337210Y-525000D01*
X-8576Y-133388D02*
X28575Y-133388D01*
X54845Y-107119D02*
X54845Y-26155D01*
X337210Y-525000D02*
X243750Y-525000D01*
X-34845Y-64010D02*
X-34845Y-107119D01*
X131435Y50435D02*
X432275Y50435D01*
X-108185Y9330D02*
X-34845Y-64010D01*
X-108185Y91249D02*
X-108185Y9330D01*
X54845Y-26155D02*
X131435Y50435D01*
X-6759Y192675D02*
X-108185Y91249D01*
X930000Y-39908D02*
X697417Y192675D01*
X441545Y41165D02*
X441545Y-63624D01*
X697417Y192675D02*
X-6759Y192675D01*
X930000Y-80000D02*
X930000Y-39908D01*
X432275Y50435D02*
X441545Y41165D01*
X441545Y-63624D02*
X454660Y-76739D01*
X454660Y-76739D02*
X454660Y-407550D01*
%TO.N,/LED4*%
X606Y174895D02*
X690052Y174895D01*
X823675Y41272D02*
X823675Y-108530D01*
X-90405Y83885D02*
X606Y174895D01*
X-90405Y16695D02*
X-90405Y83885D01*
X23305Y-30405D02*
X-43305Y-30405D01*
X-43305Y-30405D02*
X-90405Y16695D01*
X690052Y174895D02*
X823675Y41272D01*
X121925Y68215D02*
X23305Y-30405D01*
X823675Y-108530D02*
X867645Y-152500D01*
X439640Y68215D02*
X121925Y68215D01*
X459325Y48530D02*
X439640Y68215D01*
X459325Y-56259D02*
X459325Y48530D01*
X472440Y-69374D02*
X459325Y-56259D01*
X312355Y-575000D02*
X472440Y-414915D01*
X472440Y-414915D02*
X472440Y-69374D01*
X243750Y-575000D02*
X312355Y-575000D01*
X867645Y-152500D02*
X1185000Y-152500D01*
%TO.N,+BATT*%
X-10000Y50000D02*
X61555Y121555D01*
X61555Y121555D02*
X461734Y121555D01*
X461734Y121555D02*
X512665Y70625D01*
X512665Y70625D02*
X512665Y-34165D01*
X512665Y-34165D02*
X569500Y-91000D01*
%TO.N,/LED16*%
X7970Y157115D02*
X682687Y157115D01*
X-72625Y76520D02*
X7970Y157115D01*
X-72625Y24060D02*
X-72625Y76520D01*
X-35940Y-12625D02*
X-72625Y24060D01*
X15940Y-12625D02*
X-35940Y-12625D01*
X447005Y85995D02*
X114560Y85995D01*
X114560Y85995D02*
X15940Y-12625D01*
X477105Y55895D02*
X447005Y85995D01*
X477105Y-48894D02*
X477105Y55895D01*
X490220Y-62009D02*
X477105Y-48894D01*
X490220Y-422280D02*
X490220Y-62009D01*
X287500Y-625000D02*
X490220Y-422280D01*
X243750Y-625000D02*
X287500Y-625000D01*
X682687Y157115D02*
X805895Y33907D01*
X805895Y33907D02*
X805895Y-115895D01*
X805895Y-115895D02*
X901972Y-211972D01*
X901972Y-211972D02*
X978478Y-211972D01*
%TO.N,GND*%
X602000Y-48000D02*
X670000Y-48000D01*
X670000Y-48000D02*
X695000Y-73000D01*
X695000Y-73000D02*
X695000Y-345500D01*
X695000Y-345500D02*
X650500Y-390000D01*
X286000Y-837000D02*
X382000Y-837000D01*
X259000Y-810000D02*
X286000Y-837000D01*
X117500Y-810000D02*
X259000Y-810000D01*
X259000Y-810000D02*
X285145Y-810000D01*
%TO.N,/LED3*%
X-402290Y-820000D02*
X-402290Y-842131D01*
%TO.N,/LED1*%
X-243750Y-625000D02*
X-296145Y-625000D01*
X-296145Y-625000D02*
X-360585Y-560560D01*
X-517560Y-560560D02*
X-580000Y-623000D01*
X-360585Y-560560D02*
X-517560Y-560560D01*
X-620000Y-794185D02*
X-620000Y-917500D01*
X-580000Y-623000D02*
X-580000Y-754185D01*
X-580000Y-754185D02*
X-620000Y-794185D01*
X-620000Y-917500D02*
X-605000Y-932500D01*
%TO.N,/LED15*%
X-953373Y-305666D02*
X-900155Y-252448D01*
X-900155Y-252448D02*
X-900155Y-142845D01*
X-900155Y-142845D02*
X-954665Y-88335D01*
X-954665Y-88335D02*
X-954665Y3165D01*
X-954665Y3165D02*
X-1000000Y48500D01*
%TO.N,/LED6*%
X-243750Y-525000D02*
X-644000Y-525000D01*
X-644000Y-525000D02*
X-866000Y-303000D01*
%TO.N,/LED13*%
X130000Y920000D02*
X209000Y841000D01*
X209000Y841000D02*
X209000Y800000D01*
%TO.N,/LED5*%
X-246530Y-572220D02*
X-243750Y-575000D01*
%TO.N,/LED17*%
X714545Y225474D02*
X718509Y221509D01*
X718509Y221509D02*
X741673Y198345D01*
%TO.N,GND*%
X653000Y-390000D02*
X596335Y-333335D01*
X596335Y-333335D02*
X596335Y-233335D01*
X596335Y-233335D02*
X554000Y-191000D01*
X377780Y-637220D02*
X515000Y-500000D01*
X515000Y-500000D02*
X515218Y-500000D01*
X515218Y-500000D02*
X596335Y-418883D01*
X596335Y-418883D02*
X596335Y-383000D01*
X0Y-430000D02*
X-30000Y-460000D01*
X25000Y-630000D02*
X25000Y-717500D01*
X377780Y-717365D02*
X377780Y-637220D01*
X-30000Y-460000D02*
X-30000Y-616665D01*
X25000Y-717500D02*
X117500Y-810000D01*
X-30000Y-616665D02*
X11665Y-616665D01*
X11665Y-616665D02*
X25000Y-630000D01*
X285145Y-810000D02*
X377780Y-717365D01*
X596335Y-418883D02*
X596335Y-290000D01*
%TO.N,Net-(U1-PA0)*%
X125000Y-693750D02*
X125000Y-755000D01*
X280000Y-790000D02*
X360000Y-710000D01*
X360000Y-710000D02*
X360000Y-625270D01*
X125000Y-755000D02*
X160000Y-790000D01*
X160000Y-790000D02*
X280000Y-790000D01*
X360000Y-625270D02*
X551000Y-434271D01*
X551000Y-434271D02*
X551000Y-290000D01*
X551000Y-290000D02*
X553000Y-290000D01*
%TO.N,/LED8*%
X-175000Y-693750D02*
X-422295Y-693750D01*
X-422295Y-693750D02*
X-469640Y-646405D01*
%TO.N,GND*%
X554000Y95000D02*
X540665Y81665D01*
%TO.N,+BATT*%
X634500Y-91000D02*
X619000Y-106500D01*
X653000Y-290000D02*
X653000Y-109500D01*
X619000Y-106500D02*
X585000Y-106500D01*
X585000Y-106500D02*
X569500Y-91000D01*
X653000Y-109500D02*
X634500Y-91000D01*
%TO.N,GND*%
X569500Y-5000D02*
X540665Y-5000D01*
X602000Y-37500D02*
X569500Y-5000D01*
X540665Y-5000D02*
X540665Y10000D01*
X602000Y-48000D02*
X602000Y-37500D01*
X540665Y10000D02*
X540665Y81665D01*
X554000Y-191000D02*
X540665Y-177665D01*
D100*
%TO.N,/coil_{+}*%
X10000Y-930000D02*
X0Y-920000D01*
D99*
%TO.N,/LED10*%
X759894Y314894D02*
X759894Y246904D01*
X810000Y365000D02*
X759894Y314894D01*
%TO.N,Net-(D51-K)*%
X48500Y-1000000D02*
X190450Y-1000000D01*
X978478Y211972D02*
X1000000Y190450D01*
X-106957Y1000000D02*
X-48500Y1000000D01*
X1000000Y190450D02*
X1000000Y48500D01*
X132500Y-955000D02*
X87500Y-1000000D01*
X-128478Y978478D02*
X-106957Y1000000D01*
X-1054450Y-136000D02*
X-978478Y-211972D01*
X705000Y570000D02*
X675000Y600000D01*
X955000Y130000D02*
X955000Y93500D01*
X-1087500Y-136000D02*
X-1000000Y-48500D01*
X87500Y-1000000D02*
X48500Y-1000000D01*
X-1097000Y-136000D02*
X-1087500Y-136000D01*
X-128478Y978478D02*
X-211972Y978478D01*
X190450Y-1000000D02*
X211972Y-978478D01*
X675000Y600000D02*
X311000Y600000D01*
X-1097000Y-136000D02*
X-1054450Y-136000D01*
X955000Y93500D02*
X1000000Y48500D01*
%TO.N,/LED14*%
X-635682Y841952D02*
X-620548Y841952D01*
X-781589Y713000D02*
X-741401Y672812D01*
X48500Y1031500D02*
X48500Y1000000D01*
X-655134Y822500D02*
X-635682Y841952D01*
X-239840Y1052328D02*
X27672Y1052328D01*
X-564080Y897500D02*
X-465222Y897500D01*
X-1005000Y425000D02*
X-887998Y542002D01*
X-884773Y585000D02*
X-899000Y585000D01*
X-465222Y897500D02*
X-457998Y890275D01*
X-903000Y660000D02*
X-887000Y660000D01*
X-305666Y986502D02*
X-239840Y1052328D01*
X-741401Y672812D02*
X-741401Y781098D01*
X-620548Y841952D02*
X-577345Y885155D01*
X-577345Y885155D02*
X-576425Y885155D01*
X-899000Y656000D02*
X-903000Y660000D01*
X-841775Y542002D02*
X-884773Y585000D01*
X-457998Y890275D02*
X-394900Y953373D01*
X-887000Y660000D02*
X-834000Y713000D01*
X-834000Y713000D02*
X-781589Y713000D01*
X-700000Y822500D02*
X-655134Y822500D01*
X27672Y1052328D02*
X48500Y1031500D01*
X-899000Y585000D02*
X-899000Y656000D01*
X-394900Y953373D02*
X-305666Y953373D01*
X-576425Y885155D02*
X-564080Y897500D01*
X-305666Y953373D02*
X-305666Y986502D01*
X-978478Y211972D02*
X-1005000Y238493D01*
X-1005000Y238493D02*
X-1005000Y425000D01*
X-741401Y781098D02*
X-700000Y822500D01*
X-887998Y542002D02*
X-841775Y542002D01*
%TO.N,Net-(D53-K)*%
X-766507Y-672812D02*
X-741401Y-672812D01*
X-672812Y741401D02*
X-629214Y785000D01*
X-542002Y841775D02*
X-543225Y841775D01*
X-741401Y-672812D02*
X-741401Y-638599D01*
X841775Y572438D02*
X841775Y542002D01*
X620000Y-794214D02*
X672812Y-741401D01*
X-741401Y-638599D02*
X-780000Y-600000D01*
X741401Y672812D02*
X797107Y617107D01*
X635000Y700000D02*
X662188Y672812D01*
X-572438Y841775D02*
X-542002Y841775D01*
X620000Y-797500D02*
X620000Y-794214D01*
X586278Y-797500D02*
X542002Y-841775D01*
X662188Y672812D02*
X741401Y672812D01*
X620000Y-797500D02*
X586278Y-797500D01*
X-780000Y-600000D02*
X-783778Y-600000D01*
X-543225Y841775D02*
X-600000Y785000D01*
X311000Y700000D02*
X635000Y700000D01*
X797107Y617107D02*
X841775Y572438D01*
X-629214Y785000D02*
X-600000Y785000D01*
X-783778Y-600000D02*
X-841775Y-542002D01*
%TO.N,Net-(D55-K)*%
X-889039Y370000D02*
X-953373Y305666D01*
X395000Y932500D02*
X373500Y954000D01*
X-887500Y370000D02*
X-889039Y370000D01*
X930000Y-329040D02*
X953373Y-305666D01*
X930000Y-390000D02*
X890275Y-429725D01*
X-457998Y-890275D02*
X-429725Y-890275D01*
X-366627Y-953373D02*
X-305666Y-953373D01*
X-890275Y372775D02*
X-890275Y457998D01*
X311000Y948039D02*
X305666Y953373D01*
X306293Y954000D02*
X305666Y953373D01*
X373500Y954000D02*
X306293Y954000D01*
X-887500Y370000D02*
X-890275Y372775D01*
X890275Y-429725D02*
X890275Y-457998D01*
X930000Y-390000D02*
X930000Y-329040D01*
X-429725Y-890275D02*
X-390000Y-930000D01*
X311000Y800000D02*
X311000Y948039D01*
X-390000Y-930000D02*
X-366627Y-953373D01*
X395000Y932500D02*
X437225Y890275D01*
X437225Y890275D02*
X457998Y890275D01*
%TO.N,/LED15*%
X-890275Y-457998D02*
X-953373Y-394900D01*
X-243493Y-1010000D02*
X-445000Y-1010000D01*
X-211972Y-978478D02*
X-243493Y-1010000D01*
X-542002Y-912998D02*
X-542002Y-841775D01*
X-625000Y-675000D02*
X-672812Y-722812D01*
X-672812Y-722812D02*
X-672812Y-741401D01*
X-521775Y-841775D02*
X-475000Y-795000D01*
X-542002Y-841775D02*
X-572438Y-841775D01*
X-542002Y-841775D02*
X-521775Y-841775D01*
X-672812Y-741401D02*
X-736925Y-741401D01*
X-736925Y-741401D02*
X-895000Y-583327D01*
X-445000Y-1010000D02*
X-542002Y-912998D01*
X-895000Y-583327D02*
X-895000Y-462722D01*
X-895000Y-462722D02*
X-890275Y-457998D01*
X-953373Y-394900D02*
X-953373Y-305666D01*
%TO.N,/LED16*%
X-3165Y-1045335D02*
X-48500Y-1000000D01*
X231665Y-1045335D02*
X-3165Y-1045335D01*
X394900Y-953373D02*
X305666Y-953373D01*
X1010000Y-409960D02*
X1010000Y-243493D01*
X741401Y-672812D02*
X517188Y-672812D01*
X457998Y-890275D02*
X394900Y-953373D01*
X877958Y-542002D02*
X1010000Y-409960D01*
X841775Y-542002D02*
X877958Y-542002D01*
X305666Y-953373D02*
X305666Y-971334D01*
X305666Y-971334D02*
X231665Y-1045335D01*
X517188Y-672812D02*
X457998Y-732002D01*
X1010000Y-243493D02*
X978478Y-211972D01*
X457998Y-732002D02*
X457998Y-890275D01*
%TO.N,/LED17*%
X714545Y339545D02*
X714545Y225474D01*
X986502Y305666D02*
X1045335Y246833D01*
X954665Y64104D02*
X954665Y-3165D01*
X1045335Y-3165D02*
X1000000Y-48500D01*
X913701Y572734D02*
X913701Y481423D01*
X238493Y1005000D02*
X371545Y1005000D01*
X832998Y457998D02*
X714545Y339545D01*
X371545Y1005000D02*
X371835Y1004710D01*
X371835Y1004710D02*
X415290Y1004710D01*
X954665Y-3165D02*
X1000000Y-48500D01*
X913701Y481423D02*
X890275Y457998D01*
X890275Y457998D02*
X832998Y457998D01*
X572438Y841775D02*
X672812Y741401D01*
X953373Y305666D02*
X986502Y305666D01*
X910000Y181000D02*
X910000Y108769D01*
X542002Y877998D02*
X542002Y841775D01*
X1045335Y246833D02*
X1045335Y-3165D01*
X857375Y629060D02*
X913701Y572734D01*
X415290Y1004710D02*
X542002Y877998D01*
X892655Y198345D02*
X910000Y181000D01*
X782184Y741401D02*
X857375Y666211D01*
X672812Y741401D02*
X782184Y741401D01*
X741673Y198345D02*
X892655Y198345D01*
X857375Y666211D02*
X857375Y629060D01*
X910000Y108769D02*
X954665Y64104D01*
X542002Y841775D02*
X572438Y841775D01*
X211972Y978478D02*
X238493Y1005000D01*
%TO.N,/LED1*%
X-1063000Y323692D02*
X-1095142Y355833D01*
X-605000Y-1090538D02*
X-601470Y-1094069D01*
X1129677Y531585D02*
X1129677Y440000D01*
X760117Y-910117D02*
X854657Y-910117D01*
X-72500Y1190000D02*
X-38500Y1190000D01*
X-1063000Y280000D02*
X-1063000Y323692D01*
X-107823Y1190000D02*
X-156479Y1238655D01*
X-605000Y-932500D02*
X-605000Y-1090538D01*
X-675918Y-932500D02*
X-676835Y-931583D01*
X-38500Y1190000D02*
X0Y1151500D01*
X715000Y-865000D02*
X760117Y-910117D01*
X-605000Y-932500D02*
X-675918Y-932500D01*
X-1180331Y280000D02*
X-1226386Y233946D01*
X715000Y-893418D02*
X676835Y-931583D01*
X715000Y-865000D02*
X715000Y-893418D01*
X1129677Y440000D02*
X1129677Y390368D01*
X1129677Y390368D02*
X1095142Y355833D01*
X-1063000Y280000D02*
X-1180331Y280000D01*
X-72500Y1190000D02*
X-107823Y1190000D01*
%TO.N,/LED2*%
X-380000Y-1150000D02*
X-320724Y-1209276D01*
X-380000Y-1150000D02*
X-380000Y-1114533D01*
X-380000Y-1114533D02*
X-423895Y-1070638D01*
X-310489Y-1209276D02*
X-310489Y-1184044D01*
X890000Y-731240D02*
X887246Y-733994D01*
X920000Y655000D02*
X934248Y655000D01*
X1043123Y-680000D02*
X1054143Y-668980D01*
X-331869Y1160826D02*
X-370000Y1160826D01*
X934248Y655000D02*
X972244Y617005D01*
X-1246036Y-78394D02*
X-1246036Y-36036D01*
X-1246036Y-36036D02*
X-1202500Y7500D01*
X-1202500Y7500D02*
X-1149228Y60772D01*
X-286366Y1115324D02*
X-331869Y1160826D01*
X935000Y-680000D02*
X1043123Y-680000D01*
X961986Y696986D02*
X961986Y795824D01*
X890000Y-635000D02*
X935000Y-680000D01*
X890000Y-635000D02*
X890000Y-731240D01*
X-320724Y-1209276D02*
X-310489Y-1209276D01*
X-370000Y1160826D02*
X-459603Y1160826D01*
X-1149228Y60772D02*
X-1149228Y72303D01*
X920000Y655000D02*
X961986Y696986D01*
%TO.N,/LED3*%
X-144321Y-1142420D02*
X-106080Y-1142420D01*
X687500Y842500D02*
X785163Y842500D01*
X-595000Y930000D02*
X-675058Y1010058D01*
X-520618Y-1284000D02*
X-744584Y-1060033D01*
X-1187394Y-327394D02*
X-1160000Y-300000D01*
X1125702Y-447500D02*
X1187394Y-385808D01*
X-554739Y970261D02*
X-595000Y930000D01*
X-772967Y-1060033D02*
X-821000Y-1012000D01*
X-106080Y-1142420D02*
X0Y-1248500D01*
X785163Y842500D02*
X788256Y839407D01*
X-744584Y-1060033D02*
X-772967Y-1060033D01*
X1084693Y-447500D02*
X1041908Y-490285D01*
X-1131104Y-271104D02*
X-1160000Y-300000D01*
X-675058Y1010058D02*
X-733850Y1010058D01*
X-554739Y1009067D02*
X-554739Y970261D01*
X0Y-1248500D02*
X-35500Y-1284000D01*
X1110000Y-447500D02*
X1084693Y-447500D01*
X-1187394Y-385808D02*
X-1187394Y-327394D01*
X733850Y888850D02*
X733850Y1010058D01*
X1110000Y-447500D02*
X1125702Y-447500D01*
X-732859Y1009067D02*
X-733850Y1010058D01*
X687500Y842500D02*
X733850Y888850D01*
X-35500Y-1284000D02*
X-520618Y-1284000D01*
X-1131104Y-215770D02*
X-1131104Y-271104D01*
%TO.N,/LED4*%
X512500Y1092500D02*
X550000Y1055000D01*
X512500Y1092500D02*
X512500Y1107930D01*
X-896676Y795824D02*
X-961986Y795824D01*
X1131104Y-206396D02*
X1131104Y-215770D01*
X1185000Y-152500D02*
X1131104Y-206396D01*
X550000Y1055000D02*
X550000Y1010000D01*
X288276Y-1209276D02*
X221420Y-1142420D01*
X512500Y1107930D02*
X459603Y1160826D01*
X310489Y-1209276D02*
X288276Y-1209276D01*
X-870000Y822500D02*
X-896676Y795824D01*
X550000Y1010000D02*
X550933Y1009067D01*
X-961986Y795824D02*
X-961986Y828014D01*
X1185000Y-152500D02*
X1185000Y-139430D01*
X-853093Y839407D02*
X-788256Y839407D01*
X430000Y-1240000D02*
X341213Y-1240000D01*
X-870000Y822500D02*
X-853093Y839407D01*
X1185000Y-139430D02*
X1246036Y-78394D01*
X-1054143Y-668980D02*
X-1054143Y-580000D01*
X-1054143Y-580000D02*
X-1054143Y-502520D01*
X-1054143Y-502520D02*
X-1041908Y-490285D01*
X550933Y1009067D02*
X554739Y1009067D01*
X221420Y-1142420D02*
X144321Y-1142420D01*
X341213Y-1240000D02*
X310489Y-1209276D01*
%TO.N,/LED5*%
X-960000Y685000D02*
X-960000Y629248D01*
X-887246Y-812754D02*
X-854657Y-845343D01*
X601470Y-1094069D02*
X447327Y-1094069D01*
X687500Y795000D02*
X717500Y765000D01*
X286366Y1115324D02*
X379200Y1022490D01*
X-96579Y-1030000D02*
X-47579Y-1079000D01*
X-117500Y-1030000D02*
X-96579Y-1030000D01*
X379200Y1022490D02*
X444089Y1022490D01*
X-47579Y-1079000D02*
X238313Y-1079000D01*
X232500Y1230000D02*
X165134Y1230000D01*
X937500Y360000D02*
X987500Y360000D01*
X1149228Y72303D02*
X1149228Y156788D01*
X165134Y1230000D02*
X156479Y1238655D01*
X413258Y-1060000D02*
X423895Y-1070638D01*
X1149228Y156788D02*
X1226386Y233946D01*
X-972244Y617005D02*
X-1044257Y617005D01*
X884738Y229738D02*
X904807Y249807D01*
X-862058Y-759181D02*
X-770818Y-759181D01*
X987500Y360000D02*
X1080000Y267500D01*
X257313Y-1060000D02*
X413258Y-1060000D01*
X783730Y765000D02*
X875155Y673576D01*
X-1044257Y617005D02*
X-1129677Y531585D01*
X238313Y-1079000D02*
X257313Y-1060000D01*
X811425Y303005D02*
X811425Y256941D01*
X1080000Y267500D02*
X1080000Y141531D01*
X447327Y-1094069D02*
X423895Y-1070638D01*
X232500Y1169190D02*
X286366Y1115324D01*
X-960000Y629248D02*
X-972244Y617005D01*
X1080000Y141531D02*
X1149228Y72303D01*
X950000Y441579D02*
X811425Y303005D01*
X-887246Y-733994D02*
X-887246Y-812754D01*
X-887246Y-733994D02*
X-862058Y-759181D01*
X875155Y673576D02*
X875155Y636425D01*
X717500Y765000D02*
X783730Y765000D01*
X156479Y1238655D02*
X163035Y1238655D01*
X838629Y229738D02*
X884738Y229738D01*
X-854657Y-845343D02*
X-854657Y-910117D01*
X875155Y636425D02*
X950000Y561580D01*
X671580Y795000D02*
X687500Y795000D01*
X811425Y256941D02*
X838629Y229738D01*
X444089Y1022490D02*
X671580Y795000D01*
X232500Y1230000D02*
X232500Y1169190D01*
X904807Y327308D02*
X937500Y360000D01*
X904807Y249807D02*
X904807Y327308D01*
X-770818Y-759181D02*
X-695000Y-835000D01*
X950000Y561580D02*
X950000Y441579D01*
%TO.N,Net-(D1-A)*%
X-1054143Y775857D02*
X-919883Y910117D01*
X-490000Y1200000D02*
X-467500Y1222500D01*
X-323713Y1222500D02*
X-310489Y1209276D01*
X-495538Y1200000D02*
X-490000Y1200000D01*
X-1048137Y733994D02*
X-1054143Y740000D01*
X-1146236Y466236D02*
X-1178436Y498436D01*
X-236346Y1283420D02*
X-230000Y1283420D01*
X-1065958Y466236D02*
X-1146236Y466236D01*
X-919883Y910117D02*
X-854657Y910117D01*
X-1091020Y668980D02*
X-1054143Y668980D01*
X-1054143Y668980D02*
X-1054143Y740000D01*
X-854657Y953131D02*
X-813894Y993894D01*
X-144321Y1142420D02*
X-230000Y1228099D01*
X-813894Y1001106D02*
X-720931Y1094069D01*
X-39000Y1287500D02*
X0Y1248500D01*
X102500Y1057500D02*
X90000Y1070000D01*
X-751583Y931583D02*
X-676835Y931583D01*
X-225920Y1287500D02*
X-39000Y1287500D01*
X-1178436Y581564D02*
X-1091020Y668980D01*
X-720931Y1094069D02*
X-601470Y1094069D01*
X-1178436Y498436D02*
X-1178436Y581564D01*
X-230000Y1228099D02*
X-230000Y1283420D01*
X-601470Y1094069D02*
X-527769Y1167769D01*
X-310489Y1209276D02*
X-236346Y1283420D01*
X32000Y901000D02*
X102500Y971500D01*
X90000Y1070000D02*
X90000Y1158500D01*
X-527769Y1167769D02*
X-527769Y1140094D01*
X-887246Y733994D02*
X-1048137Y733994D01*
X-1041908Y490285D02*
X-1065958Y466236D01*
X-813894Y993894D02*
X-751583Y931583D01*
X0Y901000D02*
X32000Y901000D01*
X-230000Y1283420D02*
X-225920Y1287500D01*
X-467500Y1222500D02*
X-323713Y1222500D01*
X90000Y1158500D02*
X0Y1248500D01*
X-527769Y1167769D02*
X-495538Y1200000D01*
X-527769Y1140094D02*
X-458312Y1070638D01*
X-458312Y1070638D02*
X-423895Y1070638D01*
X-813894Y993894D02*
X-813894Y1001106D01*
X102500Y971500D02*
X102500Y1057500D01*
X-1054143Y740000D02*
X-1054143Y775857D01*
X-854657Y910117D02*
X-854657Y953131D01*
%TO.N,Net-(D11-A)*%
X-955000Y155000D02*
X-856902Y253098D01*
X-1131104Y215770D02*
X-1246036Y100837D01*
X-1034176Y-795824D02*
X-961986Y-795824D01*
X-1289896Y-110104D02*
X-1226386Y-173614D01*
X-856098Y-970000D02*
X-849793Y-970000D01*
X-1095142Y-497050D02*
X-1129677Y-531585D01*
X-972244Y-785566D02*
X-961986Y-795824D01*
X-961986Y-864112D02*
X-856098Y-970000D01*
X-1095142Y-355833D02*
X-1095142Y-497050D01*
X-961986Y-795824D02*
X-961986Y-864112D01*
X-849793Y-970000D02*
X-788256Y-908463D01*
X-856902Y253098D02*
X-856902Y278424D01*
X-1129677Y-531585D02*
X-1129677Y-700323D01*
X-1226386Y-173614D02*
X-1226386Y-233946D01*
X-788256Y-908463D02*
X-788256Y-839407D01*
X-1246036Y78394D02*
X-1289896Y34534D01*
X-1289896Y283305D02*
X-1289896Y122254D01*
X-1070334Y155000D02*
X-955000Y155000D01*
X-856902Y278424D02*
X-876331Y258996D01*
X-1129677Y-700323D02*
X-1034176Y-795824D01*
X-1246036Y100837D02*
X-1246036Y78394D01*
X-1234792Y-426470D02*
X-1129677Y-531585D01*
X-1289896Y122254D02*
X-1246036Y78394D01*
X-972244Y-617005D02*
X-972244Y-785566D01*
X-1234792Y-242352D02*
X-1234792Y-426470D01*
X-1131104Y215770D02*
X-1070334Y155000D01*
X-1187394Y385808D02*
X-1289896Y283305D01*
X-1289896Y34534D02*
X-1289896Y-110104D01*
X-1149228Y-72303D02*
X-1149228Y-156788D01*
X-1226386Y-233946D02*
X-1234792Y-242352D01*
X-1149228Y-156788D02*
X-1226386Y-233946D01*
%TO.N,Net-(D21-A)*%
X-559782Y-920362D02*
X-559782Y-900218D01*
X-554739Y-1065690D02*
X-554739Y-1009067D01*
X459603Y-1160826D02*
X497389Y-1198611D01*
X482332Y-1253668D02*
X482332Y-1183555D01*
X-733850Y-1045623D02*
X-733850Y-1010058D01*
X-597500Y-796830D02*
X-529595Y-728924D01*
X-459603Y-1160826D02*
X-554739Y-1065690D01*
X156479Y-1238655D02*
X202668Y-1284845D01*
X554739Y-1009067D02*
X606067Y-1009067D01*
X-459603Y-1176604D02*
X-459603Y-1160826D01*
X-559782Y-900218D02*
X-597500Y-862500D01*
X156479Y-1238655D02*
X87155Y-1238655D01*
X-501000Y-1218000D02*
X-459603Y-1176604D01*
X331869Y-1160826D02*
X459603Y-1160826D01*
X451155Y-1284845D02*
X482332Y-1253668D01*
X660000Y-1063000D02*
X660000Y-1117000D01*
X606067Y-1009067D02*
X660000Y-1063000D01*
X-360429Y-1260000D02*
X-177823Y-1260000D01*
X286366Y-1115324D02*
X331869Y-1160826D01*
X87155Y-1238655D02*
X0Y-1151500D01*
X-177823Y-1260000D02*
X-156479Y-1238655D01*
X482332Y-1183555D02*
X459603Y-1160826D01*
X-554739Y-925405D02*
X-559782Y-920362D01*
X-163035Y-1238655D02*
X-286366Y-1115324D01*
X-459603Y-1160826D02*
X-618647Y-1160826D01*
X660000Y-1117000D02*
X616174Y-1160826D01*
X-597500Y-862500D02*
X-597500Y-796830D01*
X-156479Y-1238655D02*
X-163035Y-1238655D01*
X-618647Y-1160826D02*
X-733850Y-1045623D01*
X-459603Y-1160826D02*
X-360429Y-1260000D01*
X559000Y-1208000D02*
X506778Y-1208000D01*
X202668Y-1284845D02*
X451155Y-1284845D01*
X-554739Y-1009067D02*
X-554739Y-925405D01*
X506778Y-1208000D02*
X497389Y-1198611D01*
X616174Y-1160826D02*
X459603Y-1160826D01*
%TO.N,Net-(D31-A)*%
X972244Y-617005D02*
X1044257Y-617005D01*
X1202834Y287500D02*
X1255000Y287500D01*
X816040Y-1010058D02*
X733850Y-1010058D01*
X1289896Y34534D02*
X1289896Y-170435D01*
X1095142Y-355833D02*
X1217029Y-233946D01*
X961986Y-795824D02*
X961986Y-864112D01*
X1255000Y287500D02*
X1277500Y265000D01*
X529595Y-728924D02*
X567830Y-690689D01*
X1289896Y-170435D02*
X1226386Y-233946D01*
X567830Y-690689D02*
X682678Y-690689D01*
X1226386Y-233946D02*
X1234792Y-242352D01*
X1246036Y78394D02*
X1289896Y34534D01*
X1129677Y-664638D02*
X998490Y-795824D01*
X1131104Y215770D02*
X1202834Y287500D01*
X1277500Y109857D02*
X1246036Y78394D01*
X1277500Y265000D02*
X1277500Y109857D01*
X1149228Y-72303D02*
X1149228Y-18415D01*
X682678Y-690689D02*
X788256Y-796267D01*
X998490Y-795824D02*
X961986Y-795824D01*
X961986Y-864112D02*
X816040Y-1010058D01*
X1149228Y-18415D02*
X1246036Y78394D01*
X831839Y-795824D02*
X788256Y-839407D01*
X1044257Y-617005D02*
X1129677Y-531585D01*
X1234792Y-242352D02*
X1234792Y-426470D01*
X788256Y-796267D02*
X788256Y-839407D01*
X1234792Y-426470D02*
X1129677Y-531585D01*
X1217029Y-233946D02*
X1226386Y-233946D01*
X1129677Y-531585D02*
X1129677Y-664638D01*
X961986Y-795824D02*
X831839Y-795824D01*
%TO.N,Net-(D41-A)*%
X1054143Y767356D02*
X1054143Y668980D01*
X107500Y1265000D02*
X132500Y1290000D01*
X1187394Y385808D02*
X1187394Y542606D01*
X1061020Y668980D02*
X1054143Y668980D01*
X144321Y1142420D02*
X107500Y1179241D01*
X310489Y1209276D02*
X486262Y1209276D01*
X856902Y278424D02*
X856902Y323157D01*
X1120000Y610000D02*
X1061020Y668980D01*
X967907Y434162D02*
X967907Y435407D01*
X967907Y435407D02*
X1022785Y490285D01*
X486262Y1209276D02*
X601470Y1094069D01*
X1041908Y531908D02*
X1120000Y610000D01*
X887246Y877528D02*
X854657Y910117D01*
X1022785Y490285D02*
X1041908Y490285D01*
X1041908Y490285D02*
X1041908Y531908D01*
X911382Y910117D02*
X1054143Y767356D01*
X210000Y1290000D02*
X225155Y1274845D01*
X423895Y1070638D02*
X310489Y1184044D01*
X887246Y733994D02*
X887246Y877528D01*
X107500Y1179241D02*
X107500Y1265000D01*
X854657Y960343D02*
X854657Y910117D01*
X676835Y1018704D02*
X601470Y1094069D01*
X225155Y1274845D02*
X251075Y1274845D01*
X601470Y1094069D02*
X720931Y1094069D01*
X310489Y1184044D02*
X310489Y1209276D01*
X251075Y1274845D02*
X310489Y1215431D01*
X132500Y1290000D02*
X210000Y1290000D01*
X720931Y1094069D02*
X854657Y960343D01*
X856902Y323157D02*
X967907Y434162D01*
X854657Y910117D02*
X911382Y910117D01*
X676835Y931583D02*
X676835Y1018704D01*
X1187394Y542606D02*
X1120000Y610000D01*
X310489Y1215431D02*
X310489Y1209276D01*
%TO.N,/coil_{+}*%
X-782000Y-1231000D02*
X-781500Y-1231500D01*
X-1040000Y-1227000D02*
X-1035500Y-1231500D01*
%TD*%
%TA.AperFunction,Conductor*%
%TO.N,+BATT*%
G36*
X561617Y-61273D02*
G01*
X596299Y-95954D01*
X596301Y-95956D01*
X596301Y-95956D01*
X596301Y-95956D01*
X598511Y-97433D01*
X598512Y-97433D01*
X598512Y-97433D01*
X602000Y-98127D01*
X605488Y-97433D01*
X607699Y-95956D01*
X640998Y-62657D01*
X644070Y-61385D01*
X662656Y-61385D01*
X665728Y-62658D01*
X670727Y-67657D01*
X672000Y-70729D01*
X672000Y-316965D01*
X670727Y-320037D01*
X667655Y-321310D01*
X664583Y-320037D01*
X664179Y-319572D01*
X610589Y-248119D01*
X609720Y-245512D01*
X609720Y-236534D01*
X609994Y-235015D01*
X610250Y-234330D01*
X609819Y-232352D01*
X609720Y-231428D01*
X609720Y-231410D01*
X609720Y-231410D01*
X609334Y-230095D01*
X609296Y-229947D01*
X608579Y-226649D01*
X608579Y-226649D01*
X608579Y-226649D01*
X608339Y-226211D01*
X608071Y-225793D01*
X605520Y-223583D01*
X605407Y-223477D01*
X592213Y-210283D01*
X590940Y-207211D01*
X590940Y-171740D01*
X589609Y-165050D01*
X589609Y-165049D01*
X589609Y-165049D01*
X589609Y-165049D01*
X584539Y-157462D01*
X584538Y-157461D01*
X576951Y-152391D01*
X576951Y-152391D01*
X570260Y-151060D01*
X539968Y-151060D01*
X536895Y-149787D01*
X536492Y-149322D01*
X522869Y-131159D01*
X522000Y-128552D01*
X522000Y-64345D01*
X523273Y-61273D01*
X526345Y-60000D01*
X558545Y-60000D01*
X561617Y-61273D01*
G37*
%TD.AperFunction*%
%TD*%
%TA.AperFunction,Conductor*%
%TO.N,GND*%
G36*
X528802Y-154865D02*
G01*
X529110Y-155207D01*
X529250Y-155380D01*
X529763Y-155972D01*
X529763Y-155972D01*
X529764Y-155972D01*
X531523Y-157241D01*
X533283Y-158509D01*
X533283Y-158509D01*
X533283Y-158509D01*
X536355Y-159781D01*
X536355Y-159781D01*
X536355Y-159782D01*
X536355Y-159782D01*
X536356Y-159782D01*
X539967Y-160500D01*
X539968Y-160500D01*
X568902Y-160500D01*
X569749Y-160583D01*
X572420Y-161115D01*
X573986Y-161763D01*
X575091Y-162502D01*
X577014Y-163787D01*
X578213Y-164986D01*
X580236Y-168013D01*
X580885Y-169579D01*
X581416Y-172250D01*
X581500Y-173098D01*
X581500Y-207211D01*
X582218Y-210823D01*
X582218Y-210823D01*
X583491Y-213895D01*
X583491Y-213896D01*
X585537Y-216958D01*
X585538Y-216959D01*
X591769Y-223190D01*
X598851Y-230271D01*
X598945Y-230359D01*
X598949Y-230363D01*
X600197Y-232468D01*
X600228Y-232591D01*
X600312Y-232875D01*
X600463Y-233638D01*
X600466Y-233669D01*
X600428Y-234760D01*
X600439Y-234761D01*
X600430Y-234857D01*
X600430Y-234856D01*
X600430Y-234858D01*
X600280Y-236534D01*
X600280Y-245512D01*
X600764Y-248497D01*
X601633Y-251103D01*
X601633Y-251104D01*
X601633Y-251104D01*
X603037Y-253783D01*
X610330Y-263507D01*
X611620Y-265226D01*
X612445Y-268448D01*
X612405Y-268681D01*
X612060Y-270416D01*
X612060Y-309583D01*
X613435Y-316493D01*
X613435Y-316493D01*
X618670Y-324329D01*
X618671Y-324330D01*
X626507Y-329566D01*
X631118Y-330483D01*
X633417Y-330940D01*
X633417Y-330940D01*
X667583Y-330940D01*
X670393Y-330381D01*
X674493Y-329566D01*
X674494Y-329565D01*
X674807Y-329503D01*
X678069Y-330152D01*
X679917Y-332917D01*
X680000Y-333765D01*
X680000Y-411489D01*
X678727Y-414562D01*
X654832Y-438457D01*
X651759Y-439730D01*
X595084Y-439730D01*
X593566Y-439456D01*
X593187Y-439315D01*
X592880Y-439200D01*
X590902Y-439631D01*
X589979Y-439730D01*
X589960Y-439730D01*
X589640Y-439824D01*
X588416Y-440000D01*
X568874Y-440000D01*
X565802Y-438727D01*
X564540Y-435964D01*
X564514Y-435594D01*
X565565Y-432439D01*
X568539Y-430951D01*
X568848Y-430940D01*
X570583Y-430940D01*
X572305Y-430597D01*
X577493Y-429565D01*
X585330Y-424329D01*
X590566Y-416493D01*
X591940Y-409583D01*
X591940Y-370417D01*
X591940Y-370416D01*
X591426Y-367834D01*
X590566Y-363507D01*
X585330Y-355670D01*
X585329Y-355670D01*
X577493Y-350434D01*
X570583Y-349060D01*
X570583Y-349060D01*
X568730Y-349060D01*
X565658Y-347787D01*
X564385Y-344715D01*
X564385Y-335285D01*
X565658Y-332213D01*
X568730Y-330940D01*
X570583Y-330940D01*
X572882Y-330483D01*
X577493Y-329566D01*
X585330Y-324330D01*
X590566Y-316493D01*
X591940Y-309583D01*
X591940Y-270417D01*
X591940Y-270417D01*
X591426Y-267834D01*
X590566Y-263507D01*
X585330Y-255670D01*
X585329Y-255670D01*
X577493Y-250434D01*
X570583Y-249060D01*
X570583Y-249060D01*
X536417Y-249060D01*
X536417Y-249060D01*
X529507Y-250434D01*
X529507Y-250434D01*
X528144Y-251345D01*
X524882Y-251994D01*
X522117Y-250146D01*
X521385Y-247732D01*
X521385Y-157937D01*
X522658Y-154865D01*
X525730Y-153592D01*
X528802Y-154865D01*
G37*
%TD.AperFunction*%
%TA.AperFunction,Conductor*%
G36*
X602158Y124677D02*
G01*
X603431Y121605D01*
X603244Y120344D01*
X603066Y119758D01*
X602872Y119119D01*
X602872Y119119D01*
X600610Y107744D01*
X600610Y107744D01*
X600541Y107281D01*
X600473Y106589D01*
X600450Y106122D01*
X600450Y28305D01*
X600473Y27837D01*
X600541Y27145D01*
X600610Y26682D01*
X600610Y26682D01*
X602873Y15306D01*
X603415Y13517D01*
X603416Y13516D01*
X603586Y13104D01*
X603587Y13102D01*
X604469Y11451D01*
X609153Y4442D01*
X609885Y2028D01*
X609885Y-7071D01*
X610579Y-10559D01*
X610579Y-10560D01*
X612543Y-13499D01*
X612555Y-13516D01*
X633484Y-34445D01*
X634084Y-34846D01*
X636440Y-36421D01*
X636440Y-36421D01*
X636441Y-36421D01*
X638936Y-36918D01*
X639929Y-37115D01*
X639929Y-37115D01*
X650000Y-37115D01*
X650159Y-37084D01*
X650313Y-37053D01*
X653209Y-37482D01*
X653758Y-37776D01*
X654172Y-37947D01*
X655963Y-38490D01*
X664481Y-40185D01*
X666344Y-40368D01*
X666345Y-40368D01*
X666792Y-40368D01*
X666793Y-40368D01*
X668656Y-40185D01*
X674807Y-38961D01*
X678069Y-39610D01*
X679917Y-42375D01*
X680000Y-43223D01*
X680000Y-53089D01*
X678727Y-56162D01*
X675655Y-57434D01*
X672583Y-56162D01*
X672403Y-55982D01*
X672403Y-55982D01*
X670330Y-54597D01*
X669341Y-53936D01*
X669341Y-53936D01*
X666269Y-52663D01*
X666268Y-52663D01*
X662656Y-51945D01*
X662656Y-51945D01*
X644070Y-51945D01*
X644070Y-51945D01*
X640458Y-52663D01*
X640458Y-52663D01*
X638410Y-53512D01*
X637385Y-53936D01*
X637385Y-53936D01*
X637385Y-53936D01*
X634323Y-55982D01*
X634323Y-55982D01*
X605072Y-85233D01*
X602000Y-86505D01*
X598928Y-85233D01*
X568292Y-54597D01*
X565230Y-52551D01*
X565230Y-52551D01*
X562158Y-51278D01*
X562157Y-51278D01*
X558545Y-50560D01*
X558545Y-50560D01*
X549789Y-50560D01*
X546717Y-49287D01*
X527323Y-29893D01*
X526050Y-26821D01*
X526050Y67426D01*
X526324Y68944D01*
X526580Y69629D01*
X526149Y71607D01*
X526050Y72531D01*
X526050Y72549D01*
X526050Y72549D01*
X525663Y73865D01*
X525626Y74011D01*
X524909Y77310D01*
X524670Y77748D01*
X524401Y78166D01*
X524401Y78167D01*
X521849Y80378D01*
X521737Y80482D01*
X521272Y80946D01*
X520000Y84018D01*
X520000Y121605D01*
X521273Y124677D01*
X524345Y125950D01*
X599086Y125950D01*
X602158Y124677D01*
G37*
%TD.AperFunction*%
%TD*%
%TA.AperFunction,Conductor*%
%TO.N,VDD*%
G36*
X670070Y125503D02*
G01*
X683168Y112405D01*
X683505Y111591D01*
X683505Y-14471D01*
X684349Y-15933D01*
X684464Y-16210D01*
X684901Y-17841D01*
X684901Y-17841D01*
X685643Y-18583D01*
X685980Y-19396D01*
X685786Y-20035D01*
X683264Y-23810D01*
X682947Y-24127D01*
X675726Y-28952D01*
X675311Y-29124D01*
X666793Y-30818D01*
X666344Y-30818D01*
X657826Y-29124D01*
X657412Y-28952D01*
X650094Y-24063D01*
X649920Y-23920D01*
X640471Y-14471D01*
X618866Y7134D01*
X618724Y7307D01*
X612410Y16756D01*
X612239Y17170D01*
X610022Y28315D01*
X610000Y28540D01*
X610000Y105887D01*
X610022Y106111D01*
X612239Y117256D01*
X612411Y117671D01*
X617528Y125329D01*
X618260Y125818D01*
X618484Y125840D01*
X669256Y125840D01*
X670070Y125503D01*
G37*
%TD.AperFunction*%
%TD*%
M02*
