  0
SECTION
  2
HEADER
  9
$ANGBASE
  50
0.0
  9
$ANGDIR
  70
1
  9
$MEASUREMENT
  70
0
  0
ENDSEC
  0
SECTION
  2
TABLES
  0
TABLE
  2
LTYPE
  70
4
  0
LTYPE
  5
40F
  2
CONTINUOUS
  70
0
  3
Solid line
  72
65
  73
0
  40
0.0
  0
LTYPE
  5
410
  2
DASHDOT
 70
0
  3
Dash Dot ____ _ ____ _
 72
65
 73
4
 40
2.0
 49
1.25
 49
-0.25
 49
0.25
 49
-0.25
  0
LTYPE
  5
411
  2
DASHED
 70
0
  3
Dashed __ __ __ __ __
 72
65
 73
2
 40
0.75
 49
0.5
 49
-0.25
  0
LTYPE
  5
43B
  2
DOTTED
 70
0
  3
Dotted .  .  .  .
 72
65
 73
2
 40
0.2
 49
0.0
 49
-0.2
  0
ENDTAB
  0
TABLE
  2
STYLE
  70
4
  0
STYLE
  2
KICAD
  70
0
  40
0
  41
1
  42
1
  50
0
  71
0
  3
isocp.shx
  0
STYLE
  2
KICADB
  70
0
  40
0
  41
1
  42
1
  50
0
  71
0
  3
isocp.shx
  0
STYLE
  2
KICADI
  70
0
  40
0
  41
1
  42
1
  50
15
  71
0
  3
isocp.shx
  0
STYLE
  2
KICADBI
  70
0
  40
0
  41
1
  42
1
  50
15
  71
0
  3
isocp.shx
  0
ENDTAB
  0
TABLE
  2
LAYER
  70
1
  0
LAYER
  2
BLACK
  70
0
  62
7
  6
CONTINUOUS
  0
ENDTAB
  0
ENDSEC
  0
SECTION
  2
ENTITIES
0
LINE
8
BLACK
6
CONTINUOUS
10
1.31546
20
-1.99775
11
1.34027
21
-2.0001
0
LINE
8
BLACK
6
CONTINUOUS
10
1.34027
20
-2.0001
11
1.36489
21
-2.004
0
LINE
8
BLACK
6
CONTINUOUS
10
1.36489
20
-2.004
11
1.38921
21
-2.00943
0
LINE
8
BLACK
6
CONTINUOUS
10
1.38921
20
-2.00943
11
1.41315
21
-2.01639
0
LINE
8
BLACK
6
CONTINUOUS
10
1.41315
20
-2.01639
11
1.4366
21
-2.02483
0
LINE
8
BLACK
6
CONTINUOUS
10
1.4366
20
-2.02483
11
1.45947
21
-2.03473
0
LINE
8
BLACK
6
CONTINUOUS
10
1.45947
20
-2.03473
11
1.48168
21
-2.04604
0
LINE
8
BLACK
6
CONTINUOUS
10
1.48168
20
-2.04604
11
1.50313
21
-2.05873
0
LINE
8
BLACK
6
CONTINUOUS
10
1.50313
20
-2.05873
11
1.52374
21
-2.07274
0
LINE
8
BLACK
6
CONTINUOUS
10
1.52374
20
-2.07274
11
1.54344
21
-2.08801
0
LINE
8
BLACK
6
CONTINUOUS
10
1.54344
20
-2.08801
11
1.56213
21
-2.1045
0
LINE
8
BLACK
6
CONTINUOUS
10
1.56213
20
-2.1045
11
1.57976
21
-2.12212
0
LINE
8
BLACK
6
CONTINUOUS
10
1.57976
20
-2.12212
11
1.59624
21
-2.14081
0
LINE
8
BLACK
6
CONTINUOUS
10
1.59624
20
-2.14081
11
1.61151
21
-2.16051
0
LINE
8
BLACK
6
CONTINUOUS
10
1.61151
20
-2.16051
11
1.62552
21
-2.18112
0
LINE
8
BLACK
6
CONTINUOUS
10
1.62552
20
-2.18112
11
1.63821
21
-2.20257
0
LINE
8
BLACK
6
CONTINUOUS
10
1.63821
20
-2.20257
11
1.64953
21
-2.22478
0
LINE
8
BLACK
6
CONTINUOUS
10
1.64953
20
-2.22478
11
1.65942
21
-2.24765
0
LINE
8
BLACK
6
CONTINUOUS
10
1.65942
20
-2.24765
11
1.66787
21
-2.2711
0
LINE
8
BLACK
6
CONTINUOUS
10
1.66787
20
-2.2711
11
1.67482
21
-2.29504
0
LINE
8
BLACK
6
CONTINUOUS
10
1.67482
20
-2.29504
11
1.68026
21
-2.31936
0
LINE
8
BLACK
6
CONTINUOUS
10
1.68026
20
-2.31936
11
1.68416
21
-2.34398
0
LINE
8
BLACK
6
CONTINUOUS
10
1.68416
20
-2.34398
11
1.6865
21
-2.36879
0
LINE
8
BLACK
6
CONTINUOUS
10
1.6865
20
-2.36879
11
1.68728
21
-2.3937
0
LINE
8
BLACK
6
CONTINUOUS
10
1.68728
20
-2.3937
11
1.6865
21
-2.41861
0
LINE
8
BLACK
6
CONTINUOUS
10
1.6865
20
-2.41861
11
1.68416
21
-2.44342
0
LINE
8
BLACK
6
CONTINUOUS
10
1.68416
20
-2.44342
11
1.68026
21
-2.46804
0
LINE
8
BLACK
6
CONTINUOUS
10
1.68026
20
-2.46804
11
1.67482
21
-2.49236
0
LINE
8
BLACK
6
CONTINUOUS
10
1.67482
20
-2.49236
11
1.66787
21
-2.5163
0
LINE
8
BLACK
6
CONTINUOUS
10
1.66787
20
-2.5163
11
1.65942
21
-2.53975
0
LINE
8
BLACK
6
CONTINUOUS
10
1.65942
20
-2.53975
11
1.64953
21
-2.56262
0
LINE
8
BLACK
6
CONTINUOUS
10
1.64953
20
-2.56262
11
1.63821
21
-2.58483
0
LINE
8
BLACK
6
CONTINUOUS
10
1.63821
20
-2.58483
11
1.62552
21
-2.60628
0
LINE
8
BLACK
6
CONTINUOUS
10
1.62552
20
-2.60628
11
1.61151
21
-2.62689
0
LINE
8
BLACK
6
CONTINUOUS
10
1.61151
20
-2.62689
11
1.59624
21
-2.64659
0
LINE
8
BLACK
6
CONTINUOUS
10
1.59624
20
-2.64659
11
1.57976
21
-2.66528
0
LINE
8
BLACK
6
CONTINUOUS
10
1.57976
20
-2.66528
11
1.56213
21
-2.68291
0
LINE
8
BLACK
6
CONTINUOUS
10
1.56213
20
-2.68291
11
1.54344
21
-2.69939
0
LINE
8
BLACK
6
CONTINUOUS
10
1.54344
20
-2.69939
11
1.52374
21
-2.71466
0
LINE
8
BLACK
6
CONTINUOUS
10
1.52374
20
-2.71466
11
1.50313
21
-2.72867
0
LINE
8
BLACK
6
CONTINUOUS
10
1.50313
20
-2.72867
11
1.48168
21
-2.74136
0
LINE
8
BLACK
6
CONTINUOUS
10
1.48168
20
-2.74136
11
1.45947
21
-2.75267
0
LINE
8
BLACK
6
CONTINUOUS
10
1.45947
20
-2.75267
11
1.4366
21
-2.76257
0
LINE
8
BLACK
6
CONTINUOUS
10
1.4366
20
-2.76257
11
1.41315
21
-2.77102
0
LINE
8
BLACK
6
CONTINUOUS
10
1.41315
20
-2.77102
11
1.38921
21
-2.77797
0
LINE
8
BLACK
6
CONTINUOUS
10
1.38921
20
-2.77797
11
1.36489
21
-2.78341
0
LINE
8
BLACK
6
CONTINUOUS
10
1.36489
20
-2.78341
11
1.34027
21
-2.7873
0
LINE
8
BLACK
6
CONTINUOUS
10
1.34027
20
-2.7873
11
1.31546
21
-2.78965
0
LINE
8
BLACK
6
CONTINUOUS
10
1.31546
20
-2.78965
11
1.29055
21
-2.79043
0
LINE
8
BLACK
6
CONTINUOUS
10
1.29055
20
-2.79043
11
1.26564
21
-2.78965
0
LINE
8
BLACK
6
CONTINUOUS
10
1.26564
20
-2.78965
11
1.24083
21
-2.7873
0
LINE
8
BLACK
6
CONTINUOUS
10
1.24083
20
-2.7873
11
1.21621
21
-2.78341
0
LINE
8
BLACK
6
CONTINUOUS
10
1.21621
20
-2.78341
11
1.19189
21
-2.77797
0
LINE
8
BLACK
6
CONTINUOUS
10
1.19189
20
-2.77797
11
1.16795
21
-2.77102
0
LINE
8
BLACK
6
CONTINUOUS
10
1.16795
20
-2.77102
11
1.1445
21
-2.76257
0
LINE
8
BLACK
6
CONTINUOUS
10
1.1445
20
-2.76257
11
1.12163
21
-2.75267
0
LINE
8
BLACK
6
CONTINUOUS
10
1.12163
20
-2.75267
11
1.09942
21
-2.74136
0
LINE
8
BLACK
6
CONTINUOUS
10
1.09942
20
-2.74136
11
1.07797
21
-2.72867
0
LINE
8
BLACK
6
CONTINUOUS
10
1.07797
20
-2.72867
11
1.05736
21
-2.71466
0
LINE
8
BLACK
6
CONTINUOUS
10
1.05736
20
-2.71466
11
1.03766
21
-2.69939
0
LINE
8
BLACK
6
CONTINUOUS
10
1.03766
20
-2.69939
11
1.01897
21
-2.68291
0
LINE
8
BLACK
6
CONTINUOUS
10
1.01897
20
-2.68291
11
1.00135
21
-2.66528
0
LINE
8
BLACK
6
CONTINUOUS
10
1.00135
20
-2.66528
11
0.984864
21
-2.64659
0
LINE
8
BLACK
6
CONTINUOUS
10
0.984864
20
-2.64659
11
0.969588
21
-2.62689
0
LINE
8
BLACK
6
CONTINUOUS
10
0.969588
20
-2.62689
11
0.955579
21
-2.60628
0
LINE
8
BLACK
6
CONTINUOUS
10
0.955579
20
-2.60628
11
0.942892
21
-2.58483
0
LINE
8
BLACK
6
CONTINUOUS
10
0.942892
20
-2.58483
11
0.931577
21
-2.56262
0
LINE
8
BLACK
6
CONTINUOUS
10
0.931577
20
-2.56262
11
0.921679
21
-2.53975
0
LINE
8
BLACK
6
CONTINUOUS
10
0.921679
20
-2.53975
11
0.913236
21
-2.5163
0
LINE
8
BLACK
6
CONTINUOUS
10
0.913236
20
-2.5163
11
0.906283
21
-2.49236
0
LINE
8
BLACK
6
CONTINUOUS
10
0.906283
20
-2.49236
11
0.900846
21
-2.46804
0
LINE
8
BLACK
6
CONTINUOUS
10
0.900846
20
-2.46804
11
0.896947
21
-2.44342
0
LINE
8
BLACK
6
CONTINUOUS
10
0.896947
20
-2.44342
11
0.894602
21
-2.41861
0
LINE
8
BLACK
6
CONTINUOUS
10
0.894602
20
-2.41861
11
0.893819
21
-2.3937
0
LINE
8
BLACK
6
CONTINUOUS
10
0.893819
20
-2.3937
11
0.894602
21
-2.36879
0
LINE
8
BLACK
6
CONTINUOUS
10
0.894602
20
-2.36879
11
0.896947
21
-2.34398
0
LINE
8
BLACK
6
CONTINUOUS
10
0.896947
20
-2.34398
11
0.900846
21
-2.31936
0
LINE
8
BLACK
6
CONTINUOUS
10
0.900846
20
-2.31936
11
0.906283
21
-2.29504
0
LINE
8
BLACK
6
CONTINUOUS
10
0.906283
20
-2.29504
11
0.913236
21
-2.2711
0
LINE
8
BLACK
6
CONTINUOUS
10
0.913236
20
-2.2711
11
0.921679
21
-2.24765
0
LINE
8
BLACK
6
CONTINUOUS
10
0.921679
20
-2.24765
11
0.931577
21
-2.22478
0
LINE
8
BLACK
6
CONTINUOUS
10
0.931577
20
-2.22478
11
0.942892
21
-2.20257
0
LINE
8
BLACK
6
CONTINUOUS
10
0.942892
20
-2.20257
11
0.955579
21
-2.18112
0
LINE
8
BLACK
6
CONTINUOUS
10
0.955579
20
-2.18112
11
0.969588
21
-2.16051
0
LINE
8
BLACK
6
CONTINUOUS
10
0.969588
20
-2.16051
11
0.984864
21
-2.14081
0
LINE
8
BLACK
6
CONTINUOUS
10
0.984864
20
-2.14081
11
1.00135
21
-2.12212
0
LINE
8
BLACK
6
CONTINUOUS
10
1.00135
20
-2.12212
11
1.01897
21
-2.1045
0
LINE
8
BLACK
6
CONTINUOUS
10
1.01897
20
-2.1045
11
1.03766
21
-2.08801
0
LINE
8
BLACK
6
CONTINUOUS
10
1.03766
20
-2.08801
11
1.05736
21
-2.07274
0
LINE
8
BLACK
6
CONTINUOUS
10
1.05736
20
-2.07274
11
1.07797
21
-2.05873
0
LINE
8
BLACK
6
CONTINUOUS
10
1.07797
20
-2.05873
11
1.09942
21
-2.04604
0
LINE
8
BLACK
6
CONTINUOUS
10
1.09942
20
-2.04604
11
1.12163
21
-2.03473
0
LINE
8
BLACK
6
CONTINUOUS
10
1.12163
20
-2.03473
11
1.1445
21
-2.02483
0
LINE
8
BLACK
6
CONTINUOUS
10
1.1445
20
-2.02483
11
1.16795
21
-2.01639
0
LINE
8
BLACK
6
CONTINUOUS
10
1.16795
20
-2.01639
11
1.19189
21
-2.00943
0
LINE
8
BLACK
6
CONTINUOUS
10
1.19189
20
-2.00943
11
1.21621
21
-2.004
0
LINE
8
BLACK
6
CONTINUOUS
10
1.21621
20
-2.004
11
1.24083
21
-2.0001
0
LINE
8
BLACK
6
CONTINUOUS
10
1.24083
20
-2.0001
11
1.26564
21
-1.99775
0
LINE
8
BLACK
6
CONTINUOUS
10
1.26564
20
-1.99775
11
1.29055
21
-1.99697
0
LINE
8
BLACK
6
CONTINUOUS
10
1.29055
20
-1.99697
11
1.31546
21
-1.99775
0
LINE
8
BLACK
6
CONTINUOUS
10
0.900303
20
-2.41825
11
0.902615
21
-2.44271
0
LINE
8
BLACK
6
CONTINUOUS
10
0.902615
20
-2.44271
11
0.906457
21
-2.46697
0
LINE
8
BLACK
6
CONTINUOUS
10
0.906457
20
-2.46697
11
0.911816
21
-2.49094
0
LINE
8
BLACK
6
CONTINUOUS
10
0.911816
20
-2.49094
11
0.918669
21
-2.51453
0
LINE
8
BLACK
6
CONTINUOUS
10
0.918669
20
-2.51453
11
0.92699
21
-2.53764
0
LINE
8
BLACK
6
CONTINUOUS
10
0.92699
20
-2.53764
11
0.936746
21
-2.56019
0
LINE
8
BLACK
6
CONTINUOUS
10
0.936746
20
-2.56019
11
0.947898
21
-2.58208
0
LINE
8
BLACK
6
CONTINUOUS
10
0.947898
20
-2.58208
11
0.960402
21
-2.60322
0
LINE
8
BLACK
6
CONTINUOUS
10
0.960402
20
-2.60322
11
0.97421
21
-2.62354
0
LINE
8
BLACK
6
CONTINUOUS
10
0.97421
20
-2.62354
11
0.989265
21
-2.64295
0
LINE
8
BLACK
6
CONTINUOUS
10
0.989265
20
-2.64295
11
1.00551
21
-2.66137
0
LINE
8
BLACK
6
CONTINUOUS
10
1.00551
20
-2.66137
11
1.02288
21
-2.67874
0
LINE
8
BLACK
6
CONTINUOUS
10
1.02288
20
-2.67874
11
1.04131
21
-2.69499
0
LINE
8
BLACK
6
CONTINUOUS
10
1.04131
20
-2.69499
11
1.06072
21
-2.71004
0
LINE
8
BLACK
6
CONTINUOUS
10
1.06072
20
-2.71004
11
1.08103
21
-2.72385
0
LINE
8
BLACK
6
CONTINUOUS
10
1.08103
20
-2.72385
11
1.10218
21
-2.73635
0
LINE
8
BLACK
6
CONTINUOUS
10
1.10218
20
-2.73635
11
1.12406
21
-2.74751
0
LINE
8
BLACK
6
CONTINUOUS
10
1.12406
20
-2.74751
11
1.14661
21
-2.75726
0
LINE
8
BLACK
6
CONTINUOUS
10
1.14661
20
-2.75726
11
1.16972
21
-2.76558
0
LINE
8
BLACK
6
CONTINUOUS
10
1.16972
20
-2.76558
11
1.19331
21
-2.77244
0
LINE
8
BLACK
6
CONTINUOUS
10
1.19331
20
-2.77244
11
1.21728
21
-2.77779
0
LINE
8
BLACK
6
CONTINUOUS
10
1.21728
20
-2.77779
11
1.24154
21
-2.78164
0
LINE
8
BLACK
6
CONTINUOUS
10
1.24154
20
-2.78164
11
1.266
21
-2.78395
0
LINE
8
BLACK
6
CONTINUOUS
10
1.266
20
-2.78395
11
1.29055
21
-2.78472
0
LINE
8
BLACK
6
CONTINUOUS
10
1.29055
20
-2.78472
11
1.3151
21
-2.78395
0
LINE
8
BLACK
6
CONTINUOUS
10
1.3151
20
-2.78395
11
1.33956
21
-2.78164
0
LINE
8
BLACK
6
CONTINUOUS
10
1.33956
20
-2.78164
11
1.36382
21
-2.77779
0
LINE
8
BLACK
6
CONTINUOUS
10
1.36382
20
-2.77779
11
1.38779
21
-2.77244
0
LINE
8
BLACK
6
CONTINUOUS
10
1.38779
20
-2.77244
11
1.41138
21
-2.76558
0
LINE
8
BLACK
6
CONTINUOUS
10
1.41138
20
-2.76558
11
1.4345
21
-2.75726
0
LINE
8
BLACK
6
CONTINUOUS
10
1.4345
20
-2.75726
11
1.45704
21
-2.74751
0
LINE
8
BLACK
6
CONTINUOUS
10
1.45704
20
-2.74751
11
1.47893
21
-2.73635
0
LINE
8
BLACK
6
CONTINUOUS
10
1.47893
20
-2.73635
11
1.50007
21
-2.72385
0
LINE
8
BLACK
6
CONTINUOUS
10
1.50007
20
-2.72385
11
1.52039
21
-2.71004
0
LINE
8
BLACK
6
CONTINUOUS
10
1.52039
20
-2.71004
11
1.5398
21
-2.69499
0
LINE
8
BLACK
6
CONTINUOUS
10
1.5398
20
-2.69499
11
1.55822
21
-2.67874
0
LINE
8
BLACK
6
CONTINUOUS
10
1.55822
20
-2.67874
11
1.57559
21
-2.66137
0
LINE
8
BLACK
6
CONTINUOUS
10
1.57559
20
-2.66137
11
1.59184
21
-2.64295
0
LINE
8
BLACK
6
CONTINUOUS
10
1.59184
20
-2.64295
11
1.60689
21
-2.62354
0
LINE
8
BLACK
6
CONTINUOUS
10
1.60689
20
-2.62354
11
1.6207
21
-2.60322
0
LINE
8
BLACK
6
CONTINUOUS
10
1.6207
20
-2.60322
11
1.6332
21
-2.58208
0
LINE
8
BLACK
6
CONTINUOUS
10
1.6332
20
-2.58208
11
1.64436
21
-2.56019
0
LINE
8
BLACK
6
CONTINUOUS
10
1.64436
20
-2.56019
11
1.65411
21
-2.53764
0
LINE
8
BLACK
6
CONTINUOUS
10
1.65411
20
-2.53764
11
1.66243
21
-2.51453
0
LINE
8
BLACK
6
CONTINUOUS
10
1.66243
20
-2.51453
11
1.66929
21
-2.49094
0
LINE
8
BLACK
6
CONTINUOUS
10
1.66929
20
-2.49094
11
1.67464
21
-2.46697
0
LINE
8
BLACK
6
CONTINUOUS
10
1.67464
20
-2.46697
11
1.67849
21
-2.44271
0
LINE
8
BLACK
6
CONTINUOUS
10
1.67849
20
-2.44271
11
1.6808
21
-2.41825
0
LINE
8
BLACK
6
CONTINUOUS
10
1.6808
20
-2.41825
11
1.68157
21
-2.3937
0
LINE
8
BLACK
6
CONTINUOUS
10
1.68157
20
-2.3937
11
1.6808
21
-2.36915
0
LINE
8
BLACK
6
CONTINUOUS
10
1.6808
20
-2.36915
11
1.67849
21
-2.34469
0
LINE
8
BLACK
6
CONTINUOUS
10
1.67849
20
-2.34469
11
1.67464
21
-2.32043
0
LINE
8
BLACK
6
CONTINUOUS
10
1.67464
20
-2.32043
11
1.66929
21
-2.29646
0
LINE
8
BLACK
6
CONTINUOUS
10
1.66929
20
-2.29646
11
1.66243
21
-2.27287
0
LINE
8
BLACK
6
CONTINUOUS
10
1.66243
20
-2.27287
11
1.65411
21
-2.24976
0
LINE
8
BLACK
6
CONTINUOUS
10
1.65411
20
-2.24976
11
1.64436
21
-2.22721
0
LINE
8
BLACK
6
CONTINUOUS
10
1.64436
20
-2.22721
11
1.6332
21
-2.20533
0
LINE
8
BLACK
6
CONTINUOUS
10
1.6332
20
-2.20533
11
1.6207
21
-2.18418
0
LINE
8
BLACK
6
CONTINUOUS
10
1.6207
20
-2.18418
11
1.60689
21
-2.16387
0
LINE
8
BLACK
6
CONTINUOUS
10
1.60689
20
-2.16387
11
1.59184
21
-2.14446
0
LINE
8
BLACK
6
CONTINUOUS
10
1.59184
20
-2.14446
11
1.57559
21
-2.12603
0
LINE
8
BLACK
6
CONTINUOUS
10
1.57559
20
-2.12603
11
1.55822
21
-2.10866
0
LINE
8
BLACK
6
CONTINUOUS
10
1.55822
20
-2.10866
11
1.5398
21
-2.09241
0
LINE
8
BLACK
6
CONTINUOUS
10
1.5398
20
-2.09241
11
1.52039
21
-2.07736
0
LINE
8
BLACK
6
CONTINUOUS
10
1.52039
20
-2.07736
11
1.50007
21
-2.06355
0
LINE
8
BLACK
6
CONTINUOUS
10
1.50007
20
-2.06355
11
1.47893
21
-2.05105
0
LINE
8
BLACK
6
CONTINUOUS
10
1.47893
20
-2.05105
11
1.45704
21
-2.0399
0
LINE
8
BLACK
6
CONTINUOUS
10
1.45704
20
-2.0399
11
1.4345
21
-2.03014
0
LINE
8
BLACK
6
CONTINUOUS
10
1.4345
20
-2.03014
11
1.41138
21
-2.02182
0
LINE
8
BLACK
6
CONTINUOUS
10
1.41138
20
-2.02182
11
1.38779
21
-2.01497
0
LINE
8
BLACK
6
CONTINUOUS
10
1.38779
20
-2.01497
11
1.36382
21
-2.00961
0
LINE
8
BLACK
6
CONTINUOUS
10
1.36382
20
-2.00961
11
1.33956
21
-2.00576
0
LINE
8
BLACK
6
CONTINUOUS
10
1.33956
20
-2.00576
11
1.3151
21
-2.00345
0
LINE
8
BLACK
6
CONTINUOUS
10
1.3151
20
-2.00345
11
1.29055
21
-2.00268
0
LINE
8
BLACK
6
CONTINUOUS
10
1.29055
20
-2.00268
11
1.266
21
-2.00345
0
LINE
8
BLACK
6
CONTINUOUS
10
1.266
20
-2.00345
11
1.24154
21
-2.00576
0
LINE
8
BLACK
6
CONTINUOUS
10
1.24154
20
-2.00576
11
1.21728
21
-2.00961
0
LINE
8
BLACK
6
CONTINUOUS
10
1.21728
20
-2.00961
11
1.19331
21
-2.01497
0
LINE
8
BLACK
6
CONTINUOUS
10
1.19331
20
-2.01497
11
1.16972
21
-2.02182
0
LINE
8
BLACK
6
CONTINUOUS
10
1.16972
20
-2.02182
11
1.14661
21
-2.03014
0
LINE
8
BLACK
6
CONTINUOUS
10
1.14661
20
-2.03014
11
1.12406
21
-2.0399
0
LINE
8
BLACK
6
CONTINUOUS
10
1.12406
20
-2.0399
11
1.10218
21
-2.05105
0
LINE
8
BLACK
6
CONTINUOUS
10
1.10218
20
-2.05105
11
1.08103
21
-2.06355
0
LINE
8
BLACK
6
CONTINUOUS
10
1.08103
20
-2.06355
11
1.06072
21
-2.07736
0
LINE
8
BLACK
6
CONTINUOUS
10
1.06072
20
-2.07736
11
1.04131
21
-2.09241
0
LINE
8
BLACK
6
CONTINUOUS
10
1.04131
20
-2.09241
11
1.02288
21
-2.10866
0
LINE
8
BLACK
6
CONTINUOUS
10
1.02288
20
-2.10866
11
1.00551
21
-2.12603
0
LINE
8
BLACK
6
CONTINUOUS
10
1.00551
20
-2.12603
11
0.989265
21
-2.14446
0
LINE
8
BLACK
6
CONTINUOUS
10
0.989265
20
-2.14446
11
0.97421
21
-2.16387
0
LINE
8
BLACK
6
CONTINUOUS
10
0.97421
20
-2.16387
11
0.960402
21
-2.18418
0
LINE
8
BLACK
6
CONTINUOUS
10
0.960402
20
-2.18418
11
0.947898
21
-2.20533
0
LINE
8
BLACK
6
CONTINUOUS
10
0.947898
20
-2.20533
11
0.936746
21
-2.22721
0
LINE
8
BLACK
6
CONTINUOUS
10
0.936746
20
-2.22721
11
0.92699
21
-2.24976
0
LINE
8
BLACK
6
CONTINUOUS
10
0.92699
20
-2.24976
11
0.918669
21
-2.27287
0
LINE
8
BLACK
6
CONTINUOUS
10
0.918669
20
-2.27287
11
0.911816
21
-2.29646
0
LINE
8
BLACK
6
CONTINUOUS
10
0.911816
20
-2.29646
11
0.906457
21
-2.32043
0
LINE
8
BLACK
6
CONTINUOUS
10
0.906457
20
-2.32043
11
0.902615
21
-2.34469
0
LINE
8
BLACK
6
CONTINUOUS
10
0.902615
20
-2.34469
11
0.900303
21
-2.36915
0
LINE
8
BLACK
6
CONTINUOUS
10
0.900303
20
-2.36915
11
0.899531
21
-2.3937
0
LINE
8
BLACK
6
CONTINUOUS
10
0.899531
20
-2.3937
11
0.900303
21
-2.41825
0
LINE
8
BLACK
6
CONTINUOUS
10
0.0249061
20
0.395871
11
0.0497139
21
0.393526
0
LINE
8
BLACK
6
CONTINUOUS
10
0.0497139
20
0.393526
11
0.0743255
21
0.389628
0
LINE
8
BLACK
6
CONTINUOUS
10
0.0743255
20
0.389628
11
0.0986437
21
0.384192
0
LINE
8
BLACK
6
CONTINUOUS
10
0.0986437
20
0.384192
11
0.122573
21
0.37724
0
LINE
8
BLACK
6
CONTINUOUS
10
0.122573
20
0.37724
11
0.146018
21
0.368799
0
LINE
8
BLACK
6
CONTINUOUS
10
0.146018
20
0.368799
11
0.168887
21
0.358903
0
LINE
8
BLACK
6
CONTINUOUS
10
0.168887
20
0.358903
11
0.191089
21
0.34759
0
LINE
8
BLACK
6
CONTINUOUS
10
0.191089
20
0.34759
11
0.212538
21
0.334906
0
LINE
8
BLACK
6
CONTINUOUS
10
0.212538
20
0.334906
11
0.233147
21
0.320899
0
LINE
8
BLACK
6
CONTINUOUS
10
0.233147
20
0.320899
11
0.252836
21
0.305627
0
LINE
8
BLACK
6
CONTINUOUS
10
0.252836
20
0.305627
11
0.271528
21
0.289148
0
LINE
8
BLACK
6
CONTINUOUS
10
0.271528
20
0.289148
11
0.289148
21
0.271528
0
LINE
8
BLACK
6
CONTINUOUS
10
0.289148
20
0.271528
11
0.305627
21
0.252836
0
LINE
8
BLACK
6
CONTINUOUS
10
0.305627
20
0.252836
11
0.320899
21
0.233147
0
LINE
8
BLACK
6
CONTINUOUS
10
0.320899
20
0.233147
11
0.334906
21
0.212538
0
LINE
8
BLACK
6
CONTINUOUS
10
0.334906
20
0.212538
11
0.34759
21
0.191089
0
LINE
8
BLACK
6
CONTINUOUS
10
0.34759
20
0.191089
11
0.358903
21
0.168887
0
LINE
8
BLACK
6
CONTINUOUS
10
0.358903
20
0.168887
11
0.368799
21
0.146018
0
LINE
8
BLACK
6
CONTINUOUS
10
0.368799
20
0.146018
11
0.37724
21
0.122573
0
LINE
8
BLACK
6
CONTINUOUS
10
0.37724
20
0.122573
11
0.384192
21
0.0986437
0
LINE
8
BLACK
6
CONTINUOUS
10
0.384192
20
0.0986437
11
0.389628
21
0.0743255
0
LINE
8
BLACK
6
CONTINUOUS
10
0.389628
20
0.0743255
11
0.393526
21
0.0497139
0
LINE
8
BLACK
6
CONTINUOUS
10
0.393526
20
0.0497139
11
0.395871
21
0.0249061
0
LINE
8
BLACK
6
CONTINUOUS
10
0.395871
20
0.0249061
11
0.396654
21
0
0
LINE
8
BLACK
6
CONTINUOUS
10
0.396654
20
0
11
0.395871
21
-0.0249061
0
LINE
8
BLACK
6
CONTINUOUS
10
0.395871
20
-0.0249061
11
0.393526
21
-0.0497139
0
LINE
8
BLACK
6
CONTINUOUS
10
0.393526
20
-0.0497139
11
0.389628
21
-0.0743255
0
LINE
8
BLACK
6
CONTINUOUS
10
0.389628
20
-0.0743255
11
0.384192
21
-0.0986437
0
LINE
8
BLACK
6
CONTINUOUS
10
0.384192
20
-0.0986437
11
0.37724
21
-0.122573
0
LINE
8
BLACK
6
CONTINUOUS
10
0.37724
20
-0.122573
11
0.368799
21
-0.146018
0
LINE
8
BLACK
6
CONTINUOUS
10
0.368799
20
-0.146018
11
0.358903
21
-0.168887
0
LINE
8
BLACK
6
CONTINUOUS
10
0.358903
20
-0.168887
11
0.34759
21
-0.191089
0
LINE
8
BLACK
6
CONTINUOUS
10
0.34759
20
-0.191089
11
0.334906
21
-0.212538
0
LINE
8
BLACK
6
CONTINUOUS
10
0.334906
20
-0.212538
11
0.320899
21
-0.233147
0
LINE
8
BLACK
6
CONTINUOUS
10
0.320899
20
-0.233147
11
0.305627
21
-0.252836
0
LINE
8
BLACK
6
CONTINUOUS
10
0.305627
20
-0.252836
11
0.289148
21
-0.271528
0
LINE
8
BLACK
6
CONTINUOUS
10
0.289148
20
-0.271528
11
0.271528
21
-0.289148
0
LINE
8
BLACK
6
CONTINUOUS
10
0.271528
20
-0.289148
11
0.252836
21
-0.305627
0
LINE
8
BLACK
6
CONTINUOUS
10
0.252836
20
-0.305627
11
0.233147
21
-0.320899
0
LINE
8
BLACK
6
CONTINUOUS
10
0.233147
20
-0.320899
11
0.212538
21
-0.334906
0
LINE
8
BLACK
6
CONTINUOUS
10
0.212538
20
-0.334906
11
0.191089
21
-0.34759
0
LINE
8
BLACK
6
CONTINUOUS
10
0.191089
20
-0.34759
11
0.168887
21
-0.358903
0
LINE
8
BLACK
6
CONTINUOUS
10
0.168887
20
-0.358903
11
0.146018
21
-0.368799
0
LINE
8
BLACK
6
CONTINUOUS
10
0.146018
20
-0.368799
11
0.122573
21
-0.37724
0
LINE
8
BLACK
6
CONTINUOUS
10
0.122573
20
-0.37724
11
0.0986437
21
-0.384192
0
LINE
8
BLACK
6
CONTINUOUS
10
0.0986437
20
-0.384192
11
0.0743255
21
-0.389628
0
LINE
8
BLACK
6
CONTINUOUS
10
0.0743255
20
-0.389628
11
0.0497139
21
-0.393526
0
LINE
8
BLACK
6
CONTINUOUS
10
0.0497139
20
-0.393526
11
0.0249061
21
-0.395871
0
LINE
8
BLACK
6
CONTINUOUS
10
0.0249061
20
-0.395871
11
0
21
-0.396654
0
LINE
8
BLACK
6
CONTINUOUS
10
0
20
-0.396654
11
-0.0249061
21
-0.395871
0
LINE
8
BLACK
6
CONTINUOUS
10
-0.0249061
20
-0.395871
11
-0.0497139
21
-0.393526
0
LINE
8
BLACK
6
CONTINUOUS
10
-0.0497139
20
-0.393526
11
-0.0743255
21
-0.389628
0
LINE
8
BLACK
6
CONTINUOUS
10
-0.0743255
20
-0.389628
11
-0.0986437
21
-0.384192
0
LINE
8
BLACK
6
CONTINUOUS
10
-0.0986437
20
-0.384192
11
-0.122573
21
-0.37724
0
LINE
8
BLACK
6
CONTINUOUS
10
-0.122573
20
-0.37724
11
-0.146018
21
-0.368799
0
LINE
8
BLACK
6
CONTINUOUS
10
-0.146018
20
-0.368799
11
-0.168887
21
-0.358903
0
LINE
8
BLACK
6
CONTINUOUS
10
-0.168887
20
-0.358903
11
-0.191089
21
-0.34759
0
LINE
8
BLACK
6
CONTINUOUS
10
-0.191089
20
-0.34759
11
-0.212538
21
-0.334906
0
LINE
8
BLACK
6
CONTINUOUS
10
-0.212538
20
-0.334906
11
-0.233147
21
-0.320899
0
LINE
8
BLACK
6
CONTINUOUS
10
-0.233147
20
-0.320899
11
-0.252836
21
-0.305627
0
LINE
8
BLACK
6
CONTINUOUS
10
-0.252836
20
-0.305627
11
-0.271528
21
-0.289148
0
LINE
8
BLACK
6
CONTINUOUS
10
-0.271528
20
-0.289148
11
-0.289148
21
-0.271528
0
LINE
8
BLACK
6
CONTINUOUS
10
-0.289148
20
-0.271528
11
-0.305627
21
-0.252836
0
LINE
8
BLACK
6
CONTINUOUS
10
-0.305627
20
-0.252836
11
-0.320899
21
-0.233147
0
LINE
8
BLACK
6
CONTINUOUS
10
-0.320899
20
-0.233147
11
-0.334906
21
-0.212538
0
LINE
8
BLACK
6
CONTINUOUS
10
-0.334906
20
-0.212538
11
-0.34759
21
-0.191089
0
LINE
8
BLACK
6
CONTINUOUS
10
-0.34759
20
-0.191089
11
-0.358903
21
-0.168887
0
LINE
8
BLACK
6
CONTINUOUS
10
-0.358903
20
-0.168887
11
-0.368799
21
-0.146018
0
LINE
8
BLACK
6
CONTINUOUS
10
-0.368799
20
-0.146018
11
-0.37724
21
-0.122573
0
LINE
8
BLACK
6
CONTINUOUS
10
-0.37724
20
-0.122573
11
-0.384192
21
-0.0986437
0
LINE
8
BLACK
6
CONTINUOUS
10
-0.384192
20
-0.0986437
11
-0.389628
21
-0.0743255
0
LINE
8
BLACK
6
CONTINUOUS
10
-0.389628
20
-0.0743255
11
-0.393526
21
-0.0497139
0
LINE
8
BLACK
6
CONTINUOUS
10
-0.393526
20
-0.0497139
11
-0.395871
21
-0.0249061
0
LINE
8
BLACK
6
CONTINUOUS
10
-0.395871
20
-0.0249061
11
-0.396654
21
0
0
LINE
8
BLACK
6
CONTINUOUS
10
-0.396654
20
0
11
-0.395871
21
0.0249061
0
LINE
8
BLACK
6
CONTINUOUS
10
-0.395871
20
0.0249061
11
-0.393526
21
0.0497139
0
LINE
8
BLACK
6
CONTINUOUS
10
-0.393526
20
0.0497139
11
-0.389628
21
0.0743255
0
LINE
8
BLACK
6
CONTINUOUS
10
-0.389628
20
0.0743255
11
-0.384192
21
0.0986437
0
LINE
8
BLACK
6
CONTINUOUS
10
-0.384192
20
0.0986437
11
-0.37724
21
0.122573
0
LINE
8
BLACK
6
CONTINUOUS
10
-0.37724
20
0.122573
11
-0.368799
21
0.146018
0
LINE
8
BLACK
6
CONTINUOUS
10
-0.368799
20
0.146018
11
-0.358903
21
0.168887
0
LINE
8
BLACK
6
CONTINUOUS
10
-0.358903
20
0.168887
11
-0.34759
21
0.191089
0
LINE
8
BLACK
6
CONTINUOUS
10
-0.34759
20
0.191089
11
-0.334906
21
0.212538
0
LINE
8
BLACK
6
CONTINUOUS
10
-0.334906
20
0.212538
11
-0.320899
21
0.233147
0
LINE
8
BLACK
6
CONTINUOUS
10
-0.320899
20
0.233147
11
-0.305627
21
0.252836
0
LINE
8
BLACK
6
CONTINUOUS
10
-0.305627
20
0.252836
11
-0.289148
21
0.271528
0
LINE
8
BLACK
6
CONTINUOUS
10
-0.289148
20
0.271528
11
-0.271528
21
0.289148
0
LINE
8
BLACK
6
CONTINUOUS
10
-0.271528
20
0.289148
11
-0.252836
21
0.305627
0
LINE
8
BLACK
6
CONTINUOUS
10
-0.252836
20
0.305627
11
-0.233147
21
0.320899
0
LINE
8
BLACK
6
CONTINUOUS
10
-0.233147
20
0.320899
11
-0.212538
21
0.334906
0
LINE
8
BLACK
6
CONTINUOUS
10
-0.212538
20
0.334906
11
-0.191089
21
0.34759
0
LINE
8
BLACK
6
CONTINUOUS
10
-0.191089
20
0.34759
11
-0.168887
21
0.358903
0
LINE
8
BLACK
6
CONTINUOUS
10
-0.168887
20
0.358903
11
-0.146018
21
0.368799
0
LINE
8
BLACK
6
CONTINUOUS
10
-0.146018
20
0.368799
11
-0.122573
21
0.37724
0
LINE
8
BLACK
6
CONTINUOUS
10
-0.122573
20
0.37724
11
-0.0986437
21
0.384192
0
LINE
8
BLACK
6
CONTINUOUS
10
-0.0986437
20
0.384192
11
-0.0743255
21
0.389628
0
LINE
8
BLACK
6
CONTINUOUS
10
-0.0743255
20
0.389628
11
-0.0497139
21
0.393526
0
LINE
8
BLACK
6
CONTINUOUS
10
-0.0497139
20
0.393526
11
-0.0249061
21
0.395871
0
LINE
8
BLACK
6
CONTINUOUS
10
-0.0249061
20
0.395871
11
0
21
0.396654
0
LINE
8
BLACK
6
CONTINUOUS
10
0
20
0.396654
11
0.0249061
21
0.395871
  0
ENDSEC
  0
EOF
