%TF.GenerationSoftware,KiCad,Pcbnew,7.0.9*%
%TF.CreationDate,2023-11-22T13:55:22-05:00*%
%TF.ProjectId,watch,77617463-682e-46b6-9963-61645f706362,rev?*%
%TF.SameCoordinates,Original*%
%TF.FileFunction,Profile,NP*%
%FSLAX45Y45*%
G04 Gerber Fmt 4.5, Leading zero omitted, Abs format (unit mm)*
G04 Created by KiCad (PCBNEW 7.0.9) date 2023-11-22 13:55:22*
%MOMM*%
%LPD*%
G01*
G04 APERTURE LIST*
%TA.AperFunction,Profile*%
%ADD10C,0.200000*%
%TD*%
G04 APERTURE END LIST*
D10*
X1145710Y-1606598D02*
G75*
G03*
X1175000Y-1535888I-70700J70708D01*
G01*
X1012500Y-1489289D02*
X1012500Y-1432500D01*
X-1145711Y-1606599D02*
X-1046599Y-1705711D01*
X-1012500Y1489289D02*
X-1012500Y1432500D01*
X-1220293Y-697227D02*
G75*
G03*
X-1236437Y-656676I-192782J-53262D01*
G01*
X1046598Y1705709D02*
G75*
G03*
X975888Y1735000I-70708J-70700D01*
G01*
X929289Y1572500D02*
X-929289Y1572500D01*
X1175000Y888287D02*
X1175000Y1535888D01*
X964645Y1557856D02*
G75*
G03*
X929289Y1572500I-35355J-35356D01*
G01*
X-964645Y-1557855D02*
G75*
G03*
X-929289Y-1572500I35355J35355D01*
G01*
X-929289Y-1572500D02*
X929289Y-1572500D01*
X-964645Y1557855D02*
X-997855Y1524645D01*
X-1175000Y-1535888D02*
G75*
G03*
X-1145711Y-1606599I99999J0D01*
G01*
X-1145711Y1606599D02*
G75*
G03*
X-1175000Y1535888I70710J-70710D01*
G01*
X-962500Y1382500D02*
X962500Y1382500D01*
X1175000Y888287D02*
G75*
G03*
X1182222Y835026I199950J-7D01*
G01*
X975888Y-1734996D02*
G75*
G03*
X1046599Y-1705711I2J100006D01*
G01*
X-1012500Y1432500D02*
G75*
G03*
X-962500Y1382500I50000J0D01*
G01*
X1220294Y697227D02*
G75*
G03*
X1236437Y656676I192716J53233D01*
G01*
X1236437Y-656676D02*
G75*
G03*
X1220293Y-697227I176693J-93834D01*
G01*
X-1236437Y656676D02*
G75*
G03*
X-1236437Y-656676I1236437J-656676D01*
G01*
X1012500Y1432500D02*
X1012500Y1489289D01*
X-1046599Y-1705711D02*
G75*
G03*
X-975888Y-1735000I70710J70710D01*
G01*
X-1182222Y835026D02*
G75*
G03*
X-1175000Y888287I-192776J53260D01*
G01*
X-975888Y1735000D02*
G75*
G03*
X-1046599Y1705711I0J-99999D01*
G01*
X962500Y-1382500D02*
X-962500Y-1382500D01*
X-975888Y-1735000D02*
X975888Y-1735000D01*
X962500Y1382500D02*
G75*
G03*
X1012500Y1432500I0J50000D01*
G01*
X-1175000Y-888287D02*
G75*
G03*
X-1182222Y-835026I-199998J0D01*
G01*
X997856Y-1524645D02*
G75*
G03*
X1012500Y-1489289I-35356J35355D01*
G01*
X1046599Y-1705711D02*
X1145711Y-1606599D01*
X-929289Y1572500D02*
G75*
G03*
X-964645Y1557855I0J-50000D01*
G01*
X1012500Y-1432500D02*
G75*
G03*
X962500Y-1382500I-50000J0D01*
G01*
X-1236437Y656676D02*
G75*
G03*
X-1220293Y697227I-176637J93812D01*
G01*
X1236437Y-656676D02*
G75*
G03*
X1236437Y656676I-1236437J656676D01*
G01*
X-1220293Y-697227D02*
X-1182222Y-835026D01*
X-1175000Y1535888D02*
X-1175000Y888287D01*
X1012499Y1489289D02*
G75*
G03*
X997855Y1524645I-50000J1D01*
G01*
X1182221Y-835026D02*
G75*
G03*
X1175000Y-888287I192829J-53264D01*
G01*
X929289Y-1572499D02*
G75*
G03*
X964645Y-1557855I1J50000D01*
G01*
X-997855Y-1524645D02*
X-964645Y-1557855D01*
X-962500Y-1382500D02*
G75*
G03*
X-1012500Y-1432500I0J-50000D01*
G01*
X-1012500Y-1432500D02*
X-1012500Y-1489289D01*
X-1182222Y835026D02*
X-1220293Y697227D01*
X997855Y1524645D02*
X964645Y1557855D01*
X1145711Y1606599D02*
X1046599Y1705711D01*
X-1175000Y-888287D02*
X-1175000Y-1535888D01*
X1175000Y-1535888D02*
X1175000Y-888287D01*
X1182222Y-835026D02*
X1220293Y-697227D01*
X-1046599Y1705711D02*
X-1145711Y1606599D01*
X-997855Y1524645D02*
G75*
G03*
X-1012500Y1489289I35355J-35355D01*
G01*
X1220293Y697227D02*
X1182222Y835026D01*
X975888Y1735000D02*
X-975888Y1735000D01*
X-1012500Y-1489289D02*
G75*
G03*
X-997855Y-1524645I50000J0D01*
G01*
X964645Y-1557855D02*
X997855Y-1524645D01*
X1174996Y1535888D02*
G75*
G03*
X1145711Y1606599I-100006J2D01*
G01*
M02*
