%TF.GenerationSoftware,KiCad,Pcbnew,7.0.9*%
%TF.CreationDate,2023-11-22T13:55:22-05:00*%
%TF.ProjectId,watch,77617463-682e-46b6-9963-61645f706362,rev?*%
%TF.SameCoordinates,Original*%
%TF.FileFunction,Legend,Bot*%
%TF.FilePolarity,Positive*%
%FSLAX45Y45*%
G04 Gerber Fmt 4.5, Leading zero omitted, Abs format (unit mm)*
G04 Created by KiCad (PCBNEW 7.0.9) date 2023-11-22 13:55:22*
%MOMM*%
%LPD*%
G01*
G04 APERTURE LIST*
%ADD10C,0.152400*%
G04 APERTURE END LIST*
D10*
X996164Y-1006969D02*
X996164Y-940303D01*
X996164Y-959350D02*
X991402Y-949826D01*
X991402Y-949826D02*
X986640Y-945065D01*
X986640Y-945065D02*
X977116Y-940303D01*
X977116Y-940303D02*
X967593Y-940303D01*
X896164Y-1002207D02*
X905688Y-1006969D01*
X905688Y-1006969D02*
X924735Y-1006969D01*
X924735Y-1006969D02*
X934259Y-1002207D01*
X934259Y-1002207D02*
X939021Y-992684D01*
X939021Y-992684D02*
X939021Y-954588D01*
X939021Y-954588D02*
X934259Y-945065D01*
X934259Y-945065D02*
X924735Y-940303D01*
X924735Y-940303D02*
X905688Y-940303D01*
X905688Y-940303D02*
X896164Y-945065D01*
X896164Y-945065D02*
X891402Y-954588D01*
X891402Y-954588D02*
X891402Y-964112D01*
X891402Y-964112D02*
X939021Y-973636D01*
X858069Y-940303D02*
X834259Y-1006969D01*
X834259Y-1006969D02*
X810450Y-940303D01*
X719974Y-1006969D02*
X777116Y-1006969D01*
X748545Y-1006969D02*
X748545Y-906969D01*
X748545Y-906969D02*
X758069Y-921255D01*
X758069Y-921255D02*
X767593Y-930779D01*
X767593Y-930779D02*
X777116Y-935541D01*
M02*
