M48
; DRILL file {KiCad 7.0.9} date Wed 22 Nov 2023 01:55:16 PM EST
; FORMAT={-:-/ absolute / inch / decimal}
; #@! TF.CreationDate,2023-11-22T13:55:16-05:00
; #@! TF.GenerationSoftware,Kicad,Pcbnew,7.0.9
; #@! TF.FileFunction,Plated,1,8,PTH
FMAT,2
INCH
; #@! TA.AperFunction,Plated,PTH,ViaDrill
T1C0.0118
; #@! TA.AperFunction,Plated,PTH,ComponentDrill
T2C0.0315
%
G90
G05
T1
X-0.4734Y0.003
X-0.4567Y-0.1181
X-0.4319Y-0.0535
X-0.4185Y0.1102
X-0.415Y-0.2283
X-0.378Y0.2697
X-0.3602Y0.048
X-0.3494Y0.1457
X-0.3445Y-0.3248
X-0.3425Y0.3238
X-0.3409Y-0.1193
X-0.3252Y0.2504
X-0.3232Y-0.3984
X-0.322Y-0.1709
X-0.3071Y-0.2362
X-0.2736Y-0.3287
X-0.2717Y-0.2352
X-0.2461Y-0.2657
X-0.2382Y-0.3671
X-0.2362Y0.3091
X-0.2343Y0.3661
X-0.1972Y-0.4795
X-0.1772Y-0.2913
X-0.1584Y-0.3228
X-0.1535Y-0.3661
X-0.1496Y-0.4528
X-0.1465Y0.3543
X-0.1457Y0.457
X-0.1295Y-0.3354
X-0.0906Y-0.3366
X-0.0506Y0.3852
X-0.0463Y-0.4055
X-0.0285Y0.4685
X-0.0157Y-0.3415
X0.0433Y0.3622
X0.0522Y-0.376
X0.0906Y-0.3465
X0.0915Y0.4843
X0.0984Y0.3504
X0.1004Y-0.2717
X0.1024Y-0.5236
X0.1427Y-0.314
X0.1555Y0.3671
X0.1693Y-0.4882
X0.185Y0.315
X0.2018Y0.4301
X0.2201Y-0.4756
X0.2362Y-0.2411
X0.2441Y-0.314
X0.2707Y0.3317
X0.2776Y0.2244
X0.2785Y-0.2067
X0.2815Y-0.0472
X0.2815Y-0.3406
X0.3138Y0.243
X0.3189Y0.1437
X0.3327Y-0.0837
X0.3504Y-0.25
X0.3622Y0.2579
X0.3661Y-0.0315
X0.3661Y-0.1535
X0.376Y0.0512
X0.437Y-0.1762
X0.4448Y0.1732
X0.4665Y-0.06
T2
X-0.411Y0.4925
X-0.3323Y0.4925
X0.2953Y-0.4843
X0.3264Y0.4909
X0.374Y-0.4843
X0.4051Y0.4909
T0
M30
