%TF.GenerationSoftware,KiCad,Pcbnew,7.0.9*%
%TF.CreationDate,2023-11-22T13:55:21-05:00*%
%TF.ProjectId,watch,77617463-682e-46b6-9963-61645f706362,rev?*%
%TF.SameCoordinates,Original*%
%TF.FileFunction,Copper,L8,Bot*%
%TF.FilePolarity,Positive*%
%FSLAX45Y45*%
G04 Gerber Fmt 4.5, Leading zero omitted, Abs format (unit mm)*
G04 Created by KiCad (PCBNEW 7.0.9) date 2023-11-22 13:55:21*
%MOMM*%
%LPD*%
G01*
G04 APERTURE LIST*
G04 Aperture macros list*
%AMRoundRect*
0 Rectangle with rounded corners*
0 $1 Rounding radius*
0 $2 $3 $4 $5 $6 $7 $8 $9 X,Y pos of 4 corners*
0 Add a 4 corners polygon primitive as box body*
4,1,4,$2,$3,$4,$5,$6,$7,$8,$9,$2,$3,0*
0 Add four circle primitives for the rounded corners*
1,1,$1+$1,$2,$3*
1,1,$1+$1,$4,$5*
1,1,$1+$1,$6,$7*
1,1,$1+$1,$8,$9*
0 Add four rect primitives between the rounded corners*
20,1,$1+$1,$2,$3,$4,$5,0*
20,1,$1+$1,$4,$5,$6,$7,0*
20,1,$1+$1,$6,$7,$8,$9,0*
20,1,$1+$1,$8,$9,$2,$3,0*%
%AMFreePoly0*
4,1,9,0.000354,0.000354,0.000500,0.000000,0.000354,-0.000354,0.000000,-0.000500,-0.000354,-0.000354,-0.000500,0.000000,-0.000354,0.000354,0.000000,0.000500,0.000354,0.000354,0.000354,0.000354,$1*%
%AMFreePoly1*
4,1,139,0.820284,7.455007,1.362276,7.375243,1.897000,7.256128,2.421603,7.098298,2.933285,6.902596,3.429317,6.670066,3.907053,6.401948,4.363942,6.099673,4.797548,5.764854,5.205556,5.399276,5.585791,5.004891,5.936224,4.583803,6.254984,4.138258,6.540371,3.670634,6.790862,3.183425,7.005121,2.679232,7.182004,2.160743,7.320569,1.630726,7.420075,1.092009,7.479992,0.547465,
7.500000,0.000000,7.479992,-0.547465,7.420075,-1.092009,7.320569,-1.630726,7.182004,-2.160743,7.005121,-2.679232,6.790862,-3.183425,6.540371,-3.670634,6.254984,-4.138258,5.936224,-4.583803,5.585791,-5.004891,5.205556,-5.399276,4.797548,-5.764854,4.363942,-6.099673,3.907053,-6.401948,3.429317,-6.670066,2.933285,-6.902596,2.421603,-7.098298,1.897000,-7.256128,1.362276,-7.375243,
0.820284,-7.455007,0.273915,-7.494996,-0.273915,-7.494996,-0.820284,-7.455007,-1.362276,-7.375243,-1.897000,-7.256128,-2.421603,-7.098298,-2.933285,-6.902596,-3.429317,-6.670066,-3.907053,-6.401948,-4.363942,-6.099673,-4.797548,-5.764854,-5.205556,-5.399276,-5.585791,-5.004891,-5.936224,-4.583803,-6.254984,-4.138258,-6.540371,-3.670634,-6.790862,-3.183425,-7.005121,-2.679232,-7.182004,-2.160743,
-7.320569,-1.630726,-7.420075,-1.092009,-7.479992,-0.547465,-7.500000,0.000000,-2.504943,0.000000,-2.485191,-0.313953,-2.426246,-0.622954,-2.329037,-0.922131,-2.195098,-1.206765,-2.026541,-1.472369,-1.826025,-1.714751,-1.596711,-1.930092,-1.342216,-2.114993,-1.066553,-2.266540,-0.774070,-2.382342,-0.469380,-2.460574,-0.157287,-2.500000,0.157287,-2.500000,0.469380,-2.460574,0.774070,-2.382342,
1.066553,-2.266540,1.342216,-2.114993,1.596711,-1.930092,1.826025,-1.714751,2.026541,-1.472369,2.195098,-1.206765,2.329037,-0.922131,2.426246,-0.622954,2.485191,-0.313953,2.504943,0.000000,2.485191,0.313953,2.426246,0.622954,2.329037,0.922131,2.195098,1.206765,2.026541,1.472369,1.826025,1.714751,1.596711,1.930092,1.342216,2.114993,1.066553,2.266540,0.774070,2.382342,
0.469380,2.460574,0.157287,2.500000,-0.157287,2.500000,-0.469380,2.460574,-0.774070,2.382342,-1.066553,2.266540,-1.342216,2.114993,-1.596711,1.930092,-1.826025,1.714751,-2.026541,1.472369,-2.195098,1.206765,-2.329037,0.922131,-2.426246,0.622954,-2.485191,0.313953,-2.504943,0.000000,-7.500000,0.000000,-7.479992,0.547465,-7.420075,1.092009,-7.320569,1.630726,-7.182004,2.160743,
-7.005121,2.679232,-6.790862,3.183425,-6.540371,3.670634,-6.254984,4.138258,-5.936224,4.583803,-5.585791,5.004891,-5.205556,5.399276,-4.797548,5.764854,-4.363942,6.099673,-3.907053,6.401948,-3.429317,6.670066,-2.933285,6.902596,-2.421603,7.098298,-1.897000,7.256128,-1.362276,7.375243,-0.820284,7.455007,-0.273915,7.494996,0.273915,7.494996,0.820284,7.455007,0.820284,7.455007,
$1*%
G04 Aperture macros list end*
%TA.AperFunction,ComponentPad*%
%ADD10C,1.400000*%
%TD*%
%TA.AperFunction,SMDPad,CuDef*%
%ADD11RoundRect,0.575000X1.925000X0.575000X-1.925000X0.575000X-1.925000X-0.575000X1.925000X-0.575000X0*%
%TD*%
%TA.AperFunction,SMDPad,CuDef*%
%ADD12FreePoly0,180.000000*%
%TD*%
%TA.AperFunction,SMDPad,CuDef*%
%ADD13FreePoly1,180.000000*%
%TD*%
%TA.AperFunction,ViaPad*%
%ADD14C,0.450000*%
%TD*%
%TA.AperFunction,Conductor*%
%ADD15C,0.381000*%
%TD*%
G04 APERTURE END LIST*
D10*
%TO.P,TP2,1,1*%
%TO.N,GND*%
X750000Y-1230000D03*
%TO.P,TP2,2,2*%
%TO.N,Net-(R13-Pad2)*%
X950000Y-1230000D03*
%TD*%
%TO.P,TP4,1,1*%
%TO.N,GND*%
X829000Y1247000D03*
%TO.P,TP4,2,2*%
%TO.N,VDD*%
X1029000Y1247000D03*
%TD*%
%TO.P,TP3,1,1*%
%TO.N,/SWCLK*%
X-1044000Y1251000D03*
%TO.P,TP3,2,2*%
%TO.N,/SWDIO*%
X-844000Y1251000D03*
%TD*%
D11*
%TO.P,BT1,1,+*%
%TO.N,+BATT*%
X0Y-1200000D03*
D12*
%TO.P,BT1,2,-*%
%TO.N,GND*%
X0Y0D03*
D13*
X0Y0D03*
%TD*%
D14*
%TO.N,GND*%
X-690000Y-597500D03*
X-40000Y-867500D03*
X707500Y-525000D03*
X845000Y-212500D03*
%TO.N,/LED9*%
X600000Y-612500D03*
X255000Y-690000D03*
%TO.N,VDD*%
X230000Y-880000D03*
X470000Y800000D03*
%TO.N,GND*%
X362500Y-797500D03*
%TO.N,/LED6*%
X250000Y890000D03*
X-866000Y-303000D03*
%TO.N,/LED10*%
X810000Y365000D03*
X930000Y-80000D03*
%TO.N,Net-(D51-K)*%
X705000Y570000D03*
X-1097000Y-136000D03*
X955000Y130000D03*
X132500Y-955000D03*
X-128478Y978478D03*
%TO.N,Net-(D53-K)*%
X-600000Y785000D03*
X-780000Y-600000D03*
X620000Y-797500D03*
X797107Y617107D03*
%TO.N,Net-(D55-K)*%
X-887500Y370000D03*
X395000Y932500D03*
X-390000Y-930000D03*
X930000Y-390000D03*
%TO.N,/LED15*%
X-625000Y-675000D03*
X-450000Y-740000D03*
%TO.N,/LED1*%
X-605000Y-932500D03*
X-72500Y1190000D03*
X715000Y-865000D03*
X1129677Y440000D03*
X-1063000Y280000D03*
%TO.N,/LED2*%
X920000Y655000D03*
X890000Y-635000D03*
X-380000Y-1150000D03*
X-1202500Y7500D03*
X-370000Y1160826D03*
%TO.N,/LED3*%
X687500Y842500D03*
X-1160000Y-300000D03*
X-595000Y930000D03*
X-821000Y-1012000D03*
X1110000Y-447500D03*
X-402290Y-820000D03*
%TO.N,/LED4*%
X1185000Y-152500D03*
X430000Y-1240000D03*
X512500Y1092500D03*
X-1054143Y-580000D03*
X-870000Y822500D03*
%TO.N,/LED5*%
X-695000Y-835000D03*
X-875000Y-825000D03*
X-117500Y-1030000D03*
X232500Y1230000D03*
X-818000Y-434000D03*
X-960000Y685000D03*
%TO.N,/LED13*%
X-915000Y122000D03*
X110000Y920000D03*
%TO.N,Net-(D21-A)*%
X-501000Y-1218000D03*
X559000Y-1208000D03*
%TO.N,+BATT*%
X715000Y-120000D03*
X-329000Y-852000D03*
X260000Y-1330000D03*
X-230000Y-855000D03*
%TO.N,/SWDIO*%
X-372000Y900000D03*
%TO.N,/SWCLK*%
X-826000Y636000D03*
%TD*%
D15*
%TO.N,+BATT*%
X130000Y-1330000D02*
X0Y-1200000D01*
X260000Y-1330000D02*
X130000Y-1330000D01*
%TD*%
%TA.AperFunction,Conductor*%
%TO.N,GND*%
G36*
X970780Y1704950D02*
G01*
X975782Y1704950D01*
X975995Y1704939D01*
X989109Y1703648D01*
X989944Y1703482D01*
X1002247Y1699750D01*
X1003034Y1699424D01*
X1014371Y1693363D01*
X1015080Y1692890D01*
X1025279Y1684519D01*
X1025437Y1684375D01*
X1028831Y1680981D01*
X1028835Y1680978D01*
X1124385Y1585427D01*
X1124529Y1585269D01*
X1132887Y1575083D01*
X1133360Y1574374D01*
X1139420Y1563035D01*
X1139746Y1562248D01*
X1143478Y1549945D01*
X1143644Y1549109D01*
X1144939Y1535954D01*
X1144950Y1535741D01*
X1144950Y1530984D01*
X1144950Y1530982D01*
X1144950Y885502D01*
X1144950Y877946D01*
X1144950Y877945D01*
X1144950Y877945D01*
X1146755Y857910D01*
X1146806Y857343D01*
X1150503Y836992D01*
X1151678Y832740D01*
X1151678Y832739D01*
X1192101Y686428D01*
X1192103Y686421D01*
X1193561Y681140D01*
X1193561Y681140D01*
X1196697Y672344D01*
X1199194Y665338D01*
X1205963Y649988D01*
X1209335Y643640D01*
X1209618Y643109D01*
X1209896Y642585D01*
X1241285Y579631D01*
X1241332Y579529D01*
X1269420Y515103D01*
X1269462Y515000D01*
X1294205Y449214D01*
X1294241Y449108D01*
X1315572Y382137D01*
X1315603Y382031D01*
X1320078Y365000D01*
X1333465Y314055D01*
X1333490Y313947D01*
X1347837Y245142D01*
X1347857Y245033D01*
X1358650Y175581D01*
X1358664Y175470D01*
X1365876Y105557D01*
X1365884Y105445D01*
X1369495Y35253D01*
X1369498Y35142D01*
X1369498Y-35142D01*
X1369495Y-35253D01*
X1365884Y-105445D01*
X1365876Y-105557D01*
X1358664Y-175470D01*
X1358650Y-175581D01*
X1347857Y-245033D01*
X1347837Y-245142D01*
X1333490Y-313947D01*
X1333465Y-314055D01*
X1325608Y-343954D01*
X1316835Y-377344D01*
X1315603Y-382030D01*
X1315572Y-382137D01*
X1294241Y-449108D01*
X1294205Y-449214D01*
X1269462Y-515000D01*
X1269420Y-515103D01*
X1241332Y-579529D01*
X1241285Y-579631D01*
X1209897Y-642582D01*
X1205963Y-649988D01*
X1205963Y-649989D01*
X1205319Y-651450D01*
X1199195Y-665337D01*
X1199194Y-665338D01*
X1194914Y-677344D01*
X1193561Y-681139D01*
X1193561Y-681139D01*
X1192129Y-686323D01*
X1191761Y-687656D01*
X1191491Y-688636D01*
X1191186Y-689738D01*
X1189983Y-694093D01*
X1189982Y-694095D01*
X1154573Y-822262D01*
X1154571Y-822266D01*
X1153728Y-825320D01*
X1153726Y-825322D01*
X1150503Y-836993D01*
X1150503Y-836994D01*
X1150130Y-839046D01*
X1146890Y-856884D01*
X1146806Y-857344D01*
X1144977Y-877656D01*
X1144951Y-877945D01*
X1144950Y-882317D01*
X1144950Y-882321D01*
X1144950Y-888286D01*
X1144950Y-893395D01*
X1144950Y-893396D01*
X1144950Y-1530982D01*
X1144950Y-1530984D01*
X1144950Y-1535782D01*
X1144939Y-1535995D01*
X1143648Y-1549109D01*
X1143482Y-1549944D01*
X1139750Y-1562247D01*
X1139424Y-1563034D01*
X1133363Y-1574371D01*
X1132890Y-1575080D01*
X1124519Y-1585279D01*
X1124376Y-1585437D01*
X1120981Y-1588831D01*
X1120978Y-1588835D01*
X1025427Y-1684385D01*
X1025269Y-1684528D01*
X1015083Y-1692887D01*
X1014374Y-1693360D01*
X1003035Y-1699420D01*
X1002248Y-1699746D01*
X989945Y-1703478D01*
X989109Y-1703644D01*
X975954Y-1704939D01*
X975741Y-1704950D01*
X970780Y-1704950D01*
X970779Y-1704950D01*
X-975781Y-1704950D01*
X-975994Y-1704939D01*
X-989109Y-1703648D01*
X-989944Y-1703482D01*
X-1002247Y-1699750D01*
X-1003034Y-1699424D01*
X-1014373Y-1693363D01*
X-1015081Y-1692890D01*
X-1025268Y-1684529D01*
X-1025426Y-1684386D01*
X-1028716Y-1681097D01*
X-1121097Y-1588716D01*
X-1124385Y-1585427D01*
X-1124528Y-1585269D01*
X-1132890Y-1575081D01*
X-1133363Y-1574373D01*
X-1139424Y-1563034D01*
X-1139750Y-1562247D01*
X-1143482Y-1549944D01*
X-1143648Y-1549109D01*
X-1144940Y-1535994D01*
X-1144950Y-1535781D01*
X-1144950Y-1495589D01*
X-1042550Y-1495589D01*
X-1040579Y-1508034D01*
X-1036685Y-1520018D01*
X-1030965Y-1531245D01*
X-1023559Y-1541438D01*
X-1023076Y-1541921D01*
X-1023076Y-1541921D01*
X-983924Y-1581073D01*
X-983924Y-1581073D01*
X-981438Y-1583559D01*
X-971245Y-1590965D01*
X-960018Y-1596685D01*
X-948034Y-1600579D01*
X-935589Y-1602550D01*
X-935589Y-1602550D01*
X932177Y-1602550D01*
X932186Y-1602549D01*
X935589Y-1602550D01*
X948034Y-1600579D01*
X960017Y-1596685D01*
X971244Y-1590965D01*
X981438Y-1583559D01*
X981921Y-1583076D01*
X981921Y-1583076D01*
X987384Y-1577613D01*
X989259Y-1575739D01*
X989259Y-1575738D01*
X989615Y-1575382D01*
X989616Y-1575381D01*
X1015381Y-1549616D01*
X1015381Y-1549616D01*
X1015738Y-1549259D01*
X1015739Y-1549259D01*
X1017957Y-1547040D01*
X1017958Y-1547039D01*
X1019104Y-1545893D01*
X1023559Y-1541438D01*
X1029515Y-1533241D01*
X1030965Y-1531245D01*
X1030965Y-1531245D01*
X1030965Y-1531245D01*
X1036686Y-1520018D01*
X1040579Y-1508034D01*
X1042550Y-1495589D01*
X1042550Y-1489289D01*
X1042550Y-1484529D01*
X1042550Y-1429716D01*
X1042550Y-1424616D01*
X1042550Y-1424616D01*
X1042550Y-1424615D01*
X1039474Y-1409151D01*
X1039474Y-1409150D01*
X1039474Y-1409150D01*
X1033439Y-1394582D01*
X1024679Y-1381471D01*
X1013529Y-1370321D01*
X1004748Y-1364454D01*
X1000418Y-1361561D01*
X990116Y-1357294D01*
X985850Y-1355526D01*
X985849Y-1355526D01*
X985849Y-1355526D01*
X985849Y-1355526D01*
X970384Y-1352450D01*
X970384Y-1352450D01*
X968117Y-1352450D01*
X568325Y-1352450D01*
X565253Y-1351177D01*
X563980Y-1348105D01*
X564156Y-1346881D01*
X565276Y-1343067D01*
X565710Y-1340050D01*
X565710Y-1258618D01*
X565701Y-1258312D01*
X565612Y-1256746D01*
X564784Y-1253188D01*
X564784Y-1253187D01*
X564765Y-1253130D01*
X564767Y-1253113D01*
X564742Y-1253007D01*
X564776Y-1252999D01*
X565025Y-1249815D01*
X567552Y-1247654D01*
X568216Y-1247494D01*
X571656Y-1246950D01*
X583072Y-1241133D01*
X592133Y-1232072D01*
X593189Y-1230000D01*
X869282Y-1230000D01*
X871306Y-1247961D01*
X875035Y-1258618D01*
X877276Y-1265022D01*
X886892Y-1280327D01*
X899673Y-1293108D01*
X914978Y-1302724D01*
X932039Y-1308694D01*
X932038Y-1308694D01*
X935342Y-1309066D01*
X950000Y-1310718D01*
X967961Y-1308694D01*
X985022Y-1302724D01*
X1000326Y-1293108D01*
X1013107Y-1280327D01*
X1022724Y-1265022D01*
X1028694Y-1247961D01*
X1030717Y-1230000D01*
X1028694Y-1212039D01*
X1022724Y-1194978D01*
X1013107Y-1179674D01*
X1000326Y-1166893D01*
X1000326Y-1166892D01*
X1000326Y-1166892D01*
X985022Y-1157276D01*
X967961Y-1151306D01*
X967961Y-1151306D01*
X950000Y-1149283D01*
X932039Y-1151306D01*
X914978Y-1157276D01*
X899674Y-1166892D01*
X886892Y-1179674D01*
X877276Y-1194978D01*
X871306Y-1212039D01*
X869282Y-1230000D01*
X593189Y-1230000D01*
X597950Y-1220656D01*
X599954Y-1208000D01*
X597950Y-1195345D01*
X597763Y-1194978D01*
X592133Y-1183928D01*
X583072Y-1174867D01*
X571656Y-1169050D01*
X558662Y-1166992D01*
X558694Y-1166794D01*
X556230Y-1165773D01*
X555057Y-1162940D01*
X555002Y-1162948D01*
X554971Y-1162733D01*
X554958Y-1162701D01*
X554958Y-1162641D01*
X554958Y-1162640D01*
X553963Y-1155725D01*
X551457Y-1150235D01*
X546881Y-1144955D01*
X546881Y-1144955D01*
X546881Y-1144955D01*
X541805Y-1141693D01*
X541804Y-1141692D01*
X541804Y-1141692D01*
X535100Y-1139724D01*
X532083Y-1139290D01*
X264384Y-1139290D01*
X261311Y-1138017D01*
X260056Y-1135338D01*
X259590Y-1130205D01*
X258257Y-1125928D01*
X254698Y-1114507D01*
X246192Y-1100435D01*
X234565Y-1088808D01*
X220493Y-1080302D01*
X220493Y-1080302D01*
X220493Y-1080302D01*
X204795Y-1075410D01*
X197973Y-1074790D01*
X197973Y-1074790D01*
X-1437Y-1074790D01*
X-97743Y-1074547D01*
X-100812Y-1073267D01*
X-102077Y-1070192D01*
X-100797Y-1067122D01*
X-99705Y-1066331D01*
X-93428Y-1063133D01*
X-84367Y-1054072D01*
X-78550Y-1042656D01*
X-78550Y-1042655D01*
X-76546Y-1030000D01*
X-76546Y-1030000D01*
X-78550Y-1017344D01*
X-78550Y-1017344D01*
X-84367Y-1005928D01*
X-93428Y-996867D01*
X-104844Y-991050D01*
X-117500Y-989046D01*
X-117500Y-989046D01*
X-130155Y-991050D01*
X-130156Y-991050D01*
X-141572Y-996867D01*
X-141572Y-996867D01*
X-150633Y-1005928D01*
X-156450Y-1017344D01*
X-158454Y-1030000D01*
X-156450Y-1042655D01*
X-150633Y-1054072D01*
X-141572Y-1063133D01*
X-135491Y-1066231D01*
X-133332Y-1068760D01*
X-133593Y-1072075D01*
X-136121Y-1074235D01*
X-137475Y-1074447D01*
X-184956Y-1074328D01*
X-188025Y-1073047D01*
X-189290Y-1069983D01*
X-189290Y-955000D01*
X91546Y-955000D01*
X93550Y-967655D01*
X93550Y-967656D01*
X99367Y-979072D01*
X108428Y-988133D01*
X119844Y-993950D01*
X119844Y-993950D01*
X130118Y-995577D01*
X132500Y-995954D01*
X132500Y-995954D01*
X132500Y-995954D01*
X134230Y-995680D01*
X145156Y-993950D01*
X156572Y-988133D01*
X165633Y-979072D01*
X171450Y-967655D01*
X173454Y-955000D01*
X171450Y-942344D01*
X171450Y-942344D01*
X165633Y-930928D01*
X156572Y-921867D01*
X145156Y-916050D01*
X132500Y-914046D01*
X132500Y-914046D01*
X119844Y-916050D01*
X119844Y-916050D01*
X108428Y-921867D01*
X99367Y-930928D01*
X93550Y-942344D01*
X93550Y-942344D01*
X91546Y-955000D01*
X91546Y-955000D01*
X-189290Y-955000D01*
X-189290Y-880000D01*
X189046Y-880000D01*
X191050Y-892655D01*
X191050Y-892656D01*
X196867Y-904072D01*
X205928Y-913133D01*
X214194Y-917344D01*
X217344Y-918950D01*
X227618Y-920577D01*
X230000Y-920954D01*
X230000Y-920954D01*
X230000Y-920954D01*
X231730Y-920680D01*
X242655Y-918950D01*
X254072Y-913133D01*
X263133Y-904072D01*
X268950Y-892655D01*
X270954Y-880000D01*
X268950Y-867344D01*
X267755Y-865000D01*
X674046Y-865000D01*
X676050Y-877655D01*
X676050Y-877656D01*
X681867Y-889072D01*
X690928Y-898133D01*
X702344Y-903950D01*
X702344Y-903950D01*
X712618Y-905577D01*
X715000Y-905954D01*
X715000Y-905954D01*
X715000Y-905954D01*
X716730Y-905680D01*
X727655Y-903950D01*
X739072Y-898133D01*
X748133Y-889072D01*
X753950Y-877655D01*
X755954Y-865000D01*
X755900Y-864655D01*
X755313Y-860954D01*
X753950Y-852344D01*
X749735Y-844072D01*
X748133Y-840928D01*
X739072Y-831867D01*
X727656Y-826050D01*
X715000Y-824046D01*
X715000Y-824046D01*
X702344Y-826050D01*
X702344Y-826050D01*
X690928Y-831867D01*
X681867Y-840928D01*
X676050Y-852344D01*
X676050Y-852344D01*
X674046Y-865000D01*
X674046Y-865000D01*
X267755Y-865000D01*
X267220Y-863950D01*
X263133Y-855928D01*
X254072Y-846867D01*
X242656Y-841050D01*
X230000Y-839046D01*
X230000Y-839046D01*
X217344Y-841050D01*
X217344Y-841050D01*
X205928Y-846867D01*
X196867Y-855928D01*
X191050Y-867344D01*
X191050Y-867344D01*
X189046Y-880000D01*
X189046Y-880000D01*
X-189290Y-880000D01*
X-189290Y-856884D01*
X-189236Y-856204D01*
X-189193Y-855928D01*
X-189046Y-855000D01*
X-189236Y-853796D01*
X-189290Y-853116D01*
X-189290Y-832400D01*
X-189535Y-830124D01*
X-190655Y-824972D01*
X-190655Y-824972D01*
X-193027Y-820235D01*
X-197602Y-814955D01*
X-197602Y-814954D01*
X-202678Y-811692D01*
X-209382Y-809724D01*
X-212400Y-809290D01*
X-212400Y-809290D01*
X-337600Y-809290D01*
X-337961Y-809329D01*
X-339876Y-809535D01*
X-342679Y-810144D01*
X-345028Y-810655D01*
X-345028Y-810655D01*
X-345028Y-810655D01*
X-349765Y-813027D01*
X-351990Y-814955D01*
X-354997Y-817561D01*
X-358153Y-818611D01*
X-361127Y-817122D01*
X-362134Y-814957D01*
X-363340Y-807344D01*
X-363340Y-807344D01*
X-368356Y-797500D01*
X579046Y-797500D01*
X581050Y-810155D01*
X581050Y-810156D01*
X586867Y-821572D01*
X595928Y-830633D01*
X599924Y-832669D01*
X607345Y-836450D01*
X617618Y-838077D01*
X620000Y-838454D01*
X620000Y-838454D01*
X620000Y-838454D01*
X621730Y-838180D01*
X632656Y-836450D01*
X644072Y-830633D01*
X653133Y-821572D01*
X658950Y-810155D01*
X660954Y-797500D01*
X658950Y-784844D01*
X653133Y-773428D01*
X644072Y-764367D01*
X644072Y-764367D01*
X632656Y-758550D01*
X620000Y-756546D01*
X620000Y-756546D01*
X607344Y-758550D01*
X607344Y-758550D01*
X595928Y-764367D01*
X586867Y-773428D01*
X581050Y-784844D01*
X581050Y-784844D01*
X579046Y-797500D01*
X579046Y-797500D01*
X-368356Y-797500D01*
X-369157Y-795928D01*
X-378218Y-786867D01*
X-389634Y-781050D01*
X-402290Y-779046D01*
X-402290Y-779046D01*
X-414945Y-781050D01*
X-414945Y-781050D01*
X-426362Y-786867D01*
X-435423Y-795928D01*
X-437970Y-800928D01*
X-441240Y-807344D01*
X-443244Y-820000D01*
X-441240Y-832655D01*
X-435422Y-844072D01*
X-426362Y-853133D01*
X-414945Y-858950D01*
X-404294Y-860637D01*
X-402290Y-860954D01*
X-402290Y-860954D01*
X-402290Y-860954D01*
X-400285Y-860637D01*
X-389634Y-858950D01*
X-389634Y-858950D01*
X-378218Y-853133D01*
X-376959Y-851874D01*
X-373887Y-850601D01*
X-370814Y-851874D01*
X-369595Y-854266D01*
X-367950Y-864655D01*
X-362133Y-876072D01*
X-361983Y-876222D01*
X-360710Y-879295D01*
X-360710Y-892435D01*
X-361983Y-895508D01*
X-365055Y-896780D01*
X-367028Y-896307D01*
X-377344Y-891050D01*
X-390000Y-889046D01*
X-390000Y-889046D01*
X-402655Y-891050D01*
X-402656Y-891050D01*
X-414072Y-896867D01*
X-423133Y-905928D01*
X-424406Y-908428D01*
X-428950Y-917344D01*
X-430954Y-930000D01*
X-428950Y-942655D01*
X-423133Y-954072D01*
X-414072Y-963133D01*
X-402655Y-968950D01*
X-392004Y-970637D01*
X-390000Y-970954D01*
X-390000Y-970954D01*
X-390000Y-970954D01*
X-387995Y-970637D01*
X-377344Y-968950D01*
X-367027Y-963693D01*
X-363712Y-963432D01*
X-361184Y-965592D01*
X-360710Y-967564D01*
X-360710Y-1107340D01*
X-361983Y-1110413D01*
X-365055Y-1111685D01*
X-367027Y-1111212D01*
X-367344Y-1111050D01*
X-367345Y-1111050D01*
X-380000Y-1109046D01*
X-380000Y-1109046D01*
X-392655Y-1111050D01*
X-392656Y-1111050D01*
X-404072Y-1116867D01*
X-404072Y-1116867D01*
X-413133Y-1125928D01*
X-418950Y-1137345D01*
X-420954Y-1150000D01*
X-418950Y-1162656D01*
X-413133Y-1174072D01*
X-404072Y-1183133D01*
X-392655Y-1188950D01*
X-382004Y-1190637D01*
X-380000Y-1190954D01*
X-380000Y-1190954D01*
X-380000Y-1190954D01*
X-367344Y-1188950D01*
X-367151Y-1188851D01*
X-367028Y-1188788D01*
X-363713Y-1188527D01*
X-361184Y-1190687D01*
X-360710Y-1192660D01*
X-360710Y-1240000D01*
X-360710Y-1340050D01*
X-360465Y-1342327D01*
X-359629Y-1346172D01*
X-359409Y-1347181D01*
X-360000Y-1350454D01*
X-362731Y-1352351D01*
X-363655Y-1352450D01*
X-970384Y-1352450D01*
X-985849Y-1355526D01*
X-985849Y-1355526D01*
X-985849Y-1355526D01*
X-985850Y-1355526D01*
X-1000418Y-1361561D01*
X-1013529Y-1370321D01*
X-1024679Y-1381471D01*
X-1033439Y-1394582D01*
X-1039474Y-1409150D01*
X-1040908Y-1416360D01*
X-1042550Y-1424615D01*
X-1042550Y-1424615D01*
X-1042550Y-1424616D01*
X-1042550Y-1426883D01*
X-1042550Y-1484530D01*
X-1042550Y-1489289D01*
X-1042550Y-1495589D01*
X-1144950Y-1495589D01*
X-1144950Y-1218000D01*
X-541954Y-1218000D01*
X-539950Y-1230656D01*
X-534133Y-1242072D01*
X-525072Y-1251133D01*
X-513655Y-1256950D01*
X-503122Y-1258618D01*
X-501000Y-1258954D01*
X-501000Y-1258954D01*
X-501000Y-1258954D01*
X-498878Y-1258618D01*
X-488344Y-1256950D01*
X-488344Y-1256950D01*
X-476928Y-1251133D01*
X-467867Y-1242072D01*
X-462050Y-1230656D01*
X-462050Y-1230656D01*
X-460046Y-1218000D01*
X-460046Y-1218000D01*
X-462050Y-1205344D01*
X-462050Y-1205344D01*
X-467867Y-1193928D01*
X-476928Y-1184867D01*
X-488344Y-1179050D01*
X-501000Y-1177046D01*
X-501000Y-1177046D01*
X-513655Y-1179050D01*
X-513656Y-1179050D01*
X-525072Y-1184867D01*
X-534133Y-1193928D01*
X-534854Y-1195344D01*
X-539950Y-1205345D01*
X-541954Y-1218000D01*
X-1144950Y-1218000D01*
X-1144950Y-1012000D01*
X-861954Y-1012000D01*
X-859950Y-1024655D01*
X-854133Y-1036072D01*
X-845072Y-1045133D01*
X-833655Y-1050950D01*
X-823004Y-1052637D01*
X-821000Y-1052954D01*
X-821000Y-1052954D01*
X-821000Y-1052954D01*
X-818995Y-1052637D01*
X-808344Y-1050950D01*
X-808344Y-1050950D01*
X-796928Y-1045133D01*
X-787867Y-1036072D01*
X-782050Y-1024656D01*
X-782050Y-1024655D01*
X-780046Y-1012000D01*
X-780046Y-1012000D01*
X-782050Y-999344D01*
X-782050Y-999344D01*
X-787867Y-987928D01*
X-796928Y-978867D01*
X-808344Y-973050D01*
X-821000Y-971046D01*
X-821000Y-971046D01*
X-833655Y-973050D01*
X-833656Y-973050D01*
X-845072Y-978867D01*
X-854133Y-987928D01*
X-859950Y-999344D01*
X-859950Y-999344D01*
X-861954Y-1012000D01*
X-1144950Y-1012000D01*
X-1144950Y-932500D01*
X-645954Y-932500D01*
X-643950Y-945155D01*
X-638133Y-956572D01*
X-629072Y-965633D01*
X-617656Y-971450D01*
X-607551Y-973050D01*
X-605000Y-973454D01*
X-605000Y-973454D01*
X-605000Y-973454D01*
X-602449Y-973050D01*
X-592345Y-971450D01*
X-592344Y-971450D01*
X-580928Y-965633D01*
X-571867Y-956572D01*
X-566050Y-945156D01*
X-566050Y-945155D01*
X-564046Y-932500D01*
X-564046Y-932500D01*
X-566050Y-919844D01*
X-566050Y-919844D01*
X-571867Y-908428D01*
X-580928Y-899367D01*
X-592344Y-893550D01*
X-605000Y-891546D01*
X-605000Y-891546D01*
X-617656Y-893550D01*
X-617656Y-893550D01*
X-629072Y-899367D01*
X-638133Y-908428D01*
X-640995Y-914046D01*
X-643950Y-919844D01*
X-645954Y-932500D01*
X-1144950Y-932500D01*
X-1144950Y-885407D01*
X-1144950Y-885405D01*
X-1144950Y-877945D01*
X-1144977Y-877656D01*
X-1146755Y-857909D01*
X-1146807Y-857343D01*
X-1150503Y-836993D01*
X-1151698Y-832669D01*
X-1151698Y-832667D01*
X-1153266Y-826993D01*
X-1153266Y-826991D01*
X-1153816Y-825000D01*
X-915954Y-825000D01*
X-913950Y-837655D01*
X-908133Y-849072D01*
X-899072Y-858133D01*
X-887655Y-863950D01*
X-877004Y-865637D01*
X-875000Y-865954D01*
X-875000Y-865954D01*
X-875000Y-865954D01*
X-872995Y-865637D01*
X-862344Y-863950D01*
X-862344Y-863950D01*
X-850928Y-858133D01*
X-841867Y-849072D01*
X-836050Y-837656D01*
X-836050Y-837655D01*
X-835630Y-835000D01*
X-735954Y-835000D01*
X-733950Y-847655D01*
X-728133Y-859072D01*
X-719072Y-868133D01*
X-707655Y-873950D01*
X-697005Y-875637D01*
X-695000Y-875954D01*
X-695000Y-875954D01*
X-695000Y-875954D01*
X-692996Y-875637D01*
X-682345Y-873950D01*
X-682344Y-873950D01*
X-670928Y-868133D01*
X-661867Y-859072D01*
X-656050Y-847656D01*
X-656050Y-847655D01*
X-654046Y-835000D01*
X-654046Y-835000D01*
X-656050Y-822344D01*
X-656050Y-822344D01*
X-661867Y-810928D01*
X-670928Y-801867D01*
X-682344Y-796050D01*
X-695000Y-794046D01*
X-695000Y-794046D01*
X-707655Y-796050D01*
X-707656Y-796050D01*
X-719072Y-801867D01*
X-728133Y-810928D01*
X-732875Y-820235D01*
X-733950Y-822344D01*
X-735954Y-835000D01*
X-835630Y-835000D01*
X-834046Y-825000D01*
X-834046Y-825000D01*
X-836050Y-812344D01*
X-836050Y-812344D01*
X-841867Y-800928D01*
X-850928Y-791867D01*
X-862344Y-786050D01*
X-875000Y-784046D01*
X-875000Y-784046D01*
X-887655Y-786050D01*
X-887656Y-786050D01*
X-899072Y-791867D01*
X-908133Y-800928D01*
X-913617Y-811692D01*
X-913950Y-812344D01*
X-915411Y-821572D01*
X-915950Y-824972D01*
X-915954Y-825000D01*
X-1153816Y-825000D01*
X-1154304Y-823235D01*
X-1177300Y-740000D01*
X-490954Y-740000D01*
X-488950Y-752655D01*
X-483133Y-764072D01*
X-474072Y-773133D01*
X-462655Y-778950D01*
X-452004Y-780637D01*
X-450000Y-780954D01*
X-450000Y-780954D01*
X-450000Y-780954D01*
X-447995Y-780637D01*
X-437344Y-778950D01*
X-437344Y-778950D01*
X-425928Y-773133D01*
X-416867Y-764072D01*
X-411050Y-752656D01*
X-411050Y-752655D01*
X-409046Y-740000D01*
X-409046Y-740000D01*
X-411050Y-727344D01*
X-411050Y-727344D01*
X-416867Y-715928D01*
X-425928Y-706867D01*
X-437344Y-701050D01*
X-450000Y-699046D01*
X-450000Y-699046D01*
X-462655Y-701050D01*
X-462656Y-701050D01*
X-474072Y-706867D01*
X-483133Y-715928D01*
X-486804Y-723133D01*
X-488950Y-727344D01*
X-490954Y-740000D01*
X-1177300Y-740000D01*
X-1190003Y-694020D01*
X-1190004Y-694018D01*
X-1191328Y-689225D01*
X-1191490Y-688636D01*
X-1191531Y-688489D01*
X-1193347Y-681913D01*
X-1193561Y-681140D01*
X-1193561Y-681140D01*
X-1193561Y-681139D01*
X-1195750Y-675000D01*
X-665954Y-675000D01*
X-663950Y-687656D01*
X-658133Y-699072D01*
X-649072Y-708133D01*
X-637656Y-713950D01*
X-627005Y-715637D01*
X-625000Y-715954D01*
X-625000Y-715954D01*
X-625000Y-715954D01*
X-622996Y-715637D01*
X-612345Y-713950D01*
X-612344Y-713950D01*
X-600928Y-708133D01*
X-591867Y-699072D01*
X-587245Y-690000D01*
X214046Y-690000D01*
X216050Y-702655D01*
X216050Y-702656D01*
X221867Y-714072D01*
X230928Y-723133D01*
X239194Y-727344D01*
X242344Y-728950D01*
X252618Y-730577D01*
X255000Y-730954D01*
X255000Y-730954D01*
X255000Y-730954D01*
X256730Y-730680D01*
X267656Y-728950D01*
X279072Y-723133D01*
X288133Y-714072D01*
X293950Y-702655D01*
X295954Y-690000D01*
X293950Y-677345D01*
X292220Y-673950D01*
X288133Y-665928D01*
X279072Y-656867D01*
X267656Y-651050D01*
X255000Y-649046D01*
X255000Y-649046D01*
X242344Y-651050D01*
X242344Y-651050D01*
X230928Y-656867D01*
X221867Y-665928D01*
X216050Y-677344D01*
X216050Y-677344D01*
X214046Y-690000D01*
X214046Y-690000D01*
X-587245Y-690000D01*
X-586050Y-687656D01*
X-586050Y-687656D01*
X-584046Y-675000D01*
X-584046Y-675000D01*
X-586050Y-662344D01*
X-586050Y-662344D01*
X-591867Y-650928D01*
X-600928Y-641867D01*
X-612344Y-636050D01*
X-625000Y-634046D01*
X-625000Y-634046D01*
X-637656Y-636050D01*
X-637656Y-636050D01*
X-649072Y-641867D01*
X-658133Y-650928D01*
X-661159Y-656867D01*
X-663950Y-662345D01*
X-665954Y-675000D01*
X-1195750Y-675000D01*
X-1199194Y-665338D01*
X-1199194Y-665338D01*
X-1199194Y-665337D01*
X-1199194Y-665337D01*
X-1199194Y-665337D01*
X-1202929Y-656867D01*
X-1205963Y-649989D01*
X-1208277Y-645633D01*
X-1209862Y-642649D01*
X-1209928Y-642513D01*
X-1209936Y-642495D01*
X-1209966Y-642445D01*
X-1241100Y-580000D01*
X-1095098Y-580000D01*
X-1093093Y-592656D01*
X-1087276Y-604072D01*
X-1078216Y-613133D01*
X-1066799Y-618950D01*
X-1056148Y-620637D01*
X-1054144Y-620954D01*
X-1054143Y-620954D01*
X-1054143Y-620954D01*
X-1052139Y-620637D01*
X-1041488Y-618950D01*
X-1041488Y-618950D01*
X-1030071Y-613133D01*
X-1021011Y-604072D01*
X-1018936Y-600000D01*
X-820954Y-600000D01*
X-818950Y-612656D01*
X-813133Y-624072D01*
X-804072Y-633133D01*
X-792655Y-638950D01*
X-782004Y-640637D01*
X-780000Y-640954D01*
X-780000Y-640954D01*
X-780000Y-640954D01*
X-777995Y-640637D01*
X-767344Y-638950D01*
X-767344Y-638950D01*
X-755928Y-633133D01*
X-746867Y-624072D01*
X-741050Y-612656D01*
X-741050Y-612656D01*
X-741026Y-612500D01*
X559046Y-612500D01*
X561050Y-625156D01*
X561050Y-625156D01*
X566867Y-636572D01*
X575928Y-645633D01*
X584478Y-649989D01*
X587345Y-651450D01*
X597618Y-653077D01*
X600000Y-653454D01*
X600000Y-653454D01*
X600000Y-653454D01*
X601730Y-653180D01*
X612656Y-651450D01*
X624072Y-645633D01*
X633133Y-636572D01*
X633934Y-635000D01*
X849046Y-635000D01*
X851050Y-647656D01*
X851050Y-647656D01*
X856867Y-659072D01*
X865928Y-668133D01*
X877344Y-673950D01*
X877344Y-673950D01*
X887618Y-675577D01*
X890000Y-675954D01*
X890000Y-675954D01*
X890000Y-675954D01*
X891730Y-675680D01*
X902655Y-673950D01*
X914072Y-668133D01*
X923133Y-659072D01*
X928950Y-647656D01*
X930954Y-635000D01*
X928950Y-622345D01*
X927220Y-618950D01*
X923133Y-610928D01*
X914072Y-601867D01*
X902656Y-596050D01*
X890000Y-594046D01*
X890000Y-594046D01*
X877344Y-596050D01*
X877344Y-596050D01*
X865928Y-601867D01*
X856867Y-610928D01*
X851050Y-622344D01*
X851050Y-622344D01*
X849046Y-635000D01*
X849046Y-635000D01*
X633934Y-635000D01*
X638950Y-625156D01*
X640954Y-612500D01*
X638950Y-599845D01*
X635995Y-594046D01*
X633133Y-588428D01*
X624072Y-579367D01*
X612656Y-573550D01*
X600000Y-571546D01*
X600000Y-571546D01*
X587344Y-573550D01*
X587344Y-573550D01*
X575928Y-579367D01*
X566867Y-588428D01*
X561050Y-599844D01*
X561050Y-599844D01*
X559046Y-612500D01*
X559046Y-612500D01*
X-741026Y-612500D01*
X-739046Y-600000D01*
X-739046Y-600000D01*
X-741050Y-587344D01*
X-741050Y-587344D01*
X-746867Y-575928D01*
X-755928Y-566867D01*
X-767344Y-561050D01*
X-780000Y-559046D01*
X-780000Y-559046D01*
X-792655Y-561050D01*
X-792656Y-561050D01*
X-804072Y-566867D01*
X-813133Y-575928D01*
X-815019Y-579631D01*
X-818950Y-587345D01*
X-820329Y-596050D01*
X-820929Y-599844D01*
X-820954Y-600000D01*
X-1018936Y-600000D01*
X-1015194Y-592656D01*
X-1015194Y-592656D01*
X-1013189Y-580000D01*
X-1013189Y-580000D01*
X-1015194Y-567344D01*
X-1015194Y-567344D01*
X-1021011Y-555928D01*
X-1030071Y-546867D01*
X-1041488Y-541050D01*
X-1054143Y-539046D01*
X-1054144Y-539046D01*
X-1066799Y-541050D01*
X-1066799Y-541050D01*
X-1078216Y-546867D01*
X-1078216Y-546867D01*
X-1087276Y-555928D01*
X-1093093Y-567345D01*
X-1094453Y-575928D01*
X-1095023Y-579529D01*
X-1095098Y-580000D01*
X-1241100Y-580000D01*
X-1241285Y-579630D01*
X-1241332Y-579529D01*
X-1269420Y-515103D01*
X-1269462Y-515000D01*
X-1294205Y-449214D01*
X-1294241Y-449108D01*
X-1299053Y-434000D01*
X-858954Y-434000D01*
X-856950Y-446655D01*
X-851133Y-458072D01*
X-842072Y-467133D01*
X-830655Y-472950D01*
X-820004Y-474637D01*
X-818000Y-474954D01*
X-818000Y-474954D01*
X-818000Y-474954D01*
X-815995Y-474637D01*
X-805344Y-472950D01*
X-805344Y-472950D01*
X-793928Y-467133D01*
X-784867Y-458072D01*
X-779480Y-447500D01*
X1069046Y-447500D01*
X1071050Y-460155D01*
X1071050Y-460156D01*
X1076867Y-471572D01*
X1085928Y-480633D01*
X1097344Y-486450D01*
X1097345Y-486450D01*
X1107618Y-488077D01*
X1110000Y-488454D01*
X1110000Y-488454D01*
X1110000Y-488454D01*
X1111730Y-488180D01*
X1122656Y-486450D01*
X1134072Y-480633D01*
X1143133Y-471572D01*
X1148950Y-460155D01*
X1150954Y-447500D01*
X1150820Y-446655D01*
X1150637Y-445495D01*
X1148950Y-434844D01*
X1143133Y-423428D01*
X1134072Y-414367D01*
X1134072Y-414367D01*
X1122656Y-408550D01*
X1110000Y-406546D01*
X1110000Y-406546D01*
X1097344Y-408550D01*
X1097344Y-408550D01*
X1085928Y-414367D01*
X1076867Y-423428D01*
X1071050Y-434844D01*
X1071050Y-434844D01*
X1069046Y-447500D01*
X1069046Y-447500D01*
X-779480Y-447500D01*
X-779050Y-446656D01*
X-779050Y-446655D01*
X-777046Y-434000D01*
X-777046Y-434000D01*
X-779050Y-421344D01*
X-779050Y-421344D01*
X-784867Y-409928D01*
X-793928Y-400867D01*
X-805344Y-395050D01*
X-818000Y-393046D01*
X-818000Y-393046D01*
X-830655Y-395050D01*
X-830656Y-395050D01*
X-842072Y-400867D01*
X-842072Y-400867D01*
X-851133Y-409928D01*
X-856950Y-421344D01*
X-858954Y-434000D01*
X-1299053Y-434000D01*
X-1313068Y-390000D01*
X889046Y-390000D01*
X891050Y-402655D01*
X891050Y-402656D01*
X896867Y-414072D01*
X905928Y-423133D01*
X917344Y-428950D01*
X917344Y-428950D01*
X927618Y-430577D01*
X930000Y-430954D01*
X930000Y-430954D01*
X930000Y-430954D01*
X931730Y-430680D01*
X942655Y-428950D01*
X954072Y-423133D01*
X963133Y-414072D01*
X968950Y-402655D01*
X970954Y-390000D01*
X968950Y-377344D01*
X963133Y-365928D01*
X954072Y-356867D01*
X954072Y-356867D01*
X942656Y-351050D01*
X930000Y-349046D01*
X930000Y-349046D01*
X917344Y-351050D01*
X917344Y-351050D01*
X905928Y-356867D01*
X896867Y-365928D01*
X891050Y-377344D01*
X891050Y-377344D01*
X889046Y-390000D01*
X889046Y-390000D01*
X-1313068Y-390000D01*
X-1315572Y-382137D01*
X-1315603Y-382030D01*
X-1316835Y-377344D01*
X-1325608Y-343954D01*
X-1333465Y-314055D01*
X-1333490Y-313947D01*
X-1336398Y-300000D01*
X-1200954Y-300000D01*
X-1198950Y-312656D01*
X-1193133Y-324072D01*
X-1184072Y-333133D01*
X-1172656Y-338950D01*
X-1162005Y-340637D01*
X-1160000Y-340954D01*
X-1160000Y-340954D01*
X-1160000Y-340954D01*
X-1157996Y-340637D01*
X-1147345Y-338950D01*
X-1147344Y-338950D01*
X-1135928Y-333133D01*
X-1126867Y-324072D01*
X-1121050Y-312656D01*
X-1121050Y-312656D01*
X-1119521Y-303000D01*
X-906954Y-303000D01*
X-904950Y-315656D01*
X-899133Y-327072D01*
X-890072Y-336133D01*
X-878655Y-341950D01*
X-868004Y-343637D01*
X-866000Y-343954D01*
X-866000Y-343954D01*
X-866000Y-343954D01*
X-863995Y-343637D01*
X-853344Y-341950D01*
X-853344Y-341950D01*
X-841928Y-336133D01*
X-832867Y-327072D01*
X-827050Y-315656D01*
X-827050Y-315656D01*
X-825046Y-303000D01*
X-825046Y-303000D01*
X-827050Y-290344D01*
X-827050Y-290344D01*
X-832867Y-278928D01*
X-841928Y-269867D01*
X-853344Y-264050D01*
X-866000Y-262046D01*
X-866000Y-262046D01*
X-878655Y-264050D01*
X-878656Y-264050D01*
X-890072Y-269867D01*
X-890072Y-269867D01*
X-899133Y-278928D01*
X-904950Y-290345D01*
X-906954Y-303000D01*
X-1119521Y-303000D01*
X-1119046Y-300000D01*
X-1119046Y-300000D01*
X-1121050Y-287344D01*
X-1121050Y-287344D01*
X-1126867Y-275928D01*
X-1135928Y-266867D01*
X-1147344Y-261050D01*
X-1160000Y-259046D01*
X-1160000Y-259046D01*
X-1172656Y-261050D01*
X-1172656Y-261050D01*
X-1184072Y-266867D01*
X-1193133Y-275928D01*
X-1198950Y-287344D01*
X-1198950Y-287345D01*
X-1200954Y-300000D01*
X-1336398Y-300000D01*
X-1347837Y-245142D01*
X-1347857Y-245033D01*
X-1358650Y-175581D01*
X-1358664Y-175470D01*
X-1362736Y-136000D01*
X-1137954Y-136000D01*
X-1135950Y-148656D01*
X-1130133Y-160072D01*
X-1121072Y-169133D01*
X-1109656Y-174950D01*
X-1099005Y-176637D01*
X-1097000Y-176954D01*
X-1097000Y-176954D01*
X-1097000Y-176954D01*
X-1094996Y-176637D01*
X-1084345Y-174950D01*
X-1084344Y-174950D01*
X-1072928Y-169133D01*
X-1063867Y-160072D01*
X-1058050Y-148656D01*
X-1058050Y-148656D01*
X-1056046Y-136000D01*
X-1056046Y-136000D01*
X-1058050Y-123344D01*
X-1058050Y-123344D01*
X-1059754Y-120000D01*
X674046Y-120000D01*
X676050Y-132656D01*
X676050Y-132656D01*
X681867Y-144072D01*
X690928Y-153133D01*
X702344Y-158950D01*
X702344Y-158950D01*
X712618Y-160577D01*
X715000Y-160954D01*
X715000Y-160954D01*
X715000Y-160954D01*
X716730Y-160680D01*
X727655Y-158950D01*
X739072Y-153133D01*
X739705Y-152500D01*
X1144046Y-152500D01*
X1146050Y-165156D01*
X1146050Y-165156D01*
X1151867Y-176572D01*
X1160928Y-185633D01*
X1172344Y-191450D01*
X1172345Y-191450D01*
X1182618Y-193077D01*
X1185000Y-193454D01*
X1185000Y-193454D01*
X1185000Y-193454D01*
X1186730Y-193180D01*
X1197656Y-191450D01*
X1209072Y-185633D01*
X1218133Y-176572D01*
X1223950Y-165156D01*
X1225954Y-152500D01*
X1223950Y-139845D01*
X1221991Y-136000D01*
X1218133Y-128428D01*
X1209072Y-119367D01*
X1197656Y-113550D01*
X1185000Y-111546D01*
X1185000Y-111546D01*
X1172344Y-113550D01*
X1172344Y-113550D01*
X1160928Y-119367D01*
X1151867Y-128428D01*
X1146050Y-139844D01*
X1146050Y-139844D01*
X1144046Y-152500D01*
X1144046Y-152500D01*
X739705Y-152500D01*
X748133Y-144072D01*
X753950Y-132656D01*
X755954Y-120000D01*
X753950Y-107344D01*
X751668Y-102867D01*
X748133Y-95928D01*
X739072Y-86867D01*
X727656Y-81050D01*
X721025Y-80000D01*
X889046Y-80000D01*
X891050Y-92655D01*
X891050Y-92656D01*
X896867Y-104072D01*
X905928Y-113133D01*
X917344Y-118950D01*
X917344Y-118950D01*
X927618Y-120577D01*
X930000Y-120954D01*
X930000Y-120954D01*
X930000Y-120954D01*
X931730Y-120680D01*
X942655Y-118950D01*
X954072Y-113133D01*
X963133Y-104072D01*
X968950Y-92655D01*
X970954Y-80000D01*
X968950Y-67345D01*
X963133Y-55928D01*
X954072Y-46867D01*
X954072Y-46867D01*
X942656Y-41050D01*
X930000Y-39046D01*
X930000Y-39046D01*
X917344Y-41050D01*
X917344Y-41050D01*
X905928Y-46867D01*
X896867Y-55928D01*
X891050Y-67344D01*
X891050Y-67344D01*
X889046Y-80000D01*
X889046Y-80000D01*
X721025Y-80000D01*
X715000Y-79046D01*
X715000Y-79046D01*
X702344Y-81050D01*
X702344Y-81050D01*
X690928Y-86867D01*
X681867Y-95928D01*
X676050Y-107344D01*
X676050Y-107344D01*
X674046Y-120000D01*
X674046Y-120000D01*
X-1059754Y-120000D01*
X-1063867Y-111928D01*
X-1072928Y-102867D01*
X-1084344Y-97050D01*
X-1097000Y-95046D01*
X-1097000Y-95046D01*
X-1109656Y-97050D01*
X-1109656Y-97050D01*
X-1121072Y-102867D01*
X-1130133Y-111928D01*
X-1134246Y-120000D01*
X-1135950Y-123344D01*
X-1137954Y-136000D01*
X-1362736Y-136000D01*
X-1365876Y-105557D01*
X-1365884Y-105445D01*
X-1369495Y-35253D01*
X-1369498Y-35142D01*
X-1369498Y7500D01*
X-1243454Y7500D01*
X-1241450Y-5156D01*
X-1235633Y-16572D01*
X-1226572Y-25633D01*
X-1215156Y-31450D01*
X-1204505Y-33137D01*
X-1202500Y-33454D01*
X-1202500Y-33454D01*
X-1202500Y-33454D01*
X-1200496Y-33137D01*
X-1189845Y-31450D01*
X-1189844Y-31450D01*
X-1178428Y-25633D01*
X-1169367Y-16572D01*
X-1163550Y-5156D01*
X-1163550Y-5156D01*
X-1161546Y7500D01*
X-1161546Y7500D01*
X-1163550Y20156D01*
X-1163550Y20156D01*
X-1169367Y31572D01*
X-1178428Y40633D01*
X-1189844Y46450D01*
X-1189845Y46450D01*
X-1200118Y48077D01*
X-1202500Y48454D01*
X-1202500Y48454D01*
X-1204230Y48180D01*
X-1215156Y46450D01*
X-1226572Y40633D01*
X-1235633Y31572D01*
X-1241450Y20156D01*
X-1243454Y7500D01*
X-1369498Y7500D01*
X-1369498Y35142D01*
X-1369495Y35253D01*
X-1365884Y105445D01*
X-1365876Y105557D01*
X-1364180Y122000D01*
X-955954Y122000D01*
X-953950Y109344D01*
X-953950Y109344D01*
X-953950Y109344D01*
X-948133Y97928D01*
X-939072Y88867D01*
X-927656Y83050D01*
X-915000Y81046D01*
X-915000Y81046D01*
X-915000Y81046D01*
X-902344Y83050D01*
X-902344Y83050D01*
X-890928Y88867D01*
X-881867Y97928D01*
X-876050Y109344D01*
X-876050Y109344D01*
X-874046Y122000D01*
X-874046Y122000D01*
X-875313Y130000D01*
X914046Y130000D01*
X916050Y117344D01*
X916050Y117344D01*
X921867Y105928D01*
X930928Y96867D01*
X942344Y91050D01*
X955000Y89046D01*
X955000Y89046D01*
X955000Y89046D01*
X967655Y91050D01*
X967656Y91050D01*
X979072Y96867D01*
X988133Y105928D01*
X993950Y117344D01*
X993950Y117344D01*
X993950Y117344D01*
X995954Y130000D01*
X993950Y142656D01*
X988133Y154072D01*
X979072Y163133D01*
X967655Y168950D01*
X957004Y170637D01*
X955000Y170954D01*
X955000Y170954D01*
X952995Y170637D01*
X942344Y168950D01*
X942344Y168950D01*
X930928Y163133D01*
X921867Y154072D01*
X916050Y142656D01*
X916050Y142656D01*
X914046Y130000D01*
X914046Y130000D01*
X-875313Y130000D01*
X-876050Y134656D01*
X-876050Y134656D01*
X-881867Y146072D01*
X-890928Y155133D01*
X-902344Y160950D01*
X-902344Y160950D01*
X-912618Y162577D01*
X-915000Y162954D01*
X-915000Y162954D01*
X-916730Y162680D01*
X-927655Y160950D01*
X-939072Y155133D01*
X-948133Y146072D01*
X-953950Y134656D01*
X-955954Y122000D01*
X-1364180Y122000D01*
X-1358664Y175470D01*
X-1358650Y175581D01*
X-1347857Y245033D01*
X-1347837Y245142D01*
X-1340569Y280000D01*
X-1103954Y280000D01*
X-1101950Y267345D01*
X-1101950Y267344D01*
X-1101950Y267344D01*
X-1096133Y255928D01*
X-1087072Y246867D01*
X-1075656Y241050D01*
X-1063000Y239046D01*
X-1063000Y239046D01*
X-1063000Y239046D01*
X-1050344Y241050D01*
X-1050344Y241050D01*
X-1038928Y246867D01*
X-1029867Y255928D01*
X-1024050Y267344D01*
X-1024050Y267344D01*
X-1022046Y280000D01*
X-1022046Y280000D01*
X-1024050Y292656D01*
X-1024050Y292656D01*
X-1029867Y304072D01*
X-1038928Y313133D01*
X-1050344Y318950D01*
X-1050345Y318950D01*
X-1060618Y320577D01*
X-1063000Y320954D01*
X-1063000Y320954D01*
X-1064730Y320680D01*
X-1075656Y318950D01*
X-1087072Y313133D01*
X-1096133Y304072D01*
X-1101950Y292656D01*
X-1103954Y280000D01*
X-1340569Y280000D01*
X-1333490Y313947D01*
X-1333465Y314055D01*
X-1320078Y365000D01*
X-1318764Y370000D01*
X-928454Y370000D01*
X-926450Y357344D01*
X-926450Y357344D01*
X-926450Y357344D01*
X-920633Y345928D01*
X-911572Y336867D01*
X-900156Y331050D01*
X-887500Y329046D01*
X-887500Y329046D01*
X-887500Y329046D01*
X-874844Y331050D01*
X-874844Y331050D01*
X-863428Y336867D01*
X-854367Y345928D01*
X-848550Y357344D01*
X-848550Y357344D01*
X-847338Y365000D01*
X769046Y365000D01*
X771050Y352344D01*
X771050Y352344D01*
X776867Y340928D01*
X785928Y331867D01*
X797344Y326050D01*
X810000Y324046D01*
X810000Y324046D01*
X810000Y324046D01*
X822655Y326050D01*
X822656Y326050D01*
X834072Y331867D01*
X843133Y340928D01*
X848950Y352344D01*
X848950Y352344D01*
X848950Y352344D01*
X850954Y365000D01*
X848950Y377655D01*
X843133Y389072D01*
X834072Y398133D01*
X822655Y403950D01*
X812004Y405637D01*
X810000Y405954D01*
X810000Y405954D01*
X807995Y405637D01*
X797344Y403950D01*
X797344Y403950D01*
X785928Y398133D01*
X776867Y389072D01*
X771050Y377656D01*
X771050Y377655D01*
X769046Y365000D01*
X769046Y365000D01*
X-847338Y365000D01*
X-846546Y370000D01*
X-846546Y370000D01*
X-848550Y382655D01*
X-848550Y382656D01*
X-854367Y394072D01*
X-863428Y403133D01*
X-874844Y408950D01*
X-874844Y408950D01*
X-885118Y410577D01*
X-887500Y410954D01*
X-887500Y410954D01*
X-889230Y410680D01*
X-900155Y408950D01*
X-911572Y403133D01*
X-920633Y394072D01*
X-926450Y382655D01*
X-928454Y370000D01*
X-1318764Y370000D01*
X-1315603Y382031D01*
X-1315572Y382137D01*
X-1297142Y440000D01*
X1088722Y440000D01*
X1090727Y427344D01*
X1090727Y427344D01*
X1096544Y415928D01*
X1105604Y406867D01*
X1117021Y401050D01*
X1129677Y399046D01*
X1129677Y399046D01*
X1129677Y399046D01*
X1142332Y401050D01*
X1142332Y401050D01*
X1153749Y406867D01*
X1162809Y415928D01*
X1168626Y427344D01*
X1168626Y427344D01*
X1168626Y427344D01*
X1170631Y440000D01*
X1168626Y452655D01*
X1162809Y464072D01*
X1153749Y473133D01*
X1142332Y478950D01*
X1131681Y480637D01*
X1129677Y480954D01*
X1129677Y480954D01*
X1127672Y480637D01*
X1117021Y478950D01*
X1117021Y478950D01*
X1105604Y473133D01*
X1096544Y464072D01*
X1090727Y452656D01*
X1090727Y452655D01*
X1088722Y440000D01*
X1088722Y440000D01*
X-1297142Y440000D01*
X-1294241Y449108D01*
X-1294205Y449214D01*
X-1269462Y515000D01*
X-1269420Y515103D01*
X-1245486Y570000D01*
X664046Y570000D01*
X666050Y557344D01*
X666050Y557344D01*
X671867Y545928D01*
X680928Y536867D01*
X692344Y531050D01*
X705000Y529046D01*
X705000Y529046D01*
X705000Y529046D01*
X717655Y531050D01*
X717656Y531050D01*
X729072Y536867D01*
X738133Y545928D01*
X743950Y557344D01*
X743950Y557344D01*
X743950Y557345D01*
X745954Y570000D01*
X743950Y582656D01*
X738133Y594072D01*
X729072Y603133D01*
X717655Y608950D01*
X707004Y610637D01*
X705000Y610954D01*
X705000Y610954D01*
X702995Y610637D01*
X692345Y608950D01*
X692344Y608950D01*
X680928Y603133D01*
X671867Y594072D01*
X666050Y582656D01*
X666050Y582656D01*
X664046Y570000D01*
X664046Y570000D01*
X-1245486Y570000D01*
X-1241332Y579529D01*
X-1241285Y579630D01*
X-1213179Y636000D01*
X-866954Y636000D01*
X-864950Y623345D01*
X-864950Y623344D01*
X-864950Y623344D01*
X-859133Y611928D01*
X-850072Y602867D01*
X-838656Y597050D01*
X-826000Y595046D01*
X-826000Y595046D01*
X-826000Y595046D01*
X-813344Y597050D01*
X-813344Y597050D01*
X-801928Y602867D01*
X-792867Y611928D01*
X-790228Y617107D01*
X756153Y617107D01*
X758157Y604451D01*
X758157Y604451D01*
X763974Y593035D01*
X773035Y583974D01*
X784451Y578157D01*
X797107Y576153D01*
X797107Y576153D01*
X797107Y576153D01*
X809762Y578157D01*
X809762Y578157D01*
X821179Y583974D01*
X830239Y593035D01*
X836056Y604451D01*
X836056Y604451D01*
X836057Y604451D01*
X838061Y617107D01*
X836057Y629762D01*
X830239Y641179D01*
X821179Y650239D01*
X811836Y655000D01*
X879046Y655000D01*
X881050Y642344D01*
X881050Y642344D01*
X886867Y630928D01*
X895928Y621867D01*
X907344Y616050D01*
X920000Y614046D01*
X920000Y614046D01*
X920000Y614046D01*
X932655Y616050D01*
X932656Y616050D01*
X944072Y621867D01*
X953133Y630928D01*
X958950Y642344D01*
X958950Y642344D01*
X958950Y642345D01*
X960954Y655000D01*
X958950Y667656D01*
X953133Y679072D01*
X944072Y688133D01*
X932655Y693950D01*
X922004Y695637D01*
X920000Y695954D01*
X920000Y695954D01*
X917995Y695637D01*
X907344Y693950D01*
X907344Y693950D01*
X895928Y688133D01*
X886867Y679072D01*
X881050Y667656D01*
X881050Y667656D01*
X879046Y655000D01*
X879046Y655000D01*
X811836Y655000D01*
X809762Y656057D01*
X799111Y657744D01*
X797107Y658061D01*
X797107Y658061D01*
X795102Y657744D01*
X784451Y656057D01*
X784451Y656057D01*
X773035Y650240D01*
X763974Y641179D01*
X758157Y629762D01*
X758157Y629762D01*
X756153Y617107D01*
X756153Y617107D01*
X-790228Y617107D01*
X-787050Y623344D01*
X-787050Y623344D01*
X-785046Y636000D01*
X-785046Y636000D01*
X-787050Y648656D01*
X-787050Y648656D01*
X-792867Y660072D01*
X-801928Y669133D01*
X-813344Y674950D01*
X-813344Y674950D01*
X-823618Y676577D01*
X-826000Y676954D01*
X-826000Y676954D01*
X-827730Y676680D01*
X-838655Y674950D01*
X-850072Y669133D01*
X-859133Y660072D01*
X-864950Y648656D01*
X-866954Y636000D01*
X-1213179Y636000D01*
X-1209896Y642585D01*
X-1209618Y643108D01*
X-1209335Y643640D01*
X-1205963Y649989D01*
X-1200528Y662313D01*
X-1199194Y665337D01*
X-1199194Y665337D01*
X-1197958Y668806D01*
X-1193561Y681139D01*
X-1192495Y685000D01*
X-1000954Y685000D01*
X-998950Y672345D01*
X-998950Y672344D01*
X-998950Y672344D01*
X-993133Y660928D01*
X-984072Y651867D01*
X-972656Y646050D01*
X-960000Y644046D01*
X-960000Y644046D01*
X-960000Y644046D01*
X-947344Y646050D01*
X-947344Y646050D01*
X-935928Y651867D01*
X-926867Y660928D01*
X-921050Y672344D01*
X-921050Y672344D01*
X-919046Y685000D01*
X-919046Y685000D01*
X-921050Y697656D01*
X-921050Y697656D01*
X-926867Y709072D01*
X-935928Y718133D01*
X-947344Y723950D01*
X-947344Y723950D01*
X-957618Y725577D01*
X-960000Y725954D01*
X-960000Y725954D01*
X-961730Y725680D01*
X-972655Y723950D01*
X-984072Y718133D01*
X-993133Y709072D01*
X-998950Y697656D01*
X-1000954Y685000D01*
X-1192495Y685000D01*
X-1192102Y686421D01*
X-1191491Y688636D01*
X-1191328Y689224D01*
X-1190004Y694018D01*
X-1190003Y694020D01*
X-1168364Y772344D01*
X-1154507Y822500D01*
X-910954Y822500D01*
X-908950Y809844D01*
X-908950Y809844D01*
X-908950Y809844D01*
X-903133Y798428D01*
X-894072Y789367D01*
X-882656Y783550D01*
X-870000Y781546D01*
X-870000Y781546D01*
X-870000Y781546D01*
X-857344Y783550D01*
X-857344Y783550D01*
X-854499Y785000D01*
X-640954Y785000D01*
X-638950Y772344D01*
X-638950Y772344D01*
X-638950Y772344D01*
X-633133Y760928D01*
X-624072Y751867D01*
X-612656Y746050D01*
X-600000Y744046D01*
X-600000Y744046D01*
X-600000Y744046D01*
X-587344Y746050D01*
X-587344Y746050D01*
X-575928Y751867D01*
X-566867Y760928D01*
X-561050Y772344D01*
X-561050Y772344D01*
X-559046Y785000D01*
X-559046Y785000D01*
X-561050Y797655D01*
X-561050Y797656D01*
X-562245Y800000D01*
X429046Y800000D01*
X431050Y787344D01*
X431050Y787344D01*
X436867Y775928D01*
X445928Y766867D01*
X457344Y761050D01*
X470000Y759046D01*
X470000Y759046D01*
X470000Y759046D01*
X482655Y761050D01*
X482656Y761050D01*
X494072Y766867D01*
X503133Y775928D01*
X508950Y787344D01*
X508950Y787344D01*
X508950Y787344D01*
X510954Y800000D01*
X508950Y812655D01*
X503133Y824072D01*
X494072Y833133D01*
X482655Y838950D01*
X472004Y840637D01*
X470000Y840954D01*
X470000Y840954D01*
X467995Y840637D01*
X457344Y838950D01*
X457344Y838950D01*
X445928Y833133D01*
X436867Y824072D01*
X431050Y812656D01*
X431050Y812655D01*
X429046Y800000D01*
X429046Y800000D01*
X-562245Y800000D01*
X-566867Y809072D01*
X-575928Y818133D01*
X-587344Y823950D01*
X-587345Y823950D01*
X-597618Y825577D01*
X-600000Y825954D01*
X-600000Y825954D01*
X-601730Y825680D01*
X-612656Y823950D01*
X-624072Y818133D01*
X-633133Y809072D01*
X-638950Y797655D01*
X-640954Y785000D01*
X-854499Y785000D01*
X-845928Y789367D01*
X-836867Y798428D01*
X-831050Y809844D01*
X-831050Y809844D01*
X-829046Y822500D01*
X-829046Y822500D01*
X-831050Y835155D01*
X-831050Y835156D01*
X-834792Y842500D01*
X646546Y842500D01*
X648550Y829844D01*
X648550Y829844D01*
X654367Y818428D01*
X663428Y809367D01*
X674844Y803550D01*
X687500Y801546D01*
X687500Y801546D01*
X687500Y801546D01*
X700155Y803550D01*
X700156Y803550D01*
X711572Y809367D01*
X720633Y818428D01*
X726450Y829844D01*
X726450Y829844D01*
X726450Y829844D01*
X728454Y842500D01*
X726450Y855155D01*
X720633Y866572D01*
X711572Y875633D01*
X700155Y881450D01*
X689505Y883137D01*
X687500Y883454D01*
X687500Y883454D01*
X685496Y883137D01*
X674845Y881450D01*
X674844Y881450D01*
X663428Y875633D01*
X654367Y866572D01*
X648550Y855156D01*
X648550Y855155D01*
X646546Y842500D01*
X646546Y842500D01*
X-834792Y842500D01*
X-836867Y846572D01*
X-845928Y855633D01*
X-857344Y861450D01*
X-857344Y861450D01*
X-867618Y863077D01*
X-870000Y863454D01*
X-870000Y863454D01*
X-871730Y863180D01*
X-882655Y861450D01*
X-894072Y855633D01*
X-903133Y846572D01*
X-908950Y835155D01*
X-910954Y822500D01*
X-1154507Y822500D01*
X-1152516Y829708D01*
X-1152516Y829708D01*
X-1152485Y829817D01*
X-1152485Y829817D01*
X-1150503Y836993D01*
X-1150503Y836994D01*
X-1146807Y857343D01*
X-1146256Y863454D01*
X-1144950Y877945D01*
X-1144950Y877945D01*
X-1144950Y877945D01*
X-1144950Y882318D01*
X-1144950Y882321D01*
X-1144950Y930000D01*
X-635954Y930000D01*
X-633950Y917344D01*
X-633950Y917344D01*
X-633950Y917344D01*
X-628133Y905928D01*
X-619072Y896867D01*
X-607656Y891050D01*
X-595000Y889046D01*
X-595000Y889046D01*
X-595000Y889046D01*
X-582344Y891050D01*
X-582344Y891050D01*
X-570928Y896867D01*
X-567795Y900000D01*
X-412954Y900000D01*
X-410950Y887344D01*
X-410950Y887344D01*
X-410950Y887344D01*
X-405133Y875928D01*
X-396072Y866867D01*
X-384656Y861050D01*
X-372000Y859046D01*
X-372000Y859046D01*
X-372000Y859046D01*
X-359344Y861050D01*
X-359344Y861050D01*
X-347928Y866867D01*
X-338867Y875928D01*
X-333050Y887344D01*
X-333050Y887344D01*
X-331046Y900000D01*
X-331046Y900000D01*
X-333050Y912655D01*
X-333050Y912656D01*
X-336792Y920000D01*
X69046Y920000D01*
X71050Y907344D01*
X71050Y907344D01*
X76867Y895928D01*
X85928Y886867D01*
X97344Y881050D01*
X110000Y879046D01*
X110000Y879046D01*
X110000Y879046D01*
X122655Y881050D01*
X122656Y881050D01*
X134072Y886867D01*
X137205Y890000D01*
X209046Y890000D01*
X211050Y877344D01*
X211050Y877344D01*
X216867Y865928D01*
X225928Y856867D01*
X237344Y851050D01*
X250000Y849046D01*
X250000Y849046D01*
X250000Y849046D01*
X262656Y851050D01*
X262656Y851050D01*
X274072Y856867D01*
X283133Y865928D01*
X288950Y877344D01*
X288950Y877344D01*
X288950Y877344D01*
X290954Y890000D01*
X288950Y902655D01*
X283133Y914072D01*
X274072Y923133D01*
X262656Y928950D01*
X252004Y930637D01*
X250000Y930954D01*
X250000Y930954D01*
X247995Y930637D01*
X237344Y928950D01*
X237344Y928950D01*
X225928Y923133D01*
X216867Y914072D01*
X211050Y902656D01*
X211050Y902655D01*
X209046Y890000D01*
X209046Y890000D01*
X137205Y890000D01*
X143133Y895928D01*
X148950Y907344D01*
X148950Y907344D01*
X148950Y907344D01*
X150637Y917995D01*
X150954Y920000D01*
X150954Y920000D01*
X148974Y932500D01*
X354046Y932500D01*
X356050Y919844D01*
X356050Y919844D01*
X361867Y908428D01*
X370928Y899367D01*
X382344Y893550D01*
X395000Y891546D01*
X395000Y891546D01*
X395000Y891546D01*
X407655Y893550D01*
X407656Y893550D01*
X419072Y899367D01*
X428133Y908428D01*
X433950Y919844D01*
X433950Y919844D01*
X433950Y919844D01*
X435954Y932500D01*
X433950Y945155D01*
X428133Y956572D01*
X419072Y965633D01*
X407655Y971450D01*
X397004Y973137D01*
X395000Y973454D01*
X395000Y973454D01*
X392995Y973137D01*
X382344Y971450D01*
X382344Y971450D01*
X370928Y965633D01*
X361867Y956572D01*
X356050Y945156D01*
X356050Y945155D01*
X354046Y932500D01*
X354046Y932500D01*
X148974Y932500D01*
X148950Y932655D01*
X143133Y944072D01*
X134072Y953133D01*
X122655Y958950D01*
X112004Y960637D01*
X110000Y960954D01*
X110000Y960954D01*
X107995Y960637D01*
X97344Y958950D01*
X97344Y958950D01*
X85928Y953133D01*
X76867Y944072D01*
X71050Y932656D01*
X71050Y932655D01*
X69046Y920000D01*
X69046Y920000D01*
X-336792Y920000D01*
X-338867Y924072D01*
X-347928Y933133D01*
X-359344Y938950D01*
X-359344Y938950D01*
X-369618Y940577D01*
X-372000Y940954D01*
X-372000Y940954D01*
X-373730Y940680D01*
X-384655Y938950D01*
X-396072Y933133D01*
X-405133Y924072D01*
X-410950Y912655D01*
X-412954Y900000D01*
X-567795Y900000D01*
X-561867Y905928D01*
X-556050Y917344D01*
X-556050Y917344D01*
X-554046Y930000D01*
X-554046Y930000D01*
X-556050Y942655D01*
X-556050Y942656D01*
X-561867Y954072D01*
X-570928Y963133D01*
X-582344Y968950D01*
X-582345Y968950D01*
X-592618Y970577D01*
X-595000Y970954D01*
X-595000Y970954D01*
X-596730Y970680D01*
X-607656Y968950D01*
X-619072Y963133D01*
X-628133Y954072D01*
X-633950Y942655D01*
X-635954Y930000D01*
X-1144950Y930000D01*
X-1144950Y978478D01*
X-169433Y978478D01*
X-167428Y965823D01*
X-167428Y965823D01*
X-167428Y965823D01*
X-161611Y954406D01*
X-152551Y945346D01*
X-141134Y939529D01*
X-128479Y937524D01*
X-128478Y937524D01*
X-128478Y937524D01*
X-115823Y939529D01*
X-115823Y939529D01*
X-104406Y945346D01*
X-95346Y954406D01*
X-89529Y965823D01*
X-89529Y965823D01*
X-87524Y978478D01*
X-87524Y978478D01*
X-89529Y991134D01*
X-89529Y991134D01*
X-95346Y1002551D01*
X-104406Y1011611D01*
X-115823Y1017428D01*
X-115823Y1017428D01*
X-126097Y1019055D01*
X-128478Y1019433D01*
X-128479Y1019433D01*
X-130209Y1019159D01*
X-141134Y1017428D01*
X-152551Y1011611D01*
X-161611Y1002551D01*
X-167428Y991134D01*
X-169433Y978478D01*
X-1144950Y978478D01*
X-1144950Y1092500D01*
X471546Y1092500D01*
X473550Y1079844D01*
X473550Y1079844D01*
X479367Y1068428D01*
X488428Y1059367D01*
X499844Y1053550D01*
X512500Y1051546D01*
X512500Y1051546D01*
X512500Y1051546D01*
X525156Y1053550D01*
X525156Y1053550D01*
X536572Y1059367D01*
X545633Y1068428D01*
X551450Y1079844D01*
X551450Y1079844D01*
X551450Y1079845D01*
X553454Y1092500D01*
X551450Y1105156D01*
X545633Y1116572D01*
X536572Y1125633D01*
X525156Y1131450D01*
X514504Y1133137D01*
X512500Y1133454D01*
X512500Y1133454D01*
X510495Y1133137D01*
X499844Y1131450D01*
X499844Y1131450D01*
X488428Y1125633D01*
X479367Y1116572D01*
X473550Y1105156D01*
X473550Y1105156D01*
X471546Y1092500D01*
X471546Y1092500D01*
X-1144950Y1092500D01*
X-1144950Y1160826D01*
X-410954Y1160826D01*
X-408950Y1148171D01*
X-408950Y1148170D01*
X-408950Y1148170D01*
X-403133Y1136754D01*
X-394072Y1127693D01*
X-382656Y1121876D01*
X-370000Y1119872D01*
X-370000Y1119872D01*
X-370000Y1119872D01*
X-357344Y1121876D01*
X-357344Y1121876D01*
X-345928Y1127693D01*
X-336867Y1136754D01*
X-331050Y1148170D01*
X-331050Y1148170D01*
X-329046Y1160826D01*
X-329046Y1160826D01*
X-331050Y1173482D01*
X-331050Y1173482D01*
X-336867Y1184898D01*
X-341969Y1190000D01*
X-113454Y1190000D01*
X-111450Y1177345D01*
X-111450Y1177344D01*
X-111450Y1177344D01*
X-105633Y1165928D01*
X-96572Y1156867D01*
X-85156Y1151050D01*
X-72500Y1149046D01*
X-72500Y1149046D01*
X-72500Y1149046D01*
X-59844Y1151050D01*
X-59844Y1151050D01*
X-48428Y1156867D01*
X-39367Y1165928D01*
X-33550Y1177344D01*
X-33550Y1177344D01*
X-31546Y1190000D01*
X-31546Y1190000D01*
X-33550Y1202656D01*
X-33550Y1202656D01*
X-39367Y1214072D01*
X-48428Y1223133D01*
X-59844Y1228950D01*
X-59844Y1228950D01*
X-66475Y1230000D01*
X191546Y1230000D01*
X193550Y1217344D01*
X193550Y1217344D01*
X199367Y1205928D01*
X208428Y1196867D01*
X219844Y1191050D01*
X232500Y1189046D01*
X232500Y1189046D01*
X232500Y1189046D01*
X245155Y1191050D01*
X245156Y1191050D01*
X256572Y1196867D01*
X265633Y1205928D01*
X271450Y1217344D01*
X271450Y1217344D01*
X271450Y1217345D01*
X273288Y1228950D01*
X273454Y1230000D01*
X273454Y1230000D01*
X272973Y1233039D01*
X271450Y1242656D01*
X269236Y1247000D01*
X948282Y1247000D01*
X950306Y1229039D01*
X956276Y1211978D01*
X965892Y1196674D01*
X978674Y1183892D01*
X993978Y1174276D01*
X1011039Y1168306D01*
X1011038Y1168306D01*
X1029000Y1166283D01*
X1046961Y1168306D01*
X1064022Y1174276D01*
X1079326Y1183892D01*
X1079326Y1183892D01*
X1079327Y1183893D01*
X1092108Y1196674D01*
X1101724Y1211978D01*
X1107694Y1229039D01*
X1109718Y1247000D01*
X1107694Y1264961D01*
X1101724Y1282022D01*
X1092108Y1297327D01*
X1079327Y1310108D01*
X1064022Y1319724D01*
X1046961Y1325694D01*
X1046961Y1325694D01*
X1045142Y1325899D01*
X1029000Y1327718D01*
X1011039Y1325694D01*
X993978Y1319724D01*
X978673Y1310108D01*
X965892Y1297327D01*
X965892Y1297326D01*
X965892Y1297326D01*
X956276Y1282022D01*
X950306Y1264961D01*
X948282Y1247000D01*
X269236Y1247000D01*
X265633Y1254072D01*
X256572Y1263133D01*
X245155Y1268950D01*
X234504Y1270637D01*
X232500Y1270954D01*
X232500Y1270954D01*
X230495Y1270637D01*
X219844Y1268950D01*
X219844Y1268950D01*
X208428Y1263133D01*
X199367Y1254072D01*
X193550Y1242656D01*
X193550Y1242656D01*
X191546Y1230000D01*
X191546Y1230000D01*
X-66475Y1230000D01*
X-70118Y1230577D01*
X-72500Y1230954D01*
X-72500Y1230954D01*
X-74230Y1230680D01*
X-85156Y1228950D01*
X-96572Y1223133D01*
X-105633Y1214072D01*
X-111450Y1202656D01*
X-113454Y1190000D01*
X-341969Y1190000D01*
X-345928Y1193959D01*
X-357344Y1199776D01*
X-357344Y1199776D01*
X-367618Y1201403D01*
X-370000Y1201780D01*
X-370000Y1201780D01*
X-371730Y1201506D01*
X-382655Y1199776D01*
X-394072Y1193959D01*
X-403133Y1184898D01*
X-408950Y1173482D01*
X-410954Y1160826D01*
X-1144950Y1160826D01*
X-1144950Y1251000D01*
X-1124718Y1251000D01*
X-1122694Y1233039D01*
X-1116724Y1215978D01*
X-1107108Y1200674D01*
X-1094327Y1187893D01*
X-1094326Y1187892D01*
X-1094326Y1187892D01*
X-1079022Y1178276D01*
X-1061961Y1172306D01*
X-1061961Y1172306D01*
X-1044000Y1170283D01*
X-1026039Y1172306D01*
X-1008978Y1178276D01*
X-993674Y1187892D01*
X-980892Y1200674D01*
X-971276Y1215978D01*
X-965306Y1233039D01*
X-963282Y1251000D01*
X-924717Y1251000D01*
X-922694Y1233039D01*
X-916724Y1215978D01*
X-907107Y1200674D01*
X-894326Y1187893D01*
X-894326Y1187892D01*
X-894326Y1187892D01*
X-879022Y1178276D01*
X-861961Y1172306D01*
X-861961Y1172306D01*
X-844000Y1170283D01*
X-826039Y1172306D01*
X-808978Y1178276D01*
X-793674Y1187892D01*
X-780892Y1200674D01*
X-771276Y1215978D01*
X-765306Y1233039D01*
X-763282Y1251000D01*
X-765306Y1268961D01*
X-771276Y1286022D01*
X-780892Y1301326D01*
X-780892Y1301326D01*
X-780892Y1301327D01*
X-793673Y1314108D01*
X-808978Y1323724D01*
X-826039Y1329694D01*
X-826038Y1329694D01*
X-829342Y1330066D01*
X-844000Y1331718D01*
X-861961Y1329694D01*
X-879022Y1323724D01*
X-894326Y1314108D01*
X-907107Y1301327D01*
X-916724Y1286022D01*
X-922694Y1268961D01*
X-924717Y1251000D01*
X-963282Y1251000D01*
X-965306Y1268961D01*
X-971276Y1286022D01*
X-980892Y1301326D01*
X-980892Y1301326D01*
X-980892Y1301327D01*
X-993673Y1314108D01*
X-1008978Y1323724D01*
X-1026039Y1329694D01*
X-1026038Y1329694D01*
X-1029342Y1330066D01*
X-1044000Y1331718D01*
X-1061961Y1329694D01*
X-1079022Y1323724D01*
X-1094327Y1314108D01*
X-1107108Y1301327D01*
X-1116724Y1286022D01*
X-1122694Y1268961D01*
X-1124718Y1251000D01*
X-1144950Y1251000D01*
X-1144950Y1424615D01*
X-1042550Y1424615D01*
X-1041786Y1420774D01*
X-1039474Y1409150D01*
X-1033439Y1394582D01*
X-1024679Y1381471D01*
X-1013529Y1370321D01*
X-1000418Y1361561D01*
X-985850Y1355526D01*
X-985849Y1355526D01*
X-985849Y1355526D01*
X-985849Y1355526D01*
X-970384Y1352450D01*
X-970384Y1352450D01*
X970384Y1352450D01*
X985849Y1355526D01*
X985849Y1355526D01*
X985849Y1355526D01*
X985850Y1355526D01*
X1000418Y1361561D01*
X1000418Y1361561D01*
X1004748Y1364454D01*
X1013529Y1370321D01*
X1024679Y1381471D01*
X1033439Y1394582D01*
X1039474Y1409150D01*
X1039474Y1409151D01*
X1042550Y1424615D01*
X1042550Y1492177D01*
X1042549Y1492187D01*
X1042550Y1495589D01*
X1040579Y1508034D01*
X1036685Y1520017D01*
X1030965Y1531244D01*
X1023559Y1541438D01*
X1023076Y1541921D01*
X1023076Y1541921D01*
X1018065Y1546932D01*
X1015739Y1549259D01*
X1015738Y1549259D01*
X1015381Y1549616D01*
X1015381Y1549616D01*
X989616Y1575381D01*
X989616Y1575381D01*
X989259Y1575738D01*
X989259Y1575739D01*
X987040Y1577957D01*
X987039Y1577958D01*
X985893Y1579104D01*
X981438Y1583559D01*
X974341Y1588716D01*
X971245Y1590965D01*
X971245Y1590965D01*
X971245Y1590965D01*
X960018Y1596686D01*
X948034Y1600579D01*
X935589Y1602550D01*
X929289Y1602550D01*
X-924530Y1602550D01*
X-929289Y1602550D01*
X-935589Y1602550D01*
X-948034Y1600579D01*
X-960018Y1596685D01*
X-971245Y1590965D01*
X-981438Y1583559D01*
X-981921Y1583076D01*
X-981921Y1583076D01*
X-1021073Y1543924D01*
X-1021073Y1543924D01*
X-1023559Y1541438D01*
X-1030965Y1531245D01*
X-1036685Y1520018D01*
X-1040579Y1508034D01*
X-1042550Y1495589D01*
X-1042550Y1495589D01*
X-1042550Y1424615D01*
X-1144950Y1424615D01*
X-1144950Y1535782D01*
X-1144940Y1535995D01*
X-1143648Y1549109D01*
X-1143482Y1549944D01*
X-1139750Y1562247D01*
X-1139424Y1563034D01*
X-1133363Y1574373D01*
X-1132890Y1575081D01*
X-1124530Y1585268D01*
X-1124386Y1585426D01*
X-1121097Y1588716D01*
X-1121097Y1588716D01*
X-1028716Y1681097D01*
X-1028716Y1681097D01*
X-1025427Y1684385D01*
X-1025269Y1684528D01*
X-1015081Y1692890D01*
X-1014373Y1693363D01*
X-1003034Y1699424D01*
X-1002247Y1699749D01*
X-989944Y1703482D01*
X-989109Y1703648D01*
X-975994Y1704939D01*
X-975781Y1704950D01*
X-971129Y1704950D01*
X970779Y1704950D01*
X970780Y1704950D01*
G37*
%TD.AperFunction*%
%TD*%
%TA.AperFunction,Conductor*%
%TO.N,+BATT*%
G36*
X-205696Y-821968D02*
G01*
X-201121Y-827249D01*
X-200000Y-832400D01*
X-200000Y-1085000D01*
X185198Y-1085970D01*
X191896Y-1087956D01*
X196459Y-1093248D01*
X197553Y-1097790D01*
X198826Y-1124946D01*
X200000Y-1150000D01*
X425000Y-1150000D01*
X532083Y-1150000D01*
X538787Y-1151969D01*
X543362Y-1157249D01*
X544357Y-1164165D01*
X541454Y-1170520D01*
X537713Y-1173448D01*
X534928Y-1174867D01*
X534927Y-1174868D01*
X525868Y-1183927D01*
X525868Y-1183928D01*
X520050Y-1195345D01*
X518046Y-1208000D01*
X518046Y-1208000D01*
X520050Y-1220655D01*
X520050Y-1220655D01*
X520050Y-1220656D01*
X525867Y-1232072D01*
X525868Y-1232073D01*
X525868Y-1232073D01*
X534927Y-1241132D01*
X534927Y-1241132D01*
X534928Y-1241133D01*
X546345Y-1246950D01*
X546346Y-1246950D01*
X546432Y-1246978D01*
X546524Y-1247041D01*
X547214Y-1247393D01*
X547169Y-1247482D01*
X552199Y-1250922D01*
X554919Y-1257357D01*
X555000Y-1258771D01*
X555000Y-1340050D01*
X553032Y-1346754D01*
X547751Y-1351329D01*
X542600Y-1352450D01*
X-337600Y-1352450D01*
X-344304Y-1350482D01*
X-348879Y-1345201D01*
X-350000Y-1340050D01*
X-350000Y-1240000D01*
X389046Y-1240000D01*
X391050Y-1252655D01*
X391050Y-1252655D01*
X391050Y-1252656D01*
X396867Y-1264072D01*
X396868Y-1264073D01*
X396868Y-1264073D01*
X405927Y-1273132D01*
X405927Y-1273132D01*
X405928Y-1273133D01*
X417344Y-1278950D01*
X417345Y-1278950D01*
X417345Y-1278950D01*
X430000Y-1280954D01*
X430000Y-1280954D01*
X430000Y-1280954D01*
X442655Y-1278950D01*
X442655Y-1278950D01*
X442655Y-1278950D01*
X454072Y-1273133D01*
X463133Y-1264072D01*
X468950Y-1252656D01*
X468950Y-1252655D01*
X470954Y-1240000D01*
X470954Y-1240000D01*
X468950Y-1227345D01*
X468950Y-1227345D01*
X468950Y-1227345D01*
X463133Y-1215928D01*
X463132Y-1215927D01*
X463132Y-1215927D01*
X454073Y-1206868D01*
X454072Y-1206868D01*
X454072Y-1206867D01*
X442655Y-1201050D01*
X442655Y-1201050D01*
X442655Y-1201050D01*
X430000Y-1199046D01*
X430000Y-1199046D01*
X417345Y-1201050D01*
X411749Y-1203901D01*
X405928Y-1206867D01*
X405928Y-1206868D01*
X405927Y-1206868D01*
X396868Y-1215927D01*
X396867Y-1215928D01*
X396867Y-1215928D01*
X393901Y-1221749D01*
X391050Y-1227345D01*
X389046Y-1240000D01*
X389046Y-1240000D01*
X-350000Y-1240000D01*
X-350000Y-1182341D01*
X-348032Y-1175637D01*
X-347420Y-1174878D01*
X-347441Y-1174862D01*
X-346868Y-1174073D01*
X-346867Y-1174072D01*
X-341050Y-1162656D01*
X-341050Y-1162655D01*
X-341050Y-1162655D01*
X-339046Y-1150000D01*
X-339046Y-1150000D01*
X-341050Y-1137345D01*
X-346868Y-1125928D01*
X-347441Y-1125138D01*
X-347177Y-1124946D01*
X-349717Y-1120295D01*
X-350000Y-1117659D01*
X-350000Y-937000D01*
X-349847Y-935060D01*
X-349046Y-930000D01*
X-349046Y-930000D01*
X-349847Y-924939D01*
X-350000Y-922999D01*
X-350000Y-832400D01*
X-348032Y-825696D01*
X-342751Y-821121D01*
X-337600Y-820000D01*
X-212400Y-820000D01*
X-205696Y-821968D01*
G37*
%TD.AperFunction*%
%TD*%
M02*
