%TF.GenerationSoftware,KiCad,Pcbnew,7.0.8*%
%TF.CreationDate,2023-10-16T01:10:26-04:00*%
%TF.ProjectId,watch,77617463-682e-46b6-9963-61645f706362,rev?*%
%TF.SameCoordinates,Original*%
%TF.FileFunction,Copper,L3,Inr*%
%TF.FilePolarity,Positive*%
%FSLAX45Y45*%
G04 Gerber Fmt 4.5, Leading zero omitted, Abs format (unit mm)*
G04 Created by KiCad (PCBNEW 7.0.8) date 2023-10-16 01:10:26*
%MOMM*%
%LPD*%
G01*
G04 APERTURE LIST*
%TA.AperFunction,ComponentPad*%
%ADD10C,1.400000*%
%TD*%
%TA.AperFunction,ViaPad*%
%ADD11C,0.400000*%
%TD*%
%TA.AperFunction,Conductor*%
%ADD12C,0.088900*%
%TD*%
%TA.AperFunction,Conductor*%
%ADD13C,0.200000*%
%TD*%
G04 APERTURE END LIST*
D10*
%TO.N,GND*%
%TO.C,TP2*%
X750000Y-1230000D03*
%TO.N,+BATT*%
X950000Y-1230000D03*
%TD*%
%TO.N,GND*%
%TO.C,TP4*%
X829000Y1247000D03*
%TO.N,VDD*%
X1029000Y1247000D03*
%TD*%
%TO.N,/coil_{+}*%
%TO.C,TP1*%
X-1020000Y-1230000D03*
X-820000Y-1230000D03*
%TD*%
%TO.N,/SWCLK*%
%TO.C,TP3*%
X-1044000Y1251000D03*
%TO.N,/SWDIO*%
X-844000Y1251000D03*
%TD*%
D11*
%TO.N,GND*%
X382000Y-834000D03*
%TO.N,/LED6*%
X-866000Y-303000D03*
X238000Y903000D03*
%TO.N,/LED13*%
X130000Y920000D03*
X-915000Y122000D03*
%TO.N,/LED5*%
X-818000Y-434000D03*
%TO.N,VDD*%
X375000Y-905000D03*
X470000Y800000D03*
%TO.N,+BATT*%
X-10000Y50000D03*
%TO.N,/LED10*%
X810000Y365000D03*
X930000Y-80000D03*
%TO.N,Net-(D51-K)*%
X705000Y570000D03*
X-1097000Y-136000D03*
X955000Y130000D03*
X132500Y-955000D03*
X-128478Y978478D03*
%TO.N,Net-(D53-K)*%
X-600000Y785000D03*
X-780000Y-600000D03*
X620000Y-797500D03*
X797107Y617107D03*
%TO.N,Net-(D55-K)*%
X-887500Y370000D03*
X395000Y932500D03*
X-390000Y-930000D03*
X930000Y-390000D03*
%TO.N,/LED15*%
X-625000Y-675000D03*
X-475000Y-795000D03*
%TO.N,/LED1*%
X-605000Y-932500D03*
X-72500Y1190000D03*
X715000Y-865000D03*
X1129677Y440000D03*
X-1063000Y280000D03*
%TO.N,/LED2*%
X920000Y655000D03*
X890000Y-635000D03*
X-380000Y-1150000D03*
X-1202500Y7500D03*
X-370000Y1160826D03*
%TO.N,/LED3*%
X687500Y842500D03*
X-1160000Y-300000D03*
X-595000Y930000D03*
X-821000Y-1012000D03*
X1110000Y-447500D03*
X-402290Y-820000D03*
%TO.N,/LED4*%
X1185000Y-152500D03*
X430000Y-1240000D03*
X512500Y1092500D03*
X-1054143Y-580000D03*
X-870000Y822500D03*
%TO.N,/LED5*%
X-695000Y-835000D03*
X-875000Y-825000D03*
X-117500Y-1030000D03*
X232500Y1230000D03*
X-960000Y685000D03*
%TO.N,Net-(D21-A)*%
X-501000Y-1218000D03*
X559000Y-1208000D03*
%TO.N,+BATT*%
X-329000Y-852000D03*
%TO.N,/SWDIO*%
X-372000Y900000D03*
%TO.N,/coil_{+}*%
X10000Y-88543D03*
X10000Y-930000D03*
%TO.N,/SWCLK*%
X-826000Y636000D03*
%TD*%
D12*
%TO.N,VDD*%
X934845Y-124845D02*
X911424Y-124845D01*
X966385Y-156385D02*
X934845Y-124845D01*
X966385Y-265050D02*
X966385Y-156385D01*
X867375Y-364060D02*
X966385Y-265050D01*
X894440Y-443005D02*
X867375Y-415940D01*
X774035Y-612741D02*
X774035Y-586965D01*
X669681Y-717095D02*
X774035Y-612741D01*
X586695Y-717095D02*
X669681Y-717095D01*
X375000Y-905000D02*
X398790Y-905000D01*
X686425Y525155D02*
X660155Y551425D01*
X774035Y-586965D02*
X894440Y-466560D01*
X892375Y104060D02*
X892375Y155940D01*
X894440Y-466560D02*
X894440Y-443005D01*
X867375Y-415940D02*
X867375Y-364060D01*
X398790Y-905000D02*
X586695Y-717095D01*
X723575Y525155D02*
X686425Y525155D01*
X715220Y648930D02*
X715220Y713201D01*
X600559Y738220D02*
X538779Y800000D01*
X911424Y-124845D02*
X885155Y-98575D01*
X885155Y-98575D02*
X885155Y-61424D01*
X885155Y-61424D02*
X912220Y-34360D01*
X912220Y-34360D02*
X912220Y84215D01*
X912220Y84215D02*
X892375Y104060D01*
X892375Y155940D02*
X919440Y183005D01*
X919440Y183005D02*
X919440Y300560D01*
X919440Y300560D02*
X899845Y320155D01*
X899845Y320155D02*
X791424Y320155D01*
X791424Y320155D02*
X765155Y346425D01*
X765155Y346425D02*
X765155Y484555D01*
X765155Y484555D02*
X724065Y525645D01*
X724065Y525645D02*
X723575Y525155D01*
X660155Y551425D02*
X660155Y593865D01*
X660155Y593865D02*
X715220Y648930D01*
X715220Y713201D02*
X690201Y738220D01*
X690201Y738220D02*
X600559Y738220D01*
X538779Y800000D02*
X470000Y800000D01*
D13*
%TO.N,/coil_{+}*%
X10000Y-88543D02*
X0Y-98543D01*
X0Y-98543D02*
X0Y-920000D01*
D12*
%TO.N,+BATT*%
X-10000Y50000D02*
X-10000Y-28420D01*
X-10000Y-28420D02*
X-329000Y-347421D01*
X-329000Y-347421D02*
X-329000Y-852000D01*
%TO.N,/LED10*%
X930000Y-80000D02*
X930000Y91579D01*
X930000Y91579D02*
X910155Y111424D01*
X884710Y365000D02*
X810000Y365000D01*
X910155Y148576D02*
X937220Y175640D01*
X937220Y312490D02*
X884710Y365000D01*
X910155Y111424D02*
X910155Y148576D01*
X937220Y175640D02*
X937220Y312490D01*
%TO.N,Net-(D51-K)*%
X955000Y319855D02*
X737382Y537473D01*
X557375Y-771560D02*
X557375Y-806510D01*
X677046Y-734875D02*
X594060Y-734875D01*
X885155Y-371424D02*
X885155Y-408575D01*
X-537375Y742336D02*
X-537375Y826549D01*
X-842655Y351424D02*
X-842655Y437055D01*
X912220Y-435640D02*
X912220Y-473925D01*
X984165Y-272415D02*
X885155Y-371424D01*
X984165Y100835D02*
X984165Y-272415D01*
X791815Y-620106D02*
X677046Y-734875D01*
X-842655Y437055D02*
X-537375Y742336D01*
X376424Y887655D02*
X239914Y1024165D01*
X594060Y-734875D02*
X557375Y-771560D01*
X705000Y570000D02*
X737382Y537618D01*
X-1097000Y-136000D02*
X-1097000Y8566D01*
X885155Y-408575D02*
X912220Y-435640D01*
X733000Y720566D02*
X697566Y756000D01*
X705000Y613565D02*
X733000Y641565D01*
X-339759Y1024165D02*
X-174165Y1024165D01*
X476269Y887655D02*
X376424Y887655D01*
X791815Y-594330D02*
X791815Y-620106D01*
X-1097000Y8566D02*
X-978478Y127087D01*
X379720Y-984165D02*
X161665Y-984165D01*
X737382Y537618D02*
X737382Y537473D01*
X-174165Y1024165D02*
X-128478Y978478D01*
X705000Y570000D02*
X705000Y613565D01*
X955000Y130000D02*
X955000Y319855D01*
X239914Y1024165D02*
X-81835Y1024165D01*
X912220Y-473925D02*
X791815Y-594330D01*
X-537375Y826549D02*
X-339759Y1024165D01*
X955000Y130000D02*
X984165Y100835D01*
X733000Y641565D02*
X733000Y720566D01*
X607924Y756000D02*
X476269Y887655D01*
X-978478Y215601D02*
X-842655Y351424D01*
X557375Y-806510D02*
X379720Y-984165D01*
X161665Y-984165D02*
X132500Y-955000D01*
X697566Y756000D02*
X607924Y756000D01*
X-127521Y978478D02*
X-128478Y978478D01*
X-81835Y1024165D02*
X-127521Y978478D01*
X-978478Y127087D02*
X-978478Y215601D01*
%TO.N,Net-(D53-K)*%
X1019725Y305420D02*
X797107Y528038D01*
X-136000Y-1083000D02*
X-171220Y-1047780D01*
X664710Y-797500D02*
X827375Y-634835D01*
X-171220Y-1047780D02*
X-382510Y-1047780D01*
X620000Y-797500D02*
X616674Y-797500D01*
X-600000Y785000D02*
X-600000Y814214D01*
X827375Y-634835D02*
X827375Y-609060D01*
X-382510Y-1047780D02*
X-550445Y-879845D01*
X-550445Y-879845D02*
X-731590Y-879845D01*
X620000Y-797500D02*
X664710Y-797500D01*
X-731590Y-879845D02*
X-780000Y-831435D01*
X797107Y706748D02*
X797107Y617107D01*
X-107079Y-1083000D02*
X-136000Y-1083000D01*
X616674Y-797500D02*
X394449Y-1019725D01*
X827375Y-609060D02*
X1019725Y-416710D01*
X-780000Y-831435D02*
X-780000Y-600000D01*
X-60155Y-1070155D02*
X-94234Y-1070155D01*
X-94234Y-1070155D02*
X-107079Y-1083000D01*
X394449Y-1019725D02*
X-9725Y-1019725D01*
X354489Y1059725D02*
X622654Y791560D01*
X1019725Y-416710D02*
X1019725Y305420D01*
X-354489Y1059725D02*
X354489Y1059725D01*
X797107Y528038D02*
X797107Y617107D01*
X622654Y791560D02*
X712295Y791560D01*
X-9725Y-1019725D02*
X-60155Y-1070155D01*
X712295Y791560D02*
X797107Y706748D01*
X-600000Y814214D02*
X-354489Y1059725D01*
%TO.N,Net-(D55-K)*%
X-555155Y749700D02*
X-555155Y833914D01*
X809595Y-627471D02*
X684411Y-752655D01*
X456569Y932500D02*
X615289Y773780D01*
X-347124Y1041945D02*
X285555Y1041945D01*
X930000Y-481290D02*
X809595Y-601695D01*
X-98924Y-985155D02*
X-136076Y-985155D01*
X-887500Y417355D02*
X-555155Y749700D01*
X601425Y-752655D02*
X575155Y-778924D01*
X395000Y932500D02*
X456569Y932500D01*
X704931Y773780D02*
X752262Y726449D01*
X-555155Y833914D02*
X-347124Y1041945D01*
X-82135Y-1001945D02*
X-98924Y-985155D01*
X615289Y773780D02*
X704931Y773780D01*
X575155Y-778924D02*
X575155Y-813874D01*
X-390000Y-990000D02*
X-390000Y-930000D01*
X387084Y-1001945D02*
X-82135Y-1001945D01*
X575155Y-813874D02*
X387084Y-1001945D01*
X-163141Y-1012220D02*
X-367780Y-1012220D01*
X1001945Y-318055D02*
X930000Y-390000D01*
X752262Y726449D02*
X752262Y547738D01*
X809595Y-601695D02*
X809595Y-627471D01*
X1001945Y298055D02*
X1001945Y-318055D01*
X930000Y-390000D02*
X930000Y-481290D01*
X-367780Y-1012220D02*
X-390000Y-990000D01*
X285555Y1041945D02*
X395000Y932500D01*
X684411Y-752655D02*
X601425Y-752655D01*
X752262Y547738D02*
X1001945Y298055D01*
X-136076Y-985155D02*
X-163141Y-1012220D01*
X-887500Y370000D02*
X-887500Y417355D01*
%TO.N,/LED15*%
X-475000Y-795000D02*
X-506000Y-795000D01*
X-625000Y-676000D02*
X-625000Y-675000D01*
X-506000Y-795000D02*
X-625000Y-676000D01*
%TO.N,/LED1*%
X710125Y-860125D02*
X604339Y-860125D01*
X1073065Y383388D02*
X1129677Y440000D01*
X1940Y1115560D02*
X374088Y1115560D01*
X-285580Y-1119000D02*
X-361424Y-1194845D01*
X908575Y-679845D02*
X934845Y-653576D01*
X720020Y905125D02*
X925300Y699845D01*
X409179Y-1055285D02*
X5005Y-1055285D01*
X1184720Y-389720D02*
X1073065Y-278065D01*
X715000Y-865000D02*
X715000Y-797500D01*
X-72500Y1190000D02*
X1940Y1115560D01*
X374088Y1115560D02*
X584868Y904780D01*
X-88171Y1205671D02*
X-72500Y1190000D01*
X-1063000Y280000D02*
X-1063000Y346609D01*
X934845Y-551879D02*
X976599Y-510125D01*
X-1063000Y346609D02*
X-944256Y465352D01*
X-699725Y680565D02*
X-699725Y913840D01*
X1073065Y-278065D02*
X1073065Y383388D01*
X-58710Y-1119000D02*
X-285580Y-1119000D01*
X715536Y-864464D02*
X715000Y-865000D01*
X-416590Y-1194845D02*
X-605000Y-1006435D01*
X1184720Y-470280D02*
X1184720Y-389720D01*
X-944256Y465352D02*
X-914937Y465352D01*
X1129677Y480323D02*
X1129677Y440000D01*
X-699725Y913840D02*
X-407894Y1205671D01*
X832655Y-679845D02*
X908575Y-679845D01*
X661215Y904780D02*
X661560Y905125D01*
X715000Y-865000D02*
X710125Y-860125D01*
X964845Y673576D02*
X964845Y645155D01*
X976599Y-510125D02*
X1144875Y-510125D01*
X-605000Y-1006435D02*
X-605000Y-932500D01*
X938575Y699845D02*
X964845Y673576D01*
X964845Y645155D02*
X1129677Y480323D01*
X-407894Y1205671D02*
X-88171Y1205671D01*
X934845Y-653576D02*
X934845Y-551879D01*
X925300Y699845D02*
X938575Y699845D01*
X584868Y904780D02*
X661215Y904780D01*
X661560Y905125D02*
X720020Y905125D01*
X-361424Y-1194845D02*
X-416590Y-1194845D01*
X-914937Y465352D02*
X-699725Y680565D01*
X5005Y-1055285D02*
X-58710Y-1119000D01*
X604339Y-860125D02*
X409179Y-1055285D01*
X715000Y-797500D02*
X832655Y-679845D01*
X1144875Y-510125D02*
X1184720Y-470280D01*
%TO.N,/LED2*%
X-1202500Y7500D02*
X-1148355Y7500D01*
X-1014038Y370425D02*
X-936892Y447572D01*
X-178585Y-1065560D02*
X-143365Y-1100780D01*
X1166940Y-397085D02*
X1166940Y-462915D01*
X-295560Y-1065560D02*
X-178585Y-1065560D01*
X852355Y-635000D02*
X890000Y-635000D01*
X-681945Y673200D02*
X-681945Y906475D01*
X-1148355Y7500D02*
X-1014038Y141817D01*
X-370000Y1160000D02*
X-370000Y1160826D01*
X920000Y655000D02*
X920000Y455434D01*
X-907572Y447572D02*
X-681945Y673200D01*
X1137510Y-492345D02*
X969234Y-492345D01*
X596974Y-842345D02*
X645010Y-842345D01*
X668580Y887000D02*
X577503Y887000D01*
X1055285Y-285430D02*
X1166940Y-397085D01*
X890000Y-571580D02*
X890000Y-635000D01*
X-143365Y-1100780D02*
X-65635Y-1100780D01*
X-1014038Y141817D02*
X-1014038Y370425D01*
X-490640Y1097780D02*
X-432220Y1097780D01*
X-306954Y1097780D02*
X-370000Y1160826D01*
X-65635Y-1100780D02*
X-2360Y-1037505D01*
X920000Y680000D02*
X712655Y887345D01*
X920000Y455434D02*
X1055285Y320149D01*
X-432220Y1097780D02*
X-370000Y1160000D01*
X401814Y-1037505D02*
X596974Y-842345D01*
X-380000Y-1150000D02*
X-295560Y-1065560D01*
X1166940Y-462915D02*
X1137510Y-492345D01*
X-681945Y906475D02*
X-490640Y1097780D01*
X645010Y-842345D02*
X852355Y-635000D01*
X969234Y-492345D02*
X890000Y-571580D01*
X712655Y887345D02*
X668925Y887345D01*
X920000Y655000D02*
X920000Y680000D01*
X-936892Y447572D02*
X-907572Y447572D01*
X366723Y1097780D02*
X-306954Y1097780D01*
X1055285Y320149D02*
X1055285Y-285430D01*
X668925Y887345D02*
X668580Y887000D01*
X577503Y887000D02*
X366723Y1097780D01*
X-2360Y-1037505D02*
X401814Y-1037505D01*
%TO.N,/LED3*%
X1037505Y-350000D02*
X1037505Y312784D01*
X-940000Y315145D02*
X-996258Y258886D01*
X841952Y508338D02*
X841952Y687048D01*
X570139Y869220D02*
X359358Y1080000D01*
X359358Y1080000D02*
X-457500Y1080000D01*
X-961945Y362626D02*
X-940000Y340681D01*
X-940000Y340681D02*
X-940000Y315145D01*
X-664165Y860835D02*
X-664165Y665835D01*
X841952Y687048D02*
X687500Y841500D01*
X-1141280Y-10280D02*
X-1188220Y-57220D01*
X-1188220Y-271780D02*
X-1160000Y-300000D01*
X-457500Y1080000D02*
X-595000Y942500D01*
X660780Y869220D02*
X570139Y869220D01*
X-961945Y397374D02*
X-961945Y362626D01*
X-996258Y258886D02*
X-996258Y134452D01*
X-664165Y665835D02*
X-908055Y421945D01*
X1110000Y-447500D02*
X1110000Y-422495D01*
X1037505Y312784D02*
X841952Y508338D01*
X-996258Y134452D02*
X-1140990Y-10280D01*
X-937374Y421945D02*
X-961945Y397374D01*
X687500Y842500D02*
X660780Y869220D01*
X-595000Y942500D02*
X-595000Y930000D01*
X-908055Y421945D02*
X-937374Y421945D01*
X687500Y841500D02*
X687500Y842500D01*
X-595000Y930000D02*
X-664165Y860835D01*
X1110000Y-422495D02*
X1037505Y-350000D01*
X-1188220Y-57220D02*
X-1188220Y-271780D01*
X-1140990Y-10280D02*
X-1141280Y-10280D01*
%TO.N,/LED4*%
X759845Y-883575D02*
X759845Y-777800D01*
X422293Y1092500D02*
X512500Y1092500D01*
X416544Y-1073065D02*
X611704Y-877905D01*
X1202500Y-477645D02*
X1202500Y-382355D01*
X1090845Y376024D02*
X1110539Y395717D01*
X952625Y-559244D02*
X983964Y-527905D01*
X-816210Y822500D02*
X-415259Y1223451D01*
X1110539Y395717D02*
X1111101Y395155D01*
X1185000Y-152500D02*
X1090845Y-58345D01*
X932665Y717625D02*
X727385Y922905D01*
X-278215Y-1136780D02*
X-51346Y-1136780D01*
X1090845Y-270700D02*
X1090845Y-246655D01*
X696425Y-909845D02*
X733575Y-909845D01*
X512500Y1002293D02*
X512500Y1092500D01*
X381453Y1133340D02*
X422293Y1092500D01*
X727385Y922905D02*
X591888Y922905D01*
X664485Y-877905D02*
X696425Y-909845D01*
X-870000Y822500D02*
X-816210Y822500D01*
X952625Y-660940D02*
X952625Y-559244D01*
X-102469Y1223451D02*
X-91075Y1234845D01*
X1174522Y421424D02*
X1174522Y460623D01*
X1111101Y395155D02*
X1148252Y395155D01*
X-354060Y-1212625D02*
X-278215Y-1136780D01*
X-1054143Y-582436D02*
X-423954Y-1212625D01*
X611704Y-877905D02*
X664485Y-877905D01*
X982625Y652520D02*
X982625Y680940D01*
X840020Y-697625D02*
X915940Y-697625D01*
X982625Y680940D02*
X945940Y717625D01*
X-423954Y-1212625D02*
X-354060Y-1212625D01*
X1202500Y-382355D02*
X1090845Y-270700D01*
X733575Y-909845D02*
X759845Y-883575D01*
X-415259Y1223451D02*
X-102469Y1223451D01*
X-1054143Y-580000D02*
X-1054143Y-582436D01*
X430000Y-1059609D02*
X430000Y-1240000D01*
X1148252Y395155D02*
X1174522Y421424D01*
X47580Y1133340D02*
X381453Y1133340D01*
X759845Y-777800D02*
X840020Y-697625D01*
X1152240Y-527905D02*
X1202500Y-477645D01*
X945940Y717625D02*
X932665Y717625D01*
X-91075Y1234845D02*
X-53924Y1234845D01*
X1090845Y-246655D02*
X1185000Y-152500D01*
X-53924Y1234845D02*
X47580Y1133340D01*
X591888Y922905D02*
X512500Y1002293D01*
X12369Y-1073065D02*
X416544Y-1073065D01*
X1174522Y460623D02*
X982625Y652520D01*
X1090845Y-58345D02*
X1090845Y376024D01*
X-51346Y-1136780D02*
X12369Y-1073065D01*
X983964Y-527905D02*
X1152240Y-527905D01*
X915940Y-697625D02*
X952625Y-660940D01*
%TO.N,/LED5*%
X-1247345Y-11075D02*
X-1247345Y26075D01*
X-375145Y-1030000D02*
X-543080Y-862065D01*
X-1098988Y-554012D02*
X-1099000Y-554000D01*
X-1072719Y-624845D02*
X-1098988Y-598576D01*
X-796510Y867345D02*
X-888575Y867345D01*
X-46560Y1252625D02*
X-98440Y1252625D01*
X-98440Y1252625D02*
X-109834Y1241231D01*
X-22935Y1229000D02*
X-46560Y1252625D01*
X-1099000Y-546000D02*
X-1206000Y-439000D01*
X-1099000Y-554000D02*
X-1099000Y-546000D01*
X-875000Y-788145D02*
X-1038300Y-624845D01*
X-875000Y-825000D02*
X-875000Y-788145D01*
X-1128655Y52345D02*
X-1107845Y73155D01*
X-667935Y-862065D02*
X-695000Y-835000D01*
X-422624Y1241231D02*
X-796510Y867345D01*
X-1098988Y-598576D02*
X-1098988Y-554012D01*
X-1107845Y326909D02*
X-960000Y474753D01*
X-1221076Y52345D02*
X-1128655Y52345D01*
X-1206000Y-439000D02*
X-1206000Y-52420D01*
X-109834Y1241231D02*
X-422624Y1241231D01*
X-543080Y-862065D02*
X-667935Y-862065D01*
X231500Y1229000D02*
X-22935Y1229000D01*
X-960000Y474753D02*
X-960000Y685000D01*
X232500Y1230000D02*
X231500Y1229000D01*
X-1247345Y26075D02*
X-1221076Y52345D01*
X-1206000Y-52420D02*
X-1247345Y-11075D01*
X-888575Y867345D02*
X-915000Y840920D01*
X-915000Y840920D02*
X-915000Y730000D01*
X-1038300Y-624845D02*
X-1072719Y-624845D01*
X-915000Y730000D02*
X-960000Y685000D01*
X-117500Y-1030000D02*
X-375145Y-1030000D01*
X-1107845Y73155D02*
X-1107845Y326909D01*
%TO.N,Net-(D21-A)*%
X-434155Y-1284845D02*
X482155Y-1284845D01*
X482155Y-1284845D02*
X559000Y-1208000D01*
X-501000Y-1218000D02*
X-434155Y-1284845D01*
%TD*%
M02*
