%TF.GenerationSoftware,KiCad,Pcbnew,7.0.9*%
%TF.CreationDate,2023-11-22T13:55:20-05:00*%
%TF.ProjectId,watch,77617463-682e-46b6-9963-61645f706362,rev?*%
%TF.SameCoordinates,Original*%
%TF.FileFunction,Copper,L1,Top*%
%TF.FilePolarity,Positive*%
%FSLAX45Y45*%
G04 Gerber Fmt 4.5, Leading zero omitted, Abs format (unit mm)*
G04 Created by KiCad (PCBNEW 7.0.9) date 2023-11-22 13:55:20*
%MOMM*%
%LPD*%
G01*
G04 APERTURE LIST*
G04 Aperture macros list*
%AMRoundRect*
0 Rectangle with rounded corners*
0 $1 Rounding radius*
0 $2 $3 $4 $5 $6 $7 $8 $9 X,Y pos of 4 corners*
0 Add a 4 corners polygon primitive as box body*
4,1,4,$2,$3,$4,$5,$6,$7,$8,$9,$2,$3,0*
0 Add four circle primitives for the rounded corners*
1,1,$1+$1,$2,$3*
1,1,$1+$1,$4,$5*
1,1,$1+$1,$6,$7*
1,1,$1+$1,$8,$9*
0 Add four rect primitives between the rounded corners*
20,1,$1+$1,$2,$3,$4,$5,0*
20,1,$1+$1,$4,$5,$6,$7,0*
20,1,$1+$1,$6,$7,$8,$9,0*
20,1,$1+$1,$8,$9,$2,$3,0*%
%AMRotRect*
0 Rectangle, with rotation*
0 The origin of the aperture is its center*
0 $1 length*
0 $2 width*
0 $3 Rotation angle, in degrees counterclockwise*
0 Add horizontal line*
21,1,$1,$2,0,0,$3*%
%AMFreePoly0*
4,1,6,0.230000,0.054289,0.020711,-0.155000,-0.230000,-0.155000,-0.230000,0.155000,0.230000,0.155000,0.230000,0.054289,0.230000,0.054289,$1*%
%AMFreePoly1*
4,1,6,0.230000,-0.054289,0.230000,-0.155000,-0.230000,-0.155000,-0.230000,0.155000,0.020711,0.155000,0.230000,-0.054289,0.230000,-0.054289,$1*%
%AMFreePoly2*
4,1,6,0.230000,-0.155000,-0.230000,-0.155000,-0.230000,-0.054289,-0.020711,0.155000,0.230000,0.155000,0.230000,-0.155000,0.230000,-0.155000,$1*%
%AMFreePoly3*
4,1,6,0.230000,-0.155000,-0.020711,-0.155000,-0.230000,0.054289,-0.230000,0.155000,0.230000,0.155000,0.230000,-0.155000,0.230000,-0.155000,$1*%
G04 Aperture macros list end*
%TA.AperFunction,SMDPad,CuDef*%
%ADD10RoundRect,0.147500X-0.226254X0.017937X-0.052857X-0.220723X0.226254X-0.017937X0.052857X0.220723X0*%
%TD*%
%TA.AperFunction,SMDPad,CuDef*%
%ADD11RoundRect,0.147500X-0.032108X-0.224681X0.216968X-0.066612X0.032108X0.224681X-0.216968X0.066612X0*%
%TD*%
%TA.AperFunction,SMDPad,CuDef*%
%ADD12RoundRect,0.147500X-0.060015X-0.218885X0.206909X-0.093280X0.060015X0.218885X-0.206909X0.093280X0*%
%TD*%
%TA.AperFunction,SMDPad,CuDef*%
%ADD13RoundRect,0.147500X-0.136378X-0.181421X0.158040X-0.162898X0.136378X0.181421X-0.158040X0.162898X0*%
%TD*%
%TA.AperFunction,SMDPad,CuDef*%
%ADD14RoundRect,0.147500X-0.172500X0.147500X-0.172500X-0.147500X0.172500X-0.147500X0.172500X0.147500X0*%
%TD*%
%TA.AperFunction,SMDPad,CuDef*%
%ADD15RoundRect,0.135000X0.071224X0.217663X-0.185561X0.134228X-0.071224X-0.217663X0.185561X-0.134228X0*%
%TD*%
%TA.AperFunction,SMDPad,CuDef*%
%ADD16RoundRect,0.062500X0.062500X-0.375000X0.062500X0.375000X-0.062500X0.375000X-0.062500X-0.375000X0*%
%TD*%
%TA.AperFunction,SMDPad,CuDef*%
%ADD17RoundRect,0.062500X0.375000X-0.062500X0.375000X0.062500X-0.375000X0.062500X-0.375000X-0.062500X0*%
%TD*%
%TA.AperFunction,SMDPad,CuDef*%
%ADD18R,3.500000X3.500000*%
%TD*%
%TA.AperFunction,SMDPad,CuDef*%
%ADD19RoundRect,0.135000X-0.185561X-0.134228X0.071224X-0.217663X0.185561X0.134228X-0.071224X0.217663X0*%
%TD*%
%TA.AperFunction,SMDPad,CuDef*%
%ADD20RoundRect,0.147500X-0.097828X-0.204798X0.187120X-0.128446X0.097828X0.204798X-0.187120X0.128446X0*%
%TD*%
%TA.AperFunction,SMDPad,CuDef*%
%ADD21RoundRect,0.147500X0.130399X-0.185765X0.203762X0.099967X-0.130399X0.185765X-0.203762X-0.099967X0*%
%TD*%
%TA.AperFunction,SMDPad,CuDef*%
%ADD22RoundRect,0.147500X-0.106088X0.200644X-0.214685X-0.073641X0.106088X-0.200644X0.214685X0.073641X0*%
%TD*%
%TA.AperFunction,SMDPad,CuDef*%
%ADD23RoundRect,0.147500X0.136378X0.181421X-0.158040X0.162898X-0.136378X-0.181421X0.158040X-0.162898X0*%
%TD*%
%TA.AperFunction,SMDPad,CuDef*%
%ADD24RoundRect,0.147500X0.041489X0.223139X-0.213989X0.075639X-0.041489X-0.223139X0.213989X-0.075639X0*%
%TD*%
%TA.AperFunction,SMDPad,CuDef*%
%ADD25RoundRect,0.147500X0.203762X-0.099967X0.130399X0.185765X-0.203762X0.099967X-0.130399X-0.185765X0*%
%TD*%
%TA.AperFunction,SMDPad,CuDef*%
%ADD26RoundRect,0.147500X0.193586X0.118477X-0.086975X0.209637X-0.193586X-0.118477X0.086975X-0.209637X0*%
%TD*%
%TA.AperFunction,SMDPad,CuDef*%
%ADD27RoundRect,0.147500X-0.080104X0.212358X-0.222222X-0.046153X0.080104X-0.212358X0.222222X0.046153X0*%
%TD*%
%TA.AperFunction,SMDPad,CuDef*%
%ADD28RoundRect,0.147500X-0.086975X-0.209637X0.193586X-0.118477X0.086975X0.209637X-0.193586X0.118477X0*%
%TD*%
%TA.AperFunction,ComponentPad*%
%ADD29C,1.400000*%
%TD*%
%TA.AperFunction,SMDPad,CuDef*%
%ADD30RoundRect,0.147500X0.172500X-0.147500X0.172500X0.147500X-0.172500X0.147500X-0.172500X-0.147500X0*%
%TD*%
%TA.AperFunction,SMDPad,CuDef*%
%ADD31RoundRect,0.147500X0.158040X0.162898X-0.136378X0.181421X-0.158040X-0.162898X0.136378X-0.181421X0*%
%TD*%
%TA.AperFunction,SMDPad,CuDef*%
%ADD32RoundRect,0.135000X0.035355X-0.226274X0.226274X-0.035355X-0.035355X0.226274X-0.226274X0.035355X0*%
%TD*%
%TA.AperFunction,SMDPad,CuDef*%
%ADD33RoundRect,0.147500X0.152653X-0.167957X0.189626X0.124717X-0.152653X0.167957X-0.189626X-0.124717X0*%
%TD*%
%TA.AperFunction,SMDPad,CuDef*%
%ADD34RoundRect,0.147500X-0.226718X-0.010562X-0.024776X-0.225607X0.226718X0.010562X0.024776X0.225607X0*%
%TD*%
%TA.AperFunction,SMDPad,CuDef*%
%ADD35RoundRect,0.140000X0.140000X0.170000X-0.140000X0.170000X-0.140000X-0.170000X0.140000X-0.170000X0*%
%TD*%
%TA.AperFunction,SMDPad,CuDef*%
%ADD36RoundRect,0.147500X-0.041489X-0.223139X0.213989X-0.075639X0.041489X0.223139X-0.213989X0.075639X0*%
%TD*%
%TA.AperFunction,SMDPad,CuDef*%
%ADD37RoundRect,0.147500X0.177211X0.141806X-0.112564X0.197083X-0.177211X-0.141806X0.112564X-0.197083X0*%
%TD*%
%TA.AperFunction,SMDPad,CuDef*%
%ADD38RoundRect,0.147500X0.112564X0.197083X-0.177211X0.141806X-0.112564X-0.197083X0.177211X-0.141806X0*%
%TD*%
%TA.AperFunction,SMDPad,CuDef*%
%ADD39RoundRect,0.147500X0.003695X0.226934X-0.223606X0.038893X-0.003695X-0.226934X0.223606X-0.038893X0*%
%TD*%
%TA.AperFunction,SMDPad,CuDef*%
%ADD40RoundRect,0.147500X-0.189626X0.124717X-0.152653X-0.167957X0.189626X-0.124717X0.152653X0.167957X0*%
%TD*%
%TA.AperFunction,SMDPad,CuDef*%
%ADD41RoundRect,0.147500X0.223139X-0.041489X0.075639X0.213989X-0.223139X0.041489X-0.075639X-0.213989X0*%
%TD*%
%TA.AperFunction,SMDPad,CuDef*%
%ADD42RoundRect,0.147500X0.222222X-0.046153X0.080104X0.212358X-0.222222X0.046153X-0.080104X-0.212358X0*%
%TD*%
%TA.AperFunction,SMDPad,CuDef*%
%ADD43RoundRect,0.147500X0.032108X0.224681X-0.216968X0.066612X-0.032108X-0.224681X0.216968X-0.066612X0*%
%TD*%
%TA.AperFunction,SMDPad,CuDef*%
%ADD44RoundRect,0.147500X-0.147500X-0.172500X0.147500X-0.172500X0.147500X0.172500X-0.147500X0.172500X0*%
%TD*%
%TA.AperFunction,SMDPad,CuDef*%
%ADD45FreePoly0,270.000000*%
%TD*%
%TA.AperFunction,SMDPad,CuDef*%
%ADD46FreePoly1,270.000000*%
%TD*%
%TA.AperFunction,SMDPad,CuDef*%
%ADD47FreePoly2,270.000000*%
%TD*%
%TA.AperFunction,SMDPad,CuDef*%
%ADD48FreePoly3,270.000000*%
%TD*%
%TA.AperFunction,SMDPad,CuDef*%
%ADD49RotRect,0.580000X0.580000X315.000000*%
%TD*%
%TA.AperFunction,SMDPad,CuDef*%
%ADD50RoundRect,0.147500X-0.112564X-0.197083X0.177211X-0.141806X0.112564X0.197083X-0.177211X0.141806X0*%
%TD*%
%TA.AperFunction,SMDPad,CuDef*%
%ADD51RoundRect,0.147500X0.204798X-0.097828X0.128446X0.187120X-0.204798X0.097828X-0.128446X-0.187120X0*%
%TD*%
%TA.AperFunction,SMDPad,CuDef*%
%ADD52RoundRect,0.147500X-0.003695X-0.226934X0.223606X-0.038893X0.003695X0.226934X-0.223606X0.038893X0*%
%TD*%
%TA.AperFunction,SMDPad,CuDef*%
%ADD53RoundRect,0.147500X-0.223606X-0.038893X0.003695X-0.226934X0.223606X0.038893X-0.003695X0.226934X0*%
%TD*%
%TA.AperFunction,SMDPad,CuDef*%
%ADD54RoundRect,0.147500X-0.204798X0.097828X-0.128446X-0.187120X0.204798X-0.097828X0.128446X0.187120X0*%
%TD*%
%TA.AperFunction,SMDPad,CuDef*%
%ADD55RoundRect,0.147500X0.187120X0.128446X-0.097828X0.204798X-0.187120X-0.128446X0.097828X-0.204798X0*%
%TD*%
%TA.AperFunction,SMDPad,CuDef*%
%ADD56RoundRect,0.147500X0.097828X0.204798X-0.187120X0.128446X-0.097828X-0.204798X0.187120X-0.128446X0*%
%TD*%
%TA.AperFunction,SMDPad,CuDef*%
%ADD57RoundRect,0.147500X-0.177211X-0.141806X0.112564X-0.197083X0.177211X0.141806X-0.112564X0.197083X0*%
%TD*%
%TA.AperFunction,SMDPad,CuDef*%
%ADD58RoundRect,0.147500X-0.226274X-0.017678X-0.017678X-0.226274X0.226274X0.017678X0.017678X0.226274X0*%
%TD*%
%TA.AperFunction,SMDPad,CuDef*%
%ADD59RoundRect,0.147500X0.223606X0.038893X-0.003695X0.226934X-0.223606X-0.038893X0.003695X-0.226934X0*%
%TD*%
%TA.AperFunction,SMDPad,CuDef*%
%ADD60RoundRect,0.147500X0.052857X-0.220723X0.226254X0.017937X-0.052857X0.220723X-0.226254X-0.017937X0*%
%TD*%
%TA.AperFunction,SMDPad,CuDef*%
%ADD61RoundRect,0.147500X-0.052857X0.220723X-0.226254X-0.017937X0.052857X-0.220723X0.226254X0.017937X0*%
%TD*%
%TA.AperFunction,SMDPad,CuDef*%
%ADD62RoundRect,0.147500X-0.075639X0.213989X-0.223139X-0.041489X0.075639X-0.213989X0.223139X0.041489X0*%
%TD*%
%TA.AperFunction,SMDPad,CuDef*%
%ADD63RoundRect,0.147500X0.213989X0.075639X-0.041489X0.223139X-0.213989X-0.075639X0.041489X-0.223139X0*%
%TD*%
%TA.AperFunction,SMDPad,CuDef*%
%ADD64RoundRect,0.147500X0.214685X-0.073641X0.106088X0.200644X-0.214685X0.073641X-0.106088X-0.200644X0*%
%TD*%
%TA.AperFunction,SMDPad,CuDef*%
%ADD65RoundRect,0.147500X0.017678X-0.226274X0.226274X-0.017678X-0.017678X0.226274X-0.226274X0.017678X0*%
%TD*%
%TA.AperFunction,SMDPad,CuDef*%
%ADD66RoundRect,0.147500X-0.213989X-0.075639X0.041489X-0.223139X0.213989X0.075639X-0.041489X0.223139X0*%
%TD*%
%TA.AperFunction,SMDPad,CuDef*%
%ADD67RoundRect,0.147500X-0.024776X0.225607X-0.226718X0.010562X0.024776X-0.225607X0.226718X-0.010562X0*%
%TD*%
%TA.AperFunction,SMDPad,CuDef*%
%ADD68RoundRect,0.135000X-0.135000X-0.185000X0.135000X-0.185000X0.135000X0.185000X-0.135000X0.185000X0*%
%TD*%
%TA.AperFunction,SMDPad,CuDef*%
%ADD69RoundRect,0.147500X-0.017678X0.226274X-0.226274X0.017678X0.017678X-0.226274X0.226274X-0.017678X0*%
%TD*%
%TA.AperFunction,SMDPad,CuDef*%
%ADD70RoundRect,0.147500X0.080104X-0.212358X0.222222X0.046153X-0.080104X0.212358X-0.222222X-0.046153X0*%
%TD*%
%TA.AperFunction,SMDPad,CuDef*%
%ADD71RoundRect,0.135000X0.070317X-0.217958X0.229019X0.000477X-0.070317X0.217958X-0.229019X-0.000477X0*%
%TD*%
%TA.AperFunction,SMDPad,CuDef*%
%ADD72RoundRect,0.147500X0.060015X0.218885X-0.206909X0.093280X-0.060015X-0.218885X0.206909X-0.093280X0*%
%TD*%
%TA.AperFunction,SMDPad,CuDef*%
%ADD73RoundRect,0.147500X-0.222222X0.046153X-0.080104X-0.212358X0.222222X-0.046153X0.080104X0.212358X0*%
%TD*%
%TA.AperFunction,SMDPad,CuDef*%
%ADD74RoundRect,0.147500X0.226274X0.017678X0.017678X0.226274X-0.226274X-0.017678X-0.017678X-0.226274X0*%
%TD*%
%TA.AperFunction,SMDPad,CuDef*%
%ADD75RoundRect,0.147500X-0.214685X0.073641X-0.106088X-0.200644X0.214685X-0.073641X0.106088X0.200644X0*%
%TD*%
%TA.AperFunction,SMDPad,CuDef*%
%ADD76RoundRect,0.147500X-0.193586X-0.118477X0.086975X-0.209637X0.193586X0.118477X-0.086975X0.209637X0*%
%TD*%
%TA.AperFunction,SMDPad,CuDef*%
%ADD77RoundRect,0.147500X-0.128446X0.187120X-0.204798X-0.097828X0.128446X-0.187120X0.204798X0.097828X0*%
%TD*%
%TA.AperFunction,SMDPad,CuDef*%
%ADD78RoundRect,0.147500X-0.216968X-0.066612X0.032108X-0.224681X0.216968X0.066612X-0.032108X0.224681X0*%
%TD*%
%TA.AperFunction,SMDPad,CuDef*%
%ADD79RoundRect,0.147500X-0.158040X-0.162898X0.136378X-0.181421X0.158040X0.162898X-0.136378X0.181421X0*%
%TD*%
%TA.AperFunction,SMDPad,CuDef*%
%ADD80RoundRect,0.135000X0.229019X-0.000477X0.070317X0.217958X-0.229019X0.000477X-0.070317X-0.217958X0*%
%TD*%
%TA.AperFunction,SMDPad,CuDef*%
%ADD81RoundRect,0.147500X0.086975X0.209637X-0.193586X0.118477X-0.086975X-0.209637X0.193586X-0.118477X0*%
%TD*%
%TA.AperFunction,SMDPad,CuDef*%
%ADD82RoundRect,0.147500X-0.152653X0.167957X-0.189626X-0.124717X0.152653X-0.167957X0.189626X0.124717X0*%
%TD*%
%TA.AperFunction,SMDPad,CuDef*%
%ADD83RoundRect,0.147500X0.206909X0.093280X-0.060015X0.218885X-0.206909X-0.093280X0.060015X-0.218885X0*%
%TD*%
%TA.AperFunction,SMDPad,CuDef*%
%ADD84RoundRect,0.147500X-0.203762X0.099967X-0.130399X-0.185765X0.203762X-0.099967X0.130399X0.185765X0*%
%TD*%
%TA.AperFunction,SMDPad,CuDef*%
%ADD85RoundRect,0.147500X0.147500X0.172500X-0.147500X0.172500X-0.147500X-0.172500X0.147500X-0.172500X0*%
%TD*%
%TA.AperFunction,SMDPad,CuDef*%
%ADD86RoundRect,0.147500X0.216968X0.066612X-0.032108X0.224681X-0.216968X-0.066612X0.032108X-0.224681X0*%
%TD*%
%TA.AperFunction,SMDPad,CuDef*%
%ADD87RoundRect,0.135000X-0.185000X0.135000X-0.185000X-0.135000X0.185000X-0.135000X0.185000X0.135000X0*%
%TD*%
%TA.AperFunction,SMDPad,CuDef*%
%ADD88RoundRect,0.147500X0.075639X-0.213989X0.223139X0.041489X-0.075639X0.213989X-0.223139X-0.041489X0*%
%TD*%
%TA.AperFunction,SMDPad,CuDef*%
%ADD89RoundRect,0.147500X-0.130399X0.185765X-0.203762X-0.099967X0.130399X-0.185765X0.203762X0.099967X0*%
%TD*%
%TA.AperFunction,SMDPad,CuDef*%
%ADD90RoundRect,0.147500X0.226718X0.010562X0.024776X0.225607X-0.226718X-0.010562X-0.024776X-0.225607X0*%
%TD*%
%TA.AperFunction,SMDPad,CuDef*%
%ADD91RoundRect,0.147500X0.226254X-0.017937X0.052857X0.220723X-0.226254X0.017937X-0.052857X-0.220723X0*%
%TD*%
%TA.AperFunction,SMDPad,CuDef*%
%ADD92RoundRect,0.147500X-0.223139X0.041489X-0.075639X-0.213989X0.223139X-0.041489X0.075639X0.213989X0*%
%TD*%
%TA.AperFunction,SMDPad,CuDef*%
%ADD93RoundRect,0.147500X0.106088X-0.200644X0.214685X0.073641X-0.106088X0.200644X-0.214685X-0.073641X0*%
%TD*%
%TA.AperFunction,SMDPad,CuDef*%
%ADD94RoundRect,0.147500X-0.187120X-0.128446X0.097828X-0.204798X0.187120X0.128446X-0.097828X0.204798X0*%
%TD*%
%TA.AperFunction,SMDPad,CuDef*%
%ADD95RoundRect,0.147500X0.128446X-0.187120X0.204798X0.097828X-0.128446X0.187120X-0.204798X-0.097828X0*%
%TD*%
%TA.AperFunction,SMDPad,CuDef*%
%ADD96RoundRect,0.147500X0.024776X-0.225607X0.226718X-0.010562X-0.024776X0.225607X-0.226718X0.010562X0*%
%TD*%
%TA.AperFunction,SMDPad,CuDef*%
%ADD97RoundRect,0.147500X0.189626X-0.124717X0.152653X0.167957X-0.189626X0.124717X-0.152653X-0.167957X0*%
%TD*%
%TA.AperFunction,SMDPad,CuDef*%
%ADD98RoundRect,0.147500X-0.206909X-0.093280X0.060015X-0.218885X0.206909X0.093280X-0.060015X0.218885X0*%
%TD*%
%TA.AperFunction,ViaPad*%
%ADD99C,0.450000*%
%TD*%
%TA.AperFunction,Conductor*%
%ADD100C,0.088900*%
%TD*%
%TA.AperFunction,Conductor*%
%ADD101C,0.200000*%
%TD*%
%TA.AperFunction,Conductor*%
%ADD102C,0.381000*%
%TD*%
G04 APERTURE END LIST*
D10*
%TO.P,D31,1,K*%
%TO.N,/LED1*%
X676835Y-931583D03*
%TO.P,D31,2,A*%
%TO.N,Net-(D31-A)*%
X733850Y-1010058D03*
%TD*%
D11*
%TO.P,D43,1,K*%
%TO.N,/LED2*%
X972244Y617005D03*
%TO.P,D43,2,A*%
%TO.N,Net-(D41-A)*%
X1054143Y668980D03*
%TD*%
D12*
%TO.P,D42,1,K*%
%TO.N,Net-(D41-A)*%
X1041908Y490285D03*
%TO.P,D42,2,A*%
%TO.N,/LED1*%
X1129677Y531585D03*
%TD*%
D13*
%TO.P,D39,1,K*%
%TO.N,/LED5*%
X1149228Y72303D03*
%TO.P,D39,2,A*%
%TO.N,Net-(D31-A)*%
X1246036Y78394D03*
%TD*%
D14*
%TO.P,D26,1,K*%
%TO.N,Net-(D21-A)*%
X0Y-1151500D03*
%TO.P,D26,2,A*%
%TO.N,/LED3*%
X0Y-1248500D03*
%TD*%
D15*
%TO.P,R5,1*%
%TO.N,Net-(D41-A)*%
X856902Y278424D03*
%TO.P,R5,2*%
%TO.N,/LED10*%
X759894Y246904D03*
%TD*%
D16*
%TO.P,U1,1,PB9*%
%TO.N,/LED8*%
X-175000Y-693750D03*
%TO.P,U1,2,PC14*%
%TO.N,/LED15*%
X-125000Y-693750D03*
%TO.P,U1,3,PC15*%
%TO.N,/LED3*%
X-75000Y-693750D03*
%TO.P,U1,4,VDD*%
%TO.N,VDD*%
X-25000Y-693750D03*
%TO.P,U1,5,VSS*%
%TO.N,GND*%
X25000Y-693750D03*
%TO.P,U1,6,PF2*%
%TO.N,unconnected-(U1-PF2-Pad6)*%
X75000Y-693750D03*
%TO.P,U1,7,PA0*%
%TO.N,Net-(U1-PA0)*%
X125000Y-693750D03*
%TO.P,U1,8,PA1*%
%TO.N,/LED9*%
X175000Y-693750D03*
D17*
%TO.P,U1,9,PA2*%
%TO.N,/LED16*%
X243750Y-625000D03*
%TO.P,U1,10,PA3*%
%TO.N,/LED4*%
X243750Y-575000D03*
%TO.P,U1,11,PA4*%
%TO.N,/LED10*%
X243750Y-525000D03*
%TO.P,U1,12,PA5*%
%TO.N,/LED17*%
X243750Y-475000D03*
%TO.P,U1,13,PA6*%
%TO.N,/LED11*%
X243750Y-425000D03*
%TO.P,U1,14,PA7*%
%TO.N,/LED12*%
X243750Y-375000D03*
%TO.P,U1,15,PB0*%
%TO.N,unconnected-(U1-PB0-Pad15)*%
X243750Y-325000D03*
%TO.P,U1,16,PB1*%
%TO.N,unconnected-(U1-PB1-Pad16)*%
X243750Y-275000D03*
D16*
%TO.P,U1,17,PB2*%
%TO.N,unconnected-(U1-PB2-Pad17)*%
X175000Y-206250D03*
%TO.P,U1,18,PA8*%
%TO.N,unconnected-(U1-PA8-Pad18)*%
X125000Y-206250D03*
%TO.P,U1,19,PA9/NC*%
%TO.N,unconnected-(U1-PA9{slash}NC-Pad19)*%
X75000Y-206250D03*
%TO.P,U1,20,PC6*%
%TO.N,unconnected-(U1-PC6-Pad20)*%
X25000Y-206250D03*
%TO.P,U1,21,PA10/NC*%
%TO.N,unconnected-(U1-PA10{slash}NC-Pad21)*%
X-25000Y-206250D03*
%TO.P,U1,22,PA11/PA9*%
%TO.N,unconnected-(U1-PA11{slash}PA9-Pad22)*%
X-75000Y-206250D03*
%TO.P,U1,23,PA12/PA10*%
%TO.N,unconnected-(U1-PA12{slash}PA10-Pad23)*%
X-125000Y-206250D03*
%TO.P,U1,24,PA13*%
%TO.N,Net-(U1-PA13)*%
X-175000Y-206250D03*
D17*
%TO.P,U1,25,PA14*%
%TO.N,Net-(U1-PA14)*%
X-243750Y-275000D03*
%TO.P,U1,26,PA15*%
%TO.N,/LED14*%
X-243750Y-325000D03*
%TO.P,U1,27,PB3*%
%TO.N,/LED13*%
X-243750Y-375000D03*
%TO.P,U1,28,PB4*%
%TO.N,/LED7*%
X-243750Y-425000D03*
%TO.P,U1,29,PB5*%
%TO.N,/LED2*%
X-243750Y-475000D03*
%TO.P,U1,30,PB6*%
%TO.N,/LED6*%
X-243750Y-525000D03*
%TO.P,U1,31,PB7*%
%TO.N,/LED5*%
X-243750Y-575000D03*
%TO.P,U1,32,PB8*%
%TO.N,/LED1*%
X-243750Y-625000D03*
D18*
%TO.P,U1,33,VSS*%
%TO.N,GND*%
X0Y-450000D03*
%TD*%
D19*
%TO.P,R2,1*%
%TO.N,Net-(D11-A)*%
X-856902Y278424D03*
%TO.P,R2,2*%
%TO.N,/LED7*%
X-759894Y246904D03*
%TD*%
D20*
%TO.P,D52,1,K*%
%TO.N,/LED14*%
X-305666Y953373D03*
%TO.P,D52,2,A*%
%TO.N,Net-(D51-K)*%
X-211972Y978478D03*
%TD*%
D21*
%TO.P,D49,1,K*%
%TO.N,/LED5*%
X286366Y1115324D03*
%TO.P,D49,2,A*%
%TO.N,Net-(D41-A)*%
X310489Y1209276D03*
%TD*%
D22*
%TO.P,D23,1,K*%
%TO.N,/LED2*%
X-423895Y-1070638D03*
%TO.P,D23,2,A*%
%TO.N,Net-(D21-A)*%
X-459603Y-1160826D03*
%TD*%
D23*
%TO.P,D14,1,K*%
%TO.N,Net-(D11-A)*%
X-1149228Y-72303D03*
%TO.P,D14,2,A*%
%TO.N,/LED2*%
X-1246036Y-78394D03*
%TD*%
D24*
%TO.P,D65,1,K*%
%TO.N,Net-(D53-K)*%
X542002Y-841775D03*
%TO.P,D65,2,A*%
%TO.N,/LED16*%
X457998Y-890275D03*
%TD*%
D25*
%TO.P,D3,1,K*%
%TO.N,/LED2*%
X-286366Y1115324D03*
%TO.P,D3,2,A*%
%TO.N,Net-(D1-A)*%
X-310489Y1209276D03*
%TD*%
D26*
%TO.P,D11,1,K*%
%TO.N,/LED1*%
X-1095142Y355833D03*
%TO.P,D11,2,A*%
%TO.N,Net-(D11-A)*%
X-1187394Y385808D03*
%TD*%
D27*
%TO.P,D22,1,K*%
%TO.N,Net-(D21-A)*%
X-554739Y-1009067D03*
%TO.P,D22,2,A*%
%TO.N,/LED1*%
X-601470Y-1094069D03*
%TD*%
D28*
%TO.P,D41,1,K*%
%TO.N,/LED1*%
X1095142Y355833D03*
%TO.P,D41,2,A*%
%TO.N,Net-(D41-A)*%
X1187394Y385808D03*
%TD*%
D29*
%TO.P,TP2,1,1*%
%TO.N,GND*%
X750000Y-1230000D03*
%TO.P,TP2,2,2*%
%TO.N,Net-(R13-Pad2)*%
X950000Y-1230000D03*
%TD*%
D30*
%TO.P,D57,1,K*%
%TO.N,Net-(D51-K)*%
X-1000000Y-48500D03*
%TO.P,D57,2,A*%
%TO.N,/LED15*%
X-1000000Y48500D03*
%TD*%
D31*
%TO.P,D13,1,K*%
%TO.N,/LED2*%
X-1149228Y72303D03*
%TO.P,D13,2,A*%
%TO.N,Net-(D11-A)*%
X-1246036Y78394D03*
%TD*%
D32*
%TO.P,R11,1*%
%TO.N,Net-(U1-PA14)*%
X-711062Y538938D03*
%TO.P,R11,2*%
%TO.N,/SWCLK*%
X-638938Y611062D03*
%TD*%
D33*
%TO.P,D50,1,K*%
%TO.N,Net-(D41-A)*%
X144321Y1142420D03*
%TO.P,D50,2,A*%
%TO.N,/LED5*%
X156479Y1238655D03*
%TD*%
D34*
%TO.P,D32,1,K*%
%TO.N,Net-(D31-A)*%
X788256Y-839407D03*
%TO.P,D32,2,A*%
%TO.N,/LED1*%
X854657Y-910117D03*
%TD*%
D35*
%TO.P,C1,1*%
%TO.N,+BATT*%
X650000Y-191000D03*
%TO.P,C1,2*%
%TO.N,GND*%
X554000Y-191000D03*
%TD*%
D36*
%TO.P,D53,1,K*%
%TO.N,Net-(D53-K)*%
X-542002Y841775D03*
%TO.P,D53,2,A*%
%TO.N,/LED14*%
X-457998Y890275D03*
%TD*%
D37*
%TO.P,D12,1,K*%
%TO.N,Net-(D11-A)*%
X-1131104Y215770D03*
%TO.P,D12,2,A*%
%TO.N,/LED1*%
X-1226386Y233946D03*
%TD*%
D38*
%TO.P,D15,1,K*%
%TO.N,/LED3*%
X-1131104Y-215770D03*
%TO.P,D15,2,A*%
%TO.N,Net-(D11-A)*%
X-1226386Y-233946D03*
%TD*%
D39*
%TO.P,D19,1,K*%
%TO.N,/LED5*%
X-887246Y-733994D03*
%TO.P,D19,2,A*%
%TO.N,Net-(D11-A)*%
X-961986Y-795824D03*
%TD*%
D40*
%TO.P,D27,1,K*%
%TO.N,/LED4*%
X144321Y-1142420D03*
%TO.P,D27,2,A*%
%TO.N,Net-(D21-A)*%
X156479Y-1238655D03*
%TD*%
D29*
%TO.P,TP4,1,1*%
%TO.N,GND*%
X829000Y1247000D03*
%TO.P,TP4,2,2*%
%TO.N,VDD*%
X1029000Y1247000D03*
%TD*%
D41*
%TO.P,D59,1,K*%
%TO.N,Net-(D53-K)*%
X-841775Y-542002D03*
%TO.P,D59,2,A*%
%TO.N,/LED15*%
X-890275Y-457998D03*
%TD*%
D42*
%TO.P,D5,1,K*%
%TO.N,/LED3*%
X-554739Y1009067D03*
%TO.P,D5,2,A*%
%TO.N,Net-(D1-A)*%
X-601470Y1094069D03*
%TD*%
D35*
%TO.P,C2,1*%
%TO.N,VDD*%
X650000Y95000D03*
%TO.P,C2,2*%
%TO.N,GND*%
X554000Y95000D03*
%TD*%
D43*
%TO.P,D18,1,K*%
%TO.N,Net-(D11-A)*%
X-972244Y-617005D03*
%TO.P,D18,2,A*%
%TO.N,/LED4*%
X-1054143Y-668980D03*
%TD*%
D44*
%TO.P,R10,1*%
%TO.N,Net-(U1-PA0)*%
X553500Y-390000D03*
%TO.P,R10,2*%
%TO.N,GND*%
X650500Y-390000D03*
%TD*%
D45*
%TO.P,U2,1,V_{out}*%
%TO.N,VDD*%
X634500Y-5000D03*
D46*
%TO.P,U2,2,CASE*%
%TO.N,GND*%
X569500Y-5000D03*
D47*
%TO.P,U2,3,EN*%
%TO.N,+BATT*%
X569500Y-91000D03*
D48*
%TO.P,U2,4,V_{in}*%
X634500Y-91000D03*
D49*
%TO.P,U2,5,GND*%
%TO.N,GND*%
X602000Y-48000D03*
%TD*%
D50*
%TO.P,D40,1,K*%
%TO.N,Net-(D31-A)*%
X1131104Y215770D03*
%TO.P,D40,2,A*%
%TO.N,/LED5*%
X1226386Y233946D03*
%TD*%
D51*
%TO.P,D58,1,K*%
%TO.N,/LED15*%
X-953373Y-305666D03*
%TO.P,D58,2,A*%
%TO.N,Net-(D51-K)*%
X-978478Y-211972D03*
%TD*%
D52*
%TO.P,D44,1,K*%
%TO.N,Net-(D41-A)*%
X887246Y733994D03*
%TO.P,D44,2,A*%
%TO.N,/LED2*%
X961986Y795824D03*
%TD*%
D53*
%TO.P,D33,1,K*%
%TO.N,/LED2*%
X887246Y-733994D03*
%TO.P,D33,2,A*%
%TO.N,Net-(D31-A)*%
X961986Y-795824D03*
%TD*%
D54*
%TO.P,D70,1,K*%
%TO.N,/LED17*%
X953373Y305666D03*
%TO.P,D70,2,A*%
%TO.N,Net-(D51-K)*%
X978478Y211972D03*
%TD*%
D55*
%TO.P,D62,1,K*%
%TO.N,/LED15*%
X-211972Y-978478D03*
%TO.P,D62,2,A*%
%TO.N,Net-(D55-K)*%
X-305666Y-953373D03*
%TD*%
D56*
%TO.P,D64,1,K*%
%TO.N,/LED16*%
X305666Y-953373D03*
%TO.P,D64,2,A*%
%TO.N,Net-(D51-K)*%
X211972Y-978478D03*
%TD*%
D57*
%TO.P,D37,1,K*%
%TO.N,/LED4*%
X1131104Y-215770D03*
%TO.P,D37,2,A*%
%TO.N,Net-(D31-A)*%
X1226386Y-233946D03*
%TD*%
D58*
%TO.P,D72,1,K*%
%TO.N,/LED17*%
X672812Y741401D03*
%TO.P,D72,2,A*%
%TO.N,Net-(D53-K)*%
X741401Y672812D03*
%TD*%
D59*
%TO.P,D8,1,K*%
%TO.N,Net-(D1-A)*%
X-887246Y733994D03*
%TO.P,D8,2,A*%
%TO.N,/LED4*%
X-961986Y795824D03*
%TD*%
D60*
%TO.P,D46,1,K*%
%TO.N,Net-(D41-A)*%
X676835Y931583D03*
%TO.P,D46,2,A*%
%TO.N,/LED3*%
X733850Y1010058D03*
%TD*%
D61*
%TO.P,D21,1,K*%
%TO.N,/LED1*%
X-676835Y-931583D03*
%TO.P,D21,2,A*%
%TO.N,Net-(D21-A)*%
X-733850Y-1010058D03*
%TD*%
D62*
%TO.P,D67,1,K*%
%TO.N,Net-(D55-K)*%
X890275Y-457998D03*
%TO.P,D67,2,A*%
%TO.N,/LED16*%
X841775Y-542002D03*
%TD*%
D63*
%TO.P,D61,1,K*%
%TO.N,Net-(D55-K)*%
X-457998Y-890275D03*
%TO.P,D61,2,A*%
%TO.N,/LED15*%
X-542002Y-841775D03*
%TD*%
D14*
%TO.P,D69,1,K*%
%TO.N,Net-(D51-K)*%
X1000000Y48500D03*
%TO.P,D69,2,A*%
%TO.N,/LED17*%
X1000000Y-48500D03*
%TD*%
D64*
%TO.P,D4,1,K*%
%TO.N,Net-(D1-A)*%
X-423895Y1070638D03*
%TO.P,D4,2,A*%
%TO.N,/LED2*%
X-459603Y1160826D03*
%TD*%
D65*
%TO.P,D54,1,K*%
%TO.N,/LED14*%
X-741401Y672812D03*
%TO.P,D54,2,A*%
%TO.N,Net-(D53-K)*%
X-672812Y741401D03*
%TD*%
D66*
%TO.P,D73,1,K*%
%TO.N,Net-(D55-K)*%
X457998Y890275D03*
%TO.P,D73,2,A*%
%TO.N,/LED17*%
X542002Y841775D03*
%TD*%
D67*
%TO.P,D20,1,K*%
%TO.N,Net-(D11-A)*%
X-788256Y-839407D03*
%TO.P,D20,2,A*%
%TO.N,/LED5*%
X-854657Y-910117D03*
%TD*%
D68*
%TO.P,R6,1*%
%TO.N,/LED11*%
X429000Y640000D03*
%TO.P,R6,2*%
%TO.N,Net-(D51-K)*%
X531000Y640000D03*
%TD*%
D69*
%TO.P,D66,1,K*%
%TO.N,/LED16*%
X741401Y-672812D03*
%TO.P,D66,2,A*%
%TO.N,Net-(D53-K)*%
X672812Y-741401D03*
%TD*%
D70*
%TO.P,D47,1,K*%
%TO.N,/LED4*%
X554739Y1009067D03*
%TO.P,D47,2,A*%
%TO.N,Net-(D41-A)*%
X601470Y1094069D03*
%TD*%
D71*
%TO.P,R3,1*%
%TO.N,Net-(D21-A)*%
X-529595Y-728924D03*
%TO.P,R3,2*%
%TO.N,/LED8*%
X-469640Y-646405D03*
%TD*%
D30*
%TO.P,D1,1,K*%
%TO.N,/LED1*%
X0Y1151500D03*
%TO.P,D1,2,A*%
%TO.N,Net-(D1-A)*%
X0Y1248500D03*
%TD*%
D72*
%TO.P,D17,1,K*%
%TO.N,/LED4*%
X-1041908Y-490285D03*
%TO.P,D17,2,A*%
%TO.N,Net-(D11-A)*%
X-1129677Y-531585D03*
%TD*%
D73*
%TO.P,D30,1,K*%
%TO.N,Net-(D21-A)*%
X554739Y-1009067D03*
%TO.P,D30,2,A*%
%TO.N,/LED5*%
X601470Y-1094069D03*
%TD*%
D74*
%TO.P,D60,1,K*%
%TO.N,/LED15*%
X-672812Y-741401D03*
%TO.P,D60,2,A*%
%TO.N,Net-(D53-K)*%
X-741401Y-672812D03*
%TD*%
D75*
%TO.P,D29,1,K*%
%TO.N,/LED5*%
X423895Y-1070638D03*
%TO.P,D29,2,A*%
%TO.N,Net-(D21-A)*%
X459603Y-1160826D03*
%TD*%
D76*
%TO.P,D36,1,K*%
%TO.N,Net-(D31-A)*%
X1095142Y-355833D03*
%TO.P,D36,2,A*%
%TO.N,/LED3*%
X1187394Y-385808D03*
%TD*%
D29*
%TO.P,TP3,1,1*%
%TO.N,/SWCLK*%
X-1044000Y1251000D03*
%TO.P,TP3,2,2*%
%TO.N,/SWDIO*%
X-844000Y1251000D03*
%TD*%
D77*
%TO.P,D68,1,K*%
%TO.N,/LED16*%
X978478Y-211972D03*
%TO.P,D68,2,A*%
%TO.N,Net-(D55-K)*%
X953373Y-305666D03*
%TD*%
D78*
%TO.P,D34,1,K*%
%TO.N,Net-(D31-A)*%
X972244Y-617005D03*
%TO.P,D34,2,A*%
%TO.N,/LED2*%
X1054143Y-668980D03*
%TD*%
D79*
%TO.P,D38,1,K*%
%TO.N,Net-(D31-A)*%
X1149228Y-72303D03*
%TO.P,D38,2,A*%
%TO.N,/LED4*%
X1246036Y-78394D03*
%TD*%
D80*
%TO.P,R4,1*%
%TO.N,Net-(D31-A)*%
X529595Y-728924D03*
%TO.P,R4,2*%
%TO.N,/LED9*%
X469640Y-646405D03*
%TD*%
D81*
%TO.P,D16,1,K*%
%TO.N,Net-(D11-A)*%
X-1095142Y-355833D03*
%TO.P,D16,2,A*%
%TO.N,/LED3*%
X-1187394Y-385808D03*
%TD*%
D82*
%TO.P,D25,1,K*%
%TO.N,/LED3*%
X-144321Y-1142420D03*
%TO.P,D25,2,A*%
%TO.N,Net-(D21-A)*%
X-156479Y-1238655D03*
%TD*%
D83*
%TO.P,D10,1,K*%
%TO.N,Net-(D1-A)*%
X-1041908Y490285D03*
%TO.P,D10,2,A*%
%TO.N,/LED5*%
X-1129677Y531585D03*
%TD*%
D68*
%TO.P,R7,1*%
%TO.N,/LED12*%
X319000Y740000D03*
%TO.P,R7,2*%
%TO.N,Net-(D53-K)*%
X421000Y740000D03*
%TD*%
D44*
%TO.P,D51,1,K*%
%TO.N,Net-(D51-K)*%
X-48500Y1000000D03*
%TO.P,D51,2,A*%
%TO.N,/LED14*%
X48500Y1000000D03*
%TD*%
D84*
%TO.P,D28,1,K*%
%TO.N,Net-(D21-A)*%
X286366Y-1115324D03*
%TO.P,D28,2,A*%
%TO.N,/LED4*%
X310489Y-1209276D03*
%TD*%
D85*
%TO.P,R9,1*%
%TO.N,+BATT*%
X650500Y-290000D03*
%TO.P,R9,2*%
%TO.N,Net-(U1-PA0)*%
X553500Y-290000D03*
%TD*%
D86*
%TO.P,D9,1,K*%
%TO.N,/LED5*%
X-972244Y617005D03*
%TO.P,D9,2,A*%
%TO.N,Net-(D1-A)*%
X-1054143Y668980D03*
%TD*%
D87*
%TO.P,R1,1*%
%TO.N,Net-(D1-A)*%
X0Y901000D03*
%TO.P,R1,2*%
%TO.N,/LED6*%
X0Y799000D03*
%TD*%
D88*
%TO.P,D55,1,K*%
%TO.N,Net-(D55-K)*%
X-890275Y457998D03*
%TO.P,D55,2,A*%
%TO.N,/LED14*%
X-841775Y542002D03*
%TD*%
D89*
%TO.P,D24,1,K*%
%TO.N,Net-(D21-A)*%
X-286366Y-1115324D03*
%TO.P,D24,2,A*%
%TO.N,/LED2*%
X-310489Y-1209276D03*
%TD*%
D90*
%TO.P,D7,1,K*%
%TO.N,/LED4*%
X-788256Y839407D03*
%TO.P,D7,2,A*%
%TO.N,Net-(D1-A)*%
X-854657Y910117D03*
%TD*%
D91*
%TO.P,D6,1,K*%
%TO.N,Net-(D1-A)*%
X-676835Y931583D03*
%TO.P,D6,2,A*%
%TO.N,/LED3*%
X-733850Y1010058D03*
%TD*%
D68*
%TO.P,R13,1*%
%TO.N,+BATT*%
X498000Y-1300000D03*
%TO.P,R13,2*%
%TO.N,Net-(R13-Pad2)*%
X600000Y-1300000D03*
%TD*%
%TO.P,R8,1*%
%TO.N,/LED13*%
X119000Y740000D03*
%TO.P,R8,2*%
%TO.N,Net-(D55-K)*%
X221000Y740000D03*
%TD*%
D32*
%TO.P,R12,1*%
%TO.N,Net-(U1-PA13)*%
X-536062Y663938D03*
%TO.P,R12,2*%
%TO.N,/SWDIO*%
X-463938Y736062D03*
%TD*%
D85*
%TO.P,D63,1,K*%
%TO.N,Net-(D51-K)*%
X48500Y-1000000D03*
%TO.P,D63,2,A*%
%TO.N,/LED16*%
X-48500Y-1000000D03*
%TD*%
D92*
%TO.P,D71,1,K*%
%TO.N,Net-(D53-K)*%
X841775Y542002D03*
%TO.P,D71,2,A*%
%TO.N,/LED17*%
X890275Y457998D03*
%TD*%
D93*
%TO.P,D48,1,K*%
%TO.N,Net-(D41-A)*%
X423895Y1070638D03*
%TO.P,D48,2,A*%
%TO.N,/LED4*%
X459603Y1160826D03*
%TD*%
D94*
%TO.P,D74,1,K*%
%TO.N,/LED17*%
X211972Y978478D03*
%TO.P,D74,2,A*%
%TO.N,Net-(D55-K)*%
X305666Y953373D03*
%TD*%
D95*
%TO.P,D56,1,K*%
%TO.N,/LED14*%
X-978478Y211972D03*
%TO.P,D56,2,A*%
%TO.N,Net-(D55-K)*%
X-953373Y305666D03*
%TD*%
D96*
%TO.P,D45,1,K*%
%TO.N,/LED3*%
X788256Y839407D03*
%TO.P,D45,2,A*%
%TO.N,Net-(D41-A)*%
X854657Y910117D03*
%TD*%
D97*
%TO.P,D2,1,K*%
%TO.N,Net-(D1-A)*%
X-144321Y1142420D03*
%TO.P,D2,2,A*%
%TO.N,/LED1*%
X-156479Y1238655D03*
%TD*%
D98*
%TO.P,D35,1,K*%
%TO.N,/LED3*%
X1041908Y-490285D03*
%TO.P,D35,2,A*%
%TO.N,Net-(D31-A)*%
X1129677Y-531585D03*
%TD*%
D99*
%TO.N,GND*%
X-690000Y-597500D03*
X-40000Y-867500D03*
X707500Y-525000D03*
X845000Y-212500D03*
%TO.N,/LED9*%
X600000Y-612500D03*
X255000Y-690000D03*
%TO.N,VDD*%
X230000Y-880000D03*
X470000Y800000D03*
%TO.N,GND*%
X362500Y-797500D03*
%TO.N,/LED6*%
X250000Y890000D03*
X-866000Y-303000D03*
%TO.N,/LED10*%
X810000Y365000D03*
X930000Y-80000D03*
%TO.N,Net-(D51-K)*%
X705000Y570000D03*
X-1097000Y-136000D03*
X955000Y130000D03*
X132500Y-955000D03*
X-128478Y978478D03*
%TO.N,Net-(D53-K)*%
X-600000Y785000D03*
X-780000Y-600000D03*
X620000Y-797500D03*
X797107Y617107D03*
%TO.N,Net-(D55-K)*%
X-887500Y370000D03*
X395000Y932500D03*
X-390000Y-930000D03*
X930000Y-390000D03*
%TO.N,/LED15*%
X-625000Y-675000D03*
X-450000Y-740000D03*
%TO.N,/LED1*%
X-605000Y-932500D03*
X-72500Y1190000D03*
X715000Y-865000D03*
X1129677Y440000D03*
X-1063000Y280000D03*
%TO.N,/LED2*%
X920000Y655000D03*
X890000Y-635000D03*
X-380000Y-1150000D03*
X-1202500Y7500D03*
X-370000Y1160826D03*
%TO.N,/LED3*%
X687500Y842500D03*
X-1160000Y-300000D03*
X-595000Y930000D03*
X-821000Y-1012000D03*
X1110000Y-447500D03*
X-402290Y-820000D03*
%TO.N,/LED4*%
X1185000Y-152500D03*
X430000Y-1240000D03*
X512500Y1092500D03*
X-1054143Y-580000D03*
X-870000Y822500D03*
%TO.N,/LED5*%
X-695000Y-835000D03*
X-875000Y-825000D03*
X-117500Y-1030000D03*
X232500Y1230000D03*
X-818000Y-434000D03*
X-960000Y685000D03*
%TO.N,/LED13*%
X-915000Y122000D03*
X110000Y920000D03*
%TO.N,Net-(D21-A)*%
X-501000Y-1218000D03*
X559000Y-1208000D03*
%TO.N,+BATT*%
X715000Y-120000D03*
X-329000Y-852000D03*
X260000Y-1330000D03*
X-230000Y-855000D03*
%TO.N,/SWDIO*%
X-372000Y900000D03*
%TO.N,/SWCLK*%
X-826000Y636000D03*
%TD*%
D100*
%TO.N,/LED5*%
X-887246Y-733994D02*
X-796006Y-733994D01*
X-796006Y-733994D02*
X-695000Y-835000D01*
%TO.N,/LED15*%
X-211972Y-978478D02*
X-243493Y-1010000D01*
X-243493Y-1010000D02*
X-445000Y-1010000D01*
X-536959Y-918041D02*
X-536959Y-846818D01*
X-445000Y-1010000D02*
X-536959Y-918041D01*
X-536959Y-846818D02*
X-542002Y-841775D01*
%TO.N,Net-(D21-A)*%
X-554739Y-1009067D02*
X-554739Y-905261D01*
X-554739Y-905261D02*
X-597500Y-862500D01*
X-597500Y-862500D02*
X-597500Y-796830D01*
X-597500Y-796830D02*
X-529595Y-728924D01*
%TO.N,GND*%
X265000Y-810000D02*
X65145Y-810000D01*
X65145Y-810000D02*
X-1178Y-743678D01*
X-1178Y-743678D02*
X25000Y-717500D01*
X25000Y-717500D02*
X25000Y-693750D01*
%TO.N,Net-(U1-PA0)*%
X125000Y-693750D02*
X125000Y-745000D01*
X125000Y-745000D02*
X172220Y-792220D01*
X172220Y-792220D02*
X245280Y-792220D01*
X245280Y-792220D02*
X360000Y-677500D01*
X360000Y-677500D02*
X360000Y-605342D01*
X360000Y-605342D02*
X553000Y-412342D01*
X553000Y-412342D02*
X553000Y-290000D01*
D101*
%TO.N,+BATT*%
X715000Y-120000D02*
X595000Y-120000D01*
X569500Y-94500D02*
X569500Y-91000D01*
D100*
%TO.N,VDD*%
X650000Y95000D02*
X634500Y79500D01*
X634500Y79500D02*
X634500Y-5000D01*
%TO.N,GND*%
X596335Y-418883D02*
X596335Y-419292D01*
X555152Y-435335D02*
X377780Y-612707D01*
X596335Y-419292D02*
X580292Y-435335D01*
X580292Y-435335D02*
X555152Y-435335D01*
X377780Y-612707D02*
X377780Y-702220D01*
%TO.N,/LED4*%
X1185000Y-152500D02*
X937500Y-152500D01*
X937500Y-152500D02*
X885000Y-100000D01*
X885000Y-100000D02*
X885000Y-20053D01*
X378933Y-536120D02*
X331380Y-536120D01*
X885000Y-20053D02*
X690052Y174895D01*
X690052Y174895D02*
X505270Y174895D01*
X459720Y129344D02*
X459720Y-455333D01*
X505270Y174895D02*
X459720Y129344D01*
X459720Y-455333D02*
X378933Y-536120D01*
X331380Y-536120D02*
X292500Y-575000D01*
X292500Y-575000D02*
X243750Y-575000D01*
%TO.N,/LED10*%
X930000Y-80000D02*
X930000Y-39908D01*
X441940Y-447968D02*
X371567Y-518340D01*
X930000Y-39908D02*
X697417Y192675D01*
X697417Y192675D02*
X497906Y192675D01*
X371567Y-518340D02*
X250410Y-518340D01*
X497906Y192675D02*
X441940Y136709D01*
X441940Y136709D02*
X441940Y-447968D01*
X250410Y-518340D02*
X243750Y-525000D01*
%TO.N,/LED17*%
X243750Y-475000D02*
X292500Y-475000D01*
X292500Y-475000D02*
X318060Y-500560D01*
X318060Y-500560D02*
X364203Y-500560D01*
X364203Y-500560D02*
X424160Y-440603D01*
X424160Y-440603D02*
X424160Y144074D01*
X424160Y144074D02*
X490541Y210455D01*
X490541Y210455D02*
X640000Y210455D01*
%TO.N,/LED11*%
X243750Y-425000D02*
X267645Y-425000D01*
X696765Y281620D02*
X696765Y514815D01*
X696765Y514815D02*
X616914Y594665D01*
X267645Y-425000D02*
X325425Y-482780D01*
X616914Y594665D02*
X474335Y594665D01*
X325425Y-482780D02*
X356838Y-482780D01*
X356838Y-482780D02*
X406380Y-433238D01*
X406380Y-433238D02*
X406380Y151439D01*
X483176Y228235D02*
X643380Y228235D01*
X406380Y151439D02*
X483176Y228235D01*
X643380Y228235D02*
X696765Y281620D01*
X474335Y594665D02*
X429000Y640000D01*
%TO.N,/LED12*%
X678985Y507450D02*
X609550Y576885D01*
X475812Y246015D02*
X636015Y246015D01*
X636015Y246015D02*
X678985Y288985D01*
X388600Y-425873D02*
X388600Y158803D01*
X388600Y158803D02*
X475812Y246015D01*
X349473Y-465000D02*
X388600Y-425873D01*
X319000Y679675D02*
X319000Y740000D01*
X609550Y576885D02*
X421790Y576885D01*
X332790Y-465000D02*
X349473Y-465000D01*
X678985Y288985D02*
X678985Y507450D01*
X300835Y-433045D02*
X332790Y-465000D01*
X300835Y-388335D02*
X300835Y-433045D01*
X287500Y-375000D02*
X300835Y-388335D01*
X243750Y-375000D02*
X287500Y-375000D01*
X421790Y576885D02*
X319000Y679675D01*
%TO.N,/LED9*%
X566096Y-646405D02*
X469640Y-646405D01*
X600000Y-612500D02*
X566096Y-646405D01*
X251250Y-693750D02*
X255000Y-690000D01*
X175000Y-693750D02*
X251250Y-693750D01*
%TO.N,/LED16*%
X978478Y-211972D02*
X971827Y-211972D01*
X971827Y-211972D02*
X867220Y-107365D01*
X477500Y121980D02*
X477500Y-462697D01*
X867220Y-107365D02*
X867220Y-27418D01*
X867220Y-27418D02*
X682687Y157115D01*
X682687Y157115D02*
X512635Y157115D01*
X512635Y157115D02*
X477500Y121980D01*
X477500Y-462697D02*
X315197Y-625000D01*
X315197Y-625000D02*
X243750Y-625000D01*
%TO.N,VDD*%
X634500Y-5000D02*
X666000Y-5000D01*
X772500Y-111500D02*
X772500Y-340127D01*
X666000Y-5000D02*
X772500Y-111500D01*
X772500Y-340127D02*
X659512Y-453115D01*
X659512Y-453115D02*
X562517Y-453115D01*
X562517Y-453115D02*
X395560Y-620072D01*
X395560Y-620072D02*
X395560Y-685342D01*
X440218Y-730000D02*
X440218Y-839203D01*
X395560Y-685342D02*
X440218Y-730000D01*
X440218Y-839203D02*
X400575Y-878845D01*
X400575Y-878845D02*
X302700Y-878845D01*
X302700Y-878845D02*
X251635Y-827780D01*
X251635Y-827780D02*
X140000Y-827780D01*
%TO.N,/LED17*%
X714545Y274255D02*
X714545Y339545D01*
X640000Y210455D02*
X672500Y210455D01*
X1000000Y-48500D02*
X963737Y-48500D01*
X963737Y-48500D02*
X704782Y210455D01*
X704782Y210455D02*
X672500Y210455D01*
%TO.N,/LED8*%
X-175000Y-693750D02*
X-175000Y-733055D01*
X-175000Y-733055D02*
X-382990Y-733055D01*
X-382990Y-733055D02*
X-469640Y-646405D01*
%TO.N,/LED15*%
X-450000Y-740000D02*
X-439165Y-750835D01*
X-439165Y-750835D02*
X-134585Y-750835D01*
X-134585Y-750835D02*
X-125000Y-741250D01*
X-125000Y-741250D02*
X-125000Y-693750D01*
%TO.N,/LED3*%
X-402290Y-820000D02*
X-350905Y-768615D01*
X-350905Y-768615D02*
X-98615Y-768615D01*
X-98615Y-768615D02*
X-75000Y-745000D01*
X-75000Y-745000D02*
X-75000Y-693750D01*
%TO.N,VDD*%
X140000Y-827780D02*
X57780Y-827780D01*
X57780Y-827780D02*
X-25000Y-745000D01*
X-25000Y-745000D02*
X-25000Y-715197D01*
%TO.N,/LED16*%
X741401Y-672812D02*
X512188Y-672812D01*
X512188Y-672812D02*
X457998Y-727002D01*
X457998Y-727002D02*
X457998Y-890275D01*
%TO.N,/LED15*%
X-450000Y-740000D02*
X-450000Y-749773D01*
X-450000Y-749773D02*
X-542002Y-841775D01*
%TO.N,VDD*%
X177780Y-827780D02*
X230000Y-880000D01*
X140000Y-827780D02*
X177780Y-827780D01*
%TO.N,/LED16*%
X457998Y-890275D02*
X457998Y-942002D01*
X457998Y-942002D02*
X420000Y-980000D01*
X420000Y-980000D02*
X305666Y-980000D01*
X305666Y-980000D02*
X305666Y-953373D01*
%TO.N,GND*%
X596335Y-418883D02*
X596335Y-383000D01*
X653000Y-390000D02*
X596335Y-333335D01*
X540665Y10000D02*
X540665Y81665D01*
X569500Y-5000D02*
X540665Y-5000D01*
X554000Y95000D02*
X540665Y81665D01*
X596335Y-333335D02*
X596335Y-233335D01*
X596335Y-233335D02*
X554000Y-191000D01*
X554000Y-191000D02*
X540665Y-177665D01*
X540665Y-5000D02*
X540665Y10000D01*
X596335Y-418883D02*
X596335Y-290000D01*
X602000Y-48000D02*
X602000Y-37500D01*
X602000Y-37500D02*
X569500Y-5000D01*
%TO.N,/LED7*%
X-299000Y-425000D02*
X-243750Y-425000D01*
X-870155Y136644D02*
X-870155Y103424D01*
X-919105Y77155D02*
X-919105Y-51895D01*
X-919105Y-51895D02*
X-919000Y-52000D01*
X-759894Y246904D02*
X-870155Y136644D01*
X-316000Y-442000D02*
X-299000Y-425000D01*
X-329637Y-489440D02*
X-316000Y-475803D01*
X-803375Y-189335D02*
X-803375Y-315335D01*
X-870155Y103424D02*
X-896424Y77155D01*
X-803375Y-315335D02*
X-629270Y-489440D01*
X-919000Y-73710D02*
X-803375Y-189335D01*
X-896424Y77155D02*
X-919105Y77155D01*
X-629270Y-489440D02*
X-329637Y-489440D01*
X-316000Y-475803D02*
X-316000Y-442000D01*
X-919000Y-52000D02*
X-919000Y-73710D01*
%TO.N,/LED6*%
X196010Y785335D02*
X180665Y769990D01*
X140000Y690000D02*
X98675Y690000D01*
X250000Y890000D02*
X250000Y800000D01*
X235335Y785335D02*
X196010Y785335D01*
X180665Y769990D02*
X180665Y730665D01*
X250000Y800000D02*
X235335Y785335D01*
X-644000Y-525000D02*
X-866000Y-303000D01*
X98675Y690000D02*
X0Y788675D01*
X0Y788675D02*
X0Y799000D01*
X180665Y730665D02*
X140000Y690000D01*
X-243750Y-525000D02*
X-644000Y-525000D01*
%TO.N,/LED10*%
X759894Y314894D02*
X759894Y246904D01*
X810000Y365000D02*
X759894Y314894D01*
%TO.N,Net-(D51-K)*%
X48500Y-1000000D02*
X190450Y-1000000D01*
X978478Y211972D02*
X1000000Y190450D01*
X-106957Y1000000D02*
X-48500Y1000000D01*
X1000000Y190450D02*
X1000000Y48500D01*
X132500Y-955000D02*
X87500Y-1000000D01*
X-128478Y978478D02*
X-106957Y1000000D01*
X-1054450Y-136000D02*
X-978478Y-211972D01*
X955000Y130000D02*
X955000Y93500D01*
X635000Y640000D02*
X531000Y640000D01*
X-1087500Y-136000D02*
X-1000000Y-48500D01*
X87500Y-1000000D02*
X48500Y-1000000D01*
X-1097000Y-136000D02*
X-1087500Y-136000D01*
X-128478Y978478D02*
X-211972Y978478D01*
X190450Y-1000000D02*
X211972Y-978478D01*
X705000Y570000D02*
X635000Y640000D01*
X-1097000Y-136000D02*
X-1054450Y-136000D01*
X955000Y93500D02*
X1000000Y48500D01*
%TO.N,/LED14*%
X-635682Y841952D02*
X-620548Y841952D01*
X-781589Y713000D02*
X-741401Y672812D01*
X-651780Y107885D02*
X-300835Y-243060D01*
X-300835Y-311165D02*
X-287000Y-325000D01*
X48500Y1031500D02*
X48500Y1000000D01*
X-655134Y822500D02*
X-635682Y841952D01*
X-785560Y371705D02*
X-651780Y237925D01*
X-239840Y1052328D02*
X27672Y1052328D01*
X-564080Y897500D02*
X-465222Y897500D01*
X-1005000Y425000D02*
X-887998Y542002D01*
X-884773Y585000D02*
X-899000Y585000D01*
X-465222Y897500D02*
X-457998Y890275D01*
X-903000Y660000D02*
X-887000Y660000D01*
X-305666Y986502D02*
X-239840Y1052328D01*
X-741401Y672812D02*
X-741401Y781098D01*
X-620548Y841952D02*
X-577345Y885155D01*
X-841775Y542002D02*
X-785560Y485787D01*
X-577345Y885155D02*
X-576425Y885155D01*
X-899000Y656000D02*
X-903000Y660000D01*
X-841775Y542002D02*
X-884773Y585000D01*
X-457998Y890275D02*
X-394900Y953373D01*
X-887000Y660000D02*
X-834000Y713000D01*
X-834000Y713000D02*
X-781589Y713000D01*
X-300835Y-243060D02*
X-300835Y-311165D01*
X-700000Y822500D02*
X-655134Y822500D01*
X27672Y1052328D02*
X48500Y1031500D01*
X-899000Y585000D02*
X-899000Y656000D01*
X-651780Y237925D02*
X-651780Y107885D01*
X-394900Y953373D02*
X-305666Y953373D01*
X-576425Y885155D02*
X-564080Y897500D01*
X-305666Y953373D02*
X-305666Y986502D01*
X-287000Y-325000D02*
X-243750Y-325000D01*
X-978478Y211972D02*
X-1005000Y238493D01*
X-785560Y485787D02*
X-785560Y371705D01*
X-1005000Y238493D02*
X-1005000Y425000D01*
X-741401Y781098D02*
X-700000Y822500D01*
X-887998Y542002D02*
X-841775Y542002D01*
%TO.N,Net-(D53-K)*%
X470311Y690689D02*
X723524Y690689D01*
X-766507Y-672812D02*
X-741401Y-672812D01*
X-672812Y741401D02*
X-629214Y785000D01*
X-542002Y841775D02*
X-543225Y841775D01*
X-741401Y-672812D02*
X-741401Y-638599D01*
X841775Y572438D02*
X841775Y542002D01*
X620000Y-794214D02*
X672812Y-741401D01*
X-741401Y-638599D02*
X-780000Y-600000D01*
X-572438Y841775D02*
X-542002Y841775D01*
X620000Y-797500D02*
X620000Y-794214D01*
X586278Y-797500D02*
X542002Y-841775D01*
X620000Y-797500D02*
X586278Y-797500D01*
X-780000Y-600000D02*
X-783778Y-600000D01*
X-543225Y841775D02*
X-600000Y785000D01*
X421000Y740000D02*
X470311Y690689D01*
X797107Y617107D02*
X841775Y572438D01*
X-629214Y785000D02*
X-600000Y785000D01*
X723524Y690689D02*
X797107Y617107D01*
X-783778Y-600000D02*
X-841775Y-542002D01*
%TO.N,Net-(D55-K)*%
X-889039Y370000D02*
X-953373Y305666D01*
X395000Y932500D02*
X373500Y954000D01*
X-887500Y370000D02*
X-889039Y370000D01*
X930000Y-329040D02*
X953373Y-305666D01*
X930000Y-390000D02*
X890275Y-429725D01*
X-457998Y-890275D02*
X-429725Y-890275D01*
X-366627Y-953373D02*
X-305666Y-953373D01*
X-890275Y372775D02*
X-890275Y457998D01*
X306293Y954000D02*
X305666Y953373D01*
X311000Y835855D02*
X221000Y745855D01*
X373500Y954000D02*
X306293Y954000D01*
X-887500Y370000D02*
X-890275Y372775D01*
X890275Y-429725D02*
X890275Y-457998D01*
X930000Y-390000D02*
X930000Y-329040D01*
X305666Y953373D02*
X311000Y948039D01*
X-429725Y-890275D02*
X-390000Y-930000D01*
X221000Y745855D02*
X221000Y740000D01*
X311000Y948039D02*
X311000Y835855D01*
X-390000Y-930000D02*
X-366627Y-953373D01*
X395000Y932500D02*
X437225Y890275D01*
X437225Y890275D02*
X457998Y890275D01*
%TO.N,/LED15*%
X-953373Y-305666D02*
X-900155Y-252448D01*
X-890275Y-457998D02*
X-953373Y-394900D01*
X-625000Y-675000D02*
X-672812Y-722812D01*
X-672812Y-722812D02*
X-672812Y-741401D01*
X-542002Y-841775D02*
X-572438Y-841775D01*
X-900155Y-252448D02*
X-900155Y-142845D01*
X-900155Y-142845D02*
X-954665Y-88335D01*
X-672812Y-741401D02*
X-736925Y-741401D01*
X-736925Y-741401D02*
X-895000Y-583327D01*
X-895000Y-583327D02*
X-895000Y-462722D01*
X-954665Y-88335D02*
X-954665Y3165D01*
X-895000Y-462722D02*
X-890275Y-457998D01*
X-954665Y3165D02*
X-1000000Y48500D01*
X-953373Y-394900D02*
X-953373Y-305666D01*
%TO.N,/LED16*%
X-3165Y-1045335D02*
X-48500Y-1000000D01*
X231665Y-1045335D02*
X-3165Y-1045335D01*
X1010000Y-409960D02*
X1010000Y-243493D01*
X841775Y-565831D02*
X741401Y-666205D01*
X841775Y-542002D02*
X841775Y-565831D01*
X877958Y-542002D02*
X1010000Y-409960D01*
X841775Y-542002D02*
X877958Y-542002D01*
X305666Y-953373D02*
X305666Y-971334D01*
X305666Y-971334D02*
X231665Y-1045335D01*
X741401Y-666205D02*
X741401Y-672812D01*
X1010000Y-243493D02*
X978478Y-211972D01*
%TO.N,/LED17*%
X986502Y305666D02*
X1045335Y246833D01*
X650745Y210455D02*
X640000Y210455D01*
X1045335Y-3165D02*
X1000000Y-48500D01*
X913701Y572734D02*
X913701Y481423D01*
X238493Y1005000D02*
X371545Y1005000D01*
X832998Y457998D02*
X714545Y339545D01*
X371545Y1005000D02*
X371835Y1004710D01*
X371835Y1004710D02*
X415290Y1004710D01*
X913701Y481423D02*
X890275Y457998D01*
X890275Y457998D02*
X832998Y457998D01*
X572438Y841775D02*
X672812Y741401D01*
X953373Y305666D02*
X986502Y305666D01*
X714545Y274255D02*
X650745Y210455D01*
X542002Y877998D02*
X542002Y841775D01*
X1045335Y246833D02*
X1045335Y-3165D01*
X857375Y629060D02*
X913701Y572734D01*
X415290Y1004710D02*
X542002Y877998D01*
X782184Y741401D02*
X857375Y666211D01*
X672812Y741401D02*
X782184Y741401D01*
X857375Y666211D02*
X857375Y629060D01*
X542002Y841775D02*
X572438Y841775D01*
X211972Y978478D02*
X238493Y1005000D01*
%TO.N,/LED1*%
X-470560Y-560560D02*
X-580000Y-670000D01*
X-1063000Y323692D02*
X-1095142Y355833D01*
X-360585Y-560560D02*
X-470560Y-560560D01*
X-296145Y-625000D02*
X-360585Y-560560D01*
X-605000Y-1090538D02*
X-601470Y-1094069D01*
X-620000Y-794185D02*
X-620000Y-917500D01*
X1129677Y531585D02*
X1129677Y440000D01*
X760117Y-910117D02*
X854657Y-910117D01*
X-72500Y1190000D02*
X-38500Y1190000D01*
X-580000Y-670000D02*
X-580000Y-754185D01*
X-1063000Y280000D02*
X-1063000Y323692D01*
X-107823Y1190000D02*
X-156479Y1238655D01*
X-605000Y-932500D02*
X-605000Y-1090538D01*
X-675918Y-932500D02*
X-676835Y-931583D01*
X-38500Y1190000D02*
X0Y1151500D01*
X715000Y-865000D02*
X760117Y-910117D01*
X-605000Y-932500D02*
X-675918Y-932500D01*
X-1180331Y280000D02*
X-1226386Y233946D01*
X715000Y-893418D02*
X676835Y-931583D01*
X-620000Y-917500D02*
X-605000Y-932500D01*
X715000Y-865000D02*
X715000Y-893418D01*
X1129677Y440000D02*
X1129677Y390368D01*
X1129677Y390368D02*
X1095142Y355833D01*
X-243750Y-625000D02*
X-296145Y-625000D01*
X-1063000Y280000D02*
X-1180331Y280000D01*
X-580000Y-754185D02*
X-620000Y-794185D01*
X-72500Y1190000D02*
X-107823Y1190000D01*
%TO.N,/LED2*%
X-380000Y-1150000D02*
X-320724Y-1209276D01*
X-380000Y-1150000D02*
X-380000Y-1114533D01*
X-936885Y-80970D02*
X-936885Y57103D01*
X-380000Y-1114533D02*
X-423895Y-1070638D01*
X-310489Y-1209276D02*
X-310489Y-1184044D01*
X-243750Y-475000D02*
X-290053Y-475000D01*
X890000Y-731240D02*
X887246Y-733994D01*
X-322273Y-507220D02*
X-636635Y-507220D01*
X920000Y655000D02*
X934248Y655000D01*
X1043123Y-680000D02*
X1054143Y-668980D01*
X-331869Y1160826D02*
X-370000Y1160826D01*
X-290053Y-475000D02*
X-322273Y-507220D01*
X934248Y655000D02*
X972244Y617005D01*
X-1246036Y-78394D02*
X-1246036Y-36036D01*
X-821155Y-196700D02*
X-936885Y-80970D01*
X-1127531Y94000D02*
X-1149228Y72303D01*
X-1246036Y-36036D02*
X-1202500Y7500D01*
X-1202500Y7500D02*
X-1149228Y60772D01*
X-936885Y57103D02*
X-973782Y94000D01*
X-286366Y1115324D02*
X-331869Y1160826D01*
X935000Y-680000D02*
X1043123Y-680000D01*
X961986Y696986D02*
X961986Y795824D01*
X890000Y-635000D02*
X935000Y-680000D01*
X-821155Y-322700D02*
X-821155Y-196700D01*
X-636635Y-507220D02*
X-821155Y-322700D01*
X890000Y-635000D02*
X890000Y-731240D01*
X-973782Y94000D02*
X-1127531Y94000D01*
X-320724Y-1209276D02*
X-310489Y-1209276D01*
X-370000Y1160826D02*
X-459603Y1160826D01*
X-1149228Y60772D02*
X-1149228Y72303D01*
X920000Y655000D02*
X961986Y696986D01*
%TO.N,/LED3*%
X-144321Y-1142420D02*
X-106080Y-1142420D01*
X687500Y842500D02*
X785163Y842500D01*
X-402290Y-842131D02*
X-402290Y-820000D01*
X-402290Y-820000D02*
X-402290Y-842131D01*
X-595000Y930000D02*
X-675058Y1010058D01*
X-165014Y-944986D02*
X-185155Y-924845D01*
X-273421Y-900000D02*
X-344421Y-900000D01*
X-520618Y-1284000D02*
X-744584Y-1060033D01*
X-1187394Y-327394D02*
X-1160000Y-300000D01*
X1125702Y-447500D02*
X1187394Y-385808D01*
X-248575Y-924845D02*
X-273421Y-900000D01*
X-554739Y970261D02*
X-595000Y930000D01*
X-772967Y-1060033D02*
X-821000Y-1012000D01*
X-106080Y-1142420D02*
X0Y-1248500D01*
X785163Y842500D02*
X788256Y839407D01*
X-344421Y-900000D02*
X-402290Y-842131D01*
X-744584Y-1060033D02*
X-772967Y-1060033D01*
X1084693Y-447500D02*
X1041908Y-490285D01*
X-1131104Y-271104D02*
X-1160000Y-300000D01*
X-675058Y1010058D02*
X-733850Y1010058D01*
X-165014Y-1001729D02*
X-165014Y-944986D01*
X-165301Y-1121440D02*
X-165301Y-1002015D01*
X-165301Y-1002015D02*
X-165014Y-1001729D01*
X-554739Y1009067D02*
X-554739Y970261D01*
X0Y-1248500D02*
X-35500Y-1284000D01*
X-185155Y-924845D02*
X-248575Y-924845D01*
X1110000Y-447500D02*
X1084693Y-447500D01*
X-1187394Y-385808D02*
X-1187394Y-327394D01*
X733850Y888850D02*
X733850Y1010058D01*
X1110000Y-447500D02*
X1125702Y-447500D01*
X-732859Y1009067D02*
X-733850Y1010058D01*
X-144321Y-1142420D02*
X-165301Y-1121440D01*
X687500Y842500D02*
X733850Y888850D01*
X-35500Y-1284000D02*
X-520618Y-1284000D01*
X-1131104Y-215770D02*
X-1131104Y-271104D01*
%TO.N,/LED4*%
X512500Y1092500D02*
X550000Y1055000D01*
X512500Y1092500D02*
X512500Y1107930D01*
X-896676Y795824D02*
X-961986Y795824D01*
X1131104Y-206396D02*
X1131104Y-215770D01*
X1185000Y-152500D02*
X1131104Y-206396D01*
X550000Y1055000D02*
X550000Y1010000D01*
X288276Y-1209276D02*
X221420Y-1142420D01*
X512500Y1107930D02*
X459603Y1160826D01*
X310489Y-1209276D02*
X288276Y-1209276D01*
X-870000Y822500D02*
X-896676Y795824D01*
X550000Y1010000D02*
X550933Y1009067D01*
X-961986Y795824D02*
X-961986Y828014D01*
X1185000Y-152500D02*
X1185000Y-139430D01*
X-853093Y839407D02*
X-788256Y839407D01*
X430000Y-1240000D02*
X341213Y-1240000D01*
X-870000Y822500D02*
X-853093Y839407D01*
X1185000Y-139430D02*
X1246036Y-78394D01*
X-1054143Y-668980D02*
X-1054143Y-580000D01*
X-1054143Y-580000D02*
X-1054143Y-502520D01*
X-1054143Y-502520D02*
X-1041908Y-490285D01*
X550933Y1009067D02*
X554739Y1009067D01*
X221420Y-1142420D02*
X144321Y-1142420D01*
X341213Y-1240000D02*
X310489Y-1209276D01*
%TO.N,/LED5*%
X-117500Y-1030000D02*
X-96579Y-1030000D01*
X-960000Y685000D02*
X-960000Y629248D01*
X-887246Y-812754D02*
X-854657Y-845343D01*
X-760145Y-434000D02*
X-651365Y-542780D01*
X601470Y-1094069D02*
X447327Y-1094069D01*
X687500Y795000D02*
X717500Y765000D01*
X286366Y1115324D02*
X379200Y1022490D01*
X379200Y1022490D02*
X444089Y1022490D01*
X-818000Y-434000D02*
X-760145Y-434000D01*
X232500Y1230000D02*
X165134Y1230000D01*
X937500Y360000D02*
X987500Y360000D01*
X1149228Y72303D02*
X1149228Y156788D01*
X-321000Y-575000D02*
X-243750Y-575000D01*
X165134Y1230000D02*
X156479Y1238655D01*
X-246530Y-572220D02*
X-243750Y-575000D01*
X1149228Y156788D02*
X1226386Y233946D01*
X-972244Y617005D02*
X-1044257Y617005D01*
X884738Y229738D02*
X904807Y249807D01*
X987500Y360000D02*
X1080000Y267500D01*
X783730Y765000D02*
X875155Y673576D01*
X-1044257Y617005D02*
X-1129677Y531585D01*
X811425Y303005D02*
X811425Y256941D01*
X1080000Y267500D02*
X1080000Y141531D01*
X447327Y-1094069D02*
X423895Y-1070638D01*
X416373Y-1063115D02*
X423895Y-1070638D01*
X232500Y1169190D02*
X286366Y1115324D01*
X-960000Y629248D02*
X-972244Y617005D01*
X1080000Y141531D02*
X1149228Y72303D01*
X950000Y441579D02*
X811425Y303005D01*
X-887246Y-733994D02*
X-887246Y-812754D01*
X875155Y673576D02*
X875155Y636425D01*
X717500Y765000D02*
X783730Y765000D01*
X156479Y1238655D02*
X163035Y1238655D01*
X838629Y229738D02*
X884738Y229738D01*
X-854657Y-845343D02*
X-854657Y-910117D01*
X-353220Y-542780D02*
X-321000Y-575000D01*
X-96579Y-1030000D02*
X-63464Y-1063115D01*
X875155Y636425D02*
X950000Y561580D01*
X671580Y795000D02*
X687500Y795000D01*
X811425Y256941D02*
X838629Y229738D01*
X444089Y1022490D02*
X671580Y795000D01*
X-651365Y-542780D02*
X-353220Y-542780D01*
X232500Y1230000D02*
X232500Y1169190D01*
X904807Y327308D02*
X937500Y360000D01*
X904807Y249807D02*
X904807Y327308D01*
X950000Y561580D02*
X950000Y441579D01*
X-63464Y-1063115D02*
X416373Y-1063115D01*
%TO.N,/LED13*%
X-773579Y300000D02*
X-805244Y268335D01*
X-318615Y-347385D02*
X-318615Y-250425D01*
X119000Y911000D02*
X110000Y920000D01*
X-669560Y230560D02*
X-739000Y300000D01*
X-805244Y231756D02*
X-915000Y122000D01*
X-243750Y-375000D02*
X-291000Y-375000D01*
X-739000Y300000D02*
X-773579Y300000D01*
X119000Y740000D02*
X119000Y911000D01*
X-669560Y100520D02*
X-669560Y230560D01*
X-291000Y-375000D02*
X-318615Y-347385D01*
X-318615Y-250425D02*
X-669560Y100520D01*
X110000Y920000D02*
X129000Y920000D01*
X-805244Y268335D02*
X-805244Y231756D01*
%TO.N,Net-(D1-A)*%
X-1054143Y775857D02*
X-919883Y910117D01*
X-490000Y1200000D02*
X-467500Y1222500D01*
X-323713Y1222500D02*
X-310489Y1209276D01*
X-495538Y1200000D02*
X-490000Y1200000D01*
X-1048137Y733994D02*
X-1054143Y740000D01*
X102500Y1057500D02*
X90000Y1070000D01*
X74665Y954665D02*
X75292Y954665D01*
X-1146236Y466236D02*
X-1178436Y498436D01*
X75292Y954665D02*
X102500Y981873D01*
X-236346Y1283420D02*
X-230000Y1283420D01*
X-1065958Y466236D02*
X-1146236Y466236D01*
X-919883Y910117D02*
X-854657Y910117D01*
X-1091020Y668980D02*
X-1054143Y668980D01*
X-1054143Y668980D02*
X-1054143Y740000D01*
X90000Y1070000D02*
X90000Y1158500D01*
X-854657Y953131D02*
X-813894Y993894D01*
X-144321Y1142420D02*
X-230000Y1228099D01*
X-813894Y1001106D02*
X-720931Y1094069D01*
X-39000Y1287500D02*
X0Y1248500D01*
X-751583Y931583D02*
X-676835Y931583D01*
X102500Y981873D02*
X102500Y1057500D01*
X-225920Y1287500D02*
X-39000Y1287500D01*
X-1178436Y581564D02*
X-1091020Y668980D01*
X-720931Y1094069D02*
X-601470Y1094069D01*
X21000Y901000D02*
X74665Y954665D01*
X-1178436Y498436D02*
X-1178436Y581564D01*
X-230000Y1228099D02*
X-230000Y1283420D01*
X-601470Y1094069D02*
X-527769Y1167769D01*
X-310489Y1209276D02*
X-236346Y1283420D01*
X0Y901000D02*
X21000Y901000D01*
X-527769Y1167769D02*
X-527769Y1140094D01*
X-887246Y733994D02*
X-1048137Y733994D01*
X-1041908Y490285D02*
X-1065958Y466236D01*
X-813894Y993894D02*
X-751583Y931583D01*
X90000Y1158500D02*
X0Y1248500D01*
X-230000Y1283420D02*
X-225920Y1287500D01*
X-467500Y1222500D02*
X-323713Y1222500D01*
X-527769Y1167769D02*
X-495538Y1200000D01*
X-527769Y1140094D02*
X-458312Y1070638D01*
X-458312Y1070638D02*
X-423895Y1070638D01*
X-813894Y993894D02*
X-813894Y1001106D01*
X-1054143Y740000D02*
X-1054143Y775857D01*
X-854657Y910117D02*
X-854657Y953131D01*
%TO.N,Net-(D11-A)*%
X-955000Y155000D02*
X-856902Y253098D01*
X-1131104Y215770D02*
X-1246036Y100837D01*
X-1034176Y-795824D02*
X-961986Y-795824D01*
X-1289896Y-110104D02*
X-1226386Y-173614D01*
X-856098Y-970000D02*
X-849793Y-970000D01*
X-1095142Y-497050D02*
X-1129677Y-531585D01*
X-972244Y-785566D02*
X-961986Y-795824D01*
X-961986Y-864112D02*
X-856098Y-970000D01*
X-1095142Y-355833D02*
X-1095142Y-497050D01*
X-961986Y-795824D02*
X-961986Y-864112D01*
X-849793Y-970000D02*
X-788256Y-908463D01*
X-856902Y253098D02*
X-856902Y278424D01*
X-1129677Y-531585D02*
X-1129677Y-700323D01*
X-1226386Y-173614D02*
X-1226386Y-233946D01*
X-788256Y-908463D02*
X-788256Y-839407D01*
X-1246036Y78394D02*
X-1289896Y34534D01*
X-1289896Y283305D02*
X-1289896Y122254D01*
X-1070334Y155000D02*
X-955000Y155000D01*
X-856902Y278424D02*
X-876331Y258996D01*
X-1129677Y-700323D02*
X-1034176Y-795824D01*
X-1246036Y100837D02*
X-1246036Y78394D01*
X-1234792Y-426470D02*
X-1129677Y-531585D01*
X-1289896Y122254D02*
X-1246036Y78394D01*
X-972244Y-617005D02*
X-972244Y-785566D01*
X-1234792Y-242352D02*
X-1234792Y-426470D01*
X-1131104Y215770D02*
X-1070334Y155000D01*
X-1187394Y385808D02*
X-1289896Y283305D01*
X-1289896Y34534D02*
X-1289896Y-110104D01*
X-1149228Y-72303D02*
X-1149228Y-156788D01*
X-1226386Y-233946D02*
X-1234792Y-242352D01*
X-1149228Y-156788D02*
X-1226386Y-233946D01*
%TO.N,Net-(D21-A)*%
X54026Y-1097474D02*
X0Y-1151500D01*
X-554739Y-1065690D02*
X-554739Y-1009067D01*
X268516Y-1097474D02*
X54026Y-1097474D01*
X459603Y-1160826D02*
X497389Y-1198611D01*
X-733850Y-1045623D02*
X-733850Y-1010058D01*
X-459603Y-1160826D02*
X-554739Y-1065690D01*
X554739Y-1009067D02*
X606067Y-1009067D01*
X-459603Y-1176604D02*
X-459603Y-1160826D01*
X156479Y-1238655D02*
X87155Y-1238655D01*
X-501000Y-1218000D02*
X-459603Y-1176604D01*
X331869Y-1160826D02*
X459603Y-1160826D01*
X660000Y-1063000D02*
X660000Y-1117000D01*
X606067Y-1009067D02*
X660000Y-1063000D01*
X-360429Y-1260000D02*
X-177823Y-1260000D01*
X286366Y-1115324D02*
X331869Y-1160826D01*
X87155Y-1238655D02*
X0Y-1151500D01*
X-177823Y-1260000D02*
X-156479Y-1238655D01*
X-163035Y-1238655D02*
X-286366Y-1115324D01*
X-459603Y-1160826D02*
X-618647Y-1160826D01*
X660000Y-1117000D02*
X616174Y-1160826D01*
X-156479Y-1238655D02*
X-163035Y-1238655D01*
X-618647Y-1160826D02*
X-733850Y-1045623D01*
X-459603Y-1160826D02*
X-360429Y-1260000D01*
X559000Y-1208000D02*
X506778Y-1208000D01*
X286366Y-1115324D02*
X268516Y-1097474D01*
X506778Y-1208000D02*
X497389Y-1198611D01*
X616174Y-1160826D02*
X459603Y-1160826D01*
%TO.N,Net-(D31-A)*%
X972244Y-617005D02*
X1044257Y-617005D01*
X1202834Y287500D02*
X1255000Y287500D01*
X816040Y-1010058D02*
X733850Y-1010058D01*
X1289896Y34534D02*
X1289896Y-170435D01*
X1095142Y-355833D02*
X1217029Y-233946D01*
X961986Y-795824D02*
X961986Y-864112D01*
X1255000Y287500D02*
X1277500Y265000D01*
X529595Y-728924D02*
X567830Y-690689D01*
X1289896Y-170435D02*
X1226386Y-233946D01*
X567830Y-690689D02*
X682678Y-690689D01*
X1226386Y-233946D02*
X1234792Y-242352D01*
X1246036Y78394D02*
X1289896Y34534D01*
X1129677Y-664638D02*
X998490Y-795824D01*
X1131104Y215770D02*
X1202834Y287500D01*
X1277500Y109857D02*
X1246036Y78394D01*
X1277500Y265000D02*
X1277500Y109857D01*
X1149228Y-72303D02*
X1149228Y-18415D01*
X682678Y-690689D02*
X788256Y-796267D01*
X998490Y-795824D02*
X961986Y-795824D01*
X961986Y-864112D02*
X816040Y-1010058D01*
X1149228Y-18415D02*
X1246036Y78394D01*
X831839Y-795824D02*
X788256Y-839407D01*
X1044257Y-617005D02*
X1129677Y-531585D01*
X1234792Y-242352D02*
X1234792Y-426470D01*
X788256Y-796267D02*
X788256Y-839407D01*
X1234792Y-426470D02*
X1129677Y-531585D01*
X1217029Y-233946D02*
X1226386Y-233946D01*
X1129677Y-531585D02*
X1129677Y-664638D01*
X961986Y-795824D02*
X831839Y-795824D01*
%TO.N,Net-(D41-A)*%
X1054143Y767356D02*
X1054143Y668980D01*
X107500Y1265000D02*
X132500Y1290000D01*
X1187394Y385808D02*
X1187394Y542606D01*
X1061020Y668980D02*
X1054143Y668980D01*
X144321Y1142420D02*
X107500Y1179241D01*
X310489Y1209276D02*
X486262Y1209276D01*
X856902Y278424D02*
X856902Y323157D01*
X1120000Y610000D02*
X1061020Y668980D01*
X967907Y434162D02*
X967907Y435407D01*
X967907Y435407D02*
X1022785Y490285D01*
X486262Y1209276D02*
X601470Y1094069D01*
X1041908Y531908D02*
X1120000Y610000D01*
X887246Y877528D02*
X854657Y910117D01*
X1022785Y490285D02*
X1041908Y490285D01*
X1041908Y490285D02*
X1041908Y531908D01*
X911382Y910117D02*
X1054143Y767356D01*
X210000Y1290000D02*
X225155Y1274845D01*
X423895Y1070638D02*
X310489Y1184044D01*
X887246Y733994D02*
X887246Y877528D01*
X107500Y1179241D02*
X107500Y1265000D01*
X854657Y960343D02*
X854657Y910117D01*
X676835Y1018704D02*
X601470Y1094069D01*
X225155Y1274845D02*
X251075Y1274845D01*
X601470Y1094069D02*
X720931Y1094069D01*
X310489Y1184044D02*
X310489Y1209276D01*
X251075Y1274845D02*
X310489Y1215431D01*
X132500Y1290000D02*
X210000Y1290000D01*
X720931Y1094069D02*
X854657Y960343D01*
X856902Y323157D02*
X967907Y434162D01*
X854657Y910117D02*
X911382Y910117D01*
X676835Y931583D02*
X676835Y1018704D01*
X1187394Y542606D02*
X1120000Y610000D01*
X310489Y1215431D02*
X310489Y1209276D01*
D102*
%TO.N,+BATT*%
X468000Y-1330000D02*
X260000Y-1330000D01*
X498000Y-1300000D02*
X468000Y-1330000D01*
D100*
%TO.N,/SWDIO*%
X-463938Y736062D02*
X-372000Y828000D01*
X-372000Y828000D02*
X-372000Y900000D01*
%TO.N,/SWCLK*%
X-638938Y611062D02*
X-801062Y611062D01*
X-801062Y611062D02*
X-826000Y636000D01*
%TO.N,Net-(U1-PA14)*%
X-767780Y379070D02*
X-767780Y482220D01*
X-267970Y-224030D02*
X-294720Y-224030D01*
X-634000Y245289D02*
X-767780Y379070D01*
X-634000Y115250D02*
X-634000Y245289D01*
X-767780Y482220D02*
X-711062Y538938D01*
X-243750Y-275000D02*
X-243750Y-248250D01*
X-243750Y-248250D02*
X-267970Y-224030D01*
X-294720Y-224030D02*
X-634000Y115250D01*
%TO.N,Net-(U1-PA13)*%
X-616220Y122615D02*
X-616220Y252654D01*
X-536062Y613938D02*
X-536062Y663938D01*
X-616220Y252654D02*
X-750000Y386434D01*
X-175000Y-206250D02*
X-287355Y-206250D01*
X-750000Y386434D02*
X-750000Y400000D01*
X-287355Y-206250D02*
X-616220Y122615D01*
X-750000Y400000D02*
X-536062Y613938D01*
D102*
%TO.N,Net-(R13-Pad2)*%
X600000Y-1300000D02*
X633450Y-1333450D01*
X846550Y-1333450D02*
X950000Y-1230000D01*
X633450Y-1333450D02*
X846550Y-1333450D01*
%TD*%
%TA.AperFunction,Conductor*%
%TO.N,VDD*%
G36*
X660111Y135978D02*
G01*
X671256Y133761D01*
X671671Y133589D01*
X677692Y129566D01*
X678181Y128834D01*
X678056Y128048D01*
X677056Y126262D01*
X677056Y126262D01*
X677056Y126262D01*
X677056Y126262D01*
X676407Y123001D01*
X676407Y118822D01*
X677478Y113440D01*
X677500Y113216D01*
X677500Y76784D01*
X677478Y76559D01*
X676761Y72957D01*
X676590Y72542D01*
X673860Y68457D01*
X673543Y68140D01*
X669458Y65410D01*
X669043Y65238D01*
X666104Y64654D01*
X665441Y64522D01*
X665217Y64500D01*
X653500Y64500D01*
X649402Y63685D01*
X647229Y62785D01*
X646329Y62412D01*
X646329Y62412D01*
X644832Y61649D01*
X640533Y56616D01*
X639846Y54958D01*
X639260Y53543D01*
X639260Y53543D01*
X638445Y49445D01*
X638445Y32143D01*
X638906Y29036D01*
X638906Y29034D01*
X639638Y26621D01*
X639839Y26023D01*
X639839Y26023D01*
X643937Y20825D01*
X646702Y18977D01*
X646702Y18977D01*
X648961Y18042D01*
X649583Y17419D01*
X649648Y17204D01*
X649678Y17057D01*
X649700Y16832D01*
X649700Y14000D01*
X650515Y9902D01*
X650515Y9902D01*
X651788Y6829D01*
X651788Y6829D01*
X652551Y5332D01*
X653284Y4705D01*
X657584Y1033D01*
X660657Y-240D01*
X664755Y-1055D01*
X667081Y-1055D01*
X667521Y-1143D01*
X667652Y-1196D01*
X668025Y-1446D01*
X685451Y-18871D01*
X685787Y-19685D01*
X685594Y-20324D01*
X683264Y-23810D01*
X682947Y-24127D01*
X681694Y-24964D01*
X680831Y-25136D01*
X680242Y-24821D01*
X678032Y-22611D01*
X675036Y-19615D01*
X675035Y-19615D01*
X675035Y-19614D01*
X672511Y-17742D01*
X670286Y-16554D01*
X670283Y-16552D01*
X669722Y-16273D01*
X669722Y-16273D01*
X669721Y-16273D01*
X663149Y-15495D01*
X659886Y-16144D01*
X658270Y-16600D01*
X658270Y-16600D01*
X653072Y-20697D01*
X653071Y-20698D01*
X651297Y-23353D01*
X650565Y-23842D01*
X649702Y-23670D01*
X649527Y-23527D01*
X619637Y6363D01*
X619300Y7176D01*
X619300Y16832D01*
X619322Y17056D01*
X619331Y17104D01*
X619820Y17836D01*
X620072Y17963D01*
X621396Y18437D01*
X622407Y18977D01*
X623621Y19626D01*
X624168Y19940D01*
X628467Y24973D01*
X629740Y28045D01*
X630555Y32144D01*
X630555Y57446D01*
X629740Y61545D01*
X628620Y64249D01*
X628619Y64249D01*
X628490Y64563D01*
X628490Y64563D01*
X628475Y64598D01*
X627966Y65360D01*
X627816Y65686D01*
X627687Y66142D01*
X627491Y66436D01*
X627354Y66640D01*
X624869Y70359D01*
X623410Y72543D01*
X623239Y72956D01*
X622522Y76559D01*
X622500Y76783D01*
X622500Y113217D01*
X622522Y113441D01*
X623004Y115864D01*
X623238Y117043D01*
X623410Y117457D01*
X626140Y121542D01*
X626457Y121860D01*
X632270Y125744D01*
X632270Y125744D01*
X632690Y126056D01*
X632690Y126056D01*
X632942Y126262D01*
X633553Y126763D01*
X636653Y130944D01*
X637926Y134017D01*
X638263Y135055D01*
X638835Y135724D01*
X639133Y135827D01*
X639889Y135978D01*
X640113Y136000D01*
X659887Y136000D01*
X660111Y135978D01*
G37*
%TD.AperFunction*%
%TD*%
%TA.AperFunction,Conductor*%
%TO.N,+BATT*%
G36*
X529725Y-47418D02*
G01*
X549061Y-49128D01*
X552010Y-50666D01*
X552303Y-51149D01*
X552329Y-51132D01*
X552566Y-51488D01*
X552567Y-51488D01*
X554044Y-53699D01*
X596301Y-95956D01*
X596301Y-95956D01*
X596301Y-95956D01*
X598511Y-97433D01*
X598512Y-97433D01*
X598512Y-97433D01*
X602000Y-98127D01*
X605488Y-97433D01*
X607699Y-95956D01*
X644524Y-59131D01*
X647596Y-57859D01*
X647977Y-57875D01*
X668038Y-59650D01*
X670986Y-61188D01*
X672000Y-63978D01*
X672000Y-316805D01*
X670727Y-319878D01*
X667655Y-321150D01*
X664583Y-319878D01*
X664160Y-319387D01*
X610570Y-246840D01*
X609720Y-244258D01*
X609720Y-236534D01*
X609994Y-235015D01*
X610250Y-234330D01*
X609819Y-232352D01*
X609720Y-231428D01*
X609720Y-231410D01*
X609720Y-231410D01*
X609334Y-230095D01*
X609296Y-229947D01*
X608579Y-226649D01*
X608579Y-226649D01*
X608579Y-226649D01*
X608339Y-226211D01*
X608071Y-225793D01*
X605520Y-223583D01*
X605407Y-223477D01*
X592213Y-210283D01*
X590940Y-207211D01*
X590940Y-171740D01*
X589609Y-165050D01*
X589609Y-165049D01*
X589609Y-165049D01*
X589609Y-165049D01*
X584539Y-157462D01*
X584538Y-157461D01*
X576951Y-152391D01*
X576951Y-152391D01*
X570260Y-151060D01*
X542011Y-151060D01*
X538938Y-149787D01*
X538516Y-149297D01*
X525850Y-132151D01*
X525000Y-129569D01*
X525000Y-51746D01*
X526273Y-48674D01*
X529345Y-47401D01*
X529725Y-47418D01*
G37*
%TD.AperFunction*%
%TD*%
%TA.AperFunction,Conductor*%
%TO.N,GND*%
G36*
X-47586Y-737024D02*
G01*
X-46387Y-738222D01*
X-43117Y-743117D01*
X-41616Y-744120D01*
X-41586Y-744140D01*
X-39739Y-746905D01*
X-39655Y-747753D01*
X-39655Y-748927D01*
X-39398Y-749372D01*
X-38942Y-750161D01*
X-38508Y-751209D01*
X-38139Y-752586D01*
X-36727Y-753998D01*
X-36727Y-753998D01*
X44641Y-835366D01*
X50194Y-840919D01*
X51571Y-841288D01*
X52619Y-841722D01*
X53853Y-842435D01*
X55851Y-842435D01*
X138071Y-842435D01*
X169910Y-842435D01*
X172982Y-843708D01*
X190698Y-861423D01*
X191970Y-864495D01*
X191497Y-866468D01*
X191050Y-867344D01*
X189046Y-880000D01*
X189046Y-880000D01*
X191050Y-892655D01*
X191050Y-892656D01*
X196867Y-904072D01*
X205928Y-913133D01*
X214194Y-917344D01*
X217344Y-918950D01*
X226113Y-920338D01*
X230000Y-920954D01*
X230000Y-920954D01*
X230000Y-920954D01*
X231730Y-920680D01*
X242655Y-918950D01*
X254072Y-913133D01*
X263133Y-904072D01*
X268950Y-892655D01*
X270954Y-880000D01*
X270755Y-878741D01*
X271531Y-875507D01*
X274366Y-873770D01*
X277600Y-874546D01*
X278119Y-874989D01*
X289561Y-886431D01*
X295114Y-891984D01*
X296491Y-892353D01*
X297539Y-892787D01*
X298773Y-893500D01*
X404502Y-893500D01*
X404502Y-893500D01*
X405737Y-892787D01*
X406784Y-892353D01*
X408161Y-891984D01*
X408161Y-891984D01*
X408714Y-891836D01*
X408738Y-891924D01*
X411422Y-891570D01*
X414061Y-893594D01*
X425341Y-913133D01*
X433462Y-927199D01*
X433462Y-927199D01*
X438346Y-932767D01*
X438357Y-932779D01*
X438369Y-932785D01*
X438378Y-932796D01*
X438696Y-933040D01*
X438647Y-933103D01*
X440562Y-935285D01*
X440344Y-938604D01*
X439520Y-939755D01*
X415202Y-964072D01*
X412130Y-965345D01*
X353319Y-965345D01*
X350247Y-964072D01*
X349122Y-962125D01*
X338923Y-924059D01*
X338923Y-924059D01*
X338922Y-924058D01*
X335639Y-917401D01*
X334603Y-916492D01*
X332508Y-914655D01*
X328174Y-910854D01*
X328174Y-910854D01*
X328173Y-910854D01*
X318771Y-907662D01*
X311363Y-908147D01*
X278120Y-917055D01*
X278120Y-917055D01*
X271462Y-920338D01*
X271462Y-920338D01*
X264915Y-927804D01*
X264915Y-927804D01*
X261723Y-937206D01*
X262080Y-942655D01*
X262209Y-944614D01*
X264992Y-955000D01*
X272010Y-981192D01*
X271576Y-984489D01*
X270885Y-985389D01*
X263047Y-993227D01*
X259975Y-994500D01*
X256902Y-993227D01*
X255639Y-990439D01*
X255590Y-989691D01*
X255429Y-987238D01*
X255156Y-986216D01*
X245228Y-949165D01*
X245228Y-949164D01*
X245228Y-949164D01*
X241944Y-942506D01*
X241905Y-942472D01*
X237704Y-938787D01*
X234479Y-935959D01*
X234479Y-935959D01*
X234479Y-935959D01*
X225076Y-932767D01*
X217668Y-933253D01*
X184425Y-942160D01*
X184425Y-942161D01*
X177767Y-945444D01*
X177767Y-945444D01*
X177653Y-945500D01*
X174335Y-945717D01*
X171835Y-943525D01*
X171562Y-942667D01*
X171555Y-942669D01*
X171450Y-942344D01*
X165633Y-930928D01*
X156572Y-921867D01*
X145156Y-916050D01*
X132500Y-914046D01*
X132500Y-914046D01*
X119844Y-916050D01*
X119844Y-916050D01*
X108428Y-921867D01*
X99367Y-930928D01*
X93550Y-942344D01*
X93550Y-942344D01*
X91546Y-955000D01*
X91546Y-955000D01*
X93550Y-967655D01*
X93656Y-967981D01*
X93395Y-971296D01*
X90866Y-973456D01*
X87551Y-973195D01*
X85911Y-971737D01*
X81246Y-964755D01*
X81245Y-964755D01*
X79207Y-963393D01*
X72989Y-959238D01*
X72989Y-959238D01*
X65709Y-957790D01*
X65708Y-957790D01*
X31292Y-957790D01*
X31291Y-957790D01*
X24011Y-959238D01*
X24011Y-959238D01*
X15755Y-964755D01*
X10238Y-973011D01*
X10238Y-973011D01*
X8790Y-980291D01*
X8790Y-1019709D01*
X9940Y-1025487D01*
X9291Y-1028749D01*
X6526Y-1030596D01*
X5678Y-1030680D01*
X4705Y-1030680D01*
X1633Y-1029407D01*
X-7517Y-1020257D01*
X-8790Y-1017185D01*
X-8790Y-980291D01*
X-10238Y-973011D01*
X-15755Y-964755D01*
X-24011Y-959238D01*
X-24011Y-959238D01*
X-31291Y-957790D01*
X-31292Y-957790D01*
X-65708Y-957790D01*
X-65709Y-957790D01*
X-72989Y-959238D01*
X-72989Y-959238D01*
X-81245Y-964755D01*
X-86762Y-973011D01*
X-88210Y-980291D01*
X-88210Y-992435D01*
X-89483Y-995508D01*
X-92555Y-996780D01*
X-94528Y-996307D01*
X-104844Y-991050D01*
X-117500Y-989046D01*
X-117500Y-989046D01*
X-130155Y-991050D01*
X-130156Y-991050D01*
X-141572Y-996867D01*
X-142942Y-998237D01*
X-146014Y-999509D01*
X-149087Y-998237D01*
X-150359Y-995164D01*
X-150359Y-941059D01*
X-150359Y-941059D01*
X-151072Y-939824D01*
X-151506Y-938777D01*
X-151875Y-937400D01*
X-157428Y-931846D01*
X-176156Y-913118D01*
X-177569Y-911706D01*
X-178946Y-911337D01*
X-179993Y-910903D01*
X-181228Y-910190D01*
X-181228Y-910190D01*
X-183226Y-910190D01*
X-240705Y-910190D01*
X-243778Y-908917D01*
X-256062Y-896633D01*
X-257334Y-893561D01*
X-256062Y-890488D01*
X-252989Y-889216D01*
X-251017Y-889689D01*
X-242655Y-893950D01*
X-232004Y-895637D01*
X-230000Y-895954D01*
X-230000Y-895954D01*
X-230000Y-895954D01*
X-227995Y-895637D01*
X-217344Y-893950D01*
X-217344Y-893950D01*
X-205928Y-888133D01*
X-196867Y-879072D01*
X-191050Y-867656D01*
X-191050Y-867655D01*
X-189046Y-855000D01*
X-189046Y-855000D01*
X-191050Y-842344D01*
X-191050Y-842344D01*
X-196867Y-830928D01*
X-205928Y-821867D01*
X-217344Y-816050D01*
X-230000Y-814046D01*
X-230000Y-814046D01*
X-242655Y-816050D01*
X-242656Y-816050D01*
X-254072Y-821867D01*
X-263133Y-830928D01*
X-268335Y-841138D01*
X-268950Y-842344D01*
X-270954Y-855000D01*
X-268950Y-867655D01*
X-263133Y-879072D01*
X-262971Y-879234D01*
X-261698Y-882306D01*
X-262970Y-885378D01*
X-266043Y-886651D01*
X-267169Y-886503D01*
X-267213Y-886491D01*
X-268259Y-886058D01*
X-269494Y-885345D01*
X-269494Y-885345D01*
X-271491Y-885345D01*
X-294650Y-885345D01*
X-297723Y-884072D01*
X-298995Y-881000D01*
X-297723Y-877928D01*
X-295867Y-876072D01*
X-290050Y-864656D01*
X-290050Y-864655D01*
X-288046Y-852000D01*
X-288046Y-852000D01*
X-290050Y-839344D01*
X-290050Y-839344D01*
X-295867Y-827928D01*
X-304928Y-818867D01*
X-316344Y-813050D01*
X-329000Y-811046D01*
X-329000Y-811046D01*
X-341656Y-813050D01*
X-341656Y-813050D01*
X-353072Y-818867D01*
X-354331Y-820126D01*
X-357403Y-821398D01*
X-360476Y-820126D01*
X-361695Y-817733D01*
X-363340Y-807344D01*
X-363787Y-806468D01*
X-364047Y-803152D01*
X-362988Y-801423D01*
X-346107Y-784543D01*
X-343035Y-783270D01*
X-94688Y-783270D01*
X-93454Y-782557D01*
X-92406Y-782123D01*
X-91029Y-781754D01*
X-85476Y-776201D01*
X-79110Y-769835D01*
X-63273Y-753998D01*
X-62257Y-752982D01*
X-61861Y-752586D01*
X-61491Y-751209D01*
X-61058Y-750161D01*
X-60603Y-749373D01*
X-60345Y-748927D01*
X-60345Y-747753D01*
X-59072Y-744680D01*
X-58414Y-744140D01*
X-56883Y-743117D01*
X-56224Y-742131D01*
X-53613Y-738222D01*
X-50848Y-736375D01*
X-47586Y-737024D01*
G37*
%TD.AperFunction*%
%TA.AperFunction,Conductor*%
G36*
X379632Y-684738D02*
G01*
X380905Y-687810D01*
X380905Y-689269D01*
X380905Y-689269D01*
X380905Y-689269D01*
X381618Y-690504D01*
X382052Y-691551D01*
X382421Y-692928D01*
X424290Y-734798D01*
X425563Y-737870D01*
X425563Y-831333D01*
X424290Y-834405D01*
X395778Y-862917D01*
X392705Y-864190D01*
X310570Y-864190D01*
X307498Y-862917D01*
X259221Y-814641D01*
X257844Y-814272D01*
X256797Y-813838D01*
X255562Y-813125D01*
X255562Y-813125D01*
X255562Y-813125D01*
X255562Y-813125D01*
X255009Y-812977D01*
X255032Y-812894D01*
X252518Y-811852D01*
X251245Y-808780D01*
X252518Y-805708D01*
X373488Y-684738D01*
X376560Y-683465D01*
X379632Y-684738D01*
G37*
%TD.AperFunction*%
%TA.AperFunction,Conductor*%
G36*
X152414Y-249524D02*
G01*
X153613Y-250722D01*
X156883Y-255617D01*
X156883Y-255617D01*
X162327Y-259255D01*
X162328Y-259255D01*
X167129Y-260210D01*
X182871Y-260210D01*
X182871Y-260210D01*
X183774Y-260030D01*
X185130Y-259761D01*
X188392Y-260409D01*
X190239Y-263174D01*
X190239Y-264870D01*
X189790Y-267128D01*
X189790Y-282871D01*
X190745Y-287672D01*
X190745Y-287673D01*
X194383Y-293117D01*
X194383Y-293117D01*
X199277Y-296387D01*
X201125Y-299152D01*
X200476Y-302414D01*
X199277Y-303613D01*
X194383Y-306883D01*
X194383Y-306883D01*
X190745Y-312327D01*
X190745Y-312328D01*
X189790Y-317128D01*
X189790Y-332871D01*
X190745Y-337672D01*
X190745Y-337673D01*
X194383Y-343117D01*
X194383Y-343117D01*
X199277Y-346387D01*
X201125Y-349152D01*
X200476Y-352414D01*
X199277Y-353613D01*
X194383Y-356883D01*
X194383Y-356883D01*
X190745Y-362327D01*
X190745Y-362328D01*
X189790Y-367128D01*
X189790Y-382871D01*
X190745Y-387672D01*
X190745Y-387673D01*
X194383Y-393117D01*
X194383Y-393117D01*
X199277Y-396387D01*
X201125Y-399152D01*
X200476Y-402414D01*
X199277Y-403613D01*
X194383Y-406883D01*
X194383Y-406883D01*
X190745Y-412327D01*
X190745Y-412328D01*
X189790Y-417128D01*
X189790Y-432871D01*
X190745Y-437672D01*
X190745Y-437673D01*
X194383Y-443117D01*
X194383Y-443117D01*
X199277Y-446387D01*
X201125Y-449152D01*
X200476Y-452414D01*
X199277Y-453613D01*
X194383Y-456883D01*
X194383Y-456883D01*
X190745Y-462327D01*
X190745Y-462328D01*
X189790Y-467128D01*
X189790Y-482871D01*
X190745Y-487672D01*
X190745Y-487673D01*
X194383Y-493117D01*
X194383Y-493117D01*
X199277Y-496387D01*
X201125Y-499152D01*
X200476Y-502414D01*
X199277Y-503613D01*
X194383Y-506883D01*
X194383Y-506883D01*
X190745Y-512327D01*
X190745Y-512328D01*
X189790Y-517128D01*
X189790Y-532871D01*
X190745Y-537672D01*
X190745Y-537673D01*
X194383Y-543117D01*
X194383Y-543117D01*
X199277Y-546387D01*
X201125Y-549152D01*
X200476Y-552414D01*
X199277Y-553613D01*
X194383Y-556883D01*
X194383Y-556883D01*
X190745Y-562327D01*
X190745Y-562328D01*
X189790Y-567128D01*
X189790Y-582871D01*
X190745Y-587672D01*
X190745Y-587673D01*
X194383Y-593117D01*
X194383Y-593117D01*
X199277Y-596387D01*
X201125Y-599152D01*
X200476Y-602414D01*
X199277Y-603613D01*
X194383Y-606883D01*
X194383Y-606883D01*
X190745Y-612327D01*
X190745Y-612328D01*
X189790Y-617128D01*
X189790Y-632871D01*
X189790Y-632872D01*
X190239Y-635130D01*
X189590Y-638392D01*
X186825Y-640239D01*
X185130Y-640239D01*
X182872Y-639790D01*
X167129Y-639790D01*
X167129Y-639790D01*
X162328Y-640745D01*
X162327Y-640745D01*
X156883Y-644383D01*
X156883Y-644383D01*
X153613Y-649277D01*
X150848Y-651125D01*
X147586Y-650476D01*
X146387Y-649277D01*
X143117Y-644383D01*
X143117Y-644383D01*
X137673Y-640745D01*
X137672Y-640745D01*
X132872Y-639790D01*
X117128Y-639790D01*
X117128Y-639790D01*
X112328Y-640745D01*
X112327Y-640745D01*
X106883Y-644383D01*
X106883Y-644383D01*
X103613Y-649277D01*
X100848Y-651125D01*
X97586Y-650476D01*
X96387Y-649277D01*
X93117Y-644383D01*
X93117Y-644383D01*
X87673Y-640745D01*
X87672Y-640745D01*
X82872Y-639790D01*
X67129Y-639790D01*
X67129Y-639790D01*
X62328Y-640745D01*
X62327Y-640745D01*
X56883Y-644383D01*
X56883Y-644383D01*
X53245Y-649827D01*
X53245Y-649828D01*
X52290Y-654628D01*
X52290Y-732871D01*
X53245Y-737672D01*
X53245Y-737673D01*
X56883Y-743117D01*
X56883Y-743117D01*
X62327Y-746755D01*
X62328Y-746755D01*
X67129Y-747710D01*
X82871Y-747710D01*
X82871Y-747710D01*
X82871Y-747710D01*
X87672Y-746755D01*
X87673Y-746755D01*
X87673Y-746755D01*
X93117Y-743117D01*
X93117Y-743117D01*
X93117Y-743117D01*
X96387Y-738222D01*
X99152Y-736375D01*
X102414Y-737024D01*
X103612Y-738222D01*
X106224Y-742131D01*
X106883Y-743117D01*
X108414Y-744140D01*
X110261Y-746905D01*
X110345Y-747753D01*
X110345Y-748927D01*
X110345Y-748927D01*
X110345Y-748927D01*
X111058Y-750161D01*
X111492Y-751209D01*
X111861Y-752586D01*
X164982Y-805708D01*
X166255Y-808780D01*
X164982Y-811852D01*
X161910Y-813125D01*
X65650Y-813125D01*
X62578Y-811852D01*
X-4071Y-745203D01*
X-5344Y-742131D01*
X-4611Y-739717D01*
X-3245Y-737672D01*
X-3245Y-737672D01*
X-2290Y-732871D01*
X-2290Y-654629D01*
X-3245Y-649828D01*
X-3245Y-649827D01*
X-6883Y-644383D01*
X-6883Y-644383D01*
X-12327Y-640745D01*
X-12328Y-640745D01*
X-17128Y-639790D01*
X-32871Y-639790D01*
X-32871Y-639790D01*
X-37672Y-640745D01*
X-37673Y-640745D01*
X-43117Y-644383D01*
X-43117Y-644383D01*
X-46387Y-649277D01*
X-49152Y-651125D01*
X-52414Y-650476D01*
X-53613Y-649277D01*
X-56883Y-644383D01*
X-56883Y-644383D01*
X-62327Y-640745D01*
X-62328Y-640745D01*
X-67128Y-639790D01*
X-82871Y-639790D01*
X-82871Y-639790D01*
X-87672Y-640745D01*
X-87673Y-640745D01*
X-93117Y-644383D01*
X-93117Y-644383D01*
X-96387Y-649277D01*
X-99152Y-651125D01*
X-102414Y-650476D01*
X-103613Y-649277D01*
X-106883Y-644383D01*
X-106883Y-644383D01*
X-112327Y-640745D01*
X-112328Y-640745D01*
X-117128Y-639790D01*
X-132871Y-639790D01*
X-132871Y-639790D01*
X-137672Y-640745D01*
X-137673Y-640745D01*
X-143117Y-644383D01*
X-143117Y-644383D01*
X-146387Y-649277D01*
X-149152Y-651125D01*
X-152414Y-650476D01*
X-153613Y-649277D01*
X-156883Y-644383D01*
X-156883Y-644383D01*
X-162327Y-640745D01*
X-162328Y-640745D01*
X-167128Y-639790D01*
X-182871Y-639790D01*
X-182872Y-639790D01*
X-185130Y-640239D01*
X-188392Y-639591D01*
X-190239Y-636825D01*
X-190239Y-635130D01*
X-189790Y-632872D01*
X-189790Y-617129D01*
X-190745Y-612328D01*
X-190745Y-612327D01*
X-194383Y-606883D01*
X-194383Y-606883D01*
X-199277Y-603613D01*
X-201125Y-600848D01*
X-200476Y-597586D01*
X-199277Y-596387D01*
X-194383Y-593117D01*
X-194383Y-593117D01*
X-190745Y-587673D01*
X-190745Y-587672D01*
X-189790Y-582872D01*
X-189790Y-567129D01*
X-190745Y-562328D01*
X-190745Y-562327D01*
X-194383Y-556883D01*
X-194383Y-556883D01*
X-199277Y-553613D01*
X-201125Y-550848D01*
X-200476Y-547586D01*
X-199277Y-546387D01*
X-194383Y-543117D01*
X-194383Y-543117D01*
X-190745Y-537673D01*
X-190745Y-537672D01*
X-189790Y-532872D01*
X-189790Y-517128D01*
X-190745Y-512328D01*
X-190745Y-512327D01*
X-194383Y-506883D01*
X-194383Y-506883D01*
X-199277Y-503613D01*
X-201125Y-500848D01*
X-200476Y-497586D01*
X-199277Y-496387D01*
X-194383Y-493117D01*
X-194383Y-493117D01*
X-190745Y-487673D01*
X-190745Y-487672D01*
X-189790Y-482871D01*
X-189790Y-467128D01*
X-190745Y-462328D01*
X-190745Y-462327D01*
X-194383Y-456883D01*
X-194383Y-456883D01*
X-199277Y-453613D01*
X-201125Y-450848D01*
X-200476Y-447586D01*
X-199277Y-446387D01*
X-194383Y-443117D01*
X-194383Y-443117D01*
X-190745Y-437673D01*
X-190745Y-437672D01*
X-189790Y-432871D01*
X-189790Y-417128D01*
X-190745Y-412328D01*
X-190745Y-412327D01*
X-194383Y-406883D01*
X-194383Y-406883D01*
X-199277Y-403613D01*
X-201125Y-400848D01*
X-200476Y-397586D01*
X-199277Y-396387D01*
X-194383Y-393117D01*
X-194383Y-393117D01*
X-190745Y-387673D01*
X-190745Y-387672D01*
X-189790Y-382871D01*
X-189790Y-367128D01*
X-190745Y-362328D01*
X-190745Y-362327D01*
X-194383Y-356883D01*
X-194383Y-356883D01*
X-199277Y-353613D01*
X-201125Y-350848D01*
X-200476Y-347586D01*
X-199277Y-346387D01*
X-194383Y-343117D01*
X-194383Y-343117D01*
X-190745Y-337673D01*
X-190745Y-337672D01*
X-189790Y-332872D01*
X-189790Y-317129D01*
X-190745Y-312328D01*
X-190745Y-312327D01*
X-194383Y-306883D01*
X-194383Y-306883D01*
X-199277Y-303613D01*
X-201125Y-300848D01*
X-200476Y-297586D01*
X-199277Y-296387D01*
X-194383Y-293117D01*
X-194383Y-293117D01*
X-190745Y-287673D01*
X-190745Y-287672D01*
X-189790Y-282872D01*
X-189790Y-267129D01*
X-189790Y-267128D01*
X-190239Y-264870D01*
X-189590Y-261608D01*
X-186825Y-259761D01*
X-185130Y-259761D01*
X-182871Y-260210D01*
X-167129Y-260210D01*
X-167129Y-260210D01*
X-167129Y-260210D01*
X-162328Y-259255D01*
X-162327Y-259255D01*
X-162327Y-259255D01*
X-156883Y-255617D01*
X-156883Y-255617D01*
X-153613Y-250722D01*
X-150848Y-248875D01*
X-147586Y-249524D01*
X-146387Y-250722D01*
X-143117Y-255617D01*
X-143117Y-255617D01*
X-143117Y-255617D01*
X-139394Y-258105D01*
X-137672Y-259255D01*
X-132871Y-260210D01*
X-117129Y-260210D01*
X-117128Y-260210D01*
X-117128Y-260210D01*
X-112328Y-259255D01*
X-112327Y-259255D01*
X-112327Y-259255D01*
X-106883Y-255617D01*
X-106883Y-255617D01*
X-103613Y-250722D01*
X-100848Y-248875D01*
X-97586Y-249524D01*
X-96387Y-250722D01*
X-93117Y-255617D01*
X-93117Y-255617D01*
X-93117Y-255617D01*
X-89394Y-258105D01*
X-87672Y-259255D01*
X-82871Y-260210D01*
X-67129Y-260210D01*
X-67129Y-260210D01*
X-67129Y-260210D01*
X-62328Y-259255D01*
X-62327Y-259255D01*
X-62327Y-259255D01*
X-56883Y-255617D01*
X-56883Y-255617D01*
X-53613Y-250722D01*
X-50848Y-248875D01*
X-47586Y-249524D01*
X-46387Y-250722D01*
X-43117Y-255617D01*
X-43117Y-255617D01*
X-43117Y-255617D01*
X-39394Y-258105D01*
X-37672Y-259255D01*
X-32871Y-260210D01*
X-17129Y-260210D01*
X-17129Y-260210D01*
X-17129Y-260210D01*
X-12328Y-259255D01*
X-12327Y-259255D01*
X-12327Y-259255D01*
X-6883Y-255617D01*
X-6883Y-255617D01*
X-3613Y-250722D01*
X-848Y-248875D01*
X2414Y-249524D01*
X3612Y-250722D01*
X6883Y-255617D01*
X6883Y-255617D01*
X12327Y-259255D01*
X12328Y-259255D01*
X17129Y-260210D01*
X32871Y-260210D01*
X32871Y-260210D01*
X32871Y-260210D01*
X37672Y-259255D01*
X37673Y-259255D01*
X37673Y-259255D01*
X43117Y-255617D01*
X43117Y-255617D01*
X43117Y-255617D01*
X46387Y-250722D01*
X49152Y-248875D01*
X52414Y-249524D01*
X53612Y-250722D01*
X56883Y-255617D01*
X56883Y-255617D01*
X62327Y-259255D01*
X62328Y-259255D01*
X67129Y-260210D01*
X82871Y-260210D01*
X82871Y-260210D01*
X82871Y-260210D01*
X87672Y-259255D01*
X87673Y-259255D01*
X87673Y-259255D01*
X93117Y-255617D01*
X93117Y-255617D01*
X93117Y-255617D01*
X96387Y-250722D01*
X99152Y-248875D01*
X102414Y-249524D01*
X103612Y-250722D01*
X106883Y-255617D01*
X106883Y-255617D01*
X112327Y-259255D01*
X112328Y-259255D01*
X117129Y-260210D01*
X132871Y-260210D01*
X132871Y-260210D01*
X132871Y-260210D01*
X137672Y-259255D01*
X137673Y-259255D01*
X137673Y-259255D01*
X143117Y-255617D01*
X143117Y-255617D01*
X143117Y-255617D01*
X146387Y-250722D01*
X149152Y-248875D01*
X152414Y-249524D01*
G37*
%TD.AperFunction*%
%TA.AperFunction,Conductor*%
G36*
X-764942Y-449928D02*
G01*
X-664504Y-550366D01*
X-658951Y-555919D01*
X-657573Y-556288D01*
X-656526Y-556722D01*
X-655292Y-557435D01*
X-653294Y-557435D01*
X-498650Y-557435D01*
X-495578Y-558708D01*
X-494305Y-561780D01*
X-495578Y-564852D01*
X-584191Y-653466D01*
X-587263Y-654738D01*
X-590336Y-653466D01*
X-591135Y-652366D01*
X-591867Y-650928D01*
X-600928Y-641867D01*
X-612344Y-636050D01*
X-625000Y-634046D01*
X-625000Y-634046D01*
X-637656Y-636050D01*
X-637656Y-636050D01*
X-649072Y-641867D01*
X-658133Y-650928D01*
X-663579Y-661617D01*
X-663950Y-662345D01*
X-664935Y-668564D01*
X-665954Y-675000D01*
X-665954Y-675000D01*
X-663950Y-687656D01*
X-663950Y-687656D01*
X-663844Y-687981D01*
X-663966Y-688020D01*
X-663741Y-690867D01*
X-665900Y-693397D01*
X-668721Y-693787D01*
X-671044Y-693325D01*
X-671044Y-693325D01*
X-680783Y-695262D01*
X-680783Y-695262D01*
X-686852Y-699317D01*
X-686955Y-699386D01*
X-700008Y-712439D01*
X-713043Y-725474D01*
X-716115Y-726746D01*
X-729055Y-726746D01*
X-732128Y-725474D01*
X-732128Y-725474D01*
X-732816Y-724786D01*
X-734088Y-721713D01*
X-732816Y-718641D01*
X-732158Y-718101D01*
X-727258Y-714827D01*
X-699386Y-686955D01*
X-699093Y-686516D01*
X-695262Y-680783D01*
X-695262Y-680783D01*
X-693325Y-671044D01*
X-693325Y-671044D01*
X-695262Y-661305D01*
X-699386Y-655134D01*
X-723723Y-630797D01*
X-729895Y-626673D01*
X-731982Y-626258D01*
X-734206Y-625069D01*
X-740698Y-618577D01*
X-741970Y-615505D01*
X-741497Y-613532D01*
X-741050Y-612656D01*
X-741050Y-612655D01*
X-739046Y-600000D01*
X-739046Y-600000D01*
X-741050Y-587344D01*
X-741050Y-587344D01*
X-746867Y-575928D01*
X-755928Y-566867D01*
X-767344Y-561050D01*
X-780000Y-559046D01*
X-780000Y-559046D01*
X-791226Y-560824D01*
X-794460Y-560048D01*
X-796198Y-557212D01*
X-795803Y-554611D01*
X-794880Y-552738D01*
X-794880Y-552738D01*
X-794230Y-542829D01*
X-796616Y-535800D01*
X-796616Y-535800D01*
X-813824Y-505994D01*
X-813825Y-505994D01*
X-818719Y-500413D01*
X-818719Y-500413D01*
X-827625Y-496021D01*
X-837533Y-495372D01*
X-843960Y-497554D01*
X-844562Y-497758D01*
X-872065Y-513637D01*
X-873827Y-514654D01*
X-877125Y-515088D01*
X-879763Y-513064D01*
X-880345Y-510891D01*
X-880345Y-500626D01*
X-879072Y-497554D01*
X-878172Y-496863D01*
X-878140Y-496845D01*
X-868380Y-491210D01*
X-853352Y-482534D01*
X-853352Y-482533D01*
X-847771Y-477639D01*
X-847771Y-477639D01*
X-846447Y-474954D01*
X-844433Y-470870D01*
X-841933Y-468677D01*
X-838614Y-468895D01*
X-838585Y-468909D01*
X-830655Y-472950D01*
X-827103Y-473512D01*
X-818000Y-474954D01*
X-818000Y-474954D01*
X-818000Y-474954D01*
X-815995Y-474637D01*
X-805344Y-472950D01*
X-805344Y-472950D01*
X-793928Y-467133D01*
X-784867Y-458072D01*
X-781278Y-451027D01*
X-778749Y-448868D01*
X-777406Y-448655D01*
X-768015Y-448655D01*
X-764942Y-449928D01*
G37*
%TD.AperFunction*%
%TA.AperFunction,Conductor*%
G36*
X693587Y125372D02*
G01*
X694246Y124831D01*
X851292Y-32215D01*
X852565Y-35288D01*
X852565Y-103438D01*
X852565Y-111291D01*
X852565Y-111292D01*
X852565Y-111292D01*
X853278Y-112526D01*
X853712Y-113574D01*
X854081Y-114951D01*
X936455Y-197325D01*
X937727Y-200397D01*
X937579Y-201522D01*
X933253Y-217669D01*
X932767Y-225076D01*
X935959Y-234479D01*
X935959Y-234479D01*
X935959Y-234479D01*
X942506Y-241944D01*
X949164Y-245228D01*
X949164Y-245228D01*
X949165Y-245228D01*
X987237Y-255429D01*
X987237Y-255429D01*
X987238Y-255429D01*
X991284Y-255695D01*
X994267Y-257165D01*
X995345Y-260030D01*
X995345Y-271665D01*
X994072Y-274737D01*
X991000Y-276010D01*
X989078Y-275562D01*
X982688Y-272410D01*
X982687Y-272410D01*
X982687Y-272410D01*
X944614Y-262209D01*
X944614Y-262209D01*
X937206Y-261723D01*
X927804Y-264915D01*
X927804Y-264915D01*
X920338Y-271462D01*
X920338Y-271462D01*
X917055Y-278120D01*
X917055Y-278120D01*
X908147Y-311363D01*
X907662Y-318771D01*
X910854Y-328173D01*
X910854Y-328174D01*
X914267Y-332065D01*
X915345Y-334930D01*
X915345Y-349406D01*
X914072Y-352479D01*
X912973Y-353278D01*
X905928Y-356867D01*
X896867Y-365928D01*
X891050Y-377344D01*
X891050Y-377344D01*
X889046Y-390000D01*
X889046Y-390000D01*
X891050Y-402655D01*
X891050Y-402656D01*
X891199Y-402948D01*
X891497Y-403532D01*
X891758Y-406847D01*
X890698Y-408577D01*
X889195Y-410080D01*
X886406Y-411343D01*
X877302Y-411940D01*
X876125Y-412017D01*
X876125Y-412017D01*
X867219Y-416409D01*
X867219Y-416409D01*
X862325Y-421990D01*
X862324Y-421990D01*
X845116Y-451796D01*
X845116Y-451796D01*
X842730Y-458825D01*
X843380Y-468733D01*
X843380Y-468733D01*
X847771Y-477639D01*
X847771Y-477639D01*
X853352Y-482533D01*
X853352Y-482533D01*
X853352Y-482533D01*
X853352Y-482533D01*
X887488Y-502242D01*
X887968Y-502404D01*
X890468Y-504597D01*
X890686Y-507915D01*
X889644Y-509591D01*
X883002Y-516233D01*
X879930Y-517505D01*
X877757Y-516923D01*
X869798Y-512328D01*
X844562Y-497758D01*
X843960Y-497554D01*
X837533Y-495372D01*
X828199Y-495984D01*
X827625Y-496021D01*
X827625Y-496021D01*
X818719Y-500413D01*
X818719Y-500413D01*
X813825Y-505994D01*
X813824Y-505994D01*
X796616Y-535800D01*
X796616Y-535800D01*
X794230Y-542829D01*
X794880Y-552738D01*
X794880Y-552738D01*
X799271Y-561643D01*
X799271Y-561644D01*
X804852Y-566538D01*
X804852Y-566538D01*
X809769Y-569377D01*
X811794Y-572015D01*
X811360Y-575312D01*
X810669Y-576212D01*
X758390Y-628492D01*
X755317Y-629764D01*
X752903Y-629032D01*
X749373Y-626673D01*
X749372Y-626673D01*
X739634Y-624736D01*
X739634Y-624736D01*
X729895Y-626673D01*
X729895Y-626673D01*
X723723Y-630797D01*
X699386Y-655134D01*
X698656Y-656226D01*
X695891Y-658074D01*
X695043Y-658157D01*
X617590Y-658157D01*
X614518Y-656885D01*
X613245Y-653812D01*
X614518Y-650740D01*
X615617Y-649941D01*
X624072Y-645633D01*
X624072Y-645633D01*
X624072Y-645633D01*
X633133Y-636572D01*
X638950Y-625156D01*
X640954Y-612500D01*
X638950Y-599845D01*
X635639Y-593347D01*
X633133Y-588428D01*
X624072Y-579367D01*
X612656Y-573550D01*
X600000Y-571546D01*
X600000Y-571546D01*
X587344Y-573550D01*
X587344Y-573550D01*
X575928Y-579367D01*
X566867Y-588428D01*
X561050Y-599844D01*
X561050Y-599844D01*
X559046Y-612500D01*
X559046Y-612500D01*
X561050Y-625155D01*
X561050Y-625156D01*
X561191Y-625432D01*
X561452Y-628747D01*
X559292Y-631276D01*
X557320Y-631750D01*
X513381Y-631750D01*
X510309Y-630477D01*
X509866Y-629958D01*
X494481Y-608783D01*
X494481Y-608783D01*
X492426Y-606883D01*
X489303Y-603997D01*
X489303Y-603997D01*
X489303Y-603997D01*
X480454Y-600732D01*
X471029Y-601102D01*
X471029Y-601102D01*
X464625Y-604054D01*
X430913Y-628548D01*
X426127Y-633725D01*
X426126Y-633726D01*
X422861Y-642575D01*
X422861Y-642575D01*
X423232Y-652000D01*
X423232Y-652000D01*
X426184Y-658404D01*
X439493Y-676723D01*
X444799Y-684026D01*
X444800Y-684026D01*
X445570Y-684738D01*
X449978Y-688812D01*
X458827Y-692077D01*
X461651Y-691966D01*
X464771Y-693117D01*
X466163Y-696137D01*
X465013Y-699257D01*
X464894Y-699380D01*
X450681Y-713593D01*
X447609Y-714866D01*
X444536Y-713593D01*
X411488Y-680545D01*
X410215Y-677472D01*
X410215Y-627942D01*
X411488Y-624870D01*
X567315Y-469043D01*
X570387Y-467770D01*
X663439Y-467770D01*
X663439Y-467770D01*
X664673Y-467057D01*
X665721Y-466623D01*
X667098Y-466254D01*
X672651Y-460701D01*
X784227Y-349125D01*
X785639Y-347713D01*
X786008Y-346336D01*
X786442Y-345289D01*
X787155Y-344054D01*
X787155Y-336200D01*
X787155Y-109571D01*
X787155Y-107573D01*
X786442Y-106339D01*
X786008Y-105291D01*
X785874Y-104791D01*
X785639Y-103914D01*
X780086Y-98361D01*
X674998Y6727D01*
X673586Y8139D01*
X672209Y8508D01*
X671161Y8942D01*
X669927Y9655D01*
X669927Y9655D01*
X664755Y9655D01*
X661683Y10928D01*
X660410Y14000D01*
X660410Y18000D01*
X660213Y18993D01*
X659618Y21984D01*
X657361Y25361D01*
X653984Y27618D01*
X652652Y27882D01*
X649887Y29730D01*
X649155Y32144D01*
X649155Y49445D01*
X650428Y52517D01*
X653500Y53790D01*
X666385Y53790D01*
X673446Y55195D01*
X673446Y55195D01*
X681454Y60545D01*
X681455Y60546D01*
X686805Y68554D01*
X686805Y68554D01*
X688210Y75615D01*
X688210Y114384D01*
X687986Y115510D01*
X686912Y120911D01*
X687560Y124173D01*
X690325Y126021D01*
X693587Y125372D01*
G37*
%TD.AperFunction*%
%TA.AperFunction,Conductor*%
G36*
X626759Y141187D02*
G01*
X628031Y138115D01*
X626759Y135043D01*
X626100Y134502D01*
X618546Y129454D01*
X618545Y129454D01*
X613195Y121446D01*
X613195Y121446D01*
X611790Y114385D01*
X611790Y75615D01*
X613195Y68554D01*
X613195Y68554D01*
X618545Y60546D01*
X618572Y60519D01*
X618587Y60484D01*
X618783Y60190D01*
X618725Y60151D01*
X619845Y57446D01*
X619845Y32144D01*
X618572Y29071D01*
X616348Y27882D01*
X615016Y27618D01*
X611639Y25361D01*
X609382Y21984D01*
X609382Y21984D01*
X609382Y21984D01*
X608590Y18000D01*
X608590Y-7071D01*
X609118Y-9727D01*
X609382Y-11055D01*
X611639Y-14432D01*
X632568Y-35361D01*
X635945Y-37618D01*
X639929Y-38410D01*
X639929Y-38410D01*
X650000Y-38410D01*
X652656Y-37882D01*
X653984Y-37618D01*
X657361Y-35361D01*
X659618Y-31984D01*
X660129Y-29413D01*
X661976Y-26648D01*
X665238Y-25999D01*
X667463Y-27188D01*
X712700Y-72425D01*
X713972Y-75498D01*
X712700Y-78570D01*
X710307Y-79789D01*
X702344Y-81050D01*
X702344Y-81050D01*
X690928Y-86867D01*
X690127Y-87668D01*
X687055Y-88940D01*
X683983Y-87668D01*
X682710Y-84595D01*
X682710Y-63978D01*
X682710Y-63978D01*
X682066Y-60319D01*
X681052Y-57530D01*
X681052Y-57529D01*
X681052Y-57529D01*
X680576Y-56418D01*
X680575Y-56418D01*
X675941Y-51693D01*
X672992Y-50154D01*
X672992Y-50154D01*
X668982Y-48981D01*
X648685Y-47186D01*
X648068Y-47159D01*
X648068Y-47159D01*
X643498Y-47964D01*
X640426Y-49236D01*
X636951Y-51558D01*
X636951Y-51558D01*
X605072Y-83437D01*
X602000Y-84709D01*
X598928Y-83437D01*
X562665Y-47174D01*
X562125Y-46516D01*
X561234Y-45182D01*
X558983Y-42741D01*
X558558Y-42455D01*
X558576Y-42427D01*
X557773Y-41930D01*
X556964Y-41171D01*
X556964Y-41171D01*
X554016Y-39633D01*
X554016Y-39633D01*
X550005Y-38459D01*
X550004Y-38459D01*
X530432Y-36729D01*
X529815Y-36701D01*
X529815Y-36701D01*
X525247Y-37506D01*
X525246Y-37506D01*
X522174Y-38779D01*
X520677Y-39542D01*
X520676Y-39542D01*
X516378Y-44575D01*
X515105Y-47648D01*
X515105Y-47648D01*
X514290Y-51746D01*
X514290Y-51746D01*
X514290Y-129569D01*
X514409Y-130310D01*
X514827Y-132919D01*
X515677Y-135501D01*
X515677Y-135501D01*
X516456Y-137007D01*
X517236Y-138514D01*
X517236Y-138515D01*
X517236Y-138515D01*
X530020Y-155821D01*
X530269Y-156133D01*
X530821Y-156775D01*
X530821Y-156775D01*
X533102Y-158425D01*
X534616Y-159521D01*
X534840Y-159682D01*
X534840Y-159682D01*
X537911Y-160955D01*
X537911Y-160955D01*
X537912Y-160955D01*
X537912Y-160955D01*
X537913Y-160955D01*
X542010Y-161770D01*
X542011Y-161770D01*
X568777Y-161770D01*
X569624Y-161853D01*
X571924Y-162311D01*
X573490Y-162959D01*
X574379Y-163553D01*
X576099Y-164703D01*
X577298Y-165901D01*
X579040Y-168509D01*
X579689Y-170075D01*
X579862Y-170946D01*
X580020Y-171738D01*
X580146Y-172376D01*
X580230Y-173223D01*
X580230Y-207211D01*
X581045Y-211309D01*
X581045Y-211309D01*
X582318Y-214381D01*
X582318Y-214382D01*
X584639Y-217856D01*
X584640Y-217856D01*
X597925Y-231142D01*
X599018Y-232978D01*
X599020Y-232984D01*
X599182Y-234608D01*
X599075Y-235813D01*
X599010Y-236534D01*
X599010Y-244258D01*
X599379Y-246558D01*
X599547Y-247608D01*
X600397Y-250190D01*
X600398Y-250190D01*
X600930Y-251220D01*
X601956Y-253203D01*
X601956Y-253203D01*
X601956Y-253204D01*
X610452Y-264706D01*
X611254Y-267933D01*
X611219Y-268135D01*
X610790Y-270291D01*
X610790Y-309709D01*
X611268Y-312112D01*
X612238Y-316989D01*
X617755Y-325245D01*
X626011Y-330762D01*
X633291Y-332210D01*
X633292Y-332210D01*
X667709Y-332210D01*
X672562Y-331245D01*
X674989Y-330762D01*
X683245Y-325245D01*
X688762Y-316989D01*
X689732Y-312112D01*
X690210Y-309709D01*
X690210Y-270291D01*
X688762Y-263011D01*
X688762Y-263011D01*
X687824Y-261608D01*
X686112Y-259046D01*
X683442Y-255049D01*
X682710Y-252636D01*
X682710Y-224893D01*
X683442Y-222479D01*
X686805Y-217446D01*
X688026Y-211309D01*
X688210Y-210385D01*
X688210Y-171615D01*
X686805Y-164554D01*
X686805Y-164553D01*
X683442Y-159521D01*
X682710Y-157107D01*
X682710Y-155405D01*
X683983Y-152332D01*
X687055Y-151060D01*
X690127Y-152332D01*
X690127Y-152332D01*
X690128Y-152332D01*
X690928Y-153133D01*
X690928Y-153133D01*
X702344Y-158950D01*
X712012Y-160481D01*
X715000Y-160954D01*
X715000Y-160954D01*
X715000Y-160954D01*
X716730Y-160680D01*
X727655Y-158950D01*
X739072Y-153133D01*
X748133Y-144072D01*
X749629Y-141136D01*
X752157Y-138977D01*
X755473Y-139238D01*
X757632Y-141766D01*
X757845Y-143109D01*
X757845Y-332257D01*
X756572Y-335329D01*
X654714Y-437187D01*
X651642Y-438460D01*
X580791Y-438460D01*
X577719Y-437187D01*
X576446Y-434115D01*
X577719Y-431043D01*
X578377Y-430502D01*
X586245Y-425245D01*
X591762Y-416989D01*
X592405Y-413754D01*
X593210Y-409709D01*
X593210Y-370291D01*
X592581Y-367129D01*
X591762Y-363011D01*
X586245Y-354755D01*
X577989Y-349238D01*
X577989Y-349238D01*
X571152Y-347878D01*
X568387Y-346031D01*
X567655Y-343617D01*
X567655Y-336383D01*
X568928Y-333311D01*
X571152Y-332122D01*
X571436Y-332065D01*
X577989Y-330762D01*
X586245Y-325245D01*
X591762Y-316989D01*
X592732Y-312112D01*
X593210Y-309709D01*
X593210Y-270291D01*
X592581Y-267129D01*
X591762Y-263011D01*
X586245Y-254755D01*
X577989Y-249238D01*
X577989Y-249238D01*
X570709Y-247790D01*
X570708Y-247790D01*
X536292Y-247790D01*
X536291Y-247790D01*
X529011Y-249238D01*
X529011Y-249238D01*
X520755Y-254755D01*
X515238Y-263011D01*
X515238Y-263011D01*
X513790Y-270291D01*
X513790Y-309709D01*
X514268Y-312112D01*
X515238Y-316989D01*
X520755Y-325245D01*
X529011Y-330762D01*
X534848Y-331923D01*
X537613Y-333770D01*
X538345Y-336184D01*
X538345Y-343816D01*
X537072Y-346888D01*
X534848Y-348077D01*
X529011Y-349238D01*
X520755Y-354755D01*
X515238Y-363011D01*
X515238Y-363011D01*
X513790Y-370291D01*
X513790Y-409709D01*
X515238Y-416989D01*
X515238Y-416989D01*
X518147Y-421342D01*
X518220Y-421451D01*
X518868Y-424713D01*
X517679Y-426937D01*
X499572Y-445044D01*
X496500Y-446317D01*
X493428Y-445044D01*
X492155Y-441972D01*
X492155Y114110D01*
X493428Y117182D01*
X517433Y141187D01*
X520505Y142460D01*
X623686Y142460D01*
X626759Y141187D01*
G37*
%TD.AperFunction*%
%TA.AperFunction,Conductor*%
G36*
X970780Y1704950D02*
G01*
X975782Y1704950D01*
X975995Y1704939D01*
X989109Y1703648D01*
X989944Y1703482D01*
X1002247Y1699750D01*
X1003034Y1699424D01*
X1014371Y1693363D01*
X1015080Y1692890D01*
X1025279Y1684519D01*
X1025437Y1684375D01*
X1028831Y1680981D01*
X1028835Y1680978D01*
X1124385Y1585427D01*
X1124529Y1585269D01*
X1132887Y1575083D01*
X1133360Y1574374D01*
X1139420Y1563035D01*
X1139746Y1562248D01*
X1143478Y1549945D01*
X1143644Y1549109D01*
X1144939Y1535954D01*
X1144950Y1535741D01*
X1144950Y1530984D01*
X1144950Y1530982D01*
X1144950Y885502D01*
X1144950Y877946D01*
X1144950Y877945D01*
X1144950Y877945D01*
X1146755Y857910D01*
X1146806Y857343D01*
X1150503Y836992D01*
X1151678Y832740D01*
X1151678Y832739D01*
X1192101Y686428D01*
X1192103Y686421D01*
X1193561Y681140D01*
X1193561Y681140D01*
X1198856Y666287D01*
X1199194Y665338D01*
X1205963Y649988D01*
X1209335Y643640D01*
X1209451Y643423D01*
X1209896Y642585D01*
X1241285Y579631D01*
X1241332Y579529D01*
X1269420Y515103D01*
X1269462Y515000D01*
X1294205Y449214D01*
X1294241Y449108D01*
X1315572Y382137D01*
X1315603Y382031D01*
X1320404Y363760D01*
X1333465Y314055D01*
X1333490Y313947D01*
X1347837Y245142D01*
X1347857Y245033D01*
X1358650Y175581D01*
X1358664Y175470D01*
X1365876Y105557D01*
X1365884Y105445D01*
X1369495Y35253D01*
X1369498Y35142D01*
X1369498Y-35142D01*
X1369495Y-35253D01*
X1365884Y-105445D01*
X1365876Y-105557D01*
X1358664Y-175470D01*
X1358650Y-175581D01*
X1347857Y-245033D01*
X1347837Y-245142D01*
X1333490Y-313947D01*
X1333465Y-314055D01*
X1322760Y-354793D01*
X1315940Y-380749D01*
X1315603Y-382030D01*
X1315572Y-382137D01*
X1294241Y-449108D01*
X1294205Y-449214D01*
X1269462Y-515000D01*
X1269420Y-515103D01*
X1241332Y-579529D01*
X1241285Y-579631D01*
X1209897Y-642582D01*
X1206341Y-649277D01*
X1205963Y-649989D01*
X1200514Y-662344D01*
X1199195Y-665337D01*
X1199194Y-665338D01*
X1193561Y-681139D01*
X1191502Y-688597D01*
X1191443Y-688809D01*
X1191316Y-689269D01*
X1189983Y-694092D01*
X1189982Y-694095D01*
X1154573Y-822262D01*
X1154571Y-822265D01*
X1153728Y-825320D01*
X1153726Y-825322D01*
X1150503Y-836993D01*
X1150503Y-836994D01*
X1149830Y-840695D01*
X1147095Y-855758D01*
X1146806Y-857344D01*
X1144977Y-877655D01*
X1144951Y-877945D01*
X1144950Y-882317D01*
X1144950Y-882321D01*
X1144950Y-882669D01*
X1144950Y-887488D01*
X1144950Y-888286D01*
X1144950Y-890698D01*
X1144950Y-893395D01*
X1144950Y-893396D01*
X1144950Y-1530982D01*
X1144950Y-1530984D01*
X1144950Y-1535782D01*
X1144939Y-1535995D01*
X1143648Y-1549109D01*
X1143482Y-1549944D01*
X1139750Y-1562247D01*
X1139424Y-1563034D01*
X1133363Y-1574371D01*
X1132890Y-1575080D01*
X1124519Y-1585279D01*
X1124376Y-1585437D01*
X1120981Y-1588831D01*
X1120978Y-1588835D01*
X1025427Y-1684385D01*
X1025269Y-1684528D01*
X1015083Y-1692887D01*
X1014374Y-1693360D01*
X1003035Y-1699420D01*
X1002248Y-1699746D01*
X989945Y-1703478D01*
X989109Y-1703644D01*
X975954Y-1704939D01*
X975741Y-1704950D01*
X970780Y-1704950D01*
X970779Y-1704950D01*
X-975781Y-1704950D01*
X-975994Y-1704939D01*
X-989109Y-1703648D01*
X-989944Y-1703482D01*
X-1002247Y-1699750D01*
X-1003034Y-1699424D01*
X-1014373Y-1693363D01*
X-1015081Y-1692890D01*
X-1025268Y-1684529D01*
X-1025426Y-1684386D01*
X-1028716Y-1681097D01*
X-1121097Y-1588716D01*
X-1124385Y-1585427D01*
X-1124528Y-1585269D01*
X-1132890Y-1575081D01*
X-1133363Y-1574373D01*
X-1139424Y-1563034D01*
X-1139750Y-1562247D01*
X-1143482Y-1549944D01*
X-1143648Y-1549109D01*
X-1144940Y-1535994D01*
X-1144950Y-1535781D01*
X-1144950Y-885407D01*
X-1144950Y-885405D01*
X-1144950Y-877945D01*
X-1144977Y-877655D01*
X-1146755Y-857909D01*
X-1146807Y-857343D01*
X-1150503Y-836993D01*
X-1151698Y-832669D01*
X-1151698Y-832667D01*
X-1153266Y-826993D01*
X-1153266Y-826991D01*
X-1154102Y-823967D01*
X-1154525Y-822436D01*
X-1154525Y-822436D01*
X-1182352Y-721713D01*
X-1190003Y-694020D01*
X-1190004Y-694018D01*
X-1191328Y-689225D01*
X-1191443Y-688807D01*
X-1191531Y-688489D01*
X-1192764Y-684026D01*
X-1193561Y-681140D01*
X-1193561Y-681140D01*
X-1194227Y-679272D01*
X-1199194Y-665338D01*
X-1199194Y-665338D01*
X-1199194Y-665337D01*
X-1199194Y-665337D01*
X-1199194Y-665337D01*
X-1202252Y-658404D01*
X-1205963Y-649989D01*
X-1206049Y-649827D01*
X-1209862Y-642649D01*
X-1209928Y-642513D01*
X-1209936Y-642495D01*
X-1209966Y-642445D01*
X-1241285Y-579630D01*
X-1241332Y-579529D01*
X-1269420Y-515103D01*
X-1269462Y-515000D01*
X-1294205Y-449214D01*
X-1294241Y-449108D01*
X-1315572Y-382137D01*
X-1315603Y-382030D01*
X-1315940Y-380749D01*
X-1322760Y-354793D01*
X-1333465Y-314055D01*
X-1333490Y-313947D01*
X-1347837Y-245142D01*
X-1347857Y-245033D01*
X-1358650Y-175581D01*
X-1358664Y-175470D01*
X-1365002Y-114030D01*
X-1304551Y-114030D01*
X-1304197Y-114645D01*
X-1303839Y-115265D01*
X-1303404Y-116313D01*
X-1303036Y-117690D01*
X-1301623Y-119102D01*
X-1271810Y-148915D01*
X-1242313Y-178412D01*
X-1241041Y-181484D01*
X-1241041Y-190175D01*
X-1242313Y-193248D01*
X-1244571Y-194443D01*
X-1251198Y-195708D01*
X-1258079Y-198495D01*
X-1258079Y-198495D01*
X-1265155Y-205460D01*
X-1265155Y-205460D01*
X-1265155Y-205460D01*
X-1269027Y-214604D01*
X-1269085Y-222027D01*
X-1261699Y-260746D01*
X-1258913Y-267626D01*
X-1251947Y-274702D01*
X-1251946Y-274702D01*
X-1251593Y-274943D01*
X-1251676Y-275066D01*
X-1249765Y-277007D01*
X-1249447Y-278639D01*
X-1249447Y-422543D01*
X-1249447Y-430397D01*
X-1248943Y-431269D01*
X-1248734Y-431631D01*
X-1248300Y-432679D01*
X-1247931Y-434056D01*
X-1246519Y-435468D01*
X-1246519Y-435468D01*
X-1174474Y-507513D01*
X-1173202Y-510585D01*
X-1173824Y-512826D01*
X-1174312Y-513637D01*
X-1175788Y-523456D01*
X-1173999Y-530660D01*
X-1157216Y-566326D01*
X-1152806Y-572297D01*
X-1146435Y-576132D01*
X-1144460Y-578807D01*
X-1144332Y-579854D01*
X-1144332Y-696397D01*
X-1144332Y-704250D01*
X-1144332Y-704250D01*
X-1143619Y-705484D01*
X-1143185Y-706533D01*
X-1142816Y-707909D01*
X-1141404Y-709322D01*
X-1047315Y-803410D01*
X-1041762Y-808963D01*
X-1040385Y-809332D01*
X-1039337Y-809766D01*
X-1038103Y-810479D01*
X-1036105Y-810479D01*
X-1003444Y-810479D01*
X-1000371Y-811751D01*
X-1000096Y-812054D01*
X-980020Y-836322D01*
X-979863Y-836450D01*
X-978243Y-837769D01*
X-976663Y-840695D01*
X-976641Y-841138D01*
X-976641Y-860185D01*
X-976641Y-868039D01*
X-976641Y-868039D01*
X-975928Y-869273D01*
X-975494Y-870321D01*
X-975125Y-871698D01*
X-973713Y-873110D01*
X-869237Y-977586D01*
X-863684Y-983139D01*
X-862429Y-983476D01*
X-862307Y-983508D01*
X-861259Y-983942D01*
X-860025Y-984655D01*
X-859555Y-984655D01*
X-856483Y-985928D01*
X-855210Y-989000D01*
X-855684Y-990973D01*
X-859483Y-998428D01*
X-859950Y-999344D01*
X-861954Y-1012000D01*
X-859950Y-1024655D01*
X-854133Y-1036072D01*
X-845072Y-1045133D01*
X-833655Y-1050950D01*
X-823004Y-1052637D01*
X-821000Y-1052954D01*
X-821000Y-1052954D01*
X-821000Y-1052954D01*
X-818995Y-1052637D01*
X-808344Y-1050950D01*
X-808344Y-1050950D01*
X-807468Y-1050503D01*
X-804153Y-1050242D01*
X-802423Y-1051302D01*
X-786106Y-1067619D01*
X-780553Y-1073173D01*
X-779176Y-1073542D01*
X-778128Y-1073976D01*
X-776893Y-1074688D01*
X-774896Y-1074688D01*
X-752454Y-1074688D01*
X-749382Y-1075961D01*
X-533757Y-1291586D01*
X-528204Y-1297139D01*
X-526827Y-1297508D01*
X-525779Y-1297942D01*
X-524545Y-1298655D01*
X-524544Y-1298655D01*
X-31573Y-1298655D01*
X-30339Y-1297942D01*
X-29291Y-1297508D01*
X-27914Y-1297139D01*
X-22361Y-1291586D01*
X-20257Y-1289483D01*
X-17185Y-1288210D01*
X19709Y-1288210D01*
X24562Y-1287245D01*
X26989Y-1286762D01*
X35245Y-1281245D01*
X40762Y-1272989D01*
X41740Y-1268072D01*
X42210Y-1265709D01*
X42210Y-1231291D01*
X41501Y-1227725D01*
X40819Y-1224298D01*
X41468Y-1221037D01*
X44232Y-1219189D01*
X47494Y-1219838D01*
X48153Y-1220378D01*
X74016Y-1246241D01*
X79569Y-1251795D01*
X80946Y-1252163D01*
X81994Y-1252597D01*
X83228Y-1253310D01*
X85226Y-1253310D01*
X111954Y-1253310D01*
X115026Y-1254583D01*
X116265Y-1257111D01*
X116758Y-1261018D01*
X116758Y-1261018D01*
X116758Y-1261018D01*
X119107Y-1268060D01*
X125615Y-1275560D01*
X134498Y-1279998D01*
X134498Y-1279998D01*
X135409Y-1280062D01*
X141903Y-1280522D01*
X141903Y-1280522D01*
X181008Y-1275582D01*
X181008Y-1275582D01*
X181009Y-1275582D01*
X188050Y-1273233D01*
X195550Y-1266725D01*
X199988Y-1257842D01*
X200512Y-1250438D01*
X199982Y-1246241D01*
X196199Y-1216293D01*
X195917Y-1215447D01*
X193850Y-1209251D01*
X187342Y-1201751D01*
X182307Y-1199235D01*
X178459Y-1197312D01*
X178459Y-1197312D01*
X171055Y-1196788D01*
X171054Y-1196788D01*
X131949Y-1201728D01*
X124907Y-1204078D01*
X124907Y-1204078D01*
X117407Y-1210586D01*
X117407Y-1210586D01*
X112969Y-1219468D01*
X112969Y-1219469D01*
X112934Y-1219962D01*
X111447Y-1222937D01*
X108600Y-1224000D01*
X95025Y-1224000D01*
X91953Y-1222728D01*
X43143Y-1173917D01*
X41870Y-1170845D01*
X41954Y-1169998D01*
X42210Y-1168708D01*
X42210Y-1134292D01*
X42210Y-1134291D01*
X41954Y-1133003D01*
X42602Y-1129741D01*
X43142Y-1129083D01*
X58824Y-1113401D01*
X61897Y-1112129D01*
X99332Y-1112129D01*
X102404Y-1113401D01*
X103677Y-1116474D01*
X103219Y-1118416D01*
X100812Y-1123233D01*
X100811Y-1123233D01*
X100811Y-1123233D01*
X100369Y-1129483D01*
X100287Y-1130638D01*
X100287Y-1130638D01*
X104601Y-1164783D01*
X105947Y-1168819D01*
X106950Y-1171825D01*
X113458Y-1179324D01*
X122341Y-1183763D01*
X122340Y-1183763D01*
X123252Y-1183827D01*
X129745Y-1184287D01*
X129746Y-1184287D01*
X168851Y-1179347D01*
X168851Y-1179347D01*
X168851Y-1179347D01*
X175893Y-1176998D01*
X183392Y-1170490D01*
X187831Y-1161607D01*
X187866Y-1161113D01*
X189352Y-1158138D01*
X192200Y-1157075D01*
X213550Y-1157075D01*
X216622Y-1158348D01*
X265848Y-1207574D01*
X266985Y-1209566D01*
X273885Y-1236441D01*
X273885Y-1236442D01*
X277098Y-1243133D01*
X277098Y-1243133D01*
X277098Y-1243133D01*
X284495Y-1249758D01*
X293864Y-1253048D01*
X293864Y-1253048D01*
X293864Y-1253048D01*
X297158Y-1252866D01*
X301276Y-1252640D01*
X324220Y-1246749D01*
X327512Y-1247217D01*
X328373Y-1247885D01*
X333627Y-1253139D01*
X335005Y-1253508D01*
X336051Y-1253942D01*
X337287Y-1254655D01*
X339284Y-1254655D01*
X389406Y-1254655D01*
X392479Y-1255928D01*
X393278Y-1257027D01*
X396867Y-1264072D01*
X405928Y-1273133D01*
X413769Y-1277128D01*
X417344Y-1278950D01*
X427272Y-1280522D01*
X430000Y-1280954D01*
X430000Y-1280954D01*
X430000Y-1280954D01*
X431730Y-1280680D01*
X442655Y-1278950D01*
X454072Y-1273133D01*
X454073Y-1273132D01*
X454346Y-1272934D01*
X457580Y-1272157D01*
X460415Y-1273895D01*
X461192Y-1277128D01*
X461162Y-1277296D01*
X460790Y-1279165D01*
X460790Y-1294030D01*
X459517Y-1297103D01*
X457153Y-1299467D01*
X454080Y-1300740D01*
X289745Y-1300740D01*
X286672Y-1299467D01*
X284072Y-1296867D01*
X272656Y-1291050D01*
X260000Y-1289046D01*
X260000Y-1289046D01*
X247344Y-1291050D01*
X247344Y-1291050D01*
X235928Y-1296867D01*
X226867Y-1305928D01*
X221050Y-1317344D01*
X221050Y-1317344D01*
X219046Y-1330000D01*
X219046Y-1330000D01*
X221050Y-1342655D01*
X221050Y-1342656D01*
X222822Y-1346132D01*
X223083Y-1349448D01*
X220923Y-1351976D01*
X218950Y-1352450D01*
X-970384Y-1352450D01*
X-985849Y-1355526D01*
X-985849Y-1355526D01*
X-985849Y-1355526D01*
X-985850Y-1355526D01*
X-1000418Y-1361561D01*
X-1013529Y-1370321D01*
X-1024679Y-1381471D01*
X-1033439Y-1394582D01*
X-1039474Y-1409150D01*
X-1040908Y-1416360D01*
X-1042550Y-1424615D01*
X-1042550Y-1424615D01*
X-1042550Y-1424616D01*
X-1042550Y-1426883D01*
X-1042550Y-1484530D01*
X-1042550Y-1489289D01*
X-1042550Y-1495589D01*
X-1040579Y-1508034D01*
X-1036685Y-1520018D01*
X-1030965Y-1531245D01*
X-1023559Y-1541438D01*
X-1023076Y-1541921D01*
X-1023076Y-1541921D01*
X-983924Y-1581073D01*
X-983924Y-1581073D01*
X-981438Y-1583559D01*
X-971245Y-1590965D01*
X-960018Y-1596685D01*
X-948034Y-1600579D01*
X-935589Y-1602550D01*
X-935589Y-1602550D01*
X932177Y-1602550D01*
X932186Y-1602549D01*
X935589Y-1602550D01*
X948034Y-1600579D01*
X960017Y-1596685D01*
X971244Y-1590965D01*
X981438Y-1583559D01*
X981921Y-1583076D01*
X981921Y-1583076D01*
X987384Y-1577613D01*
X989259Y-1575739D01*
X989259Y-1575738D01*
X989615Y-1575382D01*
X989616Y-1575381D01*
X1015381Y-1549616D01*
X1015381Y-1549616D01*
X1015738Y-1549259D01*
X1015739Y-1549259D01*
X1017957Y-1547040D01*
X1017958Y-1547039D01*
X1019104Y-1545893D01*
X1023559Y-1541438D01*
X1029515Y-1533241D01*
X1030965Y-1531245D01*
X1030965Y-1531245D01*
X1030965Y-1531245D01*
X1036686Y-1520018D01*
X1040579Y-1508034D01*
X1042550Y-1495589D01*
X1042550Y-1489289D01*
X1042550Y-1484529D01*
X1042550Y-1429716D01*
X1042550Y-1424616D01*
X1042550Y-1424616D01*
X1042550Y-1424615D01*
X1039474Y-1409151D01*
X1039474Y-1409150D01*
X1039474Y-1409150D01*
X1033439Y-1394582D01*
X1024679Y-1381471D01*
X1013529Y-1370321D01*
X1004748Y-1364454D01*
X1000418Y-1361561D01*
X990116Y-1357294D01*
X985850Y-1355526D01*
X985849Y-1355526D01*
X985849Y-1355526D01*
X985849Y-1355526D01*
X970384Y-1352450D01*
X970384Y-1352450D01*
X968117Y-1352450D01*
X879420Y-1352450D01*
X876347Y-1351177D01*
X875075Y-1348105D01*
X876347Y-1345033D01*
X885786Y-1335594D01*
X915772Y-1305608D01*
X918844Y-1304335D01*
X920279Y-1304579D01*
X932039Y-1308694D01*
X950000Y-1310718D01*
X967961Y-1308694D01*
X985022Y-1302724D01*
X1000326Y-1293108D01*
X1013107Y-1280327D01*
X1022724Y-1265022D01*
X1028694Y-1247961D01*
X1030717Y-1230000D01*
X1028694Y-1212039D01*
X1022724Y-1194978D01*
X1013107Y-1179674D01*
X1000326Y-1166893D01*
X1000326Y-1166892D01*
X1000326Y-1166892D01*
X987925Y-1159100D01*
X985022Y-1157276D01*
X985022Y-1157276D01*
X985022Y-1157276D01*
X967961Y-1151306D01*
X967961Y-1151306D01*
X950000Y-1149283D01*
X932039Y-1151306D01*
X914978Y-1157276D01*
X899674Y-1166892D01*
X886892Y-1179674D01*
X877276Y-1194978D01*
X871306Y-1212039D01*
X869282Y-1230000D01*
X871306Y-1247961D01*
X874451Y-1256950D01*
X875399Y-1259657D01*
X875421Y-1259720D01*
X875234Y-1263041D01*
X874392Y-1264228D01*
X835703Y-1302917D01*
X832630Y-1304190D01*
X647370Y-1304190D01*
X644297Y-1302917D01*
X638483Y-1297103D01*
X637210Y-1294030D01*
X637210Y-1279165D01*
X636497Y-1275582D01*
X635834Y-1272249D01*
X630594Y-1264406D01*
X622751Y-1259166D01*
X622751Y-1259166D01*
X615836Y-1257790D01*
X615835Y-1257790D01*
X584165Y-1257790D01*
X584165Y-1257790D01*
X577249Y-1259166D01*
X577249Y-1259166D01*
X569406Y-1264406D01*
X564166Y-1272249D01*
X564166Y-1272249D01*
X562790Y-1279165D01*
X562790Y-1279165D01*
X562790Y-1320835D01*
X564166Y-1327751D01*
X569406Y-1335594D01*
X577249Y-1340834D01*
X584165Y-1342210D01*
X584165Y-1342210D01*
X599030Y-1342210D01*
X602103Y-1343483D01*
X603653Y-1345033D01*
X604925Y-1348105D01*
X603653Y-1351177D01*
X600580Y-1352450D01*
X497420Y-1352450D01*
X494347Y-1351177D01*
X493075Y-1348105D01*
X494347Y-1345033D01*
X495897Y-1343483D01*
X498970Y-1342210D01*
X513835Y-1342210D01*
X518446Y-1341293D01*
X520751Y-1340834D01*
X528594Y-1335594D01*
X533834Y-1327751D01*
X535210Y-1320835D01*
X535210Y-1279165D01*
X535210Y-1279165D01*
X534497Y-1275582D01*
X533834Y-1272249D01*
X528594Y-1264406D01*
X520751Y-1259166D01*
X520751Y-1259166D01*
X513835Y-1257790D01*
X513835Y-1257790D01*
X482165Y-1257790D01*
X482165Y-1257790D01*
X475249Y-1259166D01*
X475249Y-1259166D01*
X474513Y-1259657D01*
X471252Y-1260306D01*
X468487Y-1258458D01*
X467838Y-1255196D01*
X468228Y-1254072D01*
X468950Y-1252656D01*
X470954Y-1240000D01*
X470895Y-1239624D01*
X469893Y-1233303D01*
X468950Y-1227345D01*
X467823Y-1225132D01*
X463133Y-1215928D01*
X457931Y-1210726D01*
X456659Y-1207654D01*
X457931Y-1204582D01*
X459404Y-1203614D01*
X472699Y-1198350D01*
X476023Y-1198403D01*
X477370Y-1199318D01*
X485662Y-1207610D01*
X493638Y-1215586D01*
X499192Y-1221139D01*
X500569Y-1221508D01*
X501616Y-1221942D01*
X502851Y-1222655D01*
X504848Y-1222655D01*
X518406Y-1222655D01*
X521479Y-1223928D01*
X522278Y-1225027D01*
X525867Y-1232072D01*
X534928Y-1241133D01*
X541405Y-1244433D01*
X546345Y-1246950D01*
X556618Y-1248577D01*
X559000Y-1248954D01*
X559000Y-1248954D01*
X559000Y-1248954D01*
X560730Y-1248680D01*
X571656Y-1246950D01*
X583072Y-1241133D01*
X592133Y-1232072D01*
X597950Y-1220656D01*
X599954Y-1208000D01*
X597950Y-1195345D01*
X597306Y-1194080D01*
X592133Y-1183928D01*
X591103Y-1182898D01*
X589831Y-1179826D01*
X591103Y-1176754D01*
X594176Y-1175481D01*
X620101Y-1175481D01*
X620101Y-1175481D01*
X621335Y-1174768D01*
X622383Y-1174334D01*
X622795Y-1174224D01*
X623760Y-1173965D01*
X629313Y-1168412D01*
X671727Y-1125998D01*
X673139Y-1124586D01*
X673508Y-1123209D01*
X673942Y-1122161D01*
X674327Y-1121494D01*
X674655Y-1120927D01*
X674655Y-1113073D01*
X674655Y-1061071D01*
X674655Y-1059073D01*
X673942Y-1057839D01*
X673508Y-1056791D01*
X673139Y-1055414D01*
X667586Y-1049861D01*
X615066Y-997340D01*
X613653Y-995928D01*
X613653Y-995928D01*
X612276Y-995559D01*
X611229Y-995125D01*
X609994Y-994412D01*
X609994Y-994412D01*
X609994Y-994412D01*
X609994Y-994412D01*
X597420Y-994412D01*
X594348Y-993139D01*
X593613Y-992160D01*
X583438Y-973653D01*
X583438Y-973653D01*
X583438Y-973652D01*
X578662Y-967970D01*
X569850Y-963393D01*
X569850Y-963393D01*
X559957Y-962536D01*
X559957Y-962536D01*
X552880Y-964774D01*
X552880Y-964774D01*
X518338Y-983764D01*
X512656Y-988540D01*
X508079Y-997352D01*
X508078Y-997352D01*
X507222Y-1007244D01*
X507222Y-1007245D01*
X509460Y-1014322D01*
X509460Y-1014322D01*
X515557Y-1025411D01*
X526041Y-1044482D01*
X530817Y-1050164D01*
X539629Y-1054741D01*
X549522Y-1055598D01*
X549522Y-1055598D01*
X549522Y-1055598D01*
X556599Y-1053360D01*
X556599Y-1053360D01*
X556599Y-1053360D01*
X591140Y-1034371D01*
X596823Y-1029594D01*
X597181Y-1028904D01*
X599726Y-1026764D01*
X603039Y-1027051D01*
X604109Y-1027834D01*
X617006Y-1040732D01*
X618279Y-1043804D01*
X617006Y-1046876D01*
X613934Y-1048149D01*
X613559Y-1048133D01*
X606687Y-1047538D01*
X606687Y-1047538D01*
X599610Y-1049776D01*
X599610Y-1049776D01*
X565069Y-1068765D01*
X559386Y-1073542D01*
X557553Y-1077072D01*
X555007Y-1079212D01*
X553697Y-1079414D01*
X474618Y-1079414D01*
X471546Y-1078141D01*
X470344Y-1075850D01*
X469476Y-1071099D01*
X469476Y-1071099D01*
X469419Y-1070954D01*
X456806Y-1039099D01*
X452780Y-1032863D01*
X448973Y-1030232D01*
X444611Y-1027217D01*
X443550Y-1026989D01*
X434904Y-1025127D01*
X434904Y-1025127D01*
X434904Y-1025127D01*
X427602Y-1026461D01*
X427602Y-1026461D01*
X390953Y-1040971D01*
X384717Y-1044998D01*
X384716Y-1044998D01*
X383619Y-1046585D01*
X380826Y-1048389D01*
X380045Y-1048460D01*
X259755Y-1048460D01*
X256683Y-1047187D01*
X255410Y-1044115D01*
X256683Y-1041043D01*
X267000Y-1030726D01*
X297995Y-999730D01*
X299943Y-998606D01*
X299968Y-998599D01*
X299969Y-998599D01*
X314135Y-994803D01*
X315259Y-994655D01*
X423927Y-994655D01*
X423927Y-994655D01*
X425161Y-993942D01*
X426209Y-993508D01*
X427586Y-993139D01*
X433139Y-987586D01*
X469725Y-951001D01*
X471137Y-949588D01*
X471506Y-948211D01*
X471940Y-947163D01*
X472223Y-946674D01*
X472653Y-945929D01*
X472653Y-938075D01*
X472653Y-933063D01*
X473925Y-929990D01*
X474825Y-929300D01*
X477416Y-927804D01*
X494006Y-918226D01*
X499587Y-913332D01*
X503979Y-904426D01*
X504628Y-894518D01*
X504596Y-894425D01*
X503451Y-891050D01*
X502242Y-887488D01*
X482533Y-853352D01*
X482533Y-853352D01*
X482533Y-853352D01*
X482533Y-853352D01*
X477639Y-847771D01*
X477639Y-847771D01*
X475494Y-846713D01*
X475076Y-846507D01*
X472883Y-844007D01*
X472653Y-842610D01*
X472653Y-734872D01*
X473925Y-731800D01*
X475709Y-730016D01*
X478781Y-728744D01*
X481854Y-730016D01*
X483123Y-732918D01*
X483186Y-734520D01*
X483186Y-734520D01*
X486138Y-740924D01*
X504754Y-766546D01*
X509932Y-771332D01*
X518781Y-774597D01*
X528206Y-774227D01*
X534610Y-771274D01*
X568322Y-746781D01*
X573109Y-741603D01*
X574559Y-737673D01*
X576373Y-732754D01*
X576373Y-732753D01*
X576003Y-723329D01*
X576003Y-723329D01*
X573051Y-716925D01*
X570716Y-713711D01*
X569940Y-710478D01*
X571159Y-708085D01*
X572628Y-706616D01*
X575700Y-705344D01*
X638686Y-705344D01*
X641758Y-706617D01*
X643031Y-709689D01*
X641758Y-712761D01*
X630797Y-723723D01*
X626673Y-729895D01*
X626673Y-729895D01*
X624736Y-739634D01*
X624736Y-739634D01*
X626673Y-749372D01*
X626673Y-749373D01*
X627304Y-750317D01*
X627953Y-753579D01*
X626105Y-756344D01*
X623012Y-757023D01*
X620000Y-756546D01*
X620000Y-756546D01*
X607344Y-758550D01*
X607344Y-758550D01*
X595928Y-764367D01*
X586867Y-773428D01*
X582587Y-781829D01*
X580058Y-783988D01*
X579840Y-784053D01*
X578692Y-784360D01*
X578692Y-784361D01*
X577279Y-785773D01*
X565277Y-797776D01*
X562204Y-799048D01*
X560282Y-798600D01*
X552738Y-794880D01*
X552738Y-794880D01*
X552738Y-794880D01*
X551519Y-794800D01*
X542829Y-794230D01*
X535800Y-796616D01*
X535800Y-796616D01*
X505994Y-813824D01*
X505994Y-813825D01*
X500413Y-818719D01*
X500413Y-818719D01*
X496021Y-827625D01*
X496021Y-827625D01*
X495372Y-837533D01*
X497237Y-843029D01*
X497758Y-844562D01*
X512549Y-870181D01*
X517467Y-878699D01*
X517467Y-878699D01*
X522361Y-884279D01*
X522361Y-884279D01*
X531267Y-888671D01*
X541175Y-889321D01*
X548204Y-886934D01*
X578010Y-869726D01*
X583591Y-864832D01*
X587983Y-855926D01*
X588632Y-846018D01*
X588614Y-845963D01*
X587837Y-843674D01*
X586246Y-838988D01*
X580685Y-829356D01*
X580325Y-828732D01*
X579891Y-825435D01*
X581015Y-823487D01*
X581827Y-822676D01*
X584899Y-821404D01*
X587971Y-822676D01*
X595928Y-830633D01*
X603331Y-834405D01*
X607345Y-836450D01*
X616157Y-837846D01*
X620000Y-838454D01*
X620000Y-838454D01*
X620000Y-838454D01*
X622451Y-838066D01*
X632656Y-836450D01*
X644072Y-830633D01*
X653133Y-821572D01*
X658950Y-810155D01*
X660954Y-797500D01*
X660870Y-796969D01*
X660174Y-792576D01*
X660951Y-789342D01*
X663786Y-787605D01*
X665313Y-787634D01*
X674580Y-789478D01*
X684319Y-787541D01*
X690491Y-783417D01*
X714827Y-759080D01*
X718101Y-754181D01*
X720866Y-752333D01*
X724127Y-752982D01*
X724786Y-753523D01*
X768552Y-797289D01*
X769824Y-800361D01*
X768552Y-803433D01*
X768454Y-803528D01*
X756621Y-814641D01*
X747732Y-822987D01*
X746706Y-823951D01*
X742696Y-829562D01*
X739874Y-831322D01*
X737188Y-830907D01*
X727656Y-826050D01*
X715000Y-824046D01*
X715000Y-824046D01*
X702344Y-826050D01*
X702344Y-826050D01*
X690928Y-831867D01*
X681867Y-840928D01*
X676050Y-852344D01*
X676050Y-852344D01*
X674046Y-865000D01*
X674046Y-865000D01*
X676050Y-877655D01*
X676050Y-877656D01*
X676957Y-879434D01*
X677217Y-882750D01*
X675058Y-885278D01*
X674904Y-885353D01*
X671473Y-886935D01*
X669438Y-887873D01*
X669438Y-887873D01*
X637549Y-911041D01*
X632510Y-916492D01*
X629074Y-925808D01*
X629074Y-925808D01*
X629463Y-935730D01*
X629463Y-935730D01*
X629464Y-935730D01*
X632571Y-942472D01*
X632571Y-942472D01*
X632571Y-942472D01*
X652801Y-970315D01*
X652801Y-970315D01*
X658252Y-975354D01*
X667568Y-978791D01*
X677490Y-978401D01*
X684231Y-975293D01*
X716120Y-952125D01*
X721159Y-946674D01*
X724174Y-938501D01*
X724596Y-937358D01*
X724596Y-937358D01*
X724343Y-930928D01*
X724206Y-927436D01*
X721098Y-920695D01*
X721098Y-920694D01*
X721098Y-920694D01*
X717956Y-916370D01*
X717180Y-913136D01*
X718399Y-910744D01*
X723732Y-905411D01*
X726124Y-904192D01*
X727655Y-903950D01*
X728532Y-903503D01*
X731847Y-903242D01*
X733577Y-904302D01*
X746978Y-917703D01*
X752531Y-923257D01*
X753908Y-923626D01*
X754956Y-924059D01*
X756191Y-924772D01*
X758188Y-924772D01*
X808664Y-924772D01*
X811736Y-926045D01*
X812106Y-926466D01*
X835667Y-951556D01*
X835667Y-951557D01*
X842055Y-956121D01*
X841916Y-956315D01*
X843624Y-958137D01*
X843517Y-961460D01*
X842630Y-962742D01*
X811242Y-994130D01*
X808170Y-995403D01*
X777591Y-995403D01*
X774518Y-994130D01*
X774076Y-993612D01*
X757884Y-971325D01*
X755952Y-969539D01*
X752433Y-966287D01*
X752432Y-966286D01*
X752433Y-966286D01*
X743117Y-962850D01*
X733195Y-963239D01*
X733194Y-963240D01*
X726453Y-966347D01*
X726453Y-966347D01*
X694565Y-989516D01*
X689526Y-994967D01*
X686089Y-1004283D01*
X686089Y-1004283D01*
X686479Y-1014204D01*
X686479Y-1014205D01*
X686479Y-1014205D01*
X689586Y-1020946D01*
X689587Y-1020946D01*
X689587Y-1020947D01*
X709529Y-1048395D01*
X709816Y-1048790D01*
X715267Y-1053829D01*
X724583Y-1057266D01*
X734505Y-1056876D01*
X741246Y-1053768D01*
X773135Y-1030599D01*
X776961Y-1026461D01*
X777287Y-1026108D01*
X780307Y-1024716D01*
X780477Y-1024713D01*
X819967Y-1024713D01*
X819967Y-1024713D01*
X821201Y-1024000D01*
X822250Y-1023566D01*
X822465Y-1023508D01*
X823626Y-1023197D01*
X829179Y-1017644D01*
X973713Y-873110D01*
X975125Y-871698D01*
X975494Y-870321D01*
X975928Y-869273D01*
X976641Y-868039D01*
X976641Y-868039D01*
X976641Y-860185D01*
X976641Y-841138D01*
X977913Y-838066D01*
X978243Y-837769D01*
X979863Y-836450D01*
X980020Y-836322D01*
X1000225Y-811898D01*
X1001940Y-810797D01*
X1001922Y-810765D01*
X1002417Y-810479D01*
X1002417Y-810479D01*
X1003651Y-809766D01*
X1004700Y-809332D01*
X1006076Y-808963D01*
X1011630Y-803410D01*
X1141404Y-673636D01*
X1142816Y-672224D01*
X1143185Y-670847D01*
X1143619Y-669799D01*
X1144332Y-668565D01*
X1144332Y-668564D01*
X1144332Y-660711D01*
X1144332Y-579854D01*
X1145604Y-576782D01*
X1146435Y-576132D01*
X1152806Y-572297D01*
X1157216Y-566326D01*
X1173999Y-530660D01*
X1175788Y-523456D01*
X1174312Y-513637D01*
X1173824Y-512826D01*
X1173330Y-509538D01*
X1174474Y-507513D01*
X1246519Y-435468D01*
X1247931Y-434056D01*
X1248300Y-432679D01*
X1248734Y-431631D01*
X1248943Y-431269D01*
X1249447Y-430397D01*
X1249447Y-422543D01*
X1249447Y-278639D01*
X1250720Y-275567D01*
X1251609Y-274968D01*
X1251593Y-274943D01*
X1251946Y-274702D01*
X1251947Y-274702D01*
X1258913Y-267626D01*
X1261699Y-260746D01*
X1269085Y-222027D01*
X1269027Y-214604D01*
X1269027Y-214604D01*
X1269024Y-214176D01*
X1269173Y-214175D01*
X1269684Y-211500D01*
X1270242Y-210814D01*
X1301623Y-179433D01*
X1303036Y-178021D01*
X1303404Y-176644D01*
X1303839Y-175596D01*
X1304551Y-174362D01*
X1304551Y-174362D01*
X1304551Y-166508D01*
X1304551Y36463D01*
X1304551Y38461D01*
X1303839Y39695D01*
X1303404Y40743D01*
X1303036Y42120D01*
X1303036Y42120D01*
X1297482Y47673D01*
X1288074Y57081D01*
X1286802Y60154D01*
X1286840Y60731D01*
X1286906Y61218D01*
X1284820Y94371D01*
X1285897Y97517D01*
X1286084Y97716D01*
X1290639Y102271D01*
X1290639Y102271D01*
X1291008Y103648D01*
X1291442Y104696D01*
X1291875Y105445D01*
X1292155Y105931D01*
X1292155Y113784D01*
X1292155Y266929D01*
X1292155Y268927D01*
X1291442Y270161D01*
X1291008Y271209D01*
X1290941Y271462D01*
X1290639Y272586D01*
X1285086Y278139D01*
X1263998Y299227D01*
X1262586Y300639D01*
X1261209Y301008D01*
X1260161Y301442D01*
X1258927Y302155D01*
X1256929Y302155D01*
X1206761Y302155D01*
X1198907Y302155D01*
X1197673Y301442D01*
X1196625Y301008D01*
X1195248Y300639D01*
X1195248Y300639D01*
X1154850Y260241D01*
X1151778Y258969D01*
X1150084Y259313D01*
X1147521Y260398D01*
X1140098Y260456D01*
X1106291Y254007D01*
X1100631Y251715D01*
X1097306Y251741D01*
X1094973Y254111D01*
X1094655Y255742D01*
X1094655Y271427D01*
X1094655Y271427D01*
X1093942Y272662D01*
X1093508Y273709D01*
X1093139Y275086D01*
X1087586Y280639D01*
X996498Y371727D01*
X995086Y373139D01*
X993709Y373508D01*
X992661Y373942D01*
X991427Y374655D01*
X989429Y374655D01*
X941427Y374655D01*
X939615Y374655D01*
X936543Y375928D01*
X935270Y379000D01*
X936543Y382072D01*
X981046Y426576D01*
X981046Y426576D01*
X981201Y427152D01*
X982325Y429100D01*
X1008421Y455196D01*
X1011494Y456469D01*
X1014566Y455196D01*
X1014989Y454705D01*
X1018779Y449573D01*
X1027286Y444452D01*
X1037105Y442976D01*
X1037106Y442976D01*
X1037106Y442976D01*
X1044310Y444765D01*
X1044310Y444765D01*
X1044310Y444765D01*
X1075451Y459419D01*
X1075451Y459419D01*
X1081422Y463829D01*
X1086544Y472336D01*
X1088020Y482156D01*
X1086231Y489360D01*
X1069448Y525025D01*
X1065851Y529895D01*
X1065049Y533122D01*
X1066274Y535548D01*
X1076556Y545831D01*
X1079629Y547104D01*
X1082701Y545831D01*
X1083974Y542759D01*
X1083926Y542113D01*
X1083565Y539715D01*
X1083565Y539715D01*
X1085355Y532510D01*
X1085355Y532510D01*
X1102137Y496845D01*
X1106548Y490874D01*
X1112918Y487039D01*
X1114894Y484364D01*
X1115022Y483316D01*
X1115022Y480593D01*
X1113749Y477521D01*
X1112649Y476722D01*
X1105605Y473133D01*
X1096544Y464072D01*
X1090727Y452656D01*
X1090727Y452655D01*
X1088722Y440000D01*
X1088722Y440000D01*
X1090727Y427344D01*
X1090727Y427344D01*
X1096544Y415928D01*
X1103497Y408975D01*
X1104770Y405902D01*
X1103497Y402830D01*
X1100935Y401587D01*
X1098464Y401295D01*
X1065732Y390659D01*
X1059255Y387032D01*
X1053108Y379234D01*
X1050412Y369677D01*
X1050412Y369677D01*
X1051285Y362305D01*
X1063465Y324819D01*
X1066133Y320056D01*
X1067093Y318342D01*
X1074890Y312194D01*
X1084447Y309499D01*
X1084448Y309499D01*
X1091819Y310371D01*
X1124551Y321007D01*
X1124551Y321007D01*
X1131028Y324634D01*
X1137176Y332432D01*
X1139871Y341989D01*
X1138998Y349360D01*
X1132561Y369172D01*
X1132822Y372487D01*
X1133621Y373587D01*
X1140676Y380642D01*
X1143748Y381915D01*
X1146821Y380642D01*
X1147881Y378912D01*
X1155718Y354793D01*
X1159155Y348655D01*
X1159345Y348316D01*
X1167143Y342169D01*
X1176700Y339473D01*
X1176700Y339473D01*
X1184072Y340346D01*
X1216803Y350981D01*
X1219238Y352344D01*
X1223280Y354608D01*
X1229428Y362406D01*
X1232123Y371963D01*
X1231251Y379335D01*
X1219070Y416823D01*
X1215443Y423299D01*
X1207645Y429447D01*
X1205215Y430132D01*
X1202603Y432191D01*
X1202049Y434314D01*
X1202049Y546533D01*
X1202049Y546533D01*
X1201336Y547767D01*
X1200902Y548815D01*
X1200710Y549534D01*
X1200533Y550192D01*
X1194980Y555745D01*
X1132131Y618594D01*
X1131441Y619494D01*
X1130728Y620728D01*
X1129493Y621441D01*
X1128594Y622131D01*
X1100722Y650003D01*
X1099450Y653075D01*
X1099821Y654832D01*
X1100676Y656767D01*
X1100676Y656767D01*
X1100910Y666694D01*
X1098232Y673617D01*
X1077111Y706898D01*
X1071988Y712269D01*
X1071387Y712535D01*
X1069091Y714941D01*
X1068798Y716509D01*
X1068798Y771282D01*
X1068798Y771282D01*
X1068086Y772517D01*
X1067652Y773565D01*
X1067463Y774269D01*
X1067283Y774942D01*
X1061729Y780495D01*
X920380Y921844D01*
X918968Y923257D01*
X917591Y923625D01*
X916543Y924060D01*
X915308Y924772D01*
X915308Y924772D01*
X898780Y924772D01*
X895806Y925950D01*
X870682Y949543D01*
X869314Y952573D01*
X869312Y952710D01*
X869312Y964269D01*
X869312Y964270D01*
X868599Y965504D01*
X868165Y966552D01*
X867796Y967929D01*
X867796Y967929D01*
X862243Y973482D01*
X729929Y1105796D01*
X728517Y1107208D01*
X727140Y1107577D01*
X726092Y1108011D01*
X724858Y1108724D01*
X724858Y1108724D01*
X649242Y1108724D01*
X646170Y1109997D01*
X645387Y1111066D01*
X645017Y1111777D01*
X643553Y1114596D01*
X637871Y1119372D01*
X603329Y1138362D01*
X603329Y1138362D01*
X603329Y1138362D01*
X598961Y1139743D01*
X596252Y1140600D01*
X586359Y1139743D01*
X583700Y1138362D01*
X582709Y1137847D01*
X579396Y1137560D01*
X577633Y1138630D01*
X495261Y1221003D01*
X493848Y1222415D01*
X492472Y1222784D01*
X491423Y1223218D01*
X490189Y1223931D01*
X490189Y1223931D01*
X358763Y1223931D01*
X355691Y1225204D01*
X354664Y1226837D01*
X354651Y1226873D01*
X352771Y1232227D01*
X346146Y1239624D01*
X339454Y1242837D01*
X323241Y1247000D01*
X948282Y1247000D01*
X950306Y1229039D01*
X956276Y1211978D01*
X965892Y1196674D01*
X978674Y1183892D01*
X993978Y1174276D01*
X1011039Y1168306D01*
X1011038Y1168306D01*
X1029000Y1166283D01*
X1046961Y1168306D01*
X1064022Y1174276D01*
X1065842Y1175420D01*
X1072530Y1179622D01*
X1079326Y1183892D01*
X1079326Y1183892D01*
X1079327Y1183893D01*
X1092108Y1196674D01*
X1092509Y1197312D01*
X1096149Y1203106D01*
X1101724Y1211978D01*
X1107694Y1229039D01*
X1109718Y1247000D01*
X1107694Y1264961D01*
X1101724Y1282022D01*
X1092108Y1297327D01*
X1079327Y1310108D01*
X1064022Y1319724D01*
X1046961Y1325694D01*
X1046961Y1325694D01*
X1045142Y1325899D01*
X1029000Y1327718D01*
X1011039Y1325694D01*
X993978Y1319724D01*
X978673Y1310108D01*
X965892Y1297327D01*
X965892Y1297326D01*
X965892Y1297326D01*
X956276Y1282022D01*
X950306Y1264961D01*
X948282Y1247000D01*
X323241Y1247000D01*
X301276Y1252640D01*
X297636Y1252840D01*
X295241Y1252972D01*
X292408Y1254238D01*
X260074Y1286572D01*
X258661Y1287984D01*
X257285Y1288353D01*
X256237Y1288787D01*
X255032Y1289483D01*
X255002Y1289500D01*
X255002Y1289500D01*
X233025Y1289500D01*
X229953Y1290773D01*
X223798Y1296928D01*
X218998Y1301727D01*
X217586Y1303139D01*
X216209Y1303508D01*
X215161Y1303942D01*
X213927Y1304655D01*
X211929Y1304655D01*
X136427Y1304655D01*
X128573Y1304655D01*
X127339Y1303942D01*
X126291Y1303508D01*
X124914Y1303139D01*
X124914Y1303139D01*
X94361Y1272586D01*
X93992Y1271209D01*
X93558Y1270161D01*
X92845Y1268927D01*
X92845Y1268927D01*
X92845Y1186870D01*
X91572Y1183798D01*
X88500Y1182525D01*
X85428Y1183798D01*
X43143Y1226083D01*
X41870Y1229155D01*
X41954Y1230003D01*
X42210Y1231291D01*
X42210Y1265709D01*
X41655Y1268500D01*
X40762Y1272989D01*
X35245Y1281245D01*
X26989Y1286762D01*
X24562Y1287245D01*
X19709Y1288210D01*
X19708Y1288210D01*
X-17185Y1288210D01*
X-20257Y1289483D01*
X-31414Y1300639D01*
X-31414Y1300639D01*
X-32791Y1301008D01*
X-33839Y1301442D01*
X-35073Y1302155D01*
X-37071Y1302155D01*
X-221993Y1302155D01*
X-229846Y1302155D01*
X-231081Y1301442D01*
X-232128Y1301008D01*
X-233506Y1300639D01*
X-234798Y1299347D01*
X-237870Y1298075D01*
X-240273Y1298075D01*
X-241507Y1297362D01*
X-242555Y1296928D01*
X-243932Y1296559D01*
X-245344Y1295147D01*
X-287179Y1253312D01*
X-290251Y1252039D01*
X-291690Y1252284D01*
X-293864Y1253048D01*
X-293864Y1253048D01*
X-293864Y1253048D01*
X-297570Y1252844D01*
X-301276Y1252640D01*
X-339454Y1242837D01*
X-346146Y1239624D01*
X-346891Y1238792D01*
X-347062Y1238601D01*
X-350060Y1237162D01*
X-350298Y1237155D01*
X-463573Y1237155D01*
X-471427Y1237155D01*
X-472661Y1236442D01*
X-473709Y1236008D01*
X-475086Y1235639D01*
X-476498Y1234227D01*
X-485522Y1225204D01*
X-494798Y1215928D01*
X-497870Y1214655D01*
X-499465Y1214655D01*
X-500699Y1213942D01*
X-501748Y1213508D01*
X-503124Y1213139D01*
X-504537Y1211727D01*
X-535355Y1180909D01*
X-536768Y1179496D01*
X-577633Y1138630D01*
X-580706Y1137358D01*
X-582709Y1137847D01*
X-583700Y1138362D01*
X-586359Y1139743D01*
X-596252Y1140600D01*
X-596252Y1140600D01*
X-596252Y1140600D01*
X-603329Y1138362D01*
X-603329Y1138362D01*
X-603329Y1138362D01*
X-637871Y1119372D01*
X-643553Y1114596D01*
X-645017Y1111777D01*
X-645387Y1111066D01*
X-647932Y1108926D01*
X-649242Y1108724D01*
X-717004Y1108724D01*
X-724858Y1108724D01*
X-726092Y1108011D01*
X-727140Y1107577D01*
X-728517Y1107208D01*
X-729929Y1105796D01*
X-821480Y1014245D01*
X-827033Y1008692D01*
X-827033Y1008692D01*
X-827402Y1007315D01*
X-827836Y1006267D01*
X-828549Y1005033D01*
X-828549Y1005032D01*
X-828549Y1001764D01*
X-829822Y998692D01*
X-862243Y966270D01*
X-867796Y960717D01*
X-867796Y960717D01*
X-868165Y959341D01*
X-868599Y958292D01*
X-869312Y957058D01*
X-869312Y957058D01*
X-869312Y952710D01*
X-870585Y949638D01*
X-870682Y949543D01*
X-895806Y925950D01*
X-898780Y924772D01*
X-915956Y924772D01*
X-923809Y924772D01*
X-925044Y924060D01*
X-926092Y923625D01*
X-927469Y923257D01*
X-928881Y921844D01*
X-1061729Y788996D01*
X-1067283Y783443D01*
X-1067438Y782864D01*
X-1067652Y782066D01*
X-1068086Y781018D01*
X-1068798Y779783D01*
X-1068798Y779783D01*
X-1068798Y716509D01*
X-1070071Y713436D01*
X-1071386Y712535D01*
X-1071988Y712269D01*
X-1077111Y706898D01*
X-1088327Y689224D01*
X-1090595Y685652D01*
X-1093316Y683739D01*
X-1094263Y683635D01*
X-1094947Y683635D01*
X-1096182Y682922D01*
X-1097229Y682488D01*
X-1098606Y682119D01*
X-1100019Y680707D01*
X-1186022Y594703D01*
X-1191575Y589150D01*
X-1191575Y589150D01*
X-1191944Y587773D01*
X-1192378Y586725D01*
X-1193091Y585491D01*
X-1193091Y583493D01*
X-1193091Y502363D01*
X-1193091Y494509D01*
X-1192783Y493976D01*
X-1192378Y493275D01*
X-1191944Y492227D01*
X-1191575Y490850D01*
X-1191575Y490850D01*
X-1153822Y453096D01*
X-1152445Y452727D01*
X-1151397Y452293D01*
X-1150535Y451796D01*
X-1150162Y451581D01*
X-1150162Y451581D01*
X-1062031Y451581D01*
X-1061504Y451722D01*
X-1058529Y451456D01*
X-1044310Y444765D01*
X-1044310Y444765D01*
X-1044310Y444765D01*
X-1037106Y442976D01*
X-1037105Y442976D01*
X-1027286Y444452D01*
X-1018779Y449573D01*
X-1014369Y455544D01*
X-997586Y491209D01*
X-997586Y491210D01*
X-995797Y498414D01*
X-995797Y498414D01*
X-997273Y508233D01*
X-997273Y508233D01*
X-1001347Y515000D01*
X-1002395Y516740D01*
X-1008366Y521151D01*
X-1031937Y532242D01*
X-1039506Y535804D01*
X-1039506Y535804D01*
X-1039507Y535805D01*
X-1046711Y537594D01*
X-1056531Y536118D01*
X-1065037Y530996D01*
X-1069448Y525025D01*
X-1086231Y489360D01*
X-1087255Y485236D01*
X-1087515Y484188D01*
X-1089491Y481513D01*
X-1091732Y480891D01*
X-1107489Y480891D01*
X-1110561Y482163D01*
X-1111834Y485236D01*
X-1110561Y488308D01*
X-1109730Y488958D01*
X-1106548Y490874D01*
X-1102137Y496845D01*
X-1085355Y532510D01*
X-1085355Y532510D01*
X-1083565Y539715D01*
X-1083565Y539715D01*
X-1085041Y549534D01*
X-1085041Y549534D01*
X-1085529Y550344D01*
X-1086023Y553633D01*
X-1084879Y555658D01*
X-1039460Y601077D01*
X-1036387Y602350D01*
X-1020527Y602350D01*
X-1017454Y601077D01*
X-1016553Y599762D01*
X-1016064Y598656D01*
X-1014761Y595710D01*
X-1009390Y590586D01*
X-980331Y572145D01*
X-980331Y572145D01*
X-973408Y569467D01*
X-973408Y569466D01*
X-963481Y569700D01*
X-963481Y569700D01*
X-954400Y573715D01*
X-954399Y573716D01*
X-949276Y579086D01*
X-949275Y579087D01*
X-948673Y580037D01*
X-941372Y591540D01*
X-928155Y612367D01*
X-925477Y619290D01*
X-925477Y619291D01*
X-925711Y629217D01*
X-925711Y629218D01*
X-929725Y638299D01*
X-929726Y638299D01*
X-929726Y638299D01*
X-935097Y643423D01*
X-936416Y644260D01*
X-938328Y646981D01*
X-937756Y650257D01*
X-936060Y651800D01*
X-935928Y651867D01*
X-926867Y660928D01*
X-926388Y661868D01*
X-923860Y664027D01*
X-920544Y663766D01*
X-918385Y661238D01*
X-918213Y660152D01*
X-917803Y658623D01*
X-917655Y657498D01*
X-917655Y656073D01*
X-916991Y654923D01*
X-916942Y654839D01*
X-916508Y653791D01*
X-916139Y652414D01*
X-916139Y652414D01*
X-914928Y651202D01*
X-913655Y648130D01*
X-913655Y587501D01*
X-913803Y586377D01*
X-913974Y585740D01*
X-914172Y585000D01*
X-914172Y585000D01*
X-913794Y583591D01*
X-912720Y579582D01*
X-912139Y577414D01*
X-912139Y577414D01*
X-906586Y571861D01*
X-899000Y569828D01*
X-899000Y569828D01*
X-897623Y570197D01*
X-896499Y570345D01*
X-892643Y570345D01*
X-889571Y569072D01*
X-884573Y564075D01*
X-883300Y561002D01*
X-884573Y557930D01*
X-887645Y556657D01*
X-891925Y556657D01*
X-893159Y555945D01*
X-894207Y555510D01*
X-895584Y555142D01*
X-896996Y553729D01*
X-1012586Y438139D01*
X-1018139Y432586D01*
X-1018258Y432142D01*
X-1018508Y431209D01*
X-1018942Y430161D01*
X-1019655Y428927D01*
X-1019655Y428926D01*
X-1019655Y302128D01*
X-1020928Y299055D01*
X-1024000Y297783D01*
X-1027072Y299055D01*
X-1027871Y300155D01*
X-1029867Y304072D01*
X-1038928Y313133D01*
X-1045972Y316722D01*
X-1048132Y319251D01*
X-1048345Y320594D01*
X-1048345Y327618D01*
X-1048345Y327619D01*
X-1049058Y328853D01*
X-1049492Y329901D01*
X-1049861Y331277D01*
X-1056662Y338079D01*
X-1057935Y341151D01*
X-1057722Y342494D01*
X-1051285Y362305D01*
X-1050412Y369677D01*
X-1050412Y369677D01*
X-1053108Y379234D01*
X-1059255Y387032D01*
X-1065732Y390659D01*
X-1098464Y401295D01*
X-1105836Y402167D01*
X-1115393Y399472D01*
X-1123191Y393325D01*
X-1126818Y386848D01*
X-1138998Y349360D01*
X-1139871Y341989D01*
X-1137176Y332432D01*
X-1131028Y324634D01*
X-1124551Y321007D01*
X-1124551Y321007D01*
X-1097064Y312075D01*
X-1094535Y309916D01*
X-1094274Y306600D01*
X-1095334Y304871D01*
X-1096133Y304072D01*
X-1098129Y300155D01*
X-1099722Y297027D01*
X-1102251Y294868D01*
X-1103594Y294655D01*
X-1176404Y294655D01*
X-1184258Y294655D01*
X-1185493Y293942D01*
X-1186540Y293508D01*
X-1187917Y293139D01*
X-1189330Y291727D01*
X-1197895Y283161D01*
X-1206077Y274980D01*
X-1209149Y273707D01*
X-1209963Y273784D01*
X-1235380Y278633D01*
X-1242803Y278574D01*
X-1251947Y274702D01*
X-1258913Y267626D01*
X-1261699Y260746D01*
X-1266628Y234907D01*
X-1268454Y232127D01*
X-1271711Y231453D01*
X-1274490Y233279D01*
X-1275241Y235721D01*
X-1275241Y275435D01*
X-1273969Y278508D01*
X-1207132Y345344D01*
X-1204060Y346617D01*
X-1202717Y346404D01*
X-1184072Y340346D01*
X-1176700Y339473D01*
X-1176700Y339473D01*
X-1167143Y342169D01*
X-1159345Y348316D01*
X-1159155Y348655D01*
X-1155718Y354793D01*
X-1143537Y392280D01*
X-1142665Y399652D01*
X-1142665Y399652D01*
X-1145360Y409209D01*
X-1151508Y417007D01*
X-1157984Y420634D01*
X-1190717Y431269D01*
X-1198088Y432142D01*
X-1207645Y429447D01*
X-1215443Y423299D01*
X-1219070Y416823D01*
X-1231251Y379335D01*
X-1232123Y371963D01*
X-1230579Y366489D01*
X-1230970Y363187D01*
X-1231689Y362238D01*
X-1297482Y296445D01*
X-1303036Y290891D01*
X-1303360Y289682D01*
X-1303404Y289515D01*
X-1303839Y288467D01*
X-1304551Y287232D01*
X-1304551Y285235D01*
X-1304551Y126181D01*
X-1304551Y118327D01*
X-1303984Y117344D01*
X-1303839Y117093D01*
X-1303405Y116045D01*
X-1303036Y114668D01*
X-1303036Y114668D01*
X-1286084Y97716D01*
X-1284811Y94643D01*
X-1284820Y94373D01*
X-1286906Y61218D01*
X-1286840Y60732D01*
X-1287692Y57518D01*
X-1288074Y57081D01*
X-1297482Y47673D01*
X-1303036Y42120D01*
X-1303036Y42120D01*
X-1303404Y40743D01*
X-1303839Y39695D01*
X-1304551Y38461D01*
X-1304551Y36463D01*
X-1304551Y-106177D01*
X-1304551Y-114030D01*
X-1365002Y-114030D01*
X-1365876Y-105557D01*
X-1365884Y-105445D01*
X-1369495Y-35253D01*
X-1369498Y-35142D01*
X-1369498Y35142D01*
X-1369495Y35253D01*
X-1365884Y105445D01*
X-1365876Y105557D01*
X-1358664Y175470D01*
X-1358650Y175581D01*
X-1347857Y245033D01*
X-1347837Y245142D01*
X-1333490Y313947D01*
X-1333465Y314055D01*
X-1320404Y363760D01*
X-1315603Y382031D01*
X-1315572Y382137D01*
X-1294241Y449108D01*
X-1294205Y449214D01*
X-1269462Y515000D01*
X-1269420Y515103D01*
X-1241332Y579529D01*
X-1241285Y579630D01*
X-1209897Y642582D01*
X-1209451Y643423D01*
X-1205963Y649988D01*
X-1205957Y650003D01*
X-1199648Y664309D01*
X-1199194Y665337D01*
X-1199194Y665337D01*
X-1198433Y667473D01*
X-1193561Y681139D01*
X-1191443Y688809D01*
X-1191328Y689224D01*
X-1190061Y693812D01*
X-1190061Y693812D01*
X-1190023Y693950D01*
X-1189982Y694095D01*
X-1163613Y789540D01*
X-1152516Y829708D01*
X-1152516Y829708D01*
X-1152485Y829817D01*
X-1152485Y829817D01*
X-1150720Y836210D01*
X-1150503Y836993D01*
X-1150503Y836993D01*
X-1150503Y836994D01*
X-1146807Y857343D01*
X-1146174Y864362D01*
X-1144950Y877945D01*
X-1144950Y877945D01*
X-1144950Y877945D01*
X-1144950Y882318D01*
X-1144950Y882321D01*
X-1144950Y1251000D01*
X-1124718Y1251000D01*
X-1122694Y1233039D01*
X-1116724Y1215978D01*
X-1109352Y1204246D01*
X-1107183Y1200794D01*
X-1107108Y1200674D01*
X-1094327Y1187893D01*
X-1094326Y1187892D01*
X-1094326Y1187892D01*
X-1085784Y1182525D01*
X-1080060Y1178928D01*
X-1079022Y1178276D01*
X-1061961Y1172306D01*
X-1061961Y1172306D01*
X-1044000Y1170283D01*
X-1026039Y1172306D01*
X-1008978Y1178276D01*
X-993674Y1187892D01*
X-980892Y1200674D01*
X-971276Y1215978D01*
X-965306Y1233039D01*
X-963282Y1251000D01*
X-924717Y1251000D01*
X-922694Y1233039D01*
X-916724Y1215978D01*
X-909352Y1204246D01*
X-907183Y1200794D01*
X-907107Y1200674D01*
X-894326Y1187893D01*
X-894326Y1187892D01*
X-894326Y1187892D01*
X-885784Y1182525D01*
X-880060Y1178928D01*
X-879022Y1178276D01*
X-861961Y1172306D01*
X-861961Y1172306D01*
X-844000Y1170283D01*
X-826039Y1172306D01*
X-808978Y1178276D01*
X-793674Y1187892D01*
X-780892Y1200674D01*
X-771276Y1215978D01*
X-765306Y1233039D01*
X-763282Y1251000D01*
X-765306Y1268961D01*
X-771276Y1286022D01*
X-771741Y1286762D01*
X-778222Y1297076D01*
X-780892Y1301326D01*
X-780892Y1301326D01*
X-780892Y1301327D01*
X-793673Y1314108D01*
X-808978Y1323724D01*
X-826039Y1329694D01*
X-826038Y1329694D01*
X-829342Y1330066D01*
X-844000Y1331718D01*
X-861961Y1329694D01*
X-879022Y1323724D01*
X-894326Y1314108D01*
X-907107Y1301327D01*
X-916724Y1286022D01*
X-922694Y1268961D01*
X-924717Y1251000D01*
X-963282Y1251000D01*
X-965306Y1268961D01*
X-971276Y1286022D01*
X-971741Y1286762D01*
X-978222Y1297076D01*
X-980892Y1301326D01*
X-980892Y1301326D01*
X-980892Y1301327D01*
X-993673Y1314108D01*
X-1008978Y1323724D01*
X-1026039Y1329694D01*
X-1026038Y1329694D01*
X-1029342Y1330066D01*
X-1044000Y1331718D01*
X-1061961Y1329694D01*
X-1079022Y1323724D01*
X-1094327Y1314108D01*
X-1107108Y1301327D01*
X-1116724Y1286022D01*
X-1122694Y1268961D01*
X-1124718Y1251000D01*
X-1144950Y1251000D01*
X-1144950Y1424615D01*
X-1042550Y1424615D01*
X-1041786Y1420774D01*
X-1039474Y1409150D01*
X-1033439Y1394582D01*
X-1024679Y1381471D01*
X-1013529Y1370321D01*
X-1000418Y1361561D01*
X-985850Y1355526D01*
X-985849Y1355526D01*
X-985849Y1355526D01*
X-985849Y1355526D01*
X-970384Y1352450D01*
X-970384Y1352450D01*
X970384Y1352450D01*
X985849Y1355526D01*
X985849Y1355526D01*
X985849Y1355526D01*
X985850Y1355526D01*
X1000418Y1361561D01*
X1000418Y1361561D01*
X1004748Y1364454D01*
X1013529Y1370321D01*
X1024679Y1381471D01*
X1033439Y1394582D01*
X1039474Y1409150D01*
X1039474Y1409151D01*
X1042550Y1424615D01*
X1042550Y1492177D01*
X1042549Y1492187D01*
X1042550Y1495589D01*
X1040579Y1508034D01*
X1036685Y1520017D01*
X1030965Y1531244D01*
X1023559Y1541438D01*
X1023076Y1541921D01*
X1023076Y1541921D01*
X1018065Y1546932D01*
X1015739Y1549259D01*
X1015738Y1549259D01*
X1015381Y1549616D01*
X1015381Y1549616D01*
X989616Y1575381D01*
X989616Y1575381D01*
X989259Y1575738D01*
X989259Y1575739D01*
X987040Y1577957D01*
X987039Y1577958D01*
X985893Y1579104D01*
X981438Y1583559D01*
X974341Y1588716D01*
X971245Y1590965D01*
X971245Y1590965D01*
X971245Y1590965D01*
X960018Y1596686D01*
X948034Y1600579D01*
X935589Y1602550D01*
X929289Y1602550D01*
X-924530Y1602550D01*
X-929289Y1602550D01*
X-935589Y1602550D01*
X-948034Y1600579D01*
X-960018Y1596685D01*
X-971245Y1590965D01*
X-981438Y1583559D01*
X-981921Y1583076D01*
X-981921Y1583076D01*
X-1021073Y1543924D01*
X-1021073Y1543924D01*
X-1023559Y1541438D01*
X-1030965Y1531245D01*
X-1036685Y1520018D01*
X-1040579Y1508034D01*
X-1042550Y1495589D01*
X-1042550Y1495589D01*
X-1042550Y1424615D01*
X-1144950Y1424615D01*
X-1144950Y1535782D01*
X-1144940Y1535995D01*
X-1143648Y1549109D01*
X-1143482Y1549944D01*
X-1139750Y1562247D01*
X-1139424Y1563034D01*
X-1133363Y1574373D01*
X-1132890Y1575081D01*
X-1124530Y1585268D01*
X-1124386Y1585426D01*
X-1121097Y1588716D01*
X-1121097Y1588716D01*
X-1028716Y1681097D01*
X-1028716Y1681097D01*
X-1025427Y1684385D01*
X-1025269Y1684528D01*
X-1015081Y1692890D01*
X-1014373Y1693363D01*
X-1003034Y1699424D01*
X-1002247Y1699749D01*
X-989944Y1703482D01*
X-989109Y1703648D01*
X-975994Y1704939D01*
X-975781Y1704950D01*
X-971129Y1704950D01*
X970779Y1704950D01*
X970780Y1704950D01*
G37*
%TD.AperFunction*%
%TD*%
M02*
