%TF.GenerationSoftware,KiCad,Pcbnew,7.0.8*%
%TF.CreationDate,2023-10-16T01:10:26-04:00*%
%TF.ProjectId,watch,77617463-682e-46b6-9963-61645f706362,rev?*%
%TF.SameCoordinates,Original*%
%TF.FileFunction,Soldermask,Top*%
%TF.FilePolarity,Negative*%
%FSLAX45Y45*%
G04 Gerber Fmt 4.5, Leading zero omitted, Abs format (unit mm)*
G04 Created by KiCad (PCBNEW 7.0.8) date 2023-10-16 01:10:26*
%MOMM*%
%LPD*%
G01*
G04 APERTURE LIST*
G04 Aperture macros list*
%AMRoundRect*
0 Rectangle with rounded corners*
0 $1 Rounding radius*
0 $2 $3 $4 $5 $6 $7 $8 $9 X,Y pos of 4 corners*
0 Add a 4 corners polygon primitive as box body*
4,1,4,$2,$3,$4,$5,$6,$7,$8,$9,$2,$3,0*
0 Add four circle primitives for the rounded corners*
1,1,$1+$1,$2,$3*
1,1,$1+$1,$4,$5*
1,1,$1+$1,$6,$7*
1,1,$1+$1,$8,$9*
0 Add four rect primitives between the rounded corners*
20,1,$1+$1,$2,$3,$4,$5,0*
20,1,$1+$1,$4,$5,$6,$7,0*
20,1,$1+$1,$6,$7,$8,$9,0*
20,1,$1+$1,$8,$9,$2,$3,0*%
%AMRotRect*
0 Rectangle, with rotation*
0 The origin of the aperture is its center*
0 $1 length*
0 $2 width*
0 $3 Rotation angle, in degrees counterclockwise*
0 Add horizontal line*
21,1,$1,$2,0,0,$3*%
%AMFreePoly0*
4,1,6,0.180000,0.075000,0.000000,-0.105000,-0.180000,-0.105000,-0.180000,0.105000,0.180000,0.105000,0.180000,0.075000,0.180000,0.075000,$1*%
%AMFreePoly1*
4,1,6,0.180000,-0.075000,0.180000,-0.105000,-0.180000,-0.105000,-0.180000,0.105000,0.000000,0.105000,0.180000,-0.075000,0.180000,-0.075000,$1*%
%AMFreePoly2*
4,1,6,0.180000,-0.105000,0.000000,-0.105000,-0.180000,0.075000,-0.180000,0.105000,0.180000,0.105000,0.180000,-0.105000,0.180000,-0.105000,$1*%
%AMFreePoly3*
4,1,6,0.180000,-0.105000,-0.180000,-0.105000,-0.180000,-0.075000,0.000000,0.105000,0.180000,0.105000,0.180000,-0.105000,0.180000,-0.105000,$1*%
G04 Aperture macros list end*
%ADD10FreePoly0,270.000000*%
%ADD11FreePoly1,270.000000*%
%ADD12FreePoly2,270.000000*%
%ADD13FreePoly3,270.000000*%
%ADD14RotRect,0.480000X0.480000X315.000000*%
%ADD15RoundRect,0.062500X0.062500X-0.375000X0.062500X0.375000X-0.062500X0.375000X-0.062500X-0.375000X0*%
%ADD16RoundRect,0.062500X0.375000X-0.062500X0.375000X0.062500X-0.375000X0.062500X-0.375000X-0.062500X0*%
%ADD17R,3.500000X3.500000*%
%ADD18RoundRect,0.147500X0.147500X0.172500X-0.147500X0.172500X-0.147500X-0.172500X0.147500X-0.172500X0*%
%ADD19RoundRect,0.140000X0.140000X0.170000X-0.140000X0.170000X-0.140000X-0.170000X0.140000X-0.170000X0*%
%ADD20RoundRect,0.147500X-0.147500X-0.172500X0.147500X-0.172500X0.147500X0.172500X-0.147500X0.172500X0*%
%ADD21RoundRect,0.147500X-0.187120X-0.128446X0.097828X-0.204798X0.187120X0.128446X-0.097828X0.204798X0*%
%ADD22RoundRect,0.147500X-0.213989X-0.075639X0.041489X-0.223139X0.213989X0.075639X-0.041489X0.223139X0*%
%ADD23RoundRect,0.147500X-0.226274X-0.017678X-0.017678X-0.226274X0.226274X0.017678X0.017678X0.226274X0*%
%ADD24RoundRect,0.147500X-0.223139X0.041489X-0.075639X-0.213989X0.223139X-0.041489X0.075639X0.213989X0*%
%ADD25RoundRect,0.147500X-0.204798X0.097828X-0.128446X-0.187120X0.204798X-0.097828X0.128446X0.187120X0*%
%ADD26RoundRect,0.147500X-0.172500X0.147500X-0.172500X-0.147500X0.172500X-0.147500X0.172500X0.147500X0*%
%ADD27RoundRect,0.147500X-0.128446X0.187120X-0.204798X-0.097828X0.128446X-0.187120X0.204798X0.097828X0*%
%ADD28RoundRect,0.147500X-0.075639X0.213989X-0.223139X-0.041489X0.075639X-0.213989X0.223139X0.041489X0*%
%ADD29RoundRect,0.147500X-0.017678X0.226274X-0.226274X0.017678X0.017678X-0.226274X0.226274X-0.017678X0*%
%ADD30RoundRect,0.147500X0.041489X0.223139X-0.213989X0.075639X-0.041489X-0.223139X0.213989X-0.075639X0*%
%ADD31RoundRect,0.147500X0.097828X0.204798X-0.187120X0.128446X-0.097828X-0.204798X0.187120X-0.128446X0*%
%ADD32RoundRect,0.147500X0.187120X0.128446X-0.097828X0.204798X-0.187120X-0.128446X0.097828X-0.204798X0*%
%ADD33RoundRect,0.147500X0.213989X0.075639X-0.041489X0.223139X-0.213989X-0.075639X0.041489X-0.223139X0*%
%ADD34RoundRect,0.147500X0.226274X0.017678X0.017678X0.226274X-0.226274X-0.017678X-0.017678X-0.226274X0*%
%ADD35RoundRect,0.147500X0.223139X-0.041489X0.075639X0.213989X-0.223139X0.041489X-0.075639X-0.213989X0*%
%ADD36RoundRect,0.147500X0.204798X-0.097828X0.128446X0.187120X-0.204798X0.097828X-0.128446X-0.187120X0*%
%ADD37RoundRect,0.147500X0.172500X-0.147500X0.172500X0.147500X-0.172500X0.147500X-0.172500X-0.147500X0*%
%ADD38RoundRect,0.147500X0.128446X-0.187120X0.204798X0.097828X-0.128446X0.187120X-0.204798X-0.097828X0*%
%ADD39RoundRect,0.147500X0.075639X-0.213989X0.223139X0.041489X-0.075639X0.213989X-0.223139X-0.041489X0*%
%ADD40RoundRect,0.147500X0.017678X-0.226274X0.226274X-0.017678X-0.017678X0.226274X-0.226274X0.017678X0*%
%ADD41RoundRect,0.147500X-0.041489X-0.223139X0.213989X-0.075639X0.041489X0.223139X-0.213989X0.075639X0*%
%ADD42RoundRect,0.147500X-0.097828X-0.204798X0.187120X-0.128446X0.097828X0.204798X-0.187120X0.128446X0*%
%ADD43RoundRect,0.135000X-0.135000X-0.185000X0.135000X-0.185000X0.135000X0.185000X-0.135000X0.185000X0*%
%ADD44RoundRect,0.135000X0.071224X0.217663X-0.185561X0.134228X-0.071224X-0.217663X0.185561X-0.134228X0*%
%ADD45RoundRect,0.135000X0.229019X-0.000477X0.070317X0.217958X-0.229019X0.000477X-0.070317X-0.217958X0*%
%ADD46RoundRect,0.135000X0.070317X-0.217958X0.229019X0.000477X-0.070317X0.217958X-0.229019X-0.000477X0*%
%ADD47RoundRect,0.135000X-0.185561X-0.134228X0.071224X-0.217663X0.185561X0.134228X-0.071224X0.217663X0*%
%ADD48RoundRect,0.135000X-0.185000X0.135000X-0.185000X-0.135000X0.185000X-0.135000X0.185000X0.135000X0*%
%ADD49RoundRect,0.147500X-0.226254X0.017937X-0.052857X-0.220723X0.226254X-0.017937X0.052857X0.220723X0*%
%ADD50RoundRect,0.147500X-0.032108X-0.224681X0.216968X-0.066612X0.032108X0.224681X-0.216968X0.066612X0*%
%ADD51RoundRect,0.147500X-0.060015X-0.218885X0.206909X-0.093280X0.060015X0.218885X-0.206909X0.093280X0*%
%ADD52RoundRect,0.147500X-0.136378X-0.181421X0.158040X-0.162898X0.136378X0.181421X-0.158040X0.162898X0*%
%ADD53RoundRect,0.147500X0.130399X-0.185765X0.203762X0.099967X-0.130399X0.185765X-0.203762X-0.099967X0*%
%ADD54RoundRect,0.147500X-0.106088X0.200644X-0.214685X-0.073641X0.106088X-0.200644X0.214685X0.073641X0*%
%ADD55RoundRect,0.147500X0.136378X0.181421X-0.158040X0.162898X-0.136378X-0.181421X0.158040X-0.162898X0*%
%ADD56RoundRect,0.147500X0.203762X-0.099967X0.130399X0.185765X-0.203762X0.099967X-0.130399X-0.185765X0*%
%ADD57RoundRect,0.147500X0.193586X0.118477X-0.086975X0.209637X-0.193586X-0.118477X0.086975X-0.209637X0*%
%ADD58RoundRect,0.147500X-0.080104X0.212358X-0.222222X-0.046153X0.080104X-0.212358X0.222222X0.046153X0*%
%ADD59RoundRect,0.147500X-0.086975X-0.209637X0.193586X-0.118477X0.086975X0.209637X-0.193586X0.118477X0*%
%ADD60C,1.400000*%
%ADD61RoundRect,0.147500X0.158040X0.162898X-0.136378X0.181421X-0.158040X-0.162898X0.136378X-0.181421X0*%
%ADD62RoundRect,0.147500X0.152653X-0.167957X0.189626X0.124717X-0.152653X0.167957X-0.189626X-0.124717X0*%
%ADD63RoundRect,0.147500X-0.226718X-0.010562X-0.024776X-0.225607X0.226718X0.010562X0.024776X0.225607X0*%
%ADD64RoundRect,0.147500X0.177211X0.141806X-0.112564X0.197083X-0.177211X-0.141806X0.112564X-0.197083X0*%
%ADD65RoundRect,0.147500X0.112564X0.197083X-0.177211X0.141806X-0.112564X-0.197083X0.177211X-0.141806X0*%
%ADD66RoundRect,0.147500X0.003695X0.226934X-0.223606X0.038893X-0.003695X-0.226934X0.223606X-0.038893X0*%
%ADD67RoundRect,0.147500X-0.189626X0.124717X-0.152653X-0.167957X0.189626X-0.124717X0.152653X0.167957X0*%
%ADD68RoundRect,0.147500X0.222222X-0.046153X0.080104X0.212358X-0.222222X0.046153X-0.080104X-0.212358X0*%
%ADD69RoundRect,0.147500X0.032108X0.224681X-0.216968X0.066612X-0.032108X-0.224681X0.216968X-0.066612X0*%
%ADD70RoundRect,0.147500X-0.112564X-0.197083X0.177211X-0.141806X0.112564X0.197083X-0.177211X0.141806X0*%
%ADD71RoundRect,0.147500X-0.003695X-0.226934X0.223606X-0.038893X0.003695X0.226934X-0.223606X0.038893X0*%
%ADD72RoundRect,0.147500X-0.223606X-0.038893X0.003695X-0.226934X0.223606X0.038893X-0.003695X0.226934X0*%
%ADD73RoundRect,0.147500X-0.177211X-0.141806X0.112564X-0.197083X0.177211X0.141806X-0.112564X0.197083X0*%
%ADD74RoundRect,0.147500X0.223606X0.038893X-0.003695X0.226934X-0.223606X-0.038893X0.003695X-0.226934X0*%
%ADD75RoundRect,0.147500X0.052857X-0.220723X0.226254X0.017937X-0.052857X0.220723X-0.226254X-0.017937X0*%
%ADD76RoundRect,0.147500X-0.052857X0.220723X-0.226254X-0.017937X0.052857X-0.220723X0.226254X0.017937X0*%
%ADD77RoundRect,0.147500X0.214685X-0.073641X0.106088X0.200644X-0.214685X0.073641X-0.106088X-0.200644X0*%
%ADD78RoundRect,0.147500X-0.024776X0.225607X-0.226718X0.010562X0.024776X-0.225607X0.226718X-0.010562X0*%
%ADD79RoundRect,0.147500X0.080104X-0.212358X0.222222X0.046153X-0.080104X0.212358X-0.222222X-0.046153X0*%
%ADD80RoundRect,0.147500X0.060015X0.218885X-0.206909X0.093280X-0.060015X-0.218885X0.206909X-0.093280X0*%
%ADD81RoundRect,0.147500X-0.222222X0.046153X-0.080104X-0.212358X0.222222X-0.046153X0.080104X0.212358X0*%
%ADD82RoundRect,0.147500X-0.214685X0.073641X-0.106088X-0.200644X0.214685X-0.073641X0.106088X0.200644X0*%
%ADD83RoundRect,0.147500X-0.193586X-0.118477X0.086975X-0.209637X0.193586X0.118477X-0.086975X0.209637X0*%
%ADD84RoundRect,0.147500X-0.216968X-0.066612X0.032108X-0.224681X0.216968X0.066612X-0.032108X0.224681X0*%
%ADD85RoundRect,0.147500X-0.158040X-0.162898X0.136378X-0.181421X0.158040X0.162898X-0.136378X0.181421X0*%
%ADD86RoundRect,0.147500X0.086975X0.209637X-0.193586X0.118477X-0.086975X-0.209637X0.193586X-0.118477X0*%
%ADD87RoundRect,0.147500X-0.152653X0.167957X-0.189626X-0.124717X0.152653X-0.167957X0.189626X0.124717X0*%
%ADD88RoundRect,0.147500X0.206909X0.093280X-0.060015X0.218885X-0.206909X-0.093280X0.060015X-0.218885X0*%
%ADD89RoundRect,0.147500X-0.203762X0.099967X-0.130399X-0.185765X0.203762X-0.099967X0.130399X0.185765X0*%
%ADD90RoundRect,0.147500X0.216968X0.066612X-0.032108X0.224681X-0.216968X-0.066612X0.032108X-0.224681X0*%
%ADD91RoundRect,0.147500X-0.130399X0.185765X-0.203762X-0.099967X0.130399X-0.185765X0.203762X0.099967X0*%
%ADD92RoundRect,0.147500X0.226718X0.010562X0.024776X0.225607X-0.226718X-0.010562X-0.024776X-0.225607X0*%
%ADD93RoundRect,0.147500X0.226254X-0.017937X0.052857X0.220723X-0.226254X0.017937X-0.052857X-0.220723X0*%
%ADD94RoundRect,0.147500X0.106088X-0.200644X0.214685X0.073641X-0.106088X0.200644X-0.214685X-0.073641X0*%
%ADD95RoundRect,0.147500X0.024776X-0.225607X0.226718X-0.010562X-0.024776X0.225607X-0.226718X0.010562X0*%
%ADD96RoundRect,0.147500X0.189626X-0.124717X0.152653X0.167957X-0.189626X0.124717X-0.152653X-0.167957X0*%
%ADD97RoundRect,0.147500X-0.206909X-0.093280X0.060015X-0.218885X0.206909X0.093280X-0.060015X0.218885X0*%
G04 APERTURE END LIST*
D10*
%TO.C,U2*%
X634500Y-5000D03*
D11*
X569500Y-5000D03*
D12*
X634500Y-91000D03*
D13*
X569500Y-91000D03*
D14*
X602000Y-48000D03*
%TD*%
D15*
%TO.C,U1*%
X-175000Y-693750D03*
X-125000Y-693750D03*
X-75000Y-693750D03*
X-25000Y-693750D03*
X25000Y-693750D03*
X75000Y-693750D03*
X125000Y-693750D03*
X175000Y-693750D03*
D16*
X243750Y-625000D03*
X243750Y-575000D03*
X243750Y-525000D03*
X243750Y-475000D03*
X243750Y-425000D03*
X243750Y-375000D03*
X243750Y-325000D03*
X243750Y-275000D03*
D15*
X175000Y-206250D03*
X125000Y-206250D03*
X75000Y-206250D03*
X25000Y-206250D03*
X-25000Y-206250D03*
X-75000Y-206250D03*
X-125000Y-206250D03*
X-175000Y-206250D03*
D16*
X-243750Y-275000D03*
X-243750Y-325000D03*
X-243750Y-375000D03*
X-243750Y-425000D03*
X-243750Y-475000D03*
X-243750Y-525000D03*
X-243750Y-575000D03*
X-243750Y-625000D03*
D17*
X0Y-450000D03*
%TD*%
D18*
%TO.C,R9*%
X553500Y-290000D03*
X650500Y-290000D03*
%TD*%
D19*
%TO.C,C1*%
X554000Y-191000D03*
X650000Y-191000D03*
%TD*%
D20*
%TO.C,R10*%
X650500Y-390000D03*
X553500Y-390000D03*
%TD*%
D19*
%TO.C,C2*%
X554000Y95000D03*
X650000Y95000D03*
%TD*%
D21*
%TO.C,D74*%
X211972Y978478D03*
X305666Y953373D03*
%TD*%
D22*
%TO.C,D73*%
X457998Y890275D03*
X542002Y841775D03*
%TD*%
D23*
%TO.C,D72*%
X672812Y741401D03*
X741401Y672812D03*
%TD*%
D24*
%TO.C,D71*%
X841775Y542002D03*
X890275Y457998D03*
%TD*%
D25*
%TO.C,D70*%
X953373Y305666D03*
X978478Y211972D03*
%TD*%
D26*
%TO.C,D69*%
X1000000Y48500D03*
X1000000Y-48500D03*
%TD*%
D27*
%TO.C,D68*%
X978478Y-211972D03*
X953373Y-305666D03*
%TD*%
D28*
%TO.C,D67*%
X890275Y-457998D03*
X841775Y-542002D03*
%TD*%
D29*
%TO.C,D66*%
X741401Y-672812D03*
X672812Y-741401D03*
%TD*%
D30*
%TO.C,D65*%
X542002Y-841775D03*
X457998Y-890275D03*
%TD*%
D31*
%TO.C,D64*%
X305666Y-953373D03*
X211972Y-978478D03*
%TD*%
D18*
%TO.C,D63*%
X48500Y-1000000D03*
X-48500Y-1000000D03*
%TD*%
D32*
%TO.C,D62*%
X-211972Y-978478D03*
X-305666Y-953373D03*
%TD*%
D33*
%TO.C,D61*%
X-457998Y-890275D03*
X-542002Y-841775D03*
%TD*%
D34*
%TO.C,D60*%
X-672812Y-741401D03*
X-741401Y-672812D03*
%TD*%
D35*
%TO.C,D59*%
X-841775Y-542002D03*
X-890275Y-457998D03*
%TD*%
D36*
%TO.C,D58*%
X-953373Y-305666D03*
X-978478Y-211972D03*
%TD*%
D37*
%TO.C,D57*%
X-1000000Y-48500D03*
X-1000000Y48500D03*
%TD*%
D38*
%TO.C,D56*%
X-978478Y211972D03*
X-953373Y305666D03*
%TD*%
D39*
%TO.C,D55*%
X-890275Y457998D03*
X-841775Y542002D03*
%TD*%
D40*
%TO.C,D54*%
X-741401Y672812D03*
X-672812Y741401D03*
%TD*%
D41*
%TO.C,D53*%
X-542002Y841775D03*
X-457998Y890275D03*
%TD*%
D42*
%TO.C,D52*%
X-305666Y953373D03*
X-211972Y978478D03*
%TD*%
D43*
%TO.C,R8*%
X209000Y800000D03*
X311000Y800000D03*
%TD*%
%TO.C,R7*%
X209000Y700000D03*
X311000Y700000D03*
%TD*%
%TO.C,R6*%
X209000Y600000D03*
X311000Y600000D03*
%TD*%
D44*
%TO.C,R5*%
X856902Y278424D03*
X759894Y246904D03*
%TD*%
D45*
%TO.C,R4*%
X529595Y-728924D03*
X469640Y-646405D03*
%TD*%
D46*
%TO.C,R3*%
X-529595Y-728924D03*
X-469640Y-646405D03*
%TD*%
D47*
%TO.C,R2*%
X-856902Y278424D03*
X-759894Y246904D03*
%TD*%
D48*
%TO.C,R1*%
X0Y901000D03*
X0Y799000D03*
%TD*%
D20*
%TO.C,D51*%
X-48500Y1000000D03*
X48500Y1000000D03*
%TD*%
D49*
%TO.C,D31*%
X676835Y-931583D03*
X733850Y-1010058D03*
%TD*%
D50*
%TO.C,D43*%
X972244Y617005D03*
X1054143Y668980D03*
%TD*%
D51*
%TO.C,D42*%
X1041908Y490285D03*
X1129677Y531585D03*
%TD*%
D52*
%TO.C,D39*%
X1149228Y72303D03*
X1246036Y78394D03*
%TD*%
D26*
%TO.C,D26*%
X0Y-1151500D03*
X0Y-1248500D03*
%TD*%
D53*
%TO.C,D49*%
X286366Y1115324D03*
X310489Y1209276D03*
%TD*%
D54*
%TO.C,D23*%
X-423895Y-1070638D03*
X-459603Y-1160826D03*
%TD*%
D55*
%TO.C,D14*%
X-1149228Y-72303D03*
X-1246036Y-78394D03*
%TD*%
D56*
%TO.C,D3*%
X-286366Y1115324D03*
X-310489Y1209276D03*
%TD*%
D57*
%TO.C,D11*%
X-1095142Y355833D03*
X-1187394Y385808D03*
%TD*%
D58*
%TO.C,D22*%
X-554739Y-1009067D03*
X-601470Y-1094069D03*
%TD*%
D59*
%TO.C,D41*%
X1095142Y355833D03*
X1187394Y385808D03*
%TD*%
D60*
%TO.C,TP2*%
X750000Y-1230000D03*
X950000Y-1230000D03*
%TD*%
D61*
%TO.C,D13*%
X-1149228Y72303D03*
X-1246036Y78394D03*
%TD*%
D62*
%TO.C,D50*%
X144321Y1142420D03*
X156479Y1238655D03*
%TD*%
D63*
%TO.C,D32*%
X788256Y-839407D03*
X854657Y-910117D03*
%TD*%
D64*
%TO.C,D12*%
X-1131104Y215770D03*
X-1226386Y233946D03*
%TD*%
D65*
%TO.C,D15*%
X-1131104Y-215770D03*
X-1226386Y-233946D03*
%TD*%
D66*
%TO.C,D19*%
X-887246Y-733994D03*
X-961986Y-795824D03*
%TD*%
D67*
%TO.C,D27*%
X144321Y-1142420D03*
X156479Y-1238655D03*
%TD*%
D60*
%TO.C,TP4*%
X829000Y1247000D03*
X1029000Y1247000D03*
%TD*%
D68*
%TO.C,D5*%
X-554739Y1009067D03*
X-601470Y1094069D03*
%TD*%
D69*
%TO.C,D18*%
X-972244Y-617005D03*
X-1054143Y-668980D03*
%TD*%
D70*
%TO.C,D40*%
X1131104Y215770D03*
X1226386Y233946D03*
%TD*%
D71*
%TO.C,D44*%
X887246Y733994D03*
X961986Y795824D03*
%TD*%
D72*
%TO.C,D33*%
X887246Y-733994D03*
X961986Y-795824D03*
%TD*%
D73*
%TO.C,D37*%
X1131104Y-215770D03*
X1226386Y-233946D03*
%TD*%
D74*
%TO.C,D8*%
X-887246Y733994D03*
X-961986Y795824D03*
%TD*%
D75*
%TO.C,D46*%
X676835Y931583D03*
X733850Y1010058D03*
%TD*%
D76*
%TO.C,D21*%
X-676835Y-931583D03*
X-733850Y-1010058D03*
%TD*%
D77*
%TO.C,D4*%
X-423895Y1070638D03*
X-459603Y1160826D03*
%TD*%
D78*
%TO.C,D20*%
X-788256Y-839407D03*
X-854657Y-910117D03*
%TD*%
D79*
%TO.C,D47*%
X554739Y1009067D03*
X601470Y1094069D03*
%TD*%
D37*
%TO.C,D1*%
X0Y1151500D03*
X0Y1248500D03*
%TD*%
D60*
%TO.C,TP1*%
X-1020000Y-1230000D03*
X-820000Y-1230000D03*
%TD*%
D80*
%TO.C,D17*%
X-1041908Y-490285D03*
X-1129677Y-531585D03*
%TD*%
D81*
%TO.C,D30*%
X554739Y-1009067D03*
X601470Y-1094069D03*
%TD*%
D82*
%TO.C,D29*%
X423895Y-1070638D03*
X459603Y-1160826D03*
%TD*%
D83*
%TO.C,D36*%
X1095142Y-355833D03*
X1187394Y-385808D03*
%TD*%
D60*
%TO.C,TP3*%
X-1044000Y1251000D03*
X-844000Y1251000D03*
%TD*%
D84*
%TO.C,D34*%
X972244Y-617005D03*
X1054143Y-668980D03*
%TD*%
D85*
%TO.C,D38*%
X1149228Y-72303D03*
X1246036Y-78394D03*
%TD*%
D86*
%TO.C,D16*%
X-1095142Y-355833D03*
X-1187394Y-385808D03*
%TD*%
D87*
%TO.C,D25*%
X-144321Y-1142420D03*
X-156479Y-1238655D03*
%TD*%
D88*
%TO.C,D10*%
X-1041908Y490285D03*
X-1129677Y531585D03*
%TD*%
D89*
%TO.C,D28*%
X286366Y-1115324D03*
X310489Y-1209276D03*
%TD*%
D90*
%TO.C,D9*%
X-972244Y617005D03*
X-1054143Y668980D03*
%TD*%
D91*
%TO.C,D24*%
X-286366Y-1115324D03*
X-310489Y-1209276D03*
%TD*%
D92*
%TO.C,D7*%
X-788256Y839407D03*
X-854657Y910117D03*
%TD*%
D93*
%TO.C,D6*%
X-676835Y931583D03*
X-733850Y1010058D03*
%TD*%
D94*
%TO.C,D48*%
X423895Y1070638D03*
X459603Y1160826D03*
%TD*%
D95*
%TO.C,D45*%
X788256Y839407D03*
X854657Y910117D03*
%TD*%
D96*
%TO.C,D2*%
X-144321Y1142420D03*
X-156479Y1238655D03*
%TD*%
D97*
%TO.C,D35*%
X1041908Y-490285D03*
X1129677Y-531585D03*
%TD*%
M02*
