  0
SECTION
  2
HEADER
  9
$ANGBASE
  50
0.0
  9
$ANGDIR
  70
1
  9
$MEASUREMENT
  70
0
  0
ENDSEC
  0
SECTION
  2
TABLES
  0
TABLE
  2
LTYPE
  70
4
  0
LTYPE
  5
40F
  2
CONTINUOUS
  70
0
  3
Solid line
  72
65
  73
0
  40
0.0
  0
LTYPE
  5
410
  2
DASHDOT
 70
0
  3
Dash Dot ____ _ ____ _
 72
65
 73
4
 40
2.0
 49
1.25
 49
-0.25
 49
0.25
 49
-0.25
  0
LTYPE
  5
411
  2
DASHED
 70
0
  3
Dashed __ __ __ __ __
 72
65
 73
2
 40
0.75
 49
0.5
 49
-0.25
  0
LTYPE
  5
43B
  2
DOTTED
 70
0
  3
Dotted .  .  .  .
 72
65
 73
2
 40
0.2
 49
0.0
 49
-0.2
  0
ENDTAB
  0
TABLE
  2
STYLE
  70
4
  0
STYLE
  2
KICAD
  70
0
  40
0
  41
1
  42
1
  50
0
  71
0
  3
isocp.shx
  0
STYLE
  2
KICADB
  70
0
  40
0
  41
1
  42
1
  50
0
  71
0
  3
isocp.shx
  0
STYLE
  2
KICADI
  70
0
  40
0
  41
1
  42
1
  50
15
  71
0
  3
isocp.shx
  0
STYLE
  2
KICADBI
  70
0
  40
0
  41
1
  42
1
  50
15
  71
0
  3
isocp.shx
  0
ENDTAB
  0
TABLE
  2
LAYER
  70
1
  0
LAYER
  2
BLACK
  70
0
  62
7
  6
CONTINUOUS
  0
ENDTAB
  0
ENDSEC
  0
SECTION
  2
ENTITIES
0
LINE
8
BLACK
6
CONTINUOUS
10
0.360248
20
-0.537407
11
0.367925
21
-0.537927
0
LINE
8
BLACK
6
CONTINUOUS
10
0.367925
20
-0.537927
11
0.375431
21
-0.539888
0
LINE
8
BLACK
6
CONTINUOUS
10
0.375431
20
-0.539888
11
0.382439
21
-0.543217
0
LINE
8
BLACK
6
CONTINUOUS
10
0.382439
20
-0.543217
11
0.388702
21
-0.547796
0
LINE
8
BLACK
6
CONTINUOUS
10
0.388702
20
-0.547796
11
0.394
21
-0.553464
0
LINE
8
BLACK
6
CONTINUOUS
10
0.394
20
-0.553464
11
0.398145
21
-0.560022
0
LINE
8
BLACK
6
CONTINUOUS
10
0.398145
20
-0.560022
11
0.400992
21
-0.567239
0
LINE
8
BLACK
6
CONTINUOUS
10
0.400992
20
-0.567239
11
0.402441
21
-0.574861
0
LINE
8
BLACK
6
CONTINUOUS
10
0.402441
20
-0.574861
11
0.402441
21
-0.582619
0
LINE
8
BLACK
6
CONTINUOUS
10
0.402441
20
-0.582619
11
0.400992
21
-0.590241
0
LINE
8
BLACK
6
CONTINUOUS
10
0.400992
20
-0.590241
11
0.398145
21
-0.597458
0
LINE
8
BLACK
6
CONTINUOUS
10
0.398145
20
-0.597458
11
0.394
21
-0.604016
0
LINE
8
BLACK
6
CONTINUOUS
10
0.394
20
-0.604016
11
0.388702
21
-0.609685
0
LINE
8
BLACK
6
CONTINUOUS
10
0.388702
20
-0.609685
11
0.382439
21
-0.614264
0
LINE
8
BLACK
6
CONTINUOUS
10
0.382439
20
-0.614264
11
0.375431
21
-0.617592
0
LINE
8
BLACK
6
CONTINUOUS
10
0.375431
20
-0.617592
11
0.367925
21
-0.619554
0
LINE
8
BLACK
6
CONTINUOUS
10
0.367925
20
-0.619554
11
0.360248
21
-0.620074
0
LINE
8
BLACK
6
CONTINUOUS
10
0.360248
20
-0.620074
11
0.360236
21
-0.620079
0
LINE
8
BLACK
6
CONTINUOUS
10
0.360236
20
-0.620079
11
-0.360236
21
-0.620079
0
LINE
8
BLACK
6
CONTINUOUS
10
-0.360236
20
-0.620079
11
-0.360248
21
-0.620074
0
LINE
8
BLACK
6
CONTINUOUS
10
-0.360248
20
-0.620074
11
-0.367925
21
-0.619554
0
LINE
8
BLACK
6
CONTINUOUS
10
-0.367925
20
-0.619554
11
-0.375431
21
-0.617592
0
LINE
8
BLACK
6
CONTINUOUS
10
-0.375431
20
-0.617592
11
-0.382439
21
-0.614264
0
LINE
8
BLACK
6
CONTINUOUS
10
-0.382439
20
-0.614264
11
-0.388702
21
-0.609685
0
LINE
8
BLACK
6
CONTINUOUS
10
-0.388702
20
-0.609685
11
-0.394
21
-0.604016
0
LINE
8
BLACK
6
CONTINUOUS
10
-0.394
20
-0.604016
11
-0.398145
21
-0.597458
0
LINE
8
BLACK
6
CONTINUOUS
10
-0.398145
20
-0.597458
11
-0.400992
21
-0.590241
0
LINE
8
BLACK
6
CONTINUOUS
10
-0.400992
20
-0.590241
11
-0.402441
21
-0.582619
0
LINE
8
BLACK
6
CONTINUOUS
10
-0.402441
20
-0.582619
11
-0.402441
21
-0.574861
0
LINE
8
BLACK
6
CONTINUOUS
10
-0.402441
20
-0.574861
11
-0.400992
21
-0.567239
0
LINE
8
BLACK
6
CONTINUOUS
10
-0.400992
20
-0.567239
11
-0.398145
21
-0.560022
0
LINE
8
BLACK
6
CONTINUOUS
10
-0.398145
20
-0.560022
11
-0.394
21
-0.553464
0
LINE
8
BLACK
6
CONTINUOUS
10
-0.394
20
-0.553464
11
-0.388702
21
-0.547796
0
LINE
8
BLACK
6
CONTINUOUS
10
-0.388702
20
-0.547796
11
-0.382439
21
-0.543217
0
LINE
8
BLACK
6
CONTINUOUS
10
-0.382439
20
-0.543217
11
-0.375431
21
-0.539888
0
LINE
8
BLACK
6
CONTINUOUS
10
-0.375431
20
-0.539888
11
-0.367925
21
-0.537927
0
LINE
8
BLACK
6
CONTINUOUS
10
-0.367925
20
-0.537927
11
-0.360248
21
-0.537407
0
LINE
8
BLACK
6
CONTINUOUS
10
-0.360248
20
-0.537407
11
-0.360236
21
-0.537402
0
LINE
8
BLACK
6
CONTINUOUS
10
-0.360236
20
-0.537402
11
0.360236
21
-0.537402
0
LINE
8
BLACK
6
CONTINUOUS
10
0.360236
20
-0.537402
11
0.360248
21
-0.537407
0
LINE
8
BLACK
6
CONTINUOUS
10
0.360288
20
-0.541338
11
0.360288
21
-0.541338
0
LINE
8
BLACK
6
CONTINUOUS
10
0.360288
20
-0.541338
11
0.360259
21
-0.541329
0
LINE
8
BLACK
6
CONTINUOUS
10
0.360259
20
-0.541329
11
0.360236
21
-0.541339
0
LINE
8
BLACK
6
CONTINUOUS
10
0.360236
20
-0.541339
11
-0.360236
21
-0.541339
0
LINE
8
BLACK
6
CONTINUOUS
10
-0.360236
20
-0.541339
11
-0.360259
21
-0.541329
0
LINE
8
BLACK
6
CONTINUOUS
10
-0.360259
20
-0.541329
11
-0.360288
21
-0.541338
0
LINE
8
BLACK
6
CONTINUOUS
10
-0.360288
20
-0.541338
11
-0.363812
21
-0.541241
0
LINE
8
BLACK
6
CONTINUOUS
10
-0.363812
20
-0.541241
11
-0.370772
21
-0.542375
0
LINE
8
BLACK
6
CONTINUOUS
10
-0.370772
20
-0.542375
11
-0.377398
21
-0.54479
0
LINE
8
BLACK
6
CONTINUOUS
10
-0.377398
20
-0.54479
11
-0.383455
21
-0.5484
0
LINE
8
BLACK
6
CONTINUOUS
10
-0.383455
20
-0.5484
11
-0.388732
21
-0.553077
0
LINE
8
BLACK
6
CONTINUOUS
10
-0.388732
20
-0.553077
11
-0.393042
21
-0.558658
0
LINE
8
BLACK
6
CONTINUOUS
10
-0.393042
20
-0.558658
11
-0.396234
21
-0.564946
0
LINE
8
BLACK
6
CONTINUOUS
10
-0.396234
20
-0.564946
11
-0.398195
21
-0.57172
0
LINE
8
BLACK
6
CONTINUOUS
10
-0.398195
20
-0.57172
11
-0.398857
21
-0.57874
0
LINE
8
BLACK
6
CONTINUOUS
10
-0.398857
20
-0.57874
11
-0.398195
21
-0.585761
0
LINE
8
BLACK
6
CONTINUOUS
10
-0.398195
20
-0.585761
11
-0.396234
21
-0.592534
0
LINE
8
BLACK
6
CONTINUOUS
10
-0.396234
20
-0.592534
11
-0.393042
21
-0.598822
0
LINE
8
BLACK
6
CONTINUOUS
10
-0.393042
20
-0.598822
11
-0.388732
21
-0.604403
0
LINE
8
BLACK
6
CONTINUOUS
10
-0.388732
20
-0.604403
11
-0.383455
21
-0.609081
0
LINE
8
BLACK
6
CONTINUOUS
10
-0.383455
20
-0.609081
11
-0.377398
21
-0.61269
0
LINE
8
BLACK
6
CONTINUOUS
10
-0.377398
20
-0.61269
11
-0.370772
21
-0.615105
0
LINE
8
BLACK
6
CONTINUOUS
10
-0.370772
20
-0.615105
11
-0.363812
21
-0.61624
0
LINE
8
BLACK
6
CONTINUOUS
10
-0.363812
20
-0.61624
11
-0.360288
21
-0.616142
0
LINE
8
BLACK
6
CONTINUOUS
10
-0.360288
20
-0.616142
11
-0.360259
21
-0.616151
0
LINE
8
BLACK
6
CONTINUOUS
10
-0.360259
20
-0.616151
11
-0.360236
21
-0.616142
0
LINE
8
BLACK
6
CONTINUOUS
10
-0.360236
20
-0.616142
11
0.360236
21
-0.616142
0
LINE
8
BLACK
6
CONTINUOUS
10
0.360236
20
-0.616142
11
0.360259
21
-0.616151
0
LINE
8
BLACK
6
CONTINUOUS
10
0.360259
20
-0.616151
11
0.360288
21
-0.616142
0
LINE
8
BLACK
6
CONTINUOUS
10
0.360288
20
-0.616142
11
0.360288
21
-0.616142
0
LINE
8
BLACK
6
CONTINUOUS
10
0.360288
20
-0.616142
11
0.363812
21
-0.61624
0
LINE
8
BLACK
6
CONTINUOUS
10
0.363812
20
-0.61624
11
0.370772
21
-0.615105
0
LINE
8
BLACK
6
CONTINUOUS
10
0.370772
20
-0.615105
11
0.377398
21
-0.61269
0
LINE
8
BLACK
6
CONTINUOUS
10
0.377398
20
-0.61269
11
0.383455
21
-0.609081
0
LINE
8
BLACK
6
CONTINUOUS
10
0.383455
20
-0.609081
11
0.388732
21
-0.604403
0
LINE
8
BLACK
6
CONTINUOUS
10
0.388732
20
-0.604403
11
0.393042
21
-0.598822
0
LINE
8
BLACK
6
CONTINUOUS
10
0.393042
20
-0.598822
11
0.396234
21
-0.592534
0
LINE
8
BLACK
6
CONTINUOUS
10
0.396234
20
-0.592534
11
0.398196
21
-0.585761
0
LINE
8
BLACK
6
CONTINUOUS
10
0.398196
20
-0.585761
11
0.398857
21
-0.57874
0
LINE
8
BLACK
6
CONTINUOUS
10
0.398857
20
-0.57874
11
0.398196
21
-0.57172
0
LINE
8
BLACK
6
CONTINUOUS
10
0.398196
20
-0.57172
11
0.396234
21
-0.564946
0
LINE
8
BLACK
6
CONTINUOUS
10
0.396234
20
-0.564946
11
0.393042
21
-0.558658
0
LINE
8
BLACK
6
CONTINUOUS
10
0.393042
20
-0.558658
11
0.388732
21
-0.553077
0
LINE
8
BLACK
6
CONTINUOUS
10
0.388732
20
-0.553077
11
0.383455
21
-0.5484
0
LINE
8
BLACK
6
CONTINUOUS
10
0.383455
20
-0.5484
11
0.377398
21
-0.54479
0
LINE
8
BLACK
6
CONTINUOUS
10
0.377398
20
-0.54479
11
0.370772
21
-0.542375
0
LINE
8
BLACK
6
CONTINUOUS
10
0.370772
20
-0.542375
11
0.363812
21
-0.541241
0
LINE
8
BLACK
6
CONTINUOUS
10
0.363812
20
-0.541241
11
0.360288
21
-0.541338
0
LINE
8
BLACK
6
CONTINUOUS
10
0.360248
20
0.620074
11
0.367925
21
0.619554
0
LINE
8
BLACK
6
CONTINUOUS
10
0.367925
20
0.619554
11
0.375431
21
0.617592
0
LINE
8
BLACK
6
CONTINUOUS
10
0.375431
20
0.617592
11
0.382439
21
0.614264
0
LINE
8
BLACK
6
CONTINUOUS
10
0.382439
20
0.614264
11
0.388702
21
0.609685
0
LINE
8
BLACK
6
CONTINUOUS
10
0.388702
20
0.609685
11
0.394
21
0.604016
0
LINE
8
BLACK
6
CONTINUOUS
10
0.394
20
0.604016
11
0.398145
21
0.597458
0
LINE
8
BLACK
6
CONTINUOUS
10
0.398145
20
0.597458
11
0.400992
21
0.590241
0
LINE
8
BLACK
6
CONTINUOUS
10
0.400992
20
0.590241
11
0.402441
21
0.582619
0
LINE
8
BLACK
6
CONTINUOUS
10
0.402441
20
0.582619
11
0.402441
21
0.574861
0
LINE
8
BLACK
6
CONTINUOUS
10
0.402441
20
0.574861
11
0.400992
21
0.567239
0
LINE
8
BLACK
6
CONTINUOUS
10
0.400992
20
0.567239
11
0.398145
21
0.560022
0
LINE
8
BLACK
6
CONTINUOUS
10
0.398145
20
0.560022
11
0.394
21
0.553464
0
LINE
8
BLACK
6
CONTINUOUS
10
0.394
20
0.553464
11
0.388702
21
0.547796
0
LINE
8
BLACK
6
CONTINUOUS
10
0.388702
20
0.547796
11
0.382439
21
0.543217
0
LINE
8
BLACK
6
CONTINUOUS
10
0.382439
20
0.543217
11
0.375431
21
0.539888
0
LINE
8
BLACK
6
CONTINUOUS
10
0.375431
20
0.539888
11
0.367925
21
0.537927
0
LINE
8
BLACK
6
CONTINUOUS
10
0.367925
20
0.537927
11
0.360248
21
0.537407
0
LINE
8
BLACK
6
CONTINUOUS
10
0.360248
20
0.537407
11
0.360236
21
0.537402
0
LINE
8
BLACK
6
CONTINUOUS
10
0.360236
20
0.537402
11
-0.360236
21
0.537402
0
LINE
8
BLACK
6
CONTINUOUS
10
-0.360236
20
0.537402
11
-0.360248
21
0.537407
0
LINE
8
BLACK
6
CONTINUOUS
10
-0.360248
20
0.537407
11
-0.367925
21
0.537927
0
LINE
8
BLACK
6
CONTINUOUS
10
-0.367925
20
0.537927
11
-0.375431
21
0.539888
0
LINE
8
BLACK
6
CONTINUOUS
10
-0.375431
20
0.539888
11
-0.382439
21
0.543217
0
LINE
8
BLACK
6
CONTINUOUS
10
-0.382439
20
0.543217
11
-0.388702
21
0.547796
0
LINE
8
BLACK
6
CONTINUOUS
10
-0.388702
20
0.547796
11
-0.394
21
0.553464
0
LINE
8
BLACK
6
CONTINUOUS
10
-0.394
20
0.553464
11
-0.398145
21
0.560022
0
LINE
8
BLACK
6
CONTINUOUS
10
-0.398145
20
0.560022
11
-0.400992
21
0.567239
0
LINE
8
BLACK
6
CONTINUOUS
10
-0.400992
20
0.567239
11
-0.402441
21
0.574861
0
LINE
8
BLACK
6
CONTINUOUS
10
-0.402441
20
0.574861
11
-0.402441
21
0.582619
0
LINE
8
BLACK
6
CONTINUOUS
10
-0.402441
20
0.582619
11
-0.400992
21
0.590241
0
LINE
8
BLACK
6
CONTINUOUS
10
-0.400992
20
0.590241
11
-0.398145
21
0.597458
0
LINE
8
BLACK
6
CONTINUOUS
10
-0.398145
20
0.597458
11
-0.394
21
0.604016
0
LINE
8
BLACK
6
CONTINUOUS
10
-0.394
20
0.604016
11
-0.388702
21
0.609685
0
LINE
8
BLACK
6
CONTINUOUS
10
-0.388702
20
0.609685
11
-0.382439
21
0.614264
0
LINE
8
BLACK
6
CONTINUOUS
10
-0.382439
20
0.614264
11
-0.375431
21
0.617592
0
LINE
8
BLACK
6
CONTINUOUS
10
-0.375431
20
0.617592
11
-0.367925
21
0.619554
0
LINE
8
BLACK
6
CONTINUOUS
10
-0.367925
20
0.619554
11
-0.360248
21
0.620074
0
LINE
8
BLACK
6
CONTINUOUS
10
-0.360248
20
0.620074
11
-0.360236
21
0.620079
0
LINE
8
BLACK
6
CONTINUOUS
10
-0.360236
20
0.620079
11
0.360236
21
0.620079
0
LINE
8
BLACK
6
CONTINUOUS
10
0.360236
20
0.620079
11
0.360248
21
0.620074
0
LINE
8
BLACK
6
CONTINUOUS
10
0.360288
20
0.616142
11
0.360288
21
0.616142
0
LINE
8
BLACK
6
CONTINUOUS
10
0.360288
20
0.616142
11
0.360259
21
0.616151
0
LINE
8
BLACK
6
CONTINUOUS
10
0.360259
20
0.616151
11
0.360236
21
0.616142
0
LINE
8
BLACK
6
CONTINUOUS
10
0.360236
20
0.616142
11
-0.360236
21
0.616142
0
LINE
8
BLACK
6
CONTINUOUS
10
-0.360236
20
0.616142
11
-0.360259
21
0.616151
0
LINE
8
BLACK
6
CONTINUOUS
10
-0.360259
20
0.616151
11
-0.360288
21
0.616142
0
LINE
8
BLACK
6
CONTINUOUS
10
-0.360288
20
0.616142
11
-0.363812
21
0.61624
0
LINE
8
BLACK
6
CONTINUOUS
10
-0.363812
20
0.61624
11
-0.370772
21
0.615105
0
LINE
8
BLACK
6
CONTINUOUS
10
-0.370772
20
0.615105
11
-0.377398
21
0.61269
0
LINE
8
BLACK
6
CONTINUOUS
10
-0.377398
20
0.61269
11
-0.383455
21
0.609081
0
LINE
8
BLACK
6
CONTINUOUS
10
-0.383455
20
0.609081
11
-0.388732
21
0.604403
0
LINE
8
BLACK
6
CONTINUOUS
10
-0.388732
20
0.604403
11
-0.393042
21
0.598822
0
LINE
8
BLACK
6
CONTINUOUS
10
-0.393042
20
0.598822
11
-0.396234
21
0.592534
0
LINE
8
BLACK
6
CONTINUOUS
10
-0.396234
20
0.592534
11
-0.398195
21
0.585761
0
LINE
8
BLACK
6
CONTINUOUS
10
-0.398195
20
0.585761
11
-0.398857
21
0.57874
0
LINE
8
BLACK
6
CONTINUOUS
10
-0.398857
20
0.57874
11
-0.398195
21
0.57172
0
LINE
8
BLACK
6
CONTINUOUS
10
-0.398195
20
0.57172
11
-0.396234
21
0.564946
0
LINE
8
BLACK
6
CONTINUOUS
10
-0.396234
20
0.564946
11
-0.393042
21
0.558658
0
LINE
8
BLACK
6
CONTINUOUS
10
-0.393042
20
0.558658
11
-0.388732
21
0.553077
0
LINE
8
BLACK
6
CONTINUOUS
10
-0.388732
20
0.553077
11
-0.383455
21
0.5484
0
LINE
8
BLACK
6
CONTINUOUS
10
-0.383455
20
0.5484
11
-0.377398
21
0.54479
0
LINE
8
BLACK
6
CONTINUOUS
10
-0.377398
20
0.54479
11
-0.370772
21
0.542375
0
LINE
8
BLACK
6
CONTINUOUS
10
-0.370772
20
0.542375
11
-0.363812
21
0.541241
0
LINE
8
BLACK
6
CONTINUOUS
10
-0.363812
20
0.541241
11
-0.360288
21
0.541338
0
LINE
8
BLACK
6
CONTINUOUS
10
-0.360288
20
0.541338
11
-0.360259
21
0.541329
0
LINE
8
BLACK
6
CONTINUOUS
10
-0.360259
20
0.541329
11
-0.360236
21
0.541339
0
LINE
8
BLACK
6
CONTINUOUS
10
-0.360236
20
0.541339
11
0.360236
21
0.541339
0
LINE
8
BLACK
6
CONTINUOUS
10
0.360236
20
0.541339
11
0.360259
21
0.541329
0
LINE
8
BLACK
6
CONTINUOUS
10
0.360259
20
0.541329
11
0.360288
21
0.541338
0
LINE
8
BLACK
6
CONTINUOUS
10
0.360288
20
0.541338
11
0.360288
21
0.541338
0
LINE
8
BLACK
6
CONTINUOUS
10
0.360288
20
0.541338
11
0.363812
21
0.541241
0
LINE
8
BLACK
6
CONTINUOUS
10
0.363812
20
0.541241
11
0.370772
21
0.542375
0
LINE
8
BLACK
6
CONTINUOUS
10
0.370772
20
0.542375
11
0.377398
21
0.54479
0
LINE
8
BLACK
6
CONTINUOUS
10
0.377398
20
0.54479
11
0.383455
21
0.5484
0
LINE
8
BLACK
6
CONTINUOUS
10
0.383455
20
0.5484
11
0.388732
21
0.553077
0
LINE
8
BLACK
6
CONTINUOUS
10
0.388732
20
0.553077
11
0.393042
21
0.558658
0
LINE
8
BLACK
6
CONTINUOUS
10
0.393042
20
0.558658
11
0.396234
21
0.564946
0
LINE
8
BLACK
6
CONTINUOUS
10
0.396234
20
0.564946
11
0.398196
21
0.57172
0
LINE
8
BLACK
6
CONTINUOUS
10
0.398196
20
0.57172
11
0.398857
21
0.57874
0
LINE
8
BLACK
6
CONTINUOUS
10
0.398857
20
0.57874
11
0.398196
21
0.585761
0
LINE
8
BLACK
6
CONTINUOUS
10
0.398196
20
0.585761
11
0.396234
21
0.592534
0
LINE
8
BLACK
6
CONTINUOUS
10
0.396234
20
0.592534
11
0.393042
21
0.598822
0
LINE
8
BLACK
6
CONTINUOUS
10
0.393042
20
0.598822
11
0.388732
21
0.604403
0
LINE
8
BLACK
6
CONTINUOUS
10
0.388732
20
0.604403
11
0.383455
21
0.609081
0
LINE
8
BLACK
6
CONTINUOUS
10
0.383455
20
0.609081
11
0.377398
21
0.61269
0
LINE
8
BLACK
6
CONTINUOUS
10
0.377398
20
0.61269
11
0.370772
21
0.615105
0
LINE
8
BLACK
6
CONTINUOUS
10
0.370772
20
0.615105
11
0.363812
21
0.61624
0
LINE
8
BLACK
6
CONTINUOUS
10
0.363812
20
0.61624
11
0.360288
21
0.616142
0
LINE
8
BLACK
6
CONTINUOUS
10
0.403571
20
0.683059
11
0.403607
21
0.68307
0
LINE
8
BLACK
6
CONTINUOUS
10
0.403607
20
0.68307
11
0.412551
21
0.682139
0
LINE
8
BLACK
6
CONTINUOUS
10
0.412551
20
0.682139
11
0.421271
21
0.679946
0
LINE
8
BLACK
6
CONTINUOUS
10
0.421271
20
0.679946
11
0.429591
21
0.676533
0
LINE
8
BLACK
6
CONTINUOUS
10
0.429591
20
0.676533
11
0.43734
21
0.671972
0
LINE
8
BLACK
6
CONTINUOUS
10
0.43734
20
0.671972
11
0.444361
21
0.666354
0
LINE
8
BLACK
6
CONTINUOUS
10
0.444361
20
0.666354
11
0.450511
21
0.659793
0
LINE
8
BLACK
6
CONTINUOUS
10
0.450511
20
0.659793
11
0.455665
21
0.652425
0
LINE
8
BLACK
6
CONTINUOUS
10
0.455665
20
0.652425
11
0.459718
21
0.644398
0
LINE
8
BLACK
6
CONTINUOUS
10
0.459718
20
0.644398
11
0.462587
21
0.635876
0
LINE
8
BLACK
6
CONTINUOUS
10
0.462587
20
0.635876
11
0.464214
21
0.627032
0
LINE
8
BLACK
6
CONTINUOUS
10
0.464214
20
0.627032
11
0.464563
21
0.61812
0
LINE
8
BLACK
6
CONTINUOUS
10
0.464563
20
0.61812
11
0.464567
21
0.61811
0
LINE
8
BLACK
6
CONTINUOUS
10
0.464567
20
0.61811
11
0.464567
21
0.299766
0
LINE
8
BLACK
6
CONTINUOUS
10
0.464567
20
0.299766
11
0.478658
21
0.27674
0
LINE
8
BLACK
6
CONTINUOUS
10
0.478658
20
0.27674
11
0.491872
21
0.252508
0
LINE
8
BLACK
6
CONTINUOUS
10
0.491872
20
0.252508
11
0.50386
21
0.227648
0
LINE
8
BLACK
6
CONTINUOUS
10
0.50386
20
0.227648
11
0.514593
21
0.20222
0
LINE
8
BLACK
6
CONTINUOUS
10
0.514593
20
0.20222
11
0.524043
21
0.176288
0
LINE
8
BLACK
6
CONTINUOUS
10
0.524043
20
0.176288
11
0.532187
21
0.149916
0
LINE
8
BLACK
6
CONTINUOUS
10
0.532187
20
0.149916
11
0.539006
21
0.123172
0
LINE
8
BLACK
6
CONTINUOUS
10
0.539006
20
0.123172
11
0.544481
21
0.0961199
0
LINE
8
BLACK
6
CONTINUOUS
10
0.544481
20
0.0961199
11
0.548599
21
0.0688287
0
LINE
8
BLACK
6
CONTINUOUS
10
0.548599
20
0.0688287
11
0.55135
21
0.0413659
0
LINE
8
BLACK
6
CONTINUOUS
10
0.55135
20
0.0413659
11
0.552728
21
0.0138001
0
LINE
8
BLACK
6
CONTINUOUS
10
0.552728
20
0.0138001
11
0.552728
21
-0.0138001
0
LINE
8
BLACK
6
CONTINUOUS
10
0.552728
20
-0.0138001
11
0.55135
21
-0.0413659
0
LINE
8
BLACK
6
CONTINUOUS
10
0.55135
20
-0.0413659
11
0.548599
21
-0.0688287
0
LINE
8
BLACK
6
CONTINUOUS
10
0.548599
20
-0.0688287
11
0.544481
21
-0.0961199
0
LINE
8
BLACK
6
CONTINUOUS
10
0.544481
20
-0.0961199
11
0.539006
21
-0.123172
0
LINE
8
BLACK
6
CONTINUOUS
10
0.539006
20
-0.123172
11
0.532187
21
-0.149916
0
LINE
8
BLACK
6
CONTINUOUS
10
0.532187
20
-0.149916
11
0.524043
21
-0.176288
0
LINE
8
BLACK
6
CONTINUOUS
10
0.524043
20
-0.176288
11
0.514593
21
-0.20222
0
LINE
8
BLACK
6
CONTINUOUS
10
0.514593
20
-0.20222
11
0.50386
21
-0.227648
0
LINE
8
BLACK
6
CONTINUOUS
10
0.50386
20
-0.227648
11
0.491872
21
-0.252508
0
LINE
8
BLACK
6
CONTINUOUS
10
0.491872
20
-0.252508
11
0.478658
21
-0.27674
0
LINE
8
BLACK
6
CONTINUOUS
10
0.478658
20
-0.27674
11
0.464567
21
-0.299766
0
LINE
8
BLACK
6
CONTINUOUS
10
0.464567
20
-0.299766
11
0.464567
21
-0.617941
0
LINE
8
BLACK
6
CONTINUOUS
10
0.464567
20
-0.617941
11
0.464605
21
-0.618047
0
LINE
8
BLACK
6
CONTINUOUS
10
0.464605
20
-0.618047
11
0.464605
21
-0.618047
0
LINE
8
BLACK
6
CONTINUOUS
10
0.464605
20
-0.618047
11
0.46425
21
-0.627035
0
LINE
8
BLACK
6
CONTINUOUS
10
0.46425
20
-0.627035
11
0.46262
21
-0.635881
0
LINE
8
BLACK
6
CONTINUOUS
10
0.46262
20
-0.635881
11
0.459747
21
-0.644405
0
LINE
8
BLACK
6
CONTINUOUS
10
0.459747
20
-0.644405
11
0.45569
21
-0.652433
0
LINE
8
BLACK
6
CONTINUOUS
10
0.45569
20
-0.652433
11
0.450532
21
-0.659802
0
LINE
8
BLACK
6
CONTINUOUS
10
0.450532
20
-0.659802
11
0.444378
21
-0.666362
0
LINE
8
BLACK
6
CONTINUOUS
10
0.444378
20
-0.666362
11
0.437353
21
-0.67198
0
LINE
8
BLACK
6
CONTINUOUS
10
0.437353
20
-0.67198
11
0.4296
21
-0.67654
0
LINE
8
BLACK
6
CONTINUOUS
10
0.4296
20
-0.67654
11
0.421277
21
-0.679951
0
LINE
8
BLACK
6
CONTINUOUS
10
0.421277
20
-0.679951
11
0.412553
21
-0.682142
0
LINE
8
BLACK
6
CONTINUOUS
10
0.412553
20
-0.682142
11
0.403606
21
-0.68307
0
LINE
8
BLACK
6
CONTINUOUS
10
0.403606
20
-0.68307
11
0.403606
21
-0.68307
0
LINE
8
BLACK
6
CONTINUOUS
10
0.403606
20
-0.68307
11
0.403571
21
-0.68306
0
LINE
8
BLACK
6
CONTINUOUS
10
0.403571
20
-0.68306
11
0.403543
21
-0.683071
0
LINE
8
BLACK
6
CONTINUOUS
10
0.403543
20
-0.683071
11
-0.403543
21
-0.683071
0
LINE
8
BLACK
6
CONTINUOUS
10
-0.403543
20
-0.683071
11
-0.403571
21
-0.683059
0
LINE
8
BLACK
6
CONTINUOUS
10
-0.403571
20
-0.683059
11
-0.403607
21
-0.68307
0
LINE
8
BLACK
6
CONTINUOUS
10
-0.403607
20
-0.68307
11
-0.412551
21
-0.68214
0
LINE
8
BLACK
6
CONTINUOUS
10
-0.412551
20
-0.68214
11
-0.421271
21
-0.679946
0
LINE
8
BLACK
6
CONTINUOUS
10
-0.421271
20
-0.679946
11
-0.429591
21
-0.676533
0
LINE
8
BLACK
6
CONTINUOUS
10
-0.429591
20
-0.676533
11
-0.43734
21
-0.671972
0
LINE
8
BLACK
6
CONTINUOUS
10
-0.43734
20
-0.671972
11
-0.444361
21
-0.666354
0
LINE
8
BLACK
6
CONTINUOUS
10
-0.444361
20
-0.666354
11
-0.450511
21
-0.659794
0
LINE
8
BLACK
6
CONTINUOUS
10
-0.450511
20
-0.659794
11
-0.455665
21
-0.652425
0
LINE
8
BLACK
6
CONTINUOUS
10
-0.455665
20
-0.652425
11
-0.459718
21
-0.644398
0
LINE
8
BLACK
6
CONTINUOUS
10
-0.459718
20
-0.644398
11
-0.462587
21
-0.635876
0
LINE
8
BLACK
6
CONTINUOUS
10
-0.462587
20
-0.635876
11
-0.464214
21
-0.627032
0
LINE
8
BLACK
6
CONTINUOUS
10
-0.464214
20
-0.627032
11
-0.464563
21
-0.618119
0
LINE
8
BLACK
6
CONTINUOUS
10
-0.464563
20
-0.618119
11
-0.464567
21
-0.61811
0
LINE
8
BLACK
6
CONTINUOUS
10
-0.464567
20
-0.61811
11
-0.464567
21
-0.299766
0
LINE
8
BLACK
6
CONTINUOUS
10
-0.464567
20
-0.299766
11
-0.478658
21
-0.27674
0
LINE
8
BLACK
6
CONTINUOUS
10
-0.478658
20
-0.27674
11
-0.491872
21
-0.252508
0
LINE
8
BLACK
6
CONTINUOUS
10
-0.491872
20
-0.252508
11
-0.50386
21
-0.227647
0
LINE
8
BLACK
6
CONTINUOUS
10
-0.50386
20
-0.227647
11
-0.514592
21
-0.202219
0
LINE
8
BLACK
6
CONTINUOUS
10
-0.514592
20
-0.202219
11
-0.524042
21
-0.176288
0
LINE
8
BLACK
6
CONTINUOUS
10
-0.524042
20
-0.176288
11
-0.532187
21
-0.149916
0
LINE
8
BLACK
6
CONTINUOUS
10
-0.532187
20
-0.149916
11
-0.539005
21
-0.123172
0
LINE
8
BLACK
6
CONTINUOUS
10
-0.539005
20
-0.123172
11
-0.54448
21
-0.0961198
0
LINE
8
BLACK
6
CONTINUOUS
10
-0.54448
20
-0.0961198
11
-0.548598
21
-0.0688286
0
LINE
8
BLACK
6
CONTINUOUS
10
-0.548598
20
-0.0688286
11
-0.551349
21
-0.0413659
0
LINE
8
BLACK
6
CONTINUOUS
10
-0.551349
20
-0.0413659
11
-0.552727
21
-0.0138001
0
LINE
8
BLACK
6
CONTINUOUS
10
-0.552727
20
-0.0138001
11
-0.552727
21
0.0138001
0
LINE
8
BLACK
6
CONTINUOUS
10
-0.552727
20
0.0138001
11
-0.551349
21
0.0413659
0
LINE
8
BLACK
6
CONTINUOUS
10
-0.551349
20
0.0413659
11
-0.548598
21
0.0688286
0
LINE
8
BLACK
6
CONTINUOUS
10
-0.548598
20
0.0688286
11
-0.54448
21
0.0961198
0
LINE
8
BLACK
6
CONTINUOUS
10
-0.54448
20
0.0961198
11
-0.539005
21
0.123172
0
LINE
8
BLACK
6
CONTINUOUS
10
-0.539005
20
0.123172
11
-0.532187
21
0.149916
0
LINE
8
BLACK
6
CONTINUOUS
10
-0.532187
20
0.149916
11
-0.524042
21
0.176288
0
LINE
8
BLACK
6
CONTINUOUS
10
-0.524042
20
0.176288
11
-0.514592
21
0.202219
0
LINE
8
BLACK
6
CONTINUOUS
10
-0.514592
20
0.202219
11
-0.50386
21
0.227647
0
LINE
8
BLACK
6
CONTINUOUS
10
-0.50386
20
0.227647
11
-0.491872
21
0.252508
0
LINE
8
BLACK
6
CONTINUOUS
10
-0.491872
20
0.252508
11
-0.478658
21
0.27674
0
LINE
8
BLACK
6
CONTINUOUS
10
-0.478658
20
0.27674
11
-0.464567
21
0.299766
0
LINE
8
BLACK
6
CONTINUOUS
10
-0.464567
20
0.299766
11
-0.464567
21
0.61811
0
LINE
8
BLACK
6
CONTINUOUS
10
-0.464567
20
0.61811
11
-0.464563
21
0.61812
0
LINE
8
BLACK
6
CONTINUOUS
10
-0.464563
20
0.61812
11
-0.464214
21
0.627032
0
LINE
8
BLACK
6
CONTINUOUS
10
-0.464214
20
0.627032
11
-0.462587
21
0.635876
0
LINE
8
BLACK
6
CONTINUOUS
10
-0.462587
20
0.635876
11
-0.459718
21
0.644398
0
LINE
8
BLACK
6
CONTINUOUS
10
-0.459718
20
0.644398
11
-0.455665
21
0.652425
0
LINE
8
BLACK
6
CONTINUOUS
10
-0.455665
20
0.652425
11
-0.450511
21
0.659794
0
LINE
8
BLACK
6
CONTINUOUS
10
-0.450511
20
0.659794
11
-0.444361
21
0.666354
0
LINE
8
BLACK
6
CONTINUOUS
10
-0.444361
20
0.666354
11
-0.43734
21
0.671972
0
LINE
8
BLACK
6
CONTINUOUS
10
-0.43734
20
0.671972
11
-0.429591
21
0.676533
0
LINE
8
BLACK
6
CONTINUOUS
10
-0.429591
20
0.676533
11
-0.421271
21
0.679946
0
LINE
8
BLACK
6
CONTINUOUS
10
-0.421271
20
0.679946
11
-0.412551
21
0.682139
0
LINE
8
BLACK
6
CONTINUOUS
10
-0.412551
20
0.682139
11
-0.403607
21
0.68307
0
LINE
8
BLACK
6
CONTINUOUS
10
-0.403607
20
0.68307
11
-0.403571
21
0.683059
0
LINE
8
BLACK
6
CONTINUOUS
10
-0.403571
20
0.683059
11
-0.403543
21
0.683071
0
LINE
8
BLACK
6
CONTINUOUS
10
-0.403543
20
0.683071
11
0.403543
21
0.683071
0
LINE
8
BLACK
6
CONTINUOUS
10
0.403543
20
0.683071
11
0.403571
21
0.683059
0
LINE
8
BLACK
6
CONTINUOUS
10
-0.403512
20
0.679134
11
-0.407704
21
0.678999
0
LINE
8
BLACK
6
CONTINUOUS
10
-0.407704
20
0.678999
11
-0.416026
21
0.677527
0
LINE
8
BLACK
6
CONTINUOUS
10
-0.416026
20
0.677527
11
-0.424055
21
0.674885
0
LINE
8
BLACK
6
CONTINUOUS
10
-0.424055
20
0.674885
11
-0.431626
21
0.671128
0
LINE
8
BLACK
6
CONTINUOUS
10
-0.431626
20
0.671128
11
-0.438585
21
0.666332
0
LINE
8
BLACK
6
CONTINUOUS
10
-0.438585
20
0.666332
11
-0.444791
21
0.660594
0
LINE
8
BLACK
6
CONTINUOUS
10
-0.444791
20
0.660594
11
-0.450117
21
0.654031
0
LINE
8
BLACK
6
CONTINUOUS
10
-0.450117
20
0.654031
11
-0.454455
21
0.646777
0
LINE
8
BLACK
6
CONTINUOUS
10
-0.454455
20
0.646777
11
-0.457716
21
0.63898
0
LINE
8
BLACK
6
CONTINUOUS
10
-0.457716
20
0.63898
11
-0.459835
21
0.630798
0
LINE
8
BLACK
6
CONTINUOUS
10
-0.459835
20
0.630798
11
-0.460767
21
0.622397
0
LINE
8
BLACK
6
CONTINUOUS
10
-0.460767
20
0.622397
11
-0.460631
21
0.618174
0
LINE
8
BLACK
6
CONTINUOUS
10
-0.460631
20
0.618174
11
-0.460641
21
0.618138
0
LINE
8
BLACK
6
CONTINUOUS
10
-0.460641
20
0.618138
11
-0.46063
21
0.61811
0
LINE
8
BLACK
6
CONTINUOUS
10
-0.46063
20
0.61811
11
-0.46063
21
0.299213
0
LINE
8
BLACK
6
CONTINUOUS
10
-0.46063
20
0.299213
11
-0.460717
21
0.299002
0
LINE
8
BLACK
6
CONTINUOUS
10
-0.460717
20
0.299002
11
-0.460946
21
0.298144
0
LINE
8
BLACK
6
CONTINUOUS
10
-0.460946
20
0.298144
11
-0.460946
21
0.298144
0
LINE
8
BLACK
6
CONTINUOUS
10
-0.460946
20
0.298144
11
-0.468729
21
0.286112
0
LINE
8
BLACK
6
CONTINUOUS
10
-0.468729
20
0.286112
11
-0.483017
21
0.261269
0
LINE
8
BLACK
6
CONTINUOUS
10
-0.483017
20
0.261269
11
-0.495989
21
0.235714
0
LINE
8
BLACK
6
CONTINUOUS
10
-0.495989
20
0.235714
11
-0.507611
21
0.209518
0
LINE
8
BLACK
6
CONTINUOUS
10
-0.507611
20
0.209518
11
-0.51785
21
0.18275
0
LINE
8
BLACK
6
CONTINUOUS
10
-0.51785
20
0.18275
11
-0.526679
21
0.155485
0
LINE
8
BLACK
6
CONTINUOUS
10
-0.526679
20
0.155485
11
-0.534073
21
0.127797
0
LINE
8
BLACK
6
CONTINUOUS
10
-0.534073
20
0.127797
11
-0.540013
21
0.0997603
0
LINE
8
BLACK
6
CONTINUOUS
10
-0.540013
20
0.0997603
11
-0.544482
21
0.071452
0
LINE
8
BLACK
6
CONTINUOUS
10
-0.544482
20
0.071452
11
-0.547468
21
0.0429492
0
LINE
8
BLACK
6
CONTINUOUS
10
-0.547468
20
0.0429492
11
-0.548963
21
0.0143294
0
LINE
8
BLACK
6
CONTINUOUS
10
-0.548963
20
0.0143294
11
-0.548963
21
-0.0143294
0
LINE
8
BLACK
6
CONTINUOUS
10
-0.548963
20
-0.0143294
11
-0.547468
21
-0.0429492
0
LINE
8
BLACK
6
CONTINUOUS
10
-0.547468
20
-0.0429492
11
-0.544482
21
-0.071452
0
LINE
8
BLACK
6
CONTINUOUS
10
-0.544482
20
-0.071452
11
-0.540013
21
-0.0997603
0
LINE
8
BLACK
6
CONTINUOUS
10
-0.540013
20
-0.0997603
11
-0.534073
21
-0.127797
0
LINE
8
BLACK
6
CONTINUOUS
10
-0.534073
20
-0.127797
11
-0.526679
21
-0.155485
0
LINE
8
BLACK
6
CONTINUOUS
10
-0.526679
20
-0.155485
11
-0.51785
21
-0.18275
0
LINE
8
BLACK
6
CONTINUOUS
10
-0.51785
20
-0.18275
11
-0.507611
21
-0.209518
0
LINE
8
BLACK
6
CONTINUOUS
10
-0.507611
20
-0.209518
11
-0.495989
21
-0.235714
0
LINE
8
BLACK
6
CONTINUOUS
10
-0.495989
20
-0.235714
11
-0.483017
21
-0.261269
0
LINE
8
BLACK
6
CONTINUOUS
10
-0.483017
20
-0.261269
11
-0.468729
21
-0.286112
0
LINE
8
BLACK
6
CONTINUOUS
10
-0.468729
20
-0.286112
11
-0.460946
21
-0.298144
0
LINE
8
BLACK
6
CONTINUOUS
10
-0.460946
20
-0.298144
11
-0.460946
21
-0.298144
0
LINE
8
BLACK
6
CONTINUOUS
10
-0.460946
20
-0.298144
11
-0.460717
21
-0.299002
0
LINE
8
BLACK
6
CONTINUOUS
10
-0.460717
20
-0.299002
11
-0.46063
21
-0.299213
0
LINE
8
BLACK
6
CONTINUOUS
10
-0.46063
20
-0.299213
11
-0.46063
21
-0.61811
0
LINE
8
BLACK
6
CONTINUOUS
10
-0.46063
20
-0.61811
11
-0.460641
21
-0.618138
0
LINE
8
BLACK
6
CONTINUOUS
10
-0.460641
20
-0.618138
11
-0.460631
21
-0.618174
0
LINE
8
BLACK
6
CONTINUOUS
10
-0.460631
20
-0.618174
11
-0.460631
21
-0.618174
0
LINE
8
BLACK
6
CONTINUOUS
10
-0.460631
20
-0.618174
11
-0.460767
21
-0.622397
0
LINE
8
BLACK
6
CONTINUOUS
10
-0.460767
20
-0.622397
11
-0.459835
21
-0.630798
0
LINE
8
BLACK
6
CONTINUOUS
10
-0.459835
20
-0.630798
11
-0.457716
21
-0.63898
0
LINE
8
BLACK
6
CONTINUOUS
10
-0.457716
20
-0.63898
11
-0.454455
21
-0.646777
0
LINE
8
BLACK
6
CONTINUOUS
10
-0.454455
20
-0.646777
11
-0.450117
21
-0.654031
0
LINE
8
BLACK
6
CONTINUOUS
10
-0.450117
20
-0.654031
11
-0.444791
21
-0.660594
0
LINE
8
BLACK
6
CONTINUOUS
10
-0.444791
20
-0.660594
11
-0.438585
21
-0.666332
0
LINE
8
BLACK
6
CONTINUOUS
10
-0.438585
20
-0.666332
11
-0.431626
21
-0.671128
0
LINE
8
BLACK
6
CONTINUOUS
10
-0.431626
20
-0.671128
11
-0.424055
21
-0.674885
0
LINE
8
BLACK
6
CONTINUOUS
10
-0.424055
20
-0.674885
11
-0.416026
21
-0.677527
0
LINE
8
BLACK
6
CONTINUOUS
10
-0.416026
20
-0.677527
11
-0.407704
21
-0.678999
0
LINE
8
BLACK
6
CONTINUOUS
10
-0.407704
20
-0.678999
11
-0.403512
21
-0.679134
0
LINE
8
BLACK
6
CONTINUOUS
10
-0.403512
20
-0.679134
11
0.403511
21
-0.679134
0
LINE
8
BLACK
6
CONTINUOUS
10
0.403511
20
-0.679134
11
0.407706
21
-0.679
0
LINE
8
BLACK
6
CONTINUOUS
10
0.407706
20
-0.679
11
0.416032
21
-0.67753
0
LINE
8
BLACK
6
CONTINUOUS
10
0.416032
20
-0.67753
11
0.424064
21
-0.674891
0
LINE
8
BLACK
6
CONTINUOUS
10
0.424064
20
-0.674891
11
0.431638
21
-0.671135
0
LINE
8
BLACK
6
CONTINUOUS
10
0.431638
20
-0.671135
11
0.438601
21
-0.666339
0
LINE
8
BLACK
6
CONTINUOUS
10
0.438601
20
-0.666339
11
0.444811
21
-0.660602
0
LINE
8
BLACK
6
CONTINUOUS
10
0.444811
20
-0.660602
11
0.450141
21
-0.654039
0
LINE
8
BLACK
6
CONTINUOUS
10
0.450141
20
-0.654039
11
0.454483
21
-0.646784
0
LINE
8
BLACK
6
CONTINUOUS
10
0.454483
20
-0.646784
11
0.457748
21
-0.638985
0
LINE
8
BLACK
6
CONTINUOUS
10
0.457748
20
-0.638985
11
0.45987
21
-0.630801
0
LINE
8
BLACK
6
CONTINUOUS
10
0.45987
20
-0.630801
11
0.460805
21
-0.622398
0
LINE
8
BLACK
6
CONTINUOUS
10
0.460805
20
-0.622398
11
0.460671
21
-0.618211
0
LINE
8
BLACK
6
CONTINUOUS
10
0.460671
20
-0.618211
11
0.46063
21
-0.61811
0
LINE
8
BLACK
6
CONTINUOUS
10
0.46063
20
-0.61811
11
0.46063
21
-0.299213
0
LINE
8
BLACK
6
CONTINUOUS
10
0.46063
20
-0.299213
11
0.460717
21
-0.299002
0
LINE
8
BLACK
6
CONTINUOUS
10
0.460717
20
-0.299002
11
0.460946
21
-0.298144
0
LINE
8
BLACK
6
CONTINUOUS
10
0.460946
20
-0.298144
11
0.460946
21
-0.298143
0
LINE
8
BLACK
6
CONTINUOUS
10
0.460946
20
-0.298143
11
0.468729
21
-0.286112
0
LINE
8
BLACK
6
CONTINUOUS
10
0.468729
20
-0.286112
11
0.483017
21
-0.261269
0
LINE
8
BLACK
6
CONTINUOUS
10
0.483017
20
-0.261269
11
0.49599
21
-0.235714
0
LINE
8
BLACK
6
CONTINUOUS
10
0.49599
20
-0.235714
11
0.507611
21
-0.209518
0
LINE
8
BLACK
6
CONTINUOUS
10
0.507611
20
-0.209518
11
0.517851
21
-0.18275
0
LINE
8
BLACK
6
CONTINUOUS
10
0.517851
20
-0.18275
11
0.526679
21
-0.155485
0
LINE
8
BLACK
6
CONTINUOUS
10
0.526679
20
-0.155485
11
0.534074
21
-0.127797
0
LINE
8
BLACK
6
CONTINUOUS
10
0.534074
20
-0.127797
11
0.540014
21
-0.0997604
0
LINE
8
BLACK
6
CONTINUOUS
10
0.540014
20
-0.0997604
11
0.544483
21
-0.0714521
0
LINE
8
BLACK
6
CONTINUOUS
10
0.544483
20
-0.0714521
11
0.547469
21
-0.0429493
0
LINE
8
BLACK
6
CONTINUOUS
10
0.547469
20
-0.0429493
11
0.548964
21
-0.0143294
0
LINE
8
BLACK
6
CONTINUOUS
10
0.548964
20
-0.0143294
11
0.548964
21
0.0143294
0
LINE
8
BLACK
6
CONTINUOUS
10
0.548964
20
0.0143294
11
0.547469
21
0.0429493
0
LINE
8
BLACK
6
CONTINUOUS
10
0.547469
20
0.0429493
11
0.544483
21
0.0714521
0
LINE
8
BLACK
6
CONTINUOUS
10
0.544483
20
0.0714521
11
0.540014
21
0.0997604
0
LINE
8
BLACK
6
CONTINUOUS
10
0.540014
20
0.0997604
11
0.534074
21
0.127797
0
LINE
8
BLACK
6
CONTINUOUS
10
0.534074
20
0.127797
11
0.526679
21
0.155485
0
LINE
8
BLACK
6
CONTINUOUS
10
0.526679
20
0.155485
11
0.517851
21
0.18275
0
LINE
8
BLACK
6
CONTINUOUS
10
0.517851
20
0.18275
11
0.507611
21
0.209518
0
LINE
8
BLACK
6
CONTINUOUS
10
0.507611
20
0.209518
11
0.49599
21
0.235714
0
LINE
8
BLACK
6
CONTINUOUS
10
0.49599
20
0.235714
11
0.483017
21
0.261269
0
LINE
8
BLACK
6
CONTINUOUS
10
0.483017
20
0.261269
11
0.468729
21
0.286112
0
LINE
8
BLACK
6
CONTINUOUS
10
0.468729
20
0.286112
11
0.460946
21
0.298143
0
LINE
8
BLACK
6
CONTINUOUS
10
0.460946
20
0.298143
11
0.460946
21
0.298144
0
LINE
8
BLACK
6
CONTINUOUS
10
0.460946
20
0.298144
11
0.460717
21
0.299002
0
LINE
8
BLACK
6
CONTINUOUS
10
0.460717
20
0.299002
11
0.46063
21
0.299213
0
LINE
8
BLACK
6
CONTINUOUS
10
0.46063
20
0.299213
11
0.46063
21
0.61811
0
LINE
8
BLACK
6
CONTINUOUS
10
0.46063
20
0.61811
11
0.460641
21
0.618138
0
LINE
8
BLACK
6
CONTINUOUS
10
0.460641
20
0.618138
11
0.460631
21
0.618174
0
LINE
8
BLACK
6
CONTINUOUS
10
0.460631
20
0.618174
11
0.460767
21
0.622397
0
LINE
8
BLACK
6
CONTINUOUS
10
0.460767
20
0.622397
11
0.459835
21
0.630798
0
LINE
8
BLACK
6
CONTINUOUS
10
0.459835
20
0.630798
11
0.457716
21
0.63898
0
LINE
8
BLACK
6
CONTINUOUS
10
0.457716
20
0.63898
11
0.454455
21
0.646777
0
LINE
8
BLACK
6
CONTINUOUS
10
0.454455
20
0.646777
11
0.450117
21
0.654031
0
LINE
8
BLACK
6
CONTINUOUS
10
0.450117
20
0.654031
11
0.444791
21
0.660594
0
LINE
8
BLACK
6
CONTINUOUS
10
0.444791
20
0.660594
11
0.438585
21
0.666332
0
LINE
8
BLACK
6
CONTINUOUS
10
0.438585
20
0.666332
11
0.431626
21
0.671128
0
LINE
8
BLACK
6
CONTINUOUS
10
0.431626
20
0.671128
11
0.424055
21
0.674885
0
LINE
8
BLACK
6
CONTINUOUS
10
0.424055
20
0.674885
11
0.416026
21
0.677527
0
LINE
8
BLACK
6
CONTINUOUS
10
0.416026
20
0.677527
11
0.407704
21
0.678999
0
LINE
8
BLACK
6
CONTINUOUS
10
0.407704
20
0.678999
11
0.403512
21
0.679134
0
LINE
8
BLACK
6
CONTINUOUS
10
0.403512
20
0.679134
11
-0.403512
21
0.679134
0
LINE
8
BLACK
6
CONTINUOUS
10
0.428109
20
0.86509
11
0.42869
21
0.863699
0
LINE
8
BLACK
6
CONTINUOUS
10
0.42869
20
0.863699
11
0.429082
21
0.714572
0
LINE
8
BLACK
6
CONTINUOUS
10
0.429082
20
0.714572
11
0.428509
21
0.713179
0
LINE
8
BLACK
6
CONTINUOUS
10
0.428509
20
0.713179
11
0.427119
21
0.712598
0
LINE
8
BLACK
6
CONTINUOUS
10
0.427119
20
0.712598
11
0.425725
21
0.713171
0
LINE
8
BLACK
6
CONTINUOUS
10
0.425725
20
0.713171
11
0.425145
21
0.714562
0
LINE
8
BLACK
6
CONTINUOUS
10
0.425145
20
0.714562
11
0.424822
21
0.837357
0
LINE
8
BLACK
6
CONTINUOUS
10
0.424822
20
0.837357
11
0.383406
21
0.815659
0
LINE
8
BLACK
6
CONTINUOUS
10
0.383406
20
0.815659
11
0.381905
21
0.815524
0
LINE
8
BLACK
6
CONTINUOUS
10
0.381905
20
0.815524
11
0.380749
21
0.816489
0
LINE
8
BLACK
6
CONTINUOUS
10
0.380749
20
0.816489
11
0.380613
21
0.81799
0
LINE
8
BLACK
6
CONTINUOUS
10
0.380613
20
0.81799
11
0.381579
21
0.819146
0
LINE
8
BLACK
6
CONTINUOUS
10
0.381579
20
0.819146
11
0.418742
21
0.838617
0
LINE
8
BLACK
6
CONTINUOUS
10
0.418742
20
0.838617
11
-0.3132
21
0.836691
0
LINE
8
BLACK
6
CONTINUOUS
10
-0.3132
20
0.836691
11
-0.275934
21
0.817416
0
LINE
8
BLACK
6
CONTINUOUS
10
-0.275934
20
0.817416
11
-0.274963
21
0.816264
0
LINE
8
BLACK
6
CONTINUOUS
10
-0.274963
20
0.816264
11
-0.27509
21
0.814763
0
LINE
8
BLACK
6
CONTINUOUS
10
-0.27509
20
0.814763
11
-0.276242
21
0.813792
0
LINE
8
BLACK
6
CONTINUOUS
10
-0.276242
20
0.813792
11
-0.277743
21
0.813919
0
LINE
8
BLACK
6
CONTINUOUS
10
-0.277743
20
0.813919
11
-0.319273
21
0.835399
0
LINE
8
BLACK
6
CONTINUOUS
10
-0.319273
20
0.835399
11
-0.318949
21
0.712604
0
LINE
8
BLACK
6
CONTINUOUS
10
-0.318949
20
0.712604
11
-0.319522
21
0.71121
0
LINE
8
BLACK
6
CONTINUOUS
10
-0.319522
20
0.71121
11
-0.320913
21
0.71063
0
LINE
8
BLACK
6
CONTINUOUS
10
-0.320913
20
0.71063
11
-0.322306
21
0.711203
0
LINE
8
BLACK
6
CONTINUOUS
10
-0.322306
20
0.711203
11
-0.322886
21
0.712593
0
LINE
8
BLACK
6
CONTINUOUS
10
-0.322886
20
0.712593
11
-0.323279
21
0.86172
0
LINE
8
BLACK
6
CONTINUOUS
10
-0.323279
20
0.86172
11
-0.322706
21
0.863114
0
LINE
8
BLACK
6
CONTINUOUS
10
-0.322706
20
0.863114
11
-0.321316
21
0.863694
0
LINE
8
BLACK
6
CONTINUOUS
10
-0.321316
20
0.863694
11
-0.319922
21
0.863121
0
LINE
8
BLACK
6
CONTINUOUS
10
-0.319922
20
0.863121
11
-0.319342
21
0.861731
0
LINE
8
BLACK
6
CONTINUOUS
10
-0.319342
20
0.861731
11
-0.31929
21
0.841887
0
LINE
8
BLACK
6
CONTINUOUS
10
-0.31929
20
0.841887
11
-0.277874
21
0.863586
0
LINE
8
BLACK
6
CONTINUOUS
10
-0.277874
20
0.863586
11
-0.276373
21
0.863721
0
LINE
8
BLACK
6
CONTINUOUS
10
-0.276373
20
0.863721
11
-0.275216
21
0.862756
0
LINE
8
BLACK
6
CONTINUOUS
10
-0.275216
20
0.862756
11
-0.275081
21
0.861255
0
LINE
8
BLACK
6
CONTINUOUS
10
-0.275081
20
0.861255
11
-0.276046
21
0.860098
0
LINE
8
BLACK
6
CONTINUOUS
10
-0.276046
20
0.860098
11
-0.31321
21
0.840628
0
LINE
8
BLACK
6
CONTINUOUS
10
-0.31321
20
0.840628
11
0.418732
21
0.842554
0
LINE
8
BLACK
6
CONTINUOUS
10
0.418732
20
0.842554
11
0.381466
21
0.861829
0
LINE
8
BLACK
6
CONTINUOUS
10
0.381466
20
0.861829
11
0.380495
21
0.86298
0
LINE
8
BLACK
6
CONTINUOUS
10
0.380495
20
0.86298
11
0.380622
21
0.864482
0
LINE
8
BLACK
6
CONTINUOUS
10
0.380622
20
0.864482
11
0.381774
21
0.865453
0
LINE
8
BLACK
6
CONTINUOUS
10
0.381774
20
0.865453
11
0.383275
21
0.865326
0
LINE
8
BLACK
6
CONTINUOUS
10
0.383275
20
0.865326
11
0.424805
21
0.843845
0
LINE
8
BLACK
6
CONTINUOUS
10
0.424805
20
0.843845
11
0.424753
21
0.863689
0
LINE
8
BLACK
6
CONTINUOUS
10
0.424753
20
0.863689
11
0.425326
21
0.865082
0
LINE
8
BLACK
6
CONTINUOUS
10
0.425326
20
0.865082
11
0.426716
21
0.865662
0
LINE
8
BLACK
6
CONTINUOUS
10
0.426716
20
0.865662
11
0.428109
21
0.86509
0
LINE
8
BLACK
6
CONTINUOUS
10
-0.117675
20
0.908792
11
-0.117507
21
0.908822
0
LINE
8
BLACK
6
CONTINUOUS
10
-0.117507
20
0.908822
11
-0.116764
21
0.908395
0
LINE
8
BLACK
6
CONTINUOUS
10
-0.116764
20
0.908395
11
-0.115979
21
0.908053
0
LINE
8
BLACK
6
CONTINUOUS
10
-0.115979
20
0.908053
11
-0.115903
21
0.907901
0
LINE
8
BLACK
6
CONTINUOUS
10
-0.115903
20
0.907901
11
-0.115756
21
0.907816
0
LINE
8
BLACK
6
CONTINUOUS
10
-0.115756
20
0.907816
11
-0.11546
21
0.907012
0
LINE
8
BLACK
6
CONTINUOUS
10
-0.11546
20
0.907012
11
-0.115079
21
0.906245
0
LINE
8
BLACK
6
CONTINUOUS
10
-0.115079
20
0.906245
11
-0.115118
21
0.90608
0
LINE
8
BLACK
6
CONTINUOUS
10
-0.115118
20
0.90608
11
-0.11506
21
0.90592
0
LINE
8
BLACK
6
CONTINUOUS
10
-0.11506
20
0.90592
11
-0.114964
21
0.869503
0
LINE
8
BLACK
6
CONTINUOUS
10
-0.114964
20
0.869503
11
-0.106668
21
0.869525
0
LINE
8
BLACK
6
CONTINUOUS
10
-0.106668
20
0.869525
11
-0.105658
21
0.86935
0
LINE
8
BLACK
6
CONTINUOUS
10
-0.105658
20
0.86935
11
-0.104107
21
0.868055
0
LINE
8
BLACK
6
CONTINUOUS
10
-0.104107
20
0.868055
11
-0.103751
21
0.866067
0
LINE
8
BLACK
6
CONTINUOUS
10
-0.103751
20
0.866067
11
-0.104756
21
0.864315
0
LINE
8
BLACK
6
CONTINUOUS
10
-0.104756
20
0.864315
11
-0.106653
21
0.863619
0
LINE
8
BLACK
6
CONTINUOUS
10
-0.106653
20
0.863619
11
-0.12915
21
0.86356
0
LINE
8
BLACK
6
CONTINUOUS
10
-0.12915
20
0.86356
11
-0.13016
21
0.863736
0
LINE
8
BLACK
6
CONTINUOUS
10
-0.13016
20
0.863736
11
-0.131711
21
0.86503
0
LINE
8
BLACK
6
CONTINUOUS
10
-0.131711
20
0.86503
11
-0.132067
21
0.867018
0
LINE
8
BLACK
6
CONTINUOUS
10
-0.132067
20
0.867018
11
-0.131061
21
0.86877
0
LINE
8
BLACK
6
CONTINUOUS
10
-0.131061
20
0.86877
11
-0.129165
21
0.869466
0
LINE
8
BLACK
6
CONTINUOUS
10
-0.129165
20
0.869466
11
-0.120869
21
0.869488
0
LINE
8
BLACK
6
CONTINUOUS
10
-0.120869
20
0.869488
11
-0.120942
21
0.896901
0
LINE
8
BLACK
6
CONTINUOUS
10
-0.120942
20
0.896901
11
-0.123394
21
0.894437
0
LINE
8
BLACK
6
CONTINUOUS
10
-0.123394
20
0.894437
11
-0.124115
21
0.893928
0
LINE
8
BLACK
6
CONTINUOUS
10
-0.124115
20
0.893928
11
-0.124159
21
0.893881
0
LINE
8
BLACK
6
CONTINUOUS
10
-0.124159
20
0.893881
11
-0.127904
21
0.891997
0
LINE
8
BLACK
6
CONTINUOUS
10
-0.127904
20
0.891997
11
-0.128886
21
0.891702
0
LINE
8
BLACK
6
CONTINUOUS
10
-0.128886
20
0.891702
11
-0.130852
21
0.892166
0
LINE
8
BLACK
6
CONTINUOUS
10
-0.130852
20
0.892166
11
-0.132059
21
0.893785
0
LINE
8
BLACK
6
CONTINUOUS
10
-0.132059
20
0.893785
11
-0.131944
21
0.895802
0
LINE
8
BLACK
6
CONTINUOUS
10
-0.131944
20
0.895802
11
-0.130559
21
0.897272
0
LINE
8
BLACK
6
CONTINUOUS
10
-0.130559
20
0.897272
11
-0.127242
21
0.898941
0
LINE
8
BLACK
6
CONTINUOUS
10
-0.127242
20
0.898941
11
-0.124047
21
0.902154
0
LINE
8
BLACK
6
CONTINUOUS
10
-0.124047
20
0.902154
11
-0.120474
21
0.907544
0
LINE
8
BLACK
6
CONTINUOUS
10
-0.120474
20
0.907544
11
-0.119767
21
0.908287
0
LINE
8
BLACK
6
CONTINUOUS
10
-0.119767
20
0.908287
11
-0.119604
21
0.908336
0
LINE
8
BLACK
6
CONTINUOUS
10
-0.119604
20
0.908336
11
-0.119496
21
0.908466
0
LINE
8
BLACK
6
CONTINUOUS
10
-0.119496
20
0.908466
11
-0.118652
21
0.908617
0
LINE
8
BLACK
6
CONTINUOUS
10
-0.118652
20
0.908617
11
-0.11783
21
0.90886
0
LINE
8
BLACK
6
CONTINUOUS
10
-0.11783
20
0.90886
11
-0.117675
21
0.908792
0
LINE
8
BLACK
6
CONTINUOUS
10
-0.0757652
20
0.908798
11
-0.0756296
21
0.908685
0
LINE
8
BLACK
6
CONTINUOUS
10
-0.0756296
20
0.908685
11
-0.0754543
21
0.908666
0
LINE
8
BLACK
6
CONTINUOUS
10
-0.0754543
20
0.908666
11
-0.0716998
21
0.906801
0
LINE
8
BLACK
6
CONTINUOUS
10
-0.0716998
20
0.906801
11
-0.0709894
21
0.906277
0
LINE
8
BLACK
6
CONTINUOUS
10
-0.0709894
20
0.906277
11
-0.0709309
21
0.90625
0
LINE
8
BLACK
6
CONTINUOUS
10
-0.0709309
20
0.90625
11
-0.0690513
21
0.90438
0
LINE
8
BLACK
6
CONTINUOUS
10
-0.0690513
20
0.90438
11
-0.0685431
21
0.903658
0
LINE
8
BLACK
6
CONTINUOUS
10
-0.0685431
20
0.903658
11
-0.0684962
21
0.903614
0
LINE
8
BLACK
6
CONTINUOUS
10
-0.0684962
20
0.903614
11
-0.0666115
21
0.899869
0
LINE
8
BLACK
6
CONTINUOUS
10
-0.0666115
20
0.899869
11
-0.0663166
21
0.898887
0
LINE
8
BLACK
6
CONTINUOUS
10
-0.0663166
20
0.898887
11
-0.0663571
21
0.898715
0
LINE
8
BLACK
6
CONTINUOUS
10
-0.0663571
20
0.898715
11
-0.0662963
21
0.89855
0
LINE
8
BLACK
6
CONTINUOUS
10
-0.0662963
20
0.89855
11
-0.0662569
21
0.883552
0
LINE
8
BLACK
6
CONTINUOUS
10
-0.0662569
20
0.883552
11
-0.0663577
21
0.882971
0
LINE
8
BLACK
6
CONTINUOUS
10
-0.0663577
20
0.882971
11
-0.0663431
21
0.882835
0
LINE
8
BLACK
6
CONTINUOUS
10
-0.0663431
20
0.882835
11
-0.0681982
21
0.875331
0
LINE
8
BLACK
6
CONTINUOUS
10
-0.0681982
20
0.875331
11
-0.0685995
21
0.874425
0
LINE
8
BLACK
6
CONTINUOUS
10
-0.0685995
20
0.874425
11
-0.0686035
21
0.874408
0
LINE
8
BLACK
6
CONTINUOUS
10
-0.0686035
20
0.874408
11
-0.0723382
21
0.868774
0
LINE
8
BLACK
6
CONTINUOUS
10
-0.0723382
20
0.868774
11
-0.0726481
21
0.868448
0
LINE
8
BLACK
6
CONTINUOUS
10
-0.0726481
20
0.868448
11
-0.0727059
21
0.868323
0
LINE
8
BLACK
6
CONTINUOUS
10
-0.0727059
20
0.868323
11
-0.0745757
21
0.866444
0
LINE
8
BLACK
6
CONTINUOUS
10
-0.0745757
20
0.866444
11
-0.0752976
21
0.865935
0
LINE
8
BLACK
6
CONTINUOUS
10
-0.0752976
20
0.865935
11
-0.0753417
21
0.865888
0
LINE
8
BLACK
6
CONTINUOUS
10
-0.0753417
20
0.865888
11
-0.0790863
21
0.864004
0
LINE
8
BLACK
6
CONTINUOUS
10
-0.0790863
20
0.864004
11
-0.0800685
21
0.863709
0
LINE
8
BLACK
6
CONTINUOUS
10
-0.0800685
20
0.863709
11
-0.0802402
21
0.863749
0
LINE
8
BLACK
6
CONTINUOUS
10
-0.0802402
20
0.863749
11
-0.0804059
21
0.863689
0
LINE
8
BLACK
6
CONTINUOUS
10
-0.0804059
20
0.863689
11
-0.087905
21
0.863669
0
LINE
8
BLACK
6
CONTINUOUS
10
-0.087905
20
0.863669
11
-0.0889154
21
0.863844
0
LINE
8
BLACK
6
CONTINUOUS
10
-0.0889154
20
0.863844
11
-0.0904661
21
0.865138
0
LINE
8
BLACK
6
CONTINUOUS
10
-0.0904661
20
0.865138
11
-0.090822
21
0.867127
0
LINE
8
BLACK
6
CONTINUOUS
10
-0.090822
20
0.867127
11
-0.0898167
21
0.868879
0
LINE
8
BLACK
6
CONTINUOUS
10
-0.0898167
20
0.868879
11
-0.0879206
21
0.869574
0
LINE
8
BLACK
6
CONTINUOUS
10
-0.0879206
20
0.869574
11
-0.0811185
21
0.869592
0
LINE
8
BLACK
6
CONTINUOUS
10
-0.0811185
20
0.869592
11
-0.0784246
21
0.870948
0
LINE
8
BLACK
6
CONTINUOUS
10
-0.0784246
20
0.870948
11
-0.0770989
21
0.872281
0
LINE
8
BLACK
6
CONTINUOUS
10
-0.0770989
20
0.872281
11
-0.0738083
21
0.877245
0
LINE
8
BLACK
6
CONTINUOUS
10
-0.0738083
20
0.877245
11
-0.0730867
21
0.880164
0
LINE
8
BLACK
6
CONTINUOUS
10
-0.0730867
20
0.880164
11
-0.0753763
21
0.879012
0
LINE
8
BLACK
6
CONTINUOUS
10
-0.0753763
20
0.879012
11
-0.0763584
21
0.878717
0
LINE
8
BLACK
6
CONTINUOUS
10
-0.0763584
20
0.878717
11
-0.0765302
21
0.878757
0
LINE
8
BLACK
6
CONTINUOUS
10
-0.0765302
20
0.878757
11
-0.0766959
21
0.878696
0
LINE
8
BLACK
6
CONTINUOUS
10
-0.0766959
20
0.878696
11
-0.084195
21
0.878677
0
LINE
8
BLACK
6
CONTINUOUS
10
-0.084195
20
0.878677
11
-0.0852054
21
0.878852
0
LINE
8
BLACK
6
CONTINUOUS
10
-0.0852054
20
0.878852
11
-0.0853409
21
0.878965
0
LINE
8
BLACK
6
CONTINUOUS
10
-0.0853409
20
0.878965
11
-0.0855163
21
0.878985
0
LINE
8
BLACK
6
CONTINUOUS
10
-0.0855163
20
0.878985
11
-0.0892708
21
0.88085
0
LINE
8
BLACK
6
CONTINUOUS
10
-0.0892708
20
0.88085
11
-0.0899811
21
0.881374
0
LINE
8
BLACK
6
CONTINUOUS
10
-0.0899811
20
0.881374
11
-0.0900396
21
0.881401
0
LINE
8
BLACK
6
CONTINUOUS
10
-0.0900396
20
0.881401
11
-0.0919193
21
0.883271
0
LINE
8
BLACK
6
CONTINUOUS
10
-0.0919193
20
0.883271
11
-0.0924276
21
0.883993
0
LINE
8
BLACK
6
CONTINUOUS
10
-0.0924276
20
0.883993
11
-0.0924744
21
0.884037
0
LINE
8
BLACK
6
CONTINUOUS
10
-0.0924744
20
0.884037
11
-0.0943591
21
0.887781
0
LINE
8
BLACK
6
CONTINUOUS
10
-0.0943591
20
0.887781
11
-0.094654
21
0.888764
0
LINE
8
BLACK
6
CONTINUOUS
10
-0.094654
20
0.888764
11
-0.0946134
21
0.888935
0
LINE
8
BLACK
6
CONTINUOUS
10
-0.0946134
20
0.888935
11
-0.0946743
21
0.889101
0
LINE
8
BLACK
6
CONTINUOUS
10
-0.0946743
20
0.889101
11
-0.0946989
21
0.898475
0
LINE
8
BLACK
6
CONTINUOUS
10
-0.0946989
20
0.898475
11
-0.0945235
21
0.899485
0
LINE
8
BLACK
6
CONTINUOUS
10
-0.0945235
20
0.899485
11
-0.0944104
21
0.899621
0
LINE
8
BLACK
6
CONTINUOUS
10
-0.0944104
20
0.899621
11
-0.0943907
21
0.899796
0
LINE
8
BLACK
6
CONTINUOUS
10
-0.0943907
20
0.899796
11
-0.0925258
21
0.903551
0
LINE
8
BLACK
6
CONTINUOUS
10
-0.0925258
20
0.903551
11
-0.0920017
21
0.904261
0
LINE
8
BLACK
6
CONTINUOUS
10
-0.0920017
20
0.904261
11
-0.0919747
21
0.904319
0
LINE
8
BLACK
6
CONTINUOUS
10
-0.0919747
20
0.904319
11
-0.0901048
21
0.906199
0
LINE
8
BLACK
6
CONTINUOUS
10
-0.0901048
20
0.906199
11
-0.0893831
21
0.906707
0
LINE
8
BLACK
6
CONTINUOUS
10
-0.0893831
20
0.906707
11
-0.0893389
21
0.906754
0
LINE
8
BLACK
6
CONTINUOUS
10
-0.0893389
20
0.906754
11
-0.0855944
21
0.908639
0
LINE
8
BLACK
6
CONTINUOUS
10
-0.0855944
20
0.908639
11
-0.0846122
21
0.908934
0
LINE
8
BLACK
6
CONTINUOUS
10
-0.0846122
20
0.908934
11
-0.0844404
21
0.908893
0
LINE
8
BLACK
6
CONTINUOUS
10
-0.0844404
20
0.908893
11
-0.0842746
21
0.908954
0
LINE
8
BLACK
6
CONTINUOUS
10
-0.0842746
20
0.908954
11
-0.0767756
21
0.908974
0
LINE
8
BLACK
6
CONTINUOUS
10
-0.0767756
20
0.908974
11
-0.0757652
21
0.908798
0
LINE
8
BLACK
6
CONTINUOUS
10
-0.0835621
20
0.90305
11
-0.086256
21
0.901695
0
LINE
8
BLACK
6
CONTINUOUS
10
-0.086256
20
0.901695
11
-0.08745
21
0.900494
0
LINE
8
BLACK
6
CONTINUOUS
10
-0.08745
20
0.900494
11
-0.0887916
21
0.897793
0
LINE
8
BLACK
6
CONTINUOUS
10
-0.0887916
20
0.897793
11
-0.0887706
21
0.889814
0
LINE
8
BLACK
6
CONTINUOUS
10
-0.0887706
20
0.889814
11
-0.0874147
21
0.88712
0
LINE
8
BLACK
6
CONTINUOUS
10
-0.0874147
20
0.88712
11
-0.0862145
21
0.885926
0
LINE
8
BLACK
6
CONTINUOUS
10
-0.0862145
20
0.885926
11
-0.0835135
21
0.884584
0
LINE
8
BLACK
6
CONTINUOUS
10
-0.0835135
20
0.884584
11
-0.0774085
21
0.8846
0
LINE
8
BLACK
6
CONTINUOUS
10
-0.0774085
20
0.8846
11
-0.0747146
21
0.885956
0
LINE
8
BLACK
6
CONTINUOUS
10
-0.0747146
20
0.885956
11
-0.0735206
21
0.887156
0
LINE
8
BLACK
6
CONTINUOUS
10
-0.0735206
20
0.887156
11
-0.072179
21
0.889857
0
LINE
8
BLACK
6
CONTINUOUS
10
-0.072179
20
0.889857
11
-0.0722
21
0.897837
0
LINE
8
BLACK
6
CONTINUOUS
10
-0.0722
20
0.897837
11
-0.0735558
21
0.900531
0
LINE
8
BLACK
6
CONTINUOUS
10
-0.0735558
20
0.900531
11
-0.0747561
21
0.901725
0
LINE
8
BLACK
6
CONTINUOUS
10
-0.0747561
20
0.901725
11
-0.077457
21
0.903066
0
LINE
8
BLACK
6
CONTINUOUS
10
-0.077457
20
0.903066
11
-0.0835621
21
0.90305
0
LINE
8
BLACK
6
CONTINUOUS
10
-0.0519301
20
0.87335
11
-0.0517972
21
0.873374
0
LINE
8
BLACK
6
CONTINUOUS
10
-0.0517972
20
0.873374
11
-0.05168
21
0.873307
0
LINE
8
BLACK
6
CONTINUOUS
10
-0.05168
20
0.873307
11
-0.0515455
21
0.873319
0
LINE
8
BLACK
6
CONTINUOUS
10
-0.0515455
20
0.873319
11
-0.0509159
21
0.872881
0
LINE
8
BLACK
6
CONTINUOUS
10
-0.0509159
20
0.872881
11
-0.0502198
21
0.872558
0
LINE
8
BLACK
6
CONTINUOUS
10
-0.0502198
20
0.872558
11
-0.0483402
21
0.870688
0
LINE
8
BLACK
6
CONTINUOUS
10
-0.0483402
20
0.870688
11
-0.0481159
21
0.87037
0
LINE
8
BLACK
6
CONTINUOUS
10
-0.0481159
20
0.87037
11
-0.0480083
21
0.870295
0
LINE
8
BLACK
6
CONTINUOUS
10
-0.0480083
20
0.870295
11
-0.047974
21
0.870168
0
LINE
8
BLACK
6
CONTINUOUS
10
-0.047974
20
0.870168
11
-0.0477497
21
0.86985
0
LINE
8
BLACK
6
CONTINUOUS
10
-0.0477497
20
0.86985
11
-0.0476808
21
0.869086
0
LINE
8
BLACK
6
CONTINUOUS
10
-0.0476808
20
0.869086
11
-0.0474804
21
0.868345
0
LINE
8
BLACK
6
CONTINUOUS
10
-0.0474804
20
0.868345
11
-0.0475923
21
0.868104
0
LINE
8
BLACK
6
CONTINUOUS
10
-0.0475923
20
0.868104
11
-0.0475684
21
0.867838
0
LINE
8
BLACK
6
CONTINUOUS
10
-0.0475684
20
0.867838
11
-0.0480067
21
0.867209
0
LINE
8
BLACK
6
CONTINUOUS
10
-0.0480067
20
0.867209
11
-0.0483291
21
0.866513
0
LINE
8
BLACK
6
CONTINUOUS
10
-0.0483291
20
0.866513
11
-0.0501989
21
0.864633
0
LINE
8
BLACK
6
CONTINUOUS
10
-0.0501989
20
0.864633
11
-0.0505174
21
0.864409
0
LINE
8
BLACK
6
CONTINUOUS
10
-0.0505174
20
0.864409
11
-0.0505924
21
0.864301
0
LINE
8
BLACK
6
CONTINUOUS
10
-0.0505924
20
0.864301
11
-0.0507189
21
0.864267
0
LINE
8
BLACK
6
CONTINUOUS
10
-0.0507189
20
0.864267
11
-0.050726
21
0.864262
0
LINE
8
BLACK
6
CONTINUOUS
10
-0.050726
20
0.864262
11
-0.0508093
21
0.864162
0
LINE
8
BLACK
6
CONTINUOUS
10
-0.0508093
20
0.864162
11
-0.0508875
21
0.864148
0
LINE
8
BLACK
6
CONTINUOUS
10
-0.0508875
20
0.864148
11
-0.0510374
21
0.864042
0
LINE
8
BLACK
6
CONTINUOUS
10
-0.0510374
20
0.864042
11
-0.0518016
21
0.863974
0
LINE
8
BLACK
6
CONTINUOUS
10
-0.0518016
20
0.863974
11
-0.052542
21
0.863773
0
LINE
8
BLACK
6
CONTINUOUS
10
-0.052542
20
0.863773
11
-0.0526644
21
0.86383
0
LINE
8
BLACK
6
CONTINUOUS
10
-0.0526644
20
0.86383
11
-0.0527974
21
0.863806
0
LINE
8
BLACK
6
CONTINUOUS
10
-0.0527974
20
0.863806
11
-0.0529146
21
0.863873
0
LINE
8
BLACK
6
CONTINUOUS
10
-0.0529146
20
0.863873
11
-0.0530491
21
0.863861
0
LINE
8
BLACK
6
CONTINUOUS
10
-0.0530491
20
0.863861
11
-0.0536785
21
0.864299
0
LINE
8
BLACK
6
CONTINUOUS
10
-0.0536785
20
0.864299
11
-0.0543748
21
0.864622
0
LINE
8
BLACK
6
CONTINUOUS
10
-0.0543748
20
0.864622
11
-0.0562544
21
0.866492
0
LINE
8
BLACK
6
CONTINUOUS
10
-0.0562544
20
0.866492
11
-0.0564787
21
0.86681
0
LINE
8
BLACK
6
CONTINUOUS
10
-0.0564787
20
0.86681
11
-0.0565863
21
0.866885
0
LINE
8
BLACK
6
CONTINUOUS
10
-0.0565863
20
0.866885
11
-0.0566206
21
0.867012
0
LINE
8
BLACK
6
CONTINUOUS
10
-0.0566206
20
0.867012
11
-0.0568449
21
0.86733
0
LINE
8
BLACK
6
CONTINUOUS
10
-0.0568449
20
0.86733
11
-0.0569137
21
0.868094
0
LINE
8
BLACK
6
CONTINUOUS
10
-0.0569137
20
0.868094
11
-0.0571142
21
0.868835
0
LINE
8
BLACK
6
CONTINUOUS
10
-0.0571142
20
0.868835
11
-0.0570022
21
0.869076
0
LINE
8
BLACK
6
CONTINUOUS
10
-0.0570022
20
0.869076
11
-0.0570262
21
0.869342
0
LINE
8
BLACK
6
CONTINUOUS
10
-0.0570262
20
0.869342
11
-0.0565878
21
0.869971
0
LINE
8
BLACK
6
CONTINUOUS
10
-0.0565878
20
0.869971
11
-0.0562655
21
0.870668
0
LINE
8
BLACK
6
CONTINUOUS
10
-0.0562655
20
0.870668
11
-0.0543957
21
0.872547
0
LINE
8
BLACK
6
CONTINUOUS
10
-0.0543957
20
0.872547
11
-0.0540772
21
0.872771
0
LINE
8
BLACK
6
CONTINUOUS
10
-0.0540772
20
0.872771
11
-0.0540022
21
0.872879
0
LINE
8
BLACK
6
CONTINUOUS
10
-0.0540022
20
0.872879
11
-0.0538756
21
0.872913
0
LINE
8
BLACK
6
CONTINUOUS
10
-0.0538756
20
0.872913
11
-0.0538685
21
0.872918
0
LINE
8
BLACK
6
CONTINUOUS
10
-0.0538685
20
0.872918
11
-0.0537854
21
0.873018
0
LINE
8
BLACK
6
CONTINUOUS
10
-0.0537854
20
0.873018
11
-0.053707
21
0.873032
0
LINE
8
BLACK
6
CONTINUOUS
10
-0.053707
20
0.873032
11
-0.0535572
21
0.873138
0
LINE
8
BLACK
6
CONTINUOUS
10
-0.0535572
20
0.873138
11
-0.052793
21
0.873206
0
LINE
8
BLACK
6
CONTINUOUS
10
-0.052793
20
0.873206
11
-0.0520526
21
0.873407
0
LINE
8
BLACK
6
CONTINUOUS
10
-0.0520526
20
0.873407
11
-0.0519301
21
0.87335
0
LINE
8
BLACK
6
CONTINUOUS
10
-0.0213972
20
0.908941
11
-0.0212617
21
0.908828
0
LINE
8
BLACK
6
CONTINUOUS
10
-0.0212617
20
0.908828
11
-0.0210863
21
0.908809
0
LINE
8
BLACK
6
CONTINUOUS
10
-0.0210863
20
0.908809
11
-0.0173319
21
0.906944
0
LINE
8
BLACK
6
CONTINUOUS
10
-0.0173319
20
0.906944
11
-0.0166214
21
0.90642
0
LINE
8
BLACK
6
CONTINUOUS
10
-0.0166214
20
0.90642
11
-0.016563
21
0.906393
0
LINE
8
BLACK
6
CONTINUOUS
10
-0.016563
20
0.906393
11
-0.0146833
21
0.904523
0
LINE
8
BLACK
6
CONTINUOUS
10
-0.0146833
20
0.904523
11
-0.0141751
21
0.903801
0
LINE
8
BLACK
6
CONTINUOUS
10
-0.0141751
20
0.903801
11
-0.0141282
21
0.903757
0
LINE
8
BLACK
6
CONTINUOUS
10
-0.0141282
20
0.903757
11
-0.0122435
21
0.900012
0
LINE
8
BLACK
6
CONTINUOUS
10
-0.0122435
20
0.900012
11
-0.012097
21
0.899524
0
LINE
8
BLACK
6
CONTINUOUS
10
-0.012097
20
0.899524
11
-0.0120183
21
0.899409
0
LINE
8
BLACK
6
CONTINUOUS
10
-0.0120183
20
0.899409
11
-0.0101239
21
0.891914
0
LINE
8
BLACK
6
CONTINUOUS
10
-0.0101239
20
0.891914
11
-0.0100808
21
0.891327
0
LINE
8
BLACK
6
CONTINUOUS
10
-0.0100808
20
0.891327
11
-0.0100338
21
0.891199
0
LINE
8
BLACK
6
CONTINUOUS
10
-0.0100338
20
0.891199
11
-0.0100092
21
0.881825
0
LINE
8
BLACK
6
CONTINUOUS
10
-0.0100092
20
0.881825
11
-0.01011
21
0.881244
0
LINE
8
BLACK
6
CONTINUOUS
10
-0.01011
20
0.881244
11
-0.0100955
21
0.881108
0
LINE
8
BLACK
6
CONTINUOUS
10
-0.0100955
20
0.881108
11
-0.0119505
21
0.873604
0
LINE
8
BLACK
6
CONTINUOUS
10
-0.0119505
20
0.873604
11
-0.0121568
21
0.873138
0
LINE
8
BLACK
6
CONTINUOUS
10
-0.0121568
20
0.873138
11
-0.0121724
21
0.872999
0
LINE
8
BLACK
6
CONTINUOUS
10
-0.0121724
20
0.872999
11
-0.0140373
21
0.869245
0
LINE
8
BLACK
6
CONTINUOUS
10
-0.0140373
20
0.869245
11
-0.0145614
21
0.868534
0
LINE
8
BLACK
6
CONTINUOUS
10
-0.0145614
20
0.868534
11
-0.0145884
21
0.868476
0
LINE
8
BLACK
6
CONTINUOUS
10
-0.0145884
20
0.868476
11
-0.0164583
21
0.866596
0
LINE
8
BLACK
6
CONTINUOUS
10
-0.0164583
20
0.866596
11
-0.01718
21
0.866088
0
LINE
8
BLACK
6
CONTINUOUS
10
-0.01718
20
0.866088
11
-0.0172242
21
0.866041
0
LINE
8
BLACK
6
CONTINUOUS
10
-0.0172242
20
0.866041
11
-0.0209688
21
0.864157
0
LINE
8
BLACK
6
CONTINUOUS
10
-0.0209688
20
0.864157
11
-0.0219509
21
0.863862
0
LINE
8
BLACK
6
CONTINUOUS
10
-0.0219509
20
0.863862
11
-0.0221228
21
0.863902
0
LINE
8
BLACK
6
CONTINUOUS
10
-0.0221228
20
0.863902
11
-0.0222885
21
0.863841
0
LINE
8
BLACK
6
CONTINUOUS
10
-0.0222885
20
0.863841
11
-0.026038
21
0.863832
0
LINE
8
BLACK
6
CONTINUOUS
10
-0.026038
20
0.863832
11
-0.0270483
21
0.864007
0
LINE
8
BLACK
6
CONTINUOUS
10
-0.0270483
20
0.864007
11
-0.0271839
21
0.86412
0
LINE
8
BLACK
6
CONTINUOUS
10
-0.0271839
20
0.86412
11
-0.0273593
21
0.86414
0
LINE
8
BLACK
6
CONTINUOUS
10
-0.0273593
20
0.86414
11
-0.0311137
21
0.866005
0
LINE
8
BLACK
6
CONTINUOUS
10
-0.0311137
20
0.866005
11
-0.0318242
21
0.866529
0
LINE
8
BLACK
6
CONTINUOUS
10
-0.0318242
20
0.866529
11
-0.0318826
21
0.866556
0
LINE
8
BLACK
6
CONTINUOUS
10
-0.0318826
20
0.866556
11
-0.0337623
21
0.868426
0
LINE
8
BLACK
6
CONTINUOUS
10
-0.0337623
20
0.868426
11
-0.0342706
21
0.869147
0
LINE
8
BLACK
6
CONTINUOUS
10
-0.0342706
20
0.869147
11
-0.0343175
21
0.869192
0
LINE
8
BLACK
6
CONTINUOUS
10
-0.0343175
20
0.869192
11
-0.0362021
21
0.872936
0
LINE
8
BLACK
6
CONTINUOUS
10
-0.0362021
20
0.872936
11
-0.0363487
21
0.873424
0
LINE
8
BLACK
6
CONTINUOUS
10
-0.0363487
20
0.873424
11
-0.0364272
21
0.87354
0
LINE
8
BLACK
6
CONTINUOUS
10
-0.0364272
20
0.87354
11
-0.0383217
21
0.881034
0
LINE
8
BLACK
6
CONTINUOUS
10
-0.0383217
20
0.881034
11
-0.0383648
21
0.881622
0
LINE
8
BLACK
6
CONTINUOUS
10
-0.0383648
20
0.881622
11
-0.0384118
21
0.88175
0
LINE
8
BLACK
6
CONTINUOUS
10
-0.0384118
20
0.88175
11
-0.0384365
21
0.891124
0
LINE
8
BLACK
6
CONTINUOUS
10
-0.0384365
20
0.891124
11
-0.0383356
21
0.891704
0
LINE
8
BLACK
6
CONTINUOUS
10
-0.0383356
20
0.891704
11
-0.0383502
21
0.89184
0
LINE
8
BLACK
6
CONTINUOUS
10
-0.0383502
20
0.89184
11
-0.0364951
21
0.899344
0
LINE
8
BLACK
6
CONTINUOUS
10
-0.0364951
20
0.899344
11
-0.0362887
21
0.89981
0
LINE
8
BLACK
6
CONTINUOUS
10
-0.0362887
20
0.89981
11
-0.0362731
21
0.899949
0
LINE
8
BLACK
6
CONTINUOUS
10
-0.0362731
20
0.899949
11
-0.0344083
21
0.903704
0
LINE
8
BLACK
6
CONTINUOUS
10
-0.0344083
20
0.903704
11
-0.0338842
21
0.904414
0
LINE
8
BLACK
6
CONTINUOUS
10
-0.0338842
20
0.904414
11
-0.0338572
21
0.904472
0
LINE
8
BLACK
6
CONTINUOUS
10
-0.0338572
20
0.904472
11
-0.0319873
21
0.906352
0
LINE
8
BLACK
6
CONTINUOUS
10
-0.0319873
20
0.906352
11
-0.0312656
21
0.90686
0
LINE
8
BLACK
6
CONTINUOUS
10
-0.0312656
20
0.90686
11
-0.0312214
21
0.906907
0
LINE
8
BLACK
6
CONTINUOUS
10
-0.0312214
20
0.906907
11
-0.0274768
21
0.908792
0
LINE
8
BLACK
6
CONTINUOUS
10
-0.0274768
20
0.908792
11
-0.0264946
21
0.909087
0
LINE
8
BLACK
6
CONTINUOUS
10
-0.0264946
20
0.909087
11
-0.0263228
21
0.909046
0
LINE
8
BLACK
6
CONTINUOUS
10
-0.0263228
20
0.909046
11
-0.0261572
21
0.909107
0
LINE
8
BLACK
6
CONTINUOUS
10
-0.0261572
20
0.909107
11
-0.0224076
21
0.909117
0
LINE
8
BLACK
6
CONTINUOUS
10
-0.0224076
20
0.909117
11
-0.0213972
21
0.908941
0
LINE
8
BLACK
6
CONTINUOUS
10
-0.0254445
20
0.903203
11
-0.0281385
21
0.901847
0
LINE
8
BLACK
6
CONTINUOUS
10
-0.0281385
20
0.901847
11
-0.0293324
21
0.900647
0
LINE
8
BLACK
6
CONTINUOUS
10
-0.0293324
20
0.900647
11
-0.03084
21
0.897612
0
LINE
8
BLACK
6
CONTINUOUS
10
-0.03084
20
0.897612
11
-0.03253
21
0.890776
0
LINE
8
BLACK
6
CONTINUOUS
10
-0.03253
20
0.890776
11
-0.0325072
21
0.882129
0
LINE
8
BLACK
6
CONTINUOUS
10
-0.0325072
20
0.882129
11
-0.0307812
21
0.875302
0
LINE
8
BLACK
6
CONTINUOUS
10
-0.0307812
20
0.875302
11
-0.0292578
21
0.872275
0
LINE
8
BLACK
6
CONTINUOUS
10
-0.0292578
20
0.872275
11
-0.0280574
21
0.871081
0
LINE
8
BLACK
6
CONTINUOUS
10
-0.0280574
20
0.871081
11
-0.0253565
21
0.869739
0
LINE
8
BLACK
6
CONTINUOUS
10
-0.0253565
20
0.869739
11
-0.023001
21
0.869745
0
LINE
8
BLACK
6
CONTINUOUS
10
-0.023001
20
0.869745
11
-0.0203071
21
0.871101
0
LINE
8
BLACK
6
CONTINUOUS
10
-0.0203071
20
0.871101
11
-0.0191131
21
0.872301
0
LINE
8
BLACK
6
CONTINUOUS
10
-0.0191131
20
0.872301
11
-0.0176056
21
0.875336
0
LINE
8
BLACK
6
CONTINUOUS
10
-0.0176056
20
0.875336
11
-0.0159156
21
0.882173
0
LINE
8
BLACK
6
CONTINUOUS
10
-0.0159156
20
0.882173
11
-0.0159383
21
0.890819
0
LINE
8
BLACK
6
CONTINUOUS
10
-0.0159383
20
0.890819
11
-0.0176644
21
0.897647
0
LINE
8
BLACK
6
CONTINUOUS
10
-0.0176644
20
0.897647
11
-0.0191878
21
0.900674
0
LINE
8
BLACK
6
CONTINUOUS
10
-0.0191878
20
0.900674
11
-0.0203881
21
0.901868
0
LINE
8
BLACK
6
CONTINUOUS
10
-0.0203881
20
0.901868
11
-0.0230891
21
0.90321
0
LINE
8
BLACK
6
CONTINUOUS
10
-0.0230891
20
0.90321
11
-0.0254445
21
0.903203
0
LINE
8
BLACK
6
CONTINUOUS
10
0.016098
20
0.90904
11
0.0162335
21
0.908927
0
LINE
8
BLACK
6
CONTINUOUS
10
0.0162335
20
0.908927
11
0.0164089
21
0.908907
0
LINE
8
BLACK
6
CONTINUOUS
10
0.0164089
20
0.908907
11
0.0201633
21
0.907042
0
LINE
8
BLACK
6
CONTINUOUS
10
0.0201633
20
0.907042
11
0.0208737
21
0.906518
0
LINE
8
BLACK
6
CONTINUOUS
10
0.0208737
20
0.906518
11
0.0209322
21
0.906491
0
LINE
8
BLACK
6
CONTINUOUS
10
0.0209322
20
0.906491
11
0.0228119
21
0.904621
0
LINE
8
BLACK
6
CONTINUOUS
10
0.0228119
20
0.904621
11
0.02332
21
0.9039
0
LINE
8
BLACK
6
CONTINUOUS
10
0.02332
20
0.9039
11
0.023367
21
0.903856
0
LINE
8
BLACK
6
CONTINUOUS
10
0.023367
20
0.903856
11
0.0252516
21
0.900111
0
LINE
8
BLACK
6
CONTINUOUS
10
0.0252516
20
0.900111
11
0.0253982
21
0.899623
0
LINE
8
BLACK
6
CONTINUOUS
10
0.0253982
20
0.899623
11
0.0254767
21
0.899507
0
LINE
8
BLACK
6
CONTINUOUS
10
0.0254767
20
0.899507
11
0.0273713
21
0.892013
0
LINE
8
BLACK
6
CONTINUOUS
10
0.0273713
20
0.892013
11
0.0274143
21
0.891425
0
LINE
8
BLACK
6
CONTINUOUS
10
0.0274143
20
0.891425
11
0.0274613
21
0.891297
0
LINE
8
BLACK
6
CONTINUOUS
10
0.0274613
20
0.891297
11
0.027486
21
0.881923
0
LINE
8
BLACK
6
CONTINUOUS
10
0.027486
20
0.881923
11
0.0273851
21
0.881343
0
LINE
8
BLACK
6
CONTINUOUS
10
0.0273851
20
0.881343
11
0.0273997
21
0.881207
0
LINE
8
BLACK
6
CONTINUOUS
10
0.0273997
20
0.881207
11
0.0255446
21
0.873703
0
LINE
8
BLACK
6
CONTINUOUS
10
0.0255446
20
0.873703
11
0.0253383
21
0.873237
0
LINE
8
BLACK
6
CONTINUOUS
10
0.0253383
20
0.873237
11
0.0253227
21
0.873098
0
LINE
8
BLACK
6
CONTINUOUS
10
0.0253227
20
0.873098
11
0.0234578
21
0.869344
0
LINE
8
BLACK
6
CONTINUOUS
10
0.0234578
20
0.869344
11
0.0229338
21
0.868633
0
LINE
8
BLACK
6
CONTINUOUS
10
0.0229338
20
0.868633
11
0.0229067
21
0.868575
0
LINE
8
BLACK
6
CONTINUOUS
10
0.0229067
20
0.868575
11
0.0210369
21
0.866695
0
LINE
8
BLACK
6
CONTINUOUS
10
0.0210369
20
0.866695
11
0.0203151
21
0.866187
0
LINE
8
BLACK
6
CONTINUOUS
10
0.0203151
20
0.866187
11
0.0202709
21
0.86614
0
LINE
8
BLACK
6
CONTINUOUS
10
0.0202709
20
0.86614
11
0.0165263
21
0.864255
0
LINE
8
BLACK
6
CONTINUOUS
10
0.0165263
20
0.864255
11
0.0155442
21
0.86396
0
LINE
8
BLACK
6
CONTINUOUS
10
0.0155442
20
0.86396
11
0.0153723
21
0.864001
0
LINE
8
BLACK
6
CONTINUOUS
10
0.0153723
20
0.864001
11
0.0152067
21
0.86394
0
LINE
8
BLACK
6
CONTINUOUS
10
0.0152067
20
0.86394
11
0.0114572
21
0.86393
0
LINE
8
BLACK
6
CONTINUOUS
10
0.0114572
20
0.86393
11
0.0104468
21
0.864106
0
LINE
8
BLACK
6
CONTINUOUS
10
0.0104468
20
0.864106
11
0.0103112
21
0.864219
0
LINE
8
BLACK
6
CONTINUOUS
10
0.0103112
20
0.864219
11
0.0101358
21
0.864239
0
LINE
8
BLACK
6
CONTINUOUS
10
0.0101358
20
0.864239
11
0.00638138
21
0.866103
0
LINE
8
BLACK
6
CONTINUOUS
10
0.00638138
20
0.866103
11
0.00567087
21
0.866627
0
LINE
8
BLACK
6
CONTINUOUS
10
0.00567087
20
0.866627
11
0.00561252
21
0.866655
0
LINE
8
BLACK
6
CONTINUOUS
10
0.00561252
20
0.866655
11
0.0037328
21
0.868524
0
LINE
8
BLACK
6
CONTINUOUS
10
0.0037328
20
0.868524
11
0.00322461
21
0.869246
0
LINE
8
BLACK
6
CONTINUOUS
10
0.00322461
20
0.869246
11
0.00317768
21
0.86929
0
LINE
8
BLACK
6
CONTINUOUS
10
0.00317768
20
0.86929
11
0.00129307
21
0.873035
0
LINE
8
BLACK
6
CONTINUOUS
10
0.00129307
20
0.873035
11
0.00114646
21
0.873523
0
LINE
8
BLACK
6
CONTINUOUS
10
0.00114646
20
0.873523
11
0.00106791
21
0.873639
0
LINE
8
BLACK
6
CONTINUOUS
10
0.00106791
20
0.873639
11
-0.000826575
21
0.881133
0
LINE
8
BLACK
6
CONTINUOUS
10
-0.000826575
20
0.881133
11
-0.000869567
21
0.88172
0
LINE
8
BLACK
6
CONTINUOUS
10
-0.000869567
20
0.88172
11
-0.000916614
21
0.881849
0
LINE
8
BLACK
6
CONTINUOUS
10
-0.000916614
20
0.881849
11
-0.000941299
21
0.891222
0
LINE
8
BLACK
6
CONTINUOUS
10
-0.000941299
20
0.891222
11
-0.000840433
21
0.891803
0
LINE
8
BLACK
6
CONTINUOUS
10
-0.000840433
20
0.891803
11
-0.000855
21
0.891939
0
LINE
8
BLACK
6
CONTINUOUS
10
-0.000855
20
0.891939
11
0.00100004
21
0.899443
0
LINE
8
BLACK
6
CONTINUOUS
10
0.00100004
20
0.899443
11
0.00120638
21
0.899909
0
LINE
8
BLACK
6
CONTINUOUS
10
0.00120638
20
0.899909
11
0.00122201
21
0.900048
0
LINE
8
BLACK
6
CONTINUOUS
10
0.00122201
20
0.900048
11
0.00308689
21
0.903802
0
LINE
8
BLACK
6
CONTINUOUS
10
0.00308689
20
0.903802
11
0.00361083
21
0.904513
0
LINE
8
BLACK
6
CONTINUOUS
10
0.00361083
20
0.904513
11
0.00363795
21
0.904571
0
LINE
8
BLACK
6
CONTINUOUS
10
0.00363795
20
0.904571
11
0.00550776
21
0.906451
0
LINE
8
BLACK
6
CONTINUOUS
10
0.00550776
20
0.906451
11
0.00622957
21
0.906959
0
LINE
8
BLACK
6
CONTINUOUS
10
0.00622957
20
0.906959
11
0.0062737
21
0.907006
0
LINE
8
BLACK
6
CONTINUOUS
10
0.0062737
20
0.907006
11
0.0100183
21
0.908891
0
LINE
8
BLACK
6
CONTINUOUS
10
0.0100183
20
0.908891
11
0.0110005
21
0.909186
0
LINE
8
BLACK
6
CONTINUOUS
10
0.0110005
20
0.909186
11
0.0111723
21
0.909145
0
LINE
8
BLACK
6
CONTINUOUS
10
0.0111723
20
0.909145
11
0.011338
21
0.909206
0
LINE
8
BLACK
6
CONTINUOUS
10
0.011338
20
0.909206
11
0.0150876
21
0.909216
0
LINE
8
BLACK
6
CONTINUOUS
10
0.0150876
20
0.909216
11
0.016098
21
0.90904
0
LINE
8
BLACK
6
CONTINUOUS
10
0.0120506
20
0.903302
11
0.00935669
21
0.901946
0
LINE
8
BLACK
6
CONTINUOUS
10
0.00935669
20
0.901946
11
0.00816268
21
0.900746
0
LINE
8
BLACK
6
CONTINUOUS
10
0.00816268
20
0.900746
11
0.00665512
21
0.897711
0
LINE
8
BLACK
6
CONTINUOUS
10
0.00665512
20
0.897711
11
0.00496516
21
0.890875
0
LINE
8
BLACK
6
CONTINUOUS
10
0.00496516
20
0.890875
11
0.00498791
21
0.882228
0
LINE
8
BLACK
6
CONTINUOUS
10
0.00498791
20
0.882228
11
0.0067139
21
0.8754
0
LINE
8
BLACK
6
CONTINUOUS
10
0.0067139
20
0.8754
11
0.00823736
21
0.872373
0
LINE
8
BLACK
6
CONTINUOUS
10
0.00823736
20
0.872373
11
0.00943764
21
0.871179
0
LINE
8
BLACK
6
CONTINUOUS
10
0.00943764
20
0.871179
11
0.0121386
21
0.869838
0
LINE
8
BLACK
6
CONTINUOUS
10
0.0121386
20
0.869838
11
0.0144941
21
0.869844
0
LINE
8
BLACK
6
CONTINUOUS
10
0.0144941
20
0.869844
11
0.017188
21
0.8712
0
LINE
8
BLACK
6
CONTINUOUS
10
0.017188
20
0.8712
11
0.018382
21
0.8724
0
LINE
8
BLACK
6
CONTINUOUS
10
0.018382
20
0.8724
11
0.0198895
21
0.875435
0
LINE
8
BLACK
6
CONTINUOUS
10
0.0198895
20
0.875435
11
0.0215795
21
0.882271
0
LINE
8
BLACK
6
CONTINUOUS
10
0.0215795
20
0.882271
11
0.0215568
21
0.890918
0
LINE
8
BLACK
6
CONTINUOUS
10
0.0215568
20
0.890918
11
0.0198308
21
0.897745
0
LINE
8
BLACK
6
CONTINUOUS
10
0.0198308
20
0.897745
11
0.0183072
21
0.900773
0
LINE
8
BLACK
6
CONTINUOUS
10
0.0183072
20
0.900773
11
0.017107
21
0.901967
0
LINE
8
BLACK
6
CONTINUOUS
10
0.017107
20
0.901967
11
0.0144061
21
0.903308
0
LINE
8
BLACK
6
CONTINUOUS
10
0.0144061
20
0.903308
11
0.0120506
21
0.903302
0
LINE
8
BLACK
6
CONTINUOUS
10
0.0535931
20
0.909139
11
0.0537286
21
0.909026
0
LINE
8
BLACK
6
CONTINUOUS
10
0.0537286
20
0.909026
11
0.0539041
21
0.909006
0
LINE
8
BLACK
6
CONTINUOUS
10
0.0539041
20
0.909006
11
0.0576585
21
0.907141
0
LINE
8
BLACK
6
CONTINUOUS
10
0.0576585
20
0.907141
11
0.0583689
21
0.906617
0
LINE
8
BLACK
6
CONTINUOUS
10
0.0583689
20
0.906617
11
0.0584273
21
0.90659
0
LINE
8
BLACK
6
CONTINUOUS
10
0.0584273
20
0.90659
11
0.060307
21
0.90472
0
LINE
8
BLACK
6
CONTINUOUS
10
0.060307
20
0.90472
11
0.0608154
21
0.903998
0
LINE
8
BLACK
6
CONTINUOUS
10
0.0608154
20
0.903998
11
0.0608622
21
0.903954
0
LINE
8
BLACK
6
CONTINUOUS
10
0.0608622
20
0.903954
11
0.0627468
21
0.90021
0
LINE
8
BLACK
6
CONTINUOUS
10
0.0627468
20
0.90021
11
0.0628933
21
0.899722
0
LINE
8
BLACK
6
CONTINUOUS
10
0.0628933
20
0.899722
11
0.062972
21
0.899606
0
LINE
8
BLACK
6
CONTINUOUS
10
0.062972
20
0.899606
11
0.0648665
21
0.892112
0
LINE
8
BLACK
6
CONTINUOUS
10
0.0648665
20
0.892112
11
0.0649094
21
0.891524
0
LINE
8
BLACK
6
CONTINUOUS
10
0.0649094
20
0.891524
11
0.0649565
21
0.891396
0
LINE
8
BLACK
6
CONTINUOUS
10
0.0649565
20
0.891396
11
0.0649812
21
0.882022
0
LINE
8
BLACK
6
CONTINUOUS
10
0.0649812
20
0.882022
11
0.0648803
21
0.881441
0
LINE
8
BLACK
6
CONTINUOUS
10
0.0648803
20
0.881441
11
0.0648949
21
0.881306
0
LINE
8
BLACK
6
CONTINUOUS
10
0.0648949
20
0.881306
11
0.0630398
21
0.873802
0
LINE
8
BLACK
6
CONTINUOUS
10
0.0630398
20
0.873802
11
0.0628335
21
0.873336
0
LINE
8
BLACK
6
CONTINUOUS
10
0.0628335
20
0.873336
11
0.0628179
21
0.873197
0
LINE
8
BLACK
6
CONTINUOUS
10
0.0628179
20
0.873197
11
0.060953
21
0.869442
0
LINE
8
BLACK
6
CONTINUOUS
10
0.060953
20
0.869442
11
0.0604289
21
0.868732
0
LINE
8
BLACK
6
CONTINUOUS
10
0.0604289
20
0.868732
11
0.0604019
21
0.868674
0
LINE
8
BLACK
6
CONTINUOUS
10
0.0604019
20
0.868674
11
0.058532
21
0.866794
0
LINE
8
BLACK
6
CONTINUOUS
10
0.058532
20
0.866794
11
0.0578103
21
0.866286
0
LINE
8
BLACK
6
CONTINUOUS
10
0.0578103
20
0.866286
11
0.0577661
21
0.866239
0
LINE
8
BLACK
6
CONTINUOUS
10
0.0577661
20
0.866239
11
0.0540216
21
0.864354
0
LINE
8
BLACK
6
CONTINUOUS
10
0.0540216
20
0.864354
11
0.0530394
21
0.864059
0
LINE
8
BLACK
6
CONTINUOUS
10
0.0530394
20
0.864059
11
0.0528676
21
0.8641
0
LINE
8
BLACK
6
CONTINUOUS
10
0.0528676
20
0.8641
11
0.0527019
21
0.864039
0
LINE
8
BLACK
6
CONTINUOUS
10
0.0527019
20
0.864039
11
0.0489524
21
0.864029
0
LINE
8
BLACK
6
CONTINUOUS
10
0.0489524
20
0.864029
11
0.047942
21
0.864204
0
LINE
8
BLACK
6
CONTINUOUS
10
0.047942
20
0.864204
11
0.0478064
21
0.864317
0
LINE
8
BLACK
6
CONTINUOUS
10
0.0478064
20
0.864317
11
0.047631
21
0.864337
0
LINE
8
BLACK
6
CONTINUOUS
10
0.047631
20
0.864337
11
0.0438765
21
0.866202
0
LINE
8
BLACK
6
CONTINUOUS
10
0.0438765
20
0.866202
11
0.0431662
21
0.866726
0
LINE
8
BLACK
6
CONTINUOUS
10
0.0431662
20
0.866726
11
0.0431077
21
0.866753
0
LINE
8
BLACK
6
CONTINUOUS
10
0.0431077
20
0.866753
11
0.041228
21
0.868623
0
LINE
8
BLACK
6
CONTINUOUS
10
0.041228
20
0.868623
11
0.0407197
21
0.869345
0
LINE
8
BLACK
6
CONTINUOUS
10
0.0407197
20
0.869345
11
0.0406729
21
0.869389
0
LINE
8
BLACK
6
CONTINUOUS
10
0.0406729
20
0.869389
11
0.0387883
21
0.873134
0
LINE
8
BLACK
6
CONTINUOUS
10
0.0387883
20
0.873134
11
0.0386416
21
0.873622
0
LINE
8
BLACK
6
CONTINUOUS
10
0.0386416
20
0.873622
11
0.0385631
21
0.873737
0
LINE
8
BLACK
6
CONTINUOUS
10
0.0385631
20
0.873737
11
0.0366686
21
0.881231
0
LINE
8
BLACK
6
CONTINUOUS
10
0.0366686
20
0.881231
11
0.0366255
21
0.881819
0
LINE
8
BLACK
6
CONTINUOUS
10
0.0366255
20
0.881819
11
0.0365785
21
0.881947
0
LINE
8
BLACK
6
CONTINUOUS
10
0.0365785
20
0.881947
11
0.0365539
21
0.891321
0
LINE
8
BLACK
6
CONTINUOUS
10
0.0365539
20
0.891321
11
0.0366547
21
0.891902
0
LINE
8
BLACK
6
CONTINUOUS
10
0.0366547
20
0.891902
11
0.0366402
21
0.892037
0
LINE
8
BLACK
6
CONTINUOUS
10
0.0366402
20
0.892037
11
0.0384952
21
0.899541
0
LINE
8
BLACK
6
CONTINUOUS
10
0.0384952
20
0.899541
11
0.0387015
21
0.900007
0
LINE
8
BLACK
6
CONTINUOUS
10
0.0387015
20
0.900007
11
0.0387172
21
0.900146
0
LINE
8
BLACK
6
CONTINUOUS
10
0.0387172
20
0.900146
11
0.0405821
21
0.903901
0
LINE
8
BLACK
6
CONTINUOUS
10
0.0405821
20
0.903901
11
0.041106
21
0.904611
0
LINE
8
BLACK
6
CONTINUOUS
10
0.041106
20
0.904611
11
0.0411331
21
0.90467
0
LINE
8
BLACK
6
CONTINUOUS
10
0.0411331
20
0.90467
11
0.043003
21
0.906549
0
LINE
8
BLACK
6
CONTINUOUS
10
0.043003
20
0.906549
11
0.0437248
21
0.907058
0
LINE
8
BLACK
6
CONTINUOUS
10
0.0437248
20
0.907058
11
0.0437689
21
0.907105
0
LINE
8
BLACK
6
CONTINUOUS
10
0.0437689
20
0.907105
11
0.0475135
21
0.908989
0
LINE
8
BLACK
6
CONTINUOUS
10
0.0475135
20
0.908989
11
0.0484957
21
0.909284
0
LINE
8
BLACK
6
CONTINUOUS
10
0.0484957
20
0.909284
11
0.0486675
21
0.909244
0
LINE
8
BLACK
6
CONTINUOUS
10
0.0486675
20
0.909244
11
0.0488332
21
0.909304
0
LINE
8
BLACK
6
CONTINUOUS
10
0.0488332
20
0.909304
11
0.0525827
21
0.909314
0
LINE
8
BLACK
6
CONTINUOUS
10
0.0525827
20
0.909314
11
0.0535931
21
0.909139
0
LINE
8
BLACK
6
CONTINUOUS
10
0.0495458
20
0.903401
11
0.0468519
21
0.902045
0
LINE
8
BLACK
6
CONTINUOUS
10
0.0468519
20
0.902045
11
0.0456579
21
0.900845
0
LINE
8
BLACK
6
CONTINUOUS
10
0.0456579
20
0.900845
11
0.0441503
21
0.89781
0
LINE
8
BLACK
6
CONTINUOUS
10
0.0441503
20
0.89781
11
0.0424604
21
0.890973
0
LINE
8
BLACK
6
CONTINUOUS
10
0.0424604
20
0.890973
11
0.0424831
21
0.882326
0
LINE
8
BLACK
6
CONTINUOUS
10
0.0424831
20
0.882326
11
0.0442091
21
0.875499
0
LINE
8
BLACK
6
CONTINUOUS
10
0.0442091
20
0.875499
11
0.0457325
21
0.872472
0
LINE
8
BLACK
6
CONTINUOUS
10
0.0457325
20
0.872472
11
0.0469328
21
0.871278
0
LINE
8
BLACK
6
CONTINUOUS
10
0.0469328
20
0.871278
11
0.0496338
21
0.869936
0
LINE
8
BLACK
6
CONTINUOUS
10
0.0496338
20
0.869936
11
0.0519893
21
0.869942
0
LINE
8
BLACK
6
CONTINUOUS
10
0.0519893
20
0.869942
11
0.0546831
21
0.871298
0
LINE
8
BLACK
6
CONTINUOUS
10
0.0546831
20
0.871298
11
0.0558772
21
0.872499
0
LINE
8
BLACK
6
CONTINUOUS
10
0.0558772
20
0.872499
11
0.0573847
21
0.875534
0
LINE
8
BLACK
6
CONTINUOUS
10
0.0573847
20
0.875534
11
0.0590747
21
0.88237
0
LINE
8
BLACK
6
CONTINUOUS
10
0.0590747
20
0.88237
11
0.0590519
21
0.891017
0
LINE
8
BLACK
6
CONTINUOUS
10
0.0590519
20
0.891017
11
0.0573259
21
0.897844
0
LINE
8
BLACK
6
CONTINUOUS
10
0.0573259
20
0.897844
11
0.0558024
21
0.900871
0
LINE
8
BLACK
6
CONTINUOUS
10
0.0558024
20
0.900871
11
0.0546023
21
0.902065
0
LINE
8
BLACK
6
CONTINUOUS
10
0.0546023
20
0.902065
11
0.0519012
21
0.903407
0
LINE
8
BLACK
6
CONTINUOUS
10
0.0519012
20
0.903407
11
0.0495458
21
0.903401
0
LINE
8
BLACK
6
CONTINUOUS
10
0.0885488
20
0.909335
11
0.088716
21
0.909365
0
LINE
8
BLACK
6
CONTINUOUS
10
0.088716
20
0.909365
11
0.0894592
21
0.908938
0
LINE
8
BLACK
6
CONTINUOUS
10
0.0894592
20
0.908938
11
0.090245
21
0.908596
0
LINE
8
BLACK
6
CONTINUOUS
10
0.090245
20
0.908596
11
0.0903206
21
0.908444
0
LINE
8
BLACK
6
CONTINUOUS
10
0.0903206
20
0.908444
11
0.0904678
21
0.908359
0
LINE
8
BLACK
6
CONTINUOUS
10
0.0904678
20
0.908359
11
0.0907629
21
0.907555
0
LINE
8
BLACK
6
CONTINUOUS
10
0.0907629
20
0.907555
11
0.0911449
21
0.906788
0
LINE
8
BLACK
6
CONTINUOUS
10
0.0911449
20
0.906788
11
0.0911052
21
0.906622
0
LINE
8
BLACK
6
CONTINUOUS
10
0.0911052
20
0.906622
11
0.0911637
21
0.906463
0
LINE
8
BLACK
6
CONTINUOUS
10
0.0911637
20
0.906463
11
0.0912595
21
0.870046
0
LINE
8
BLACK
6
CONTINUOUS
10
0.0912595
20
0.870046
11
0.0995553
21
0.870068
0
LINE
8
BLACK
6
CONTINUOUS
10
0.0995553
20
0.870068
11
0.100566
21
0.869892
0
LINE
8
BLACK
6
CONTINUOUS
10
0.100566
20
0.869892
11
0.102116
21
0.868598
0
LINE
8
BLACK
6
CONTINUOUS
10
0.102116
20
0.868598
11
0.102472
21
0.86661
0
LINE
8
BLACK
6
CONTINUOUS
10
0.102472
20
0.86661
11
0.101467
21
0.864858
0
LINE
8
BLACK
6
CONTINUOUS
10
0.101467
20
0.864858
11
0.0995708
21
0.864162
0
LINE
8
BLACK
6
CONTINUOUS
10
0.0995708
20
0.864162
11
0.0770737
21
0.864103
0
LINE
8
BLACK
6
CONTINUOUS
10
0.0770737
20
0.864103
11
0.0760633
21
0.864278
0
LINE
8
BLACK
6
CONTINUOUS
10
0.0760633
20
0.864278
11
0.0745127
21
0.865573
0
LINE
8
BLACK
6
CONTINUOUS
10
0.0745127
20
0.865573
11
0.0741567
21
0.867561
0
LINE
8
BLACK
6
CONTINUOUS
10
0.0741567
20
0.867561
11
0.075162
21
0.869313
0
LINE
8
BLACK
6
CONTINUOUS
10
0.075162
20
0.869313
11
0.0770582
21
0.870008
0
LINE
8
BLACK
6
CONTINUOUS
10
0.0770582
20
0.870008
11
0.085354
21
0.87003
0
LINE
8
BLACK
6
CONTINUOUS
10
0.085354
20
0.87003
11
0.0852818
21
0.897444
0
LINE
8
BLACK
6
CONTINUOUS
10
0.0852818
20
0.897444
11
0.0828299
21
0.894979
0
LINE
8
BLACK
6
CONTINUOUS
10
0.0828299
20
0.894979
11
0.0821081
21
0.894471
0
LINE
8
BLACK
6
CONTINUOUS
10
0.0821081
20
0.894471
11
0.082064
21
0.894424
0
LINE
8
BLACK
6
CONTINUOUS
10
0.082064
20
0.894424
11
0.0783194
21
0.89254
0
LINE
8
BLACK
6
CONTINUOUS
10
0.0783194
20
0.89254
11
0.0773373
21
0.892245
0
LINE
8
BLACK
6
CONTINUOUS
10
0.0773373
20
0.892245
11
0.0753715
21
0.892709
0
LINE
8
BLACK
6
CONTINUOUS
10
0.0753715
20
0.892709
11
0.074164
21
0.894328
0
LINE
8
BLACK
6
CONTINUOUS
10
0.074164
20
0.894328
11
0.0742797
21
0.896344
0
LINE
8
BLACK
6
CONTINUOUS
10
0.0742797
20
0.896344
11
0.0756645
21
0.897815
0
LINE
8
BLACK
6
CONTINUOUS
10
0.0756645
20
0.897815
11
0.0789811
21
0.899484
0
LINE
8
BLACK
6
CONTINUOUS
10
0.0789811
20
0.899484
11
0.0821766
21
0.902696
0
LINE
8
BLACK
6
CONTINUOUS
10
0.0821766
20
0.902696
11
0.0857498
21
0.908087
0
LINE
8
BLACK
6
CONTINUOUS
10
0.0857498
20
0.908087
11
0.0864562
21
0.90883
0
LINE
8
BLACK
6
CONTINUOUS
10
0.0864562
20
0.90883
11
0.086619
21
0.908878
0
LINE
8
BLACK
6
CONTINUOUS
10
0.086619
20
0.908878
11
0.0867278
21
0.909009
0
LINE
8
BLACK
6
CONTINUOUS
10
0.0867278
20
0.909009
11
0.0875712
21
0.90916
0
LINE
8
BLACK
6
CONTINUOUS
10
0.0875712
20
0.90916
11
0.0883932
21
0.909402
0
LINE
8
BLACK
6
CONTINUOUS
10
0.0883932
20
0.909402
11
0.0885488
21
0.909335
0
LINE
8
BLACK
6
CONTINUOUS
10
0.175487
20
0.896336
11
0.175622
21
0.896223
0
LINE
8
BLACK
6
CONTINUOUS
10
0.175622
20
0.896223
11
0.175798
21
0.896203
0
LINE
8
BLACK
6
CONTINUOUS
10
0.175798
20
0.896203
11
0.179552
21
0.894338
0
LINE
8
BLACK
6
CONTINUOUS
10
0.179552
20
0.894338
11
0.180378
21
0.89373
0
LINE
8
BLACK
6
CONTINUOUS
10
0.180378
20
0.89373
11
0.180555
21
0.893324
0
LINE
8
BLACK
6
CONTINUOUS
10
0.180555
20
0.893324
11
0.180876
21
0.893021
0
LINE
8
BLACK
6
CONTINUOUS
10
0.180876
20
0.893021
11
0.182761
21
0.889277
0
LINE
8
BLACK
6
CONTINUOUS
10
0.182761
20
0.889277
11
0.183056
21
0.888295
0
LINE
8
BLACK
6
CONTINUOUS
10
0.183056
20
0.888295
11
0.183015
21
0.888123
0
LINE
8
BLACK
6
CONTINUOUS
10
0.183015
20
0.888123
11
0.183076
21
0.887957
0
LINE
8
BLACK
6
CONTINUOUS
10
0.183076
20
0.887957
11
0.18313
21
0.867335
0
LINE
8
BLACK
6
CONTINUOUS
10
0.18313
20
0.867335
11
0.182955
21
0.866324
0
LINE
8
BLACK
6
CONTINUOUS
10
0.182955
20
0.866324
11
0.181661
21
0.864774
0
LINE
8
BLACK
6
CONTINUOUS
10
0.181661
20
0.864774
11
0.179673
21
0.864418
0
LINE
8
BLACK
6
CONTINUOUS
10
0.179673
20
0.864418
11
0.177921
21
0.865423
0
LINE
8
BLACK
6
CONTINUOUS
10
0.177921
20
0.865423
11
0.177225
21
0.867319
0
LINE
8
BLACK
6
CONTINUOUS
10
0.177225
20
0.867319
11
0.177173
21
0.887245
0
LINE
8
BLACK
6
CONTINUOUS
10
0.177173
20
0.887245
11
0.176044
21
0.889487
0
LINE
8
BLACK
6
CONTINUOUS
10
0.176044
20
0.889487
11
0.173795
21
0.890604
0
LINE
8
BLACK
6
CONTINUOUS
10
0.173795
20
0.890604
11
0.169565
21
0.890593
0
LINE
8
BLACK
6
CONTINUOUS
10
0.169565
20
0.890593
11
0.167322
21
0.889464
0
LINE
8
BLACK
6
CONTINUOUS
10
0.167322
20
0.889464
11
0.166205
21
0.887216
0
LINE
8
BLACK
6
CONTINUOUS
10
0.166205
20
0.887216
11
0.166258
21
0.86729
0
LINE
8
BLACK
6
CONTINUOUS
10
0.166258
20
0.86729
11
0.166082
21
0.86628
0
LINE
8
BLACK
6
CONTINUOUS
10
0.166082
20
0.86628
11
0.164788
21
0.864729
0
LINE
8
BLACK
6
CONTINUOUS
10
0.164788
20
0.864729
11
0.1628
21
0.864373
0
LINE
8
BLACK
6
CONTINUOUS
10
0.1628
20
0.864373
11
0.161048
21
0.865379
0
LINE
8
BLACK
6
CONTINUOUS
10
0.161048
20
0.865379
11
0.160352
21
0.867275
0
LINE
8
BLACK
6
CONTINUOUS
10
0.160352
20
0.867275
11
0.1603
21
0.8872
0
LINE
8
BLACK
6
CONTINUOUS
10
0.1603
20
0.8872
11
0.159171
21
0.889443
0
LINE
8
BLACK
6
CONTINUOUS
10
0.159171
20
0.889443
11
0.156922
21
0.89056
0
LINE
8
BLACK
6
CONTINUOUS
10
0.156922
20
0.89056
11
0.152692
21
0.890549
0
LINE
8
BLACK
6
CONTINUOUS
10
0.152692
20
0.890549
11
0.149998
21
0.889193
0
LINE
8
BLACK
6
CONTINUOUS
10
0.149998
20
0.889193
11
0.149329
21
0.88852
0
LINE
8
BLACK
6
CONTINUOUS
10
0.149329
20
0.88852
11
0.149385
21
0.867246
0
LINE
8
BLACK
6
CONTINUOUS
10
0.149385
20
0.867246
11
0.149209
21
0.866236
0
LINE
8
BLACK
6
CONTINUOUS
10
0.149209
20
0.866236
11
0.147915
21
0.864685
0
LINE
8
BLACK
6
CONTINUOUS
10
0.147915
20
0.864685
11
0.145927
21
0.864329
0
LINE
8
BLACK
6
CONTINUOUS
10
0.145927
20
0.864329
11
0.144175
21
0.865334
0
LINE
8
BLACK
6
CONTINUOUS
10
0.144175
20
0.865334
11
0.143479
21
0.867231
0
LINE
8
BLACK
6
CONTINUOUS
10
0.143479
20
0.867231
11
0.14341
21
0.893477
0
LINE
8
BLACK
6
CONTINUOUS
10
0.14341
20
0.893477
11
0.143586
21
0.894487
0
LINE
8
BLACK
6
CONTINUOUS
10
0.143586
20
0.894487
11
0.14488
21
0.896038
0
LINE
8
BLACK
6
CONTINUOUS
10
0.14488
20
0.896038
11
0.146868
21
0.896394
0
LINE
8
BLACK
6
CONTINUOUS
10
0.146868
20
0.896394
11
0.14862
21
0.895389
0
LINE
8
BLACK
6
CONTINUOUS
10
0.14862
20
0.895389
11
0.148706
21
0.895154
0
LINE
8
BLACK
6
CONTINUOUS
10
0.148706
20
0.895154
11
0.15066
21
0.896137
0
LINE
8
BLACK
6
CONTINUOUS
10
0.15066
20
0.896137
11
0.151642
21
0.896432
0
LINE
8
BLACK
6
CONTINUOUS
10
0.151642
20
0.896432
11
0.151814
21
0.896392
0
LINE
8
BLACK
6
CONTINUOUS
10
0.151814
20
0.896392
11
0.15198
21
0.896452
0
LINE
8
BLACK
6
CONTINUOUS
10
0.15198
20
0.896452
11
0.157604
21
0.896467
0
LINE
8
BLACK
6
CONTINUOUS
10
0.157604
20
0.896467
11
0.158614
21
0.896292
0
LINE
8
BLACK
6
CONTINUOUS
10
0.158614
20
0.896292
11
0.15875
21
0.896179
0
LINE
8
BLACK
6
CONTINUOUS
10
0.15875
20
0.896179
11
0.158925
21
0.896159
0
LINE
8
BLACK
6
CONTINUOUS
10
0.158925
20
0.896159
11
0.16268
21
0.894294
0
LINE
8
BLACK
6
CONTINUOUS
10
0.16268
20
0.894294
11
0.163251
21
0.893873
0
LINE
8
BLACK
6
CONTINUOUS
10
0.163251
20
0.893873
11
0.163485
21
0.893975
0
LINE
8
BLACK
6
CONTINUOUS
10
0.163485
20
0.893975
11
0.163788
21
0.894297
0
LINE
8
BLACK
6
CONTINUOUS
10
0.163788
20
0.894297
11
0.167533
21
0.896182
0
LINE
8
BLACK
6
CONTINUOUS
10
0.167533
20
0.896182
11
0.168515
21
0.896477
0
LINE
8
BLACK
6
CONTINUOUS
10
0.168515
20
0.896477
11
0.168687
21
0.896436
0
LINE
8
BLACK
6
CONTINUOUS
10
0.168687
20
0.896436
11
0.168852
21
0.896497
0
LINE
8
BLACK
6
CONTINUOUS
10
0.168852
20
0.896497
11
0.174477
21
0.896512
0
LINE
8
BLACK
6
CONTINUOUS
10
0.174477
20
0.896512
11
0.175487
21
0.896336
0
LINE
8
BLACK
6
CONTINUOUS
10
0.22798
20
0.896474
11
0.228116
21
0.896361
0
LINE
8
BLACK
6
CONTINUOUS
10
0.228116
20
0.896361
11
0.228291
21
0.896341
0
LINE
8
BLACK
6
CONTINUOUS
10
0.228291
20
0.896341
11
0.232046
21
0.894477
0
LINE
8
BLACK
6
CONTINUOUS
10
0.232046
20
0.894477
11
0.232871
21
0.893868
0
LINE
8
BLACK
6
CONTINUOUS
10
0.232871
20
0.893868
11
0.233048
21
0.893463
0
LINE
8
BLACK
6
CONTINUOUS
10
0.233048
20
0.893463
11
0.23337
21
0.89316
0
LINE
8
BLACK
6
CONTINUOUS
10
0.23337
20
0.89316
11
0.235254
21
0.889415
0
LINE
8
BLACK
6
CONTINUOUS
10
0.235254
20
0.889415
11
0.235549
21
0.888433
0
LINE
8
BLACK
6
CONTINUOUS
10
0.235549
20
0.888433
11
0.235509
21
0.888261
0
LINE
8
BLACK
6
CONTINUOUS
10
0.235509
20
0.888261
11
0.235569
21
0.888095
0
LINE
8
BLACK
6
CONTINUOUS
10
0.235569
20
0.888095
11
0.235624
21
0.867473
0
LINE
8
BLACK
6
CONTINUOUS
10
0.235624
20
0.867473
11
0.235448
21
0.866463
0
LINE
8
BLACK
6
CONTINUOUS
10
0.235448
20
0.866463
11
0.234154
21
0.864912
0
LINE
8
BLACK
6
CONTINUOUS
10
0.234154
20
0.864912
11
0.232166
21
0.864556
0
LINE
8
BLACK
6
CONTINUOUS
10
0.232166
20
0.864556
11
0.230414
21
0.865561
0
LINE
8
BLACK
6
CONTINUOUS
10
0.230414
20
0.865561
11
0.229718
21
0.867457
0
LINE
8
BLACK
6
CONTINUOUS
10
0.229718
20
0.867457
11
0.229666
21
0.887383
0
LINE
8
BLACK
6
CONTINUOUS
10
0.229666
20
0.887383
11
0.228537
21
0.889625
0
LINE
8
BLACK
6
CONTINUOUS
10
0.228537
20
0.889625
11
0.226288
21
0.890742
0
LINE
8
BLACK
6
CONTINUOUS
10
0.226288
20
0.890742
11
0.222058
21
0.890731
0
LINE
8
BLACK
6
CONTINUOUS
10
0.222058
20
0.890731
11
0.219815
21
0.889603
0
LINE
8
BLACK
6
CONTINUOUS
10
0.219815
20
0.889603
11
0.218698
21
0.887354
0
LINE
8
BLACK
6
CONTINUOUS
10
0.218698
20
0.887354
11
0.218751
21
0.867429
0
LINE
8
BLACK
6
CONTINUOUS
10
0.218751
20
0.867429
11
0.218575
21
0.866418
0
LINE
8
BLACK
6
CONTINUOUS
10
0.218575
20
0.866418
11
0.217281
21
0.864868
0
LINE
8
BLACK
6
CONTINUOUS
10
0.217281
20
0.864868
11
0.215293
21
0.864512
0
LINE
8
BLACK
6
CONTINUOUS
10
0.215293
20
0.864512
11
0.213541
21
0.865517
0
LINE
8
BLACK
6
CONTINUOUS
10
0.213541
20
0.865517
11
0.212845
21
0.867413
0
LINE
8
BLACK
6
CONTINUOUS
10
0.212845
20
0.867413
11
0.212793
21
0.887338
0
LINE
8
BLACK
6
CONTINUOUS
10
0.212793
20
0.887338
11
0.211664
21
0.889581
0
LINE
8
BLACK
6
CONTINUOUS
10
0.211664
20
0.889581
11
0.209416
21
0.890698
0
LINE
8
BLACK
6
CONTINUOUS
10
0.209416
20
0.890698
11
0.205185
21
0.890687
0
LINE
8
BLACK
6
CONTINUOUS
10
0.205185
20
0.890687
11
0.202491
21
0.889331
0
LINE
8
BLACK
6
CONTINUOUS
10
0.202491
20
0.889331
11
0.201822
21
0.888658
0
LINE
8
BLACK
6
CONTINUOUS
10
0.201822
20
0.888658
11
0.201878
21
0.867384
0
LINE
8
BLACK
6
CONTINUOUS
10
0.201878
20
0.867384
11
0.201703
21
0.866374
0
LINE
8
BLACK
6
CONTINUOUS
10
0.201703
20
0.866374
11
0.200408
21
0.864823
0
LINE
8
BLACK
6
CONTINUOUS
10
0.200408
20
0.864823
11
0.19842
21
0.864467
0
LINE
8
BLACK
6
CONTINUOUS
10
0.19842
20
0.864467
11
0.196668
21
0.865472
0
LINE
8
BLACK
6
CONTINUOUS
10
0.196668
20
0.865472
11
0.195973
21
0.867369
0
LINE
8
BLACK
6
CONTINUOUS
10
0.195973
20
0.867369
11
0.195903
21
0.893615
0
LINE
8
BLACK
6
CONTINUOUS
10
0.195903
20
0.893615
11
0.196079
21
0.894626
0
LINE
8
BLACK
6
CONTINUOUS
10
0.196079
20
0.894626
11
0.197373
21
0.896176
0
LINE
8
BLACK
6
CONTINUOUS
10
0.197373
20
0.896176
11
0.199361
21
0.896532
0
LINE
8
BLACK
6
CONTINUOUS
10
0.199361
20
0.896532
11
0.201113
21
0.895527
0
LINE
8
BLACK
6
CONTINUOUS
10
0.201113
20
0.895527
11
0.201199
21
0.895292
0
LINE
8
BLACK
6
CONTINUOUS
10
0.201199
20
0.895292
11
0.203153
21
0.896275
0
LINE
8
BLACK
6
CONTINUOUS
10
0.203153
20
0.896275
11
0.204135
21
0.89657
0
LINE
8
BLACK
6
CONTINUOUS
10
0.204135
20
0.89657
11
0.204307
21
0.89653
0
LINE
8
BLACK
6
CONTINUOUS
10
0.204307
20
0.89653
11
0.204473
21
0.896591
0
LINE
8
BLACK
6
CONTINUOUS
10
0.204473
20
0.896591
11
0.210097
21
0.896605
0
LINE
8
BLACK
6
CONTINUOUS
10
0.210097
20
0.896605
11
0.211107
21
0.89643
0
LINE
8
BLACK
6
CONTINUOUS
10
0.211107
20
0.89643
11
0.211243
21
0.896317
0
LINE
8
BLACK
6
CONTINUOUS
10
0.211243
20
0.896317
11
0.211418
21
0.896297
0
LINE
8
BLACK
6
CONTINUOUS
10
0.211418
20
0.896297
11
0.215173
21
0.894432
0
LINE
8
BLACK
6
CONTINUOUS
10
0.215173
20
0.894432
11
0.215744
21
0.894011
0
LINE
8
BLACK
6
CONTINUOUS
10
0.215744
20
0.894011
11
0.215978
21
0.894113
0
LINE
8
BLACK
6
CONTINUOUS
10
0.215978
20
0.894113
11
0.216281
21
0.894435
0
LINE
8
BLACK
6
CONTINUOUS
10
0.216281
20
0.894435
11
0.220026
21
0.89632
0
LINE
8
BLACK
6
CONTINUOUS
10
0.220026
20
0.89632
11
0.221008
21
0.896615
0
LINE
8
BLACK
6
CONTINUOUS
10
0.221008
20
0.896615
11
0.22118
21
0.896574
0
LINE
8
BLACK
6
CONTINUOUS
10
0.22118
20
0.896574
11
0.221346
21
0.896635
0
LINE
8
BLACK
6
CONTINUOUS
10
0.221346
20
0.896635
11
0.22697
21
0.89665
0
LINE
8
BLACK
6
CONTINUOUS
10
0.22697
20
0.89665
11
0.22798
21
0.896474
  0
ENDSEC
  0
EOF
